<svg width="24" height="25" viewBox="0 0 24 25" fill="none" xmlns="http://www.w3.org/2000/svg">
<path d="M4.64662 5.30078H20.5466C22.0466 5.30078 22.8026 6.00878 22.8026 7.44878V17.5528C22.8026 18.9808 22.0466 19.7008 20.5466 19.7008H4.64662C3.14662 19.7008 2.39062 18.9808 2.39062 17.5528V7.44878C2.39062 6.00878 3.14662 5.30078 4.64662 5.30078ZM12.5906 15.6208L20.6786 8.98478C20.9666 8.74478 21.1946 8.19278 20.8346 7.70078C20.4866 7.20878 19.8506 7.19678 19.4306 7.49678L12.5906 12.1288L5.76263 7.49678C5.34263 7.19678 4.70663 7.20878 4.35863 7.70078C3.99863 8.19278 4.22663 8.74478 4.51463 8.98478L12.5906 15.6208Z" fill="#0E0F1D"/>
</svg>
