<svg width="20" height="20" viewBox="0 0 20 20" fill="none" xmlns="http://www.w3.org/2000/svg">
<path d="M4.375 4.71084C4.375 3.99751 5.13917 3.54584 5.76417 3.88917L15.3808 9.17917C15.5278 9.2601 15.6504 9.379 15.7358 9.52345C15.8211 9.66791 15.8662 9.83263 15.8662 10.0004C15.8662 10.1682 15.8211 10.3329 15.7358 10.4774C15.6504 10.6218 15.5278 10.7407 15.3808 10.8217L5.76417 16.1108C5.62147 16.1893 5.46079 16.2292 5.29797 16.2267C5.13514 16.2242 4.97578 16.1793 4.83558 16.0964C4.69538 16.0136 4.57918 15.8957 4.49842 15.7543C4.41766 15.6129 4.37512 15.4529 4.375 15.29V4.71084Z" stroke="#3A4980" stroke-width="1.5" stroke-linecap="round" stroke-linejoin="round"/>
</svg>
