<svg width="24" height="25" viewBox="0 0 24 25" fill="none" xmlns="http://www.w3.org/2000/svg">
<g clip-path="url(#clip0_17_5830)">
<path d="M11.1359 22.025C9.23281 19.6426 5 13.8684 5 10.625C5 6.68992 8.13396 3.5 12 3.5C15.8646 3.5 19 6.68992 19 10.625C19 13.8684 14.7344 19.6426 12.8641 22.025C12.4156 22.5928 11.5844 22.5928 11.1359 22.025V22.025ZM12 13C13.287 13 14.3333 11.935 14.3333 10.625C14.3333 9.31504 13.287 8.25 12 8.25C10.713 8.25 9.66667 9.31504 9.66667 10.625C9.66667 11.935 10.713 13 12 13Z" fill="#0E0F1D"/>
</g>
<defs>
<clipPath id="clip0_17_5830">
<rect width="14" height="19" fill="white" transform="translate(5 3.5)"/>
</clipPath>
</defs>
</svg>
