<svg width="20" height="20" viewBox="0 0 20 20" fill="none" xmlns="http://www.w3.org/2000/svg">
<path d="M6.0139 9.08916C5.81212 8.72608 5.49549 8.44029 5.11371 8.27664C4.73193 8.11299 4.30662 8.08075 3.90453 8.18497C3.50245 8.2892 3.14635 8.52399 2.89214 8.85249C2.63793 9.181 2.5 9.58462 2.5 9.99999C2.5 10.4154 2.63793 10.819 2.89214 11.1475C3.14635 11.476 3.50245 11.7108 3.90453 11.815C4.30662 11.9192 4.73193 11.887 5.11371 11.7233C5.49549 11.5597 5.81212 11.2739 6.0139 10.9108M6.0139 9.08916C6.1639 9.35916 6.24974 9.66916 6.24974 9.99999C6.24974 10.3308 6.1639 10.6417 6.0139 10.9108M6.0139 9.08916L13.9856 4.66082M6.0139 10.9108L13.9856 15.3392M13.9856 4.66082C14.1025 4.88094 14.262 5.07555 14.455 5.23327C14.648 5.39098 14.8704 5.50865 15.1094 5.57939C15.3484 5.65012 15.5991 5.67251 15.8468 5.64524C16.0945 5.61796 16.3343 5.54158 16.5522 5.42054C16.77 5.29951 16.9616 5.13626 17.1156 4.94034C17.2696 4.74441 17.3831 4.51975 17.4493 4.27948C17.5154 4.03921 17.5331 3.78815 17.5011 3.54099C17.4691 3.29382 17.3882 3.05552 17.2631 2.83999C17.0165 2.41528 16.6131 2.10427 16.1396 1.97384C15.6661 1.8434 15.1603 1.90394 14.731 2.14245C14.3017 2.38096 13.9831 2.7784 13.8437 3.24932C13.7043 3.72024 13.7552 4.22706 13.9856 4.66082ZM13.9856 15.3392C13.866 15.5545 13.7899 15.7912 13.7618 16.0359C13.7337 16.2806 13.7541 16.5285 13.8217 16.7653C13.8894 17.0021 14.0031 17.2233 14.1562 17.4162C14.3094 17.6091 14.499 17.77 14.7143 17.8896C14.9296 18.0092 15.1664 18.0852 15.4111 18.1133C15.6558 18.1414 15.9036 18.1211 16.1405 18.0534C16.3773 17.9857 16.5985 17.8721 16.7914 17.7189C16.9843 17.5658 17.1451 17.3761 17.2647 17.1608C17.5063 16.726 17.5652 16.213 17.4286 15.7347C17.2919 15.2564 16.9708 14.852 16.536 14.6104C16.1011 14.3688 15.5881 14.3099 15.1099 14.4466C14.6316 14.5832 14.2271 14.9043 13.9856 15.3392Z" stroke="#3A4980" stroke-width="1.5" stroke-linecap="round" stroke-linejoin="round"/>
</svg>
