<svg width="24" height="25" viewBox="0 0 24 25" fill="none" xmlns="http://www.w3.org/2000/svg">
<g clip-path="url(#clip0_17_5824)">
<path d="M3.24375 5.89531L5.73984 3.40156C5.91592 3.22471 6.1252 3.08439 6.35567 2.98867C6.58614 2.89294 6.83325 2.84369 7.08281 2.84375C7.59141 2.84375 8.06953 3.04297 8.42812 3.40156L11.1141 6.0875C11.2909 6.26358 11.4312 6.47286 11.527 6.70333C11.6227 6.9338 11.6719 7.18091 11.6719 7.43047C11.6719 7.93906 11.4727 8.41719 11.1141 8.77578L9.15 10.7398C9.60974 11.7532 10.2489 12.675 11.0367 13.4609C11.8225 14.2506 12.7443 14.8922 13.7578 15.3547L15.7219 13.3906C15.898 13.2138 16.1072 13.0735 16.3377 12.9777C16.5682 12.882 16.8153 12.8328 17.0648 12.8328C17.5734 12.8328 18.0516 13.032 18.4102 13.3906L21.0984 16.0742C21.2755 16.2506 21.4159 16.4603 21.5117 16.6912C21.6074 16.9221 21.6565 17.1696 21.6562 17.4195C21.6562 17.9281 21.457 18.4062 21.0984 18.7648L18.607 21.2562C18.0352 21.8305 17.2453 22.1562 16.4344 22.1562C16.2633 22.1562 16.0992 22.1422 15.9375 22.1141C12.7781 21.5938 9.64453 19.9133 7.11562 17.3867C4.58906 14.8625 2.91094 11.7312 2.38359 8.5625C2.22422 7.59453 2.54531 6.59844 3.24375 5.89531V5.89531Z" fill="#0E0F1D"/>
</g>
<defs>
<clipPath id="clip0_17_5824">
<rect width="24" height="24" fill="white" transform="matrix(-1 0 0 1 24 0.5)"/>
</clipPath>
</defs>
</svg>
