<svg width="142" height="25" viewBox="0 0 142 25" fill="none" xmlns="http://www.w3.org/2000/svg">
<g clip-path="url(#clip0_17_5842)">
<path d="M130.006 8.45732C127.735 8.45732 125.903 10.2608 125.903 12.4968C125.903 14.7327 127.735 16.5362 130.006 16.5362C132.278 16.5362 134.11 14.7327 134.11 12.4968C134.11 10.2608 132.278 8.45732 130.006 8.45732ZM130.006 15.1229C128.538 15.1229 127.338 13.9452 127.338 12.4968C127.338 11.0483 128.535 9.8706 130.006 9.8706C131.478 9.8706 132.674 11.0483 132.674 12.4968C132.674 13.9452 131.474 15.1229 130.006 15.1229V15.1229ZM135.235 8.29209C135.235 8.81592 134.806 9.23428 134.278 9.23428C133.746 9.23428 133.321 8.8124 133.321 8.29209C133.321 7.77178 133.749 7.3499 134.278 7.3499C134.806 7.3499 135.235 7.77178 135.235 8.29209ZM137.953 9.24834C137.892 7.98623 137.599 6.86826 136.66 5.94717C135.724 5.02607 134.588 4.73779 133.306 4.67451C131.985 4.60068 128.024 4.60068 126.703 4.67451C125.424 4.73428 124.288 5.02256 123.349 5.94365C122.41 6.86474 122.121 7.98271 122.056 9.24482C121.981 10.5456 121.981 14.4444 122.056 15.7452C122.117 17.0073 122.41 18.1253 123.349 19.0464C124.288 19.9675 125.421 20.2558 126.703 20.319C128.024 20.3929 131.985 20.3929 133.306 20.319C134.588 20.2593 135.724 19.971 136.66 19.0464C137.596 18.1253 137.888 17.0073 137.953 15.7452C138.028 14.4444 138.028 10.5491 137.953 9.24834V9.24834ZM136.246 17.1409C135.967 17.83 135.428 18.3608 134.724 18.6386C133.671 19.0499 131.171 18.955 130.006 18.955C128.842 18.955 126.338 19.0464 125.288 18.6386C124.588 18.3643 124.049 17.8335 123.767 17.1409C123.349 16.1038 123.446 13.6429 123.446 12.4968C123.446 11.3507 123.353 8.88623 123.767 7.85263C124.046 7.16357 124.585 6.63271 125.288 6.35498C126.342 5.94365 128.842 6.03857 130.006 6.03857C131.171 6.03857 133.674 5.94717 134.724 6.35498C135.424 6.6292 135.963 7.16006 136.246 7.85263C136.663 8.88974 136.567 11.3507 136.567 12.4968C136.567 13.6429 136.663 16.1073 136.246 17.1409Z" fill="#0E0F1D"/>
</g>
<g clip-path="url(#clip1_17_5842)">
<path d="M86.6327 19.4999V9.37941H83.2024V19.4999H86.6327ZM84.918 7.9968C86.1142 7.9968 86.8588 7.21966 86.8588 6.2485C86.8365 5.25544 86.1142 4.49988 84.9407 4.49988C83.7673 4.49988 83 5.25546 83 6.2485C83 7.21971 83.7444 7.9968 84.8956 7.9968H84.9179H84.918ZM88.5313 19.4999H91.9617V13.8481C91.9617 13.5456 91.9839 13.2435 92.0745 13.0273C92.3225 12.4229 92.8869 11.797 93.8345 11.797C95.0758 11.797 95.5724 12.7251 95.5724 14.0856V19.4998H99.0025V13.6968C99.0025 10.5882 97.3101 9.14181 95.0532 9.14181C93.2027 9.14181 92.3902 10.1561 91.9388 10.847H91.9617V9.3792H88.5314C88.5764 10.3288 88.5314 19.4997 88.5314 19.4997L88.5313 19.4999Z" fill="#0E0F1D"/>
</g>
<g clip-path="url(#clip2_17_5842)">
<path d="M60 7.20441C59.326 7.48888 58.611 7.67561 57.879 7.75838C58.6415 7.32297 59.227 6.63349 59.5027 5.81198C58.7778 6.22179 57.9847 6.51052 57.1577 6.66571C56.484 5.98199 55.5243 5.55469 54.4621 5.55469C52.4226 5.55469 50.7691 7.12992 50.7691 9.07277C50.7691 9.34855 50.8018 9.61703 50.8647 9.87459C47.7956 9.72782 45.0745 8.32722 43.253 6.19869C42.9352 6.71829 42.7531 7.32271 42.7531 7.96738C42.7531 9.18799 43.4051 10.2648 44.396 10.8957C43.8095 10.8782 43.236 10.7273 42.7232 10.4556C42.723 10.4704 42.723 10.4851 42.723 10.4999C42.723 12.2045 43.996 13.6265 45.6853 13.9497C45.1415 14.0906 44.5711 14.1112 44.0176 14.0099C44.4875 15.4077 45.8514 16.4248 47.4673 16.4532C46.2034 17.3968 44.6111 17.9593 42.8809 17.9593C42.5828 17.9593 42.2889 17.9426 42 17.9101C43.6343 18.9083 45.5754 19.4908 47.6609 19.4908C54.4535 19.4908 58.1679 14.1299 58.1679 9.48078C58.1679 9.32819 58.1644 9.17647 58.1573 9.02561C58.8802 8.5277 59.5042 7.91098 60 7.20441" fill="#0E0F1D"/>
</g>
<g clip-path="url(#clip3_17_5842)">
<path d="M9.78694 19.5V12.9308H8V10.5656H9.78694V8.54535C9.78694 6.95785 10.8425 5.5 13.2747 5.5C14.2595 5.5 14.9877 5.59177 14.9877 5.59177L14.9303 7.80049C14.9303 7.80049 14.1876 7.79347 13.3772 7.79347C12.5002 7.79347 12.3596 8.18638 12.3596 8.83851V10.5656H15L14.8851 12.9308H12.3596V19.5H9.78694" fill="#0E0F1D"/>
</g>
<defs>
<clipPath id="clip0_17_5842">
<rect width="16" height="18" fill="white" transform="translate(122 3.5)"/>
</clipPath>
<clipPath id="clip1_17_5842">
<rect width="16" height="15" fill="white" transform="translate(83 4.5)"/>
</clipPath>
<clipPath id="clip2_17_5842">
<rect width="18" height="14" fill="white" transform="translate(42 5.5)"/>
</clipPath>
<clipPath id="clip3_17_5842">
<rect width="7" height="14" fill="white" transform="translate(8 5.5)"/>
</clipPath>
</defs>
</svg>
