<svg width="136" height="24" viewBox="0 0 136 24" fill="none" xmlns="http://www.w3.org/2000/svg">
<path d="M117.158 18C117.158 16.9391 117.553 15.9217 118.256 15.1716C118.959 14.4214 119.912 14 120.907 14H128.403C129.397 14 130.351 14.4214 131.054 15.1716C131.757 15.9217 132.152 16.9391 132.152 18C132.152 18.5304 131.954 19.0391 131.603 19.4142C131.251 19.7893 130.775 20 130.277 20H119.032C118.535 20 118.059 19.7893 117.707 19.4142C117.356 19.0391 117.158 18.5304 117.158 18Z" stroke="#7C7C7C" stroke-width="1.5" stroke-linejoin="round"/>
<path d="M124.655 10C126.208 10 127.467 8.65685 127.467 7C127.467 5.34315 126.208 4 124.655 4C123.103 4 121.844 5.34315 121.844 7C121.844 8.65685 123.103 10 124.655 10Z" stroke="#7C7C7C" stroke-width="1.5"/>
<path d="M56.8087 21L50.905 14.7C50.4364 15.1 49.8976 15.4167 49.2885 15.65C48.6794 15.8833 48.0312 16 47.344 16C45.6416 16 44.201 15.3707 43.0222 14.112C41.8433 12.8533 41.2536 11.316 41.2529 9.5C41.2529 7.68333 41.8427 6.146 43.0222 4.888C44.2016 3.63 45.6423 3.00067 47.344 3C49.0464 3 50.487 3.62933 51.6659 4.888C52.8448 6.14667 53.4345 7.684 53.4351 9.5C53.4351 10.2333 53.3258 10.925 53.1071 11.575C52.8885 12.225 52.5917 12.8 52.2169 13.3L58.1206 19.6L56.8087 21ZM47.344 14C48.5154 14 49.5112 13.5623 50.3315 12.687C51.1517 11.8117 51.5616 10.7493 51.5609 9.5C51.5609 8.25 51.1508 7.18733 50.3305 6.312C49.5103 5.43667 48.5148 4.99933 47.344 5C46.1727 5 45.1768 5.43767 44.3566 6.313C43.5363 7.18833 43.1265 8.25067 43.1271 9.5C43.1271 10.75 43.5372 11.8127 44.3575 12.688C45.1778 13.5633 46.1733 14.0007 47.344 14Z" fill="#7C7C7C"/>
<path d="M18.8248 13.1418L13.5237 18.7998C13.1722 19.1747 12.6956 19.3854 12.1986 19.3854C11.7016 19.3854 11.225 19.1747 10.8736 18.7998L5.57243 13.1428C5.13422 12.6792 4.78612 12.1279 4.54812 11.5204C4.31012 10.9129 4.18691 10.2612 4.18556 9.60275C4.18421 8.9443 4.30474 8.29204 4.54025 7.68344C4.77575 7.07483 5.12158 6.52186 5.55789 6.05626C5.99419 5.59067 6.51238 5.22162 7.0827 4.97031C7.65302 4.71899 8.26424 4.59037 8.88127 4.59181C9.4983 4.59325 10.109 4.72473 10.6783 4.97871C11.2475 5.23268 11.7642 5.60415 12.1986 6.07178C13.0809 5.15365 14.2667 4.64345 15.4991 4.65169C16.7314 4.65993 17.9111 5.18595 18.7826 6.1158C19.6541 7.04566 20.1472 8.30447 20.1551 9.61955C20.163 10.9346 19.685 12.2001 18.8248 13.1418Z" stroke="#7C7C7C" stroke-width="2" stroke-linecap="round" stroke-linejoin="round"/>
<path d="M94.9019 6.1875H91.2121V6C91.2121 4.85625 90.7863 3.75935 90.0285 2.9506C89.2706 2.14185 88.2427 1.6875 87.1709 1.6875C86.0991 1.6875 85.0712 2.14185 84.3133 2.9506C83.5555 3.75935 83.1297 4.85625 83.1297 6V6.1875H79.4399C79.1137 6.1875 78.8009 6.32578 78.5702 6.57192C78.3395 6.81806 78.21 7.1519 78.21 7.5V18.75C78.21 19.0981 78.3395 19.4319 78.5702 19.6781C78.8009 19.9242 79.1137 20.0625 79.4399 20.0625H94.9019C95.2281 20.0625 95.541 19.9242 95.7716 19.6781C96.0023 19.4319 96.1319 19.0981 96.1319 18.75V7.5C96.1319 7.1519 96.0023 6.81806 95.7716 6.57192C95.541 6.32578 95.2281 6.1875 94.9019 6.1875ZM84.1839 6C84.1839 5.15462 84.4986 4.34387 85.0588 3.7461C85.619 3.14832 86.3787 2.8125 87.1709 2.8125C87.9631 2.8125 88.7229 3.14832 89.283 3.7461C89.8432 4.34387 90.1579 5.15462 90.1579 6V6.1875H84.1839V6ZM95.0776 18.75C95.0776 18.7997 95.0591 18.8474 95.0262 18.8826C94.9932 18.9177 94.9485 18.9375 94.9019 18.9375H79.4399C79.3933 18.9375 79.3486 18.9177 79.3157 18.8826C79.2827 18.8474 79.2642 18.7997 79.2642 18.75V7.5C79.2642 7.45027 79.2827 7.40258 79.3157 7.36742C79.3486 7.33225 79.3933 7.3125 79.4399 7.3125H83.1297V9C83.1297 9.14918 83.1852 9.29226 83.2841 9.39775C83.3829 9.50324 83.517 9.5625 83.6568 9.5625C83.7966 9.5625 83.9307 9.50324 84.0295 9.39775C84.1284 9.29226 84.1839 9.14918 84.1839 9V7.3125H90.1579V9C90.1579 9.14918 90.2134 9.29226 90.3123 9.39775C90.4111 9.50324 90.5452 9.5625 90.685 9.5625C90.8248 9.5625 90.9589 9.50324 91.0577 9.39775C91.1566 9.29226 91.2121 9.14918 91.2121 9V7.3125H94.9019C94.9485 7.3125 94.9932 7.33225 95.0262 7.36742C95.0591 7.40258 95.0776 7.45027 95.0776 7.5V18.75Z" fill="#7C7C7C" stroke="#7C7C7C" stroke-width="0.5"/>
</svg>
