<svg width="78" height="11" viewBox="0 0 78 11" fill="none" xmlns="http://www.w3.org/2000/svg">
<path d="M4.46355 0.847861L3.24299 3.43348L0.512158 3.84944C0.0224388 3.92365 -0.173823 4.55443 0.181317 4.91572L2.15701 6.92719L1.68973 9.76863C1.60561 10.2822 2.12337 10.667 2.55701 10.4268L5 9.08512L7.44299 10.4268C7.87663 10.665 8.39439 10.2822 8.31028 9.76863L7.84299 6.92719L9.81868 4.91572C10.1738 4.55443 9.97756 3.92365 9.48784 3.84944L6.75701 3.43348L5.53645 0.847861C5.31776 0.38698 4.68411 0.381122 4.46355 0.847861Z" fill="#E59819"/>
<path d="M21.4636 0.847861L20.243 3.43348L17.5122 3.84944C17.0224 3.92365 16.8262 4.55443 17.1813 4.91572L19.157 6.92719L18.6897 9.76863C18.6056 10.2822 19.1234 10.667 19.557 10.4268L22 9.08512L24.443 10.4268C24.8766 10.665 25.3944 10.2822 25.3103 9.76863L24.843 6.92719L26.8187 4.91572C27.1738 4.55443 26.9776 3.92365 26.4878 3.84944L23.757 3.43348L22.5364 0.847861C22.3178 0.38698 21.6841 0.381122 21.4636 0.847861Z" fill="#E59819"/>
<path d="M38.4636 0.847861L37.243 3.43348L34.5122 3.84944C34.0224 3.92365 33.8262 4.55443 34.1813 4.91572L36.157 6.92719L35.6897 9.76863C35.6056 10.2822 36.1234 10.667 36.557 10.4268L39 9.08512L41.443 10.4268C41.8766 10.665 42.3944 10.2822 42.3103 9.76863L41.843 6.92719L43.8187 4.91572C44.1738 4.55443 43.9776 3.92365 43.4878 3.84944L40.757 3.43348L39.5364 0.847861C39.3178 0.38698 38.6841 0.381122 38.4636 0.847861Z" fill="#E59819"/>
<path d="M55.4636 0.847861L54.243 3.43348L51.5122 3.84944C51.0224 3.92365 50.8262 4.55443 51.1813 4.91572L53.157 6.92719L52.6897 9.76863C52.6056 10.2822 53.1234 10.667 53.557 10.4268L56 9.08512L58.443 10.4268C58.8766 10.665 59.3944 10.2822 59.3103 9.76863L58.843 6.92719L60.8187 4.91572C61.1738 4.55443 60.9776 3.92365 60.4878 3.84944L57.757 3.43348L56.5364 0.847861C56.3178 0.38698 55.6841 0.381122 55.4636 0.847861Z" fill="#E59819"/>
<path d="M72.4636 0.847861L71.243 3.43348L68.5122 3.84944C68.0224 3.92365 67.8262 4.55443 68.1813 4.91572L70.157 6.92719L69.6897 9.76863C69.6056 10.2822 70.1234 10.667 70.557 10.4268L73 9.08512L75.443 10.4268C75.8766 10.665 76.3944 10.2822 76.3103 9.76863L75.843 6.92719L77.8187 4.91572C78.1738 4.55443 77.9776 3.92365 77.4878 3.84944L74.757 3.43348L73.5364 0.847861C73.3178 0.38698 72.6841 0.381122 72.4636 0.847861Z" fill="#E59819"/>
</svg>
