<svg width="16" height="17" viewBox="0 0 16 17" fill="none" xmlns="http://www.w3.org/2000/svg">
<path d="M13.8931 3.57333C13.5526 3.23267 13.1483 2.96243 12.7033 2.77805C12.2584 2.59368 11.7814 2.49878 11.2998 2.49878C10.8181 2.49878 10.3412 2.59368 9.89618 2.77805C9.45121 2.96243 9.04693 3.23267 8.70642 3.57333L7.99975 4.28L7.29309 3.57333C6.60529 2.88553 5.67244 2.49914 4.69975 2.49914C3.72707 2.49914 2.79422 2.88553 2.10642 3.57333C1.41863 4.26112 1.03223 5.19397 1.03223 6.16666C1.03223 7.13935 1.41863 8.0722 2.10642 8.76L2.81309 9.46666L7.99975 14.6533L13.1864 9.46666L13.8931 8.76C14.2338 8.41949 14.504 8.01521 14.6884 7.57023C14.8727 7.12526 14.9676 6.64832 14.9676 6.16666C14.9676 5.685 14.8727 5.20807 14.6884 4.76309C14.504 4.31812 14.2338 3.91383 13.8931 3.57333V3.57333Z" stroke="#667085" stroke-width="1.4" stroke-linecap="round" stroke-linejoin="round"/>
</svg>
