<svg width="17" height="18" viewBox="0 0 17 18" fill="none" xmlns="http://www.w3.org/2000/svg">
<g clip-path="url(#clip0_17_6038)">
<path d="M8.10759 1.86852C8.25277 1.51947 8.74723 1.51947 8.89241 1.86852L10.6486 6.09088C10.7098 6.23803 10.8482 6.33857 11.007 6.3513L15.5654 6.71675C15.9423 6.74696 16.0951 7.21722 15.8079 7.46316L12.3349 10.4382C12.2139 10.5418 12.161 10.7045 12.198 10.8595L13.2591 15.3078C13.3468 15.6755 12.9468 15.9661 12.6241 15.7691L8.72153 13.3854C8.58553 13.3023 8.41447 13.3023 8.27847 13.3854L4.37585 15.7691C4.05323 15.9661 3.6532 15.6755 3.74092 15.3078L4.80198 10.8595C4.83896 10.7045 4.7861 10.5418 4.66506 10.4382L1.19205 7.46316C0.904947 7.21722 1.05775 6.74696 1.43457 6.71675L5.99296 6.3513C6.15182 6.33857 6.29021 6.23803 6.35141 6.09088L8.10759 1.86852Z" fill="#F2F4F7"/>
<g clip-path="url(#clip1_17_6038)">
<path d="M8.10759 1.86852C8.25277 1.51947 8.74723 1.51947 8.89241 1.86852L10.6486 6.09088C10.7098 6.23803 10.8482 6.33857 11.007 6.3513L15.5654 6.71675C15.9423 6.74696 16.0951 7.21722 15.8079 7.46316L12.3349 10.4382C12.2139 10.5418 12.161 10.7045 12.198 10.8595L13.2591 15.3078C13.3468 15.6755 12.9468 15.9661 12.6241 15.7691L8.72153 13.3854C8.58553 13.3023 8.41447 13.3023 8.27847 13.3854L4.37585 15.7691C4.05323 15.9661 3.6532 15.6755 3.74092 15.3078L4.80198 10.8595C4.83896 10.7045 4.7861 10.5418 4.66506 10.4382L1.19205 7.46316C0.904947 7.21722 1.05775 6.74696 1.43457 6.71675L5.99296 6.3513C6.15182 6.33857 6.29021 6.23803 6.35141 6.09088L8.10759 1.86852Z" fill="#FDB022"/>
</g>
</g>
<defs>
<clipPath id="clip0_17_6038">
<rect width="17" height="17" fill="white" transform="translate(0 0.5)"/>
</clipPath>
<clipPath id="clip1_17_6038">
<rect width="17" height="17" fill="white" transform="translate(0 0.5)"/>
</clipPath>
</defs>
</svg>
