<svg width="1551" height="177" viewBox="0 0 1551 177" fill="none" xmlns="http://www.w3.org/2000/svg">
<path d="M1506.87 39.6519C1507.11 41.7607 1506.16 44.6661 1505.48 46.8921C1483.04 49.3523 1474.43 29.5297 1454.5 26.6711C1441.7 24.8435 1409.47 25.6636 1396.73 31.662C1373.32 42.6745 1368.33 78.6879 1334.66 66.9724C1326.02 63.9498 1324.92 57.1783 1314.43 55.8193C1305.76 54.6946 1293.11 60.2009 1282.9 57.9515C1261.58 53.2419 1248.05 40.5657 1225.87 36.5825C1209.8 33.7005 1190.6 26.5541 1172.38 31.0528C1150.35 36.5122 1137.64 45.6736 1114.79 44.9941C1100.96 44.5958 1096.15 46.5406 1082.09 48.3448C1070.2 49.8678 1063.39 44.9239 1052.63 44.057C1014.65 41.0109 977.961 51.6017 942.87 70.9557C927.447 79.4611 911.671 86.9356 899.993 99.2603C887.018 112.944 880.324 129.041 867.055 142.678C846.796 163.414 816.246 161.212 790.826 161.259C779.296 161.282 768.12 165.429 756.59 166.203C737.57 167.491 730.847 165.711 713.36 169.998C693.691 174.849 671.869 178.926 654.176 174.052C634.507 168.639 625.985 150.762 610.474 140.733C586.765 125.409 567.391 126.229 538.728 119.903C521.654 116.131 494.289 102.822 483.024 92.6528C467.424 78.6177 465.449 56.8971 453.181 41.0109C440.059 24.0234 416.468 8.84022 386.449 23.0863C353.834 38.5507 331.629 60.4118 302.082 80.2812C237.708 123.511 174.012 84.4754 114.917 85.5064C80.4745 86.1156 47.2703 95.816 17.5458 80.3047L0 72.3616C29.931 87.7089 64.0198 77.3055 99.1408 76.1574C136.061 74.939 159.593 92.1373 197.014 89.6771C233.874 87.2402 272.003 73.908 304.854 56.5691C341.066 37.4494 375.214 1.0846 416.822 0.311378C488.479 -1.00076 465.331 91.2938 530.324 104.743C559.37 110.765 579.157 109.617 602.954 124.87C621.414 136.68 634.36 156.807 656.977 163.578C702.243 177.145 779.149 147.247 830.783 137.429C906.835 122.972 894.803 71.2838 954.046 42.9089C977.136 31.826 1009.37 30.959 1033.02 31.9431C1053.78 32.7866 1071.79 37.3557 1093.62 36.7465C1120.69 35.9499 1139.79 25.4996 1165.01 21.8678C1231.74 12.2377 1277.27 48.8837 1353.71 29.1548C1409.88 14.651 1426.19 3.42754 1477.53 22.0552C1503.04 31.3104 1518.19 39.9799 1550.93 34.7782L1506.87 39.6519Z" fill="#F1E7E0"/>
</svg>
