<svg width="220" height="423" viewBox="0 0 220 423" fill="none" xmlns="http://www.w3.org/2000/svg">
<path d="M219.25 131.385C216.649 126.839 209.63 125.693 202.791 125.984C203.666 125.693 204.518 125.384 205.325 125.111C208.958 123.893 216.268 121.71 216.537 117.8C216.873 113.108 207.343 114.545 204.563 115.327C203.284 115.69 201.917 116.181 200.526 116.745C203.823 113.708 206.289 110.107 207.433 105.688C207.523 105.342 207.231 104.978 206.76 104.978C200.28 105.051 196.086 108.379 193.104 112.58C194.248 107.27 191.871 101.85 187.027 96.649C186.735 96.3398 186.04 96.2125 185.794 96.649C183.551 100.632 182.52 104.742 182.116 108.925C181.443 107.888 180.726 106.87 180.098 105.815C179.941 105.56 179.605 105.451 179.246 105.451C179.111 105.36 178.954 105.288 178.775 105.306C178.64 105.324 178.483 105.324 178.349 105.324C178.013 105.324 177.766 105.506 177.654 105.742C174.963 112.435 174.178 121.837 181.197 126.966C181.129 127.184 181.107 127.439 181.286 127.694C176.824 129.385 172.496 131.44 168.281 133.75C167.81 133.804 167.384 133.913 167.047 134.095C166.845 134.223 166.778 134.386 166.845 134.55C163.415 136.478 160.073 138.551 156.799 140.733C158.818 138.096 159.872 134.75 158.122 132.113C157.921 131.822 157.382 131.767 157.091 132.004C154.221 134.532 152.696 138.296 153.907 141.624C153.638 142.061 153.369 142.479 153.167 142.916C153.122 143.025 153.144 143.116 153.167 143.189C143.659 149.827 134.712 157.174 126.123 163.867C125.922 163.94 125.742 164.03 125.54 164.103C125.361 164.176 125.338 164.321 125.383 164.449C124.307 165.285 123.253 166.104 122.199 166.904C120.854 167.759 119.62 168.704 118.566 169.814C117.737 170.505 116.862 171.16 116.055 171.851C120.428 165.449 123.096 158.338 125.451 151.209C126.729 147.353 128.119 143.352 129.42 139.315C131.371 138.897 133.254 137.26 134.51 136.078C135.923 134.75 136.82 133.113 136.685 131.349C136.64 130.894 136.08 130.603 135.564 130.822C133.703 131.658 132.111 133.186 130.877 134.604C132.514 129.058 133.815 123.438 134.218 117.873C134.622 118.036 135.16 118.018 135.497 117.618C135.878 117.182 136.214 116.745 136.573 116.309C136.977 115.799 137.335 115.254 137.717 114.745C147.314 112.635 157.069 103.76 153.391 95.8124C153.167 95.3395 152.247 95.5396 152.449 96.0306C155.566 103.487 146.955 109.507 139.017 112.853C139.533 112.053 140.026 111.235 140.497 110.398C140.699 110.162 140.856 109.889 140.99 109.525C141.035 109.398 140.99 109.307 140.946 109.198C147.987 105.306 152.292 97.7765 151.418 91.1202C151.373 90.8111 151.059 90.5746 150.655 90.6474C147.673 91.2293 145.834 92.757 144.287 94.6302C144.466 92.0114 144.376 89.4834 144.242 87.3192C144.22 87.0282 143.861 86.7009 143.457 86.8282C139.107 88.2104 136.169 91.102 135.048 94.6666C133.882 92.9389 128.747 87.0282 126.953 90.5019C126.751 89.8835 126.594 89.2834 126.527 88.6832C126.46 88.174 125.809 87.9376 125.316 88.2649C119.194 92.466 119.643 106.306 126.975 110.416C123.746 109.689 120.809 108.343 118.432 106.397C116.817 105.088 115.808 103.342 115.539 101.505C115.203 99.2497 116.929 97.5583 118.073 95.6851C118.208 95.4486 117.916 95.1395 117.602 95.3032C113.454 97.5947 113.342 101.959 115.562 105.269C118.051 108.961 123.388 111.053 128.366 111.307C128.523 111.307 128.612 111.235 128.68 111.126C129.083 111.253 129.487 111.398 129.935 111.471C130.429 112.89 130.743 114.345 130.967 115.836C131.079 116.545 132.245 116.745 132.537 116C132.537 115.963 132.559 115.945 132.559 115.909C132.738 115.909 132.895 115.836 133.008 115.727C131.864 126.275 129.375 137.478 125.473 148.299C126.168 144.316 126.078 140.261 125.294 136.059C123.545 126.693 113.521 122.729 108.476 114.908C108.184 114.454 107.354 114.781 107.489 115.236C110.27 124.129 108.947 133.313 110.314 142.352C111.75 151.936 117.535 159.575 115.45 169.614C114.059 171.96 112.579 174.251 111.032 176.434C106.009 181.326 101.591 186.546 97.8242 192.056C96.7927 185.018 95.8733 177.961 95.0436 170.905C97.6672 167.959 99.0351 163.794 98.1157 160.357C97.9812 159.902 97.3309 159.866 96.9497 160.102C95.963 160.739 94.9539 161.812 94.1691 163.012C93.2721 154.501 92.5546 145.971 92.1285 137.423C92.0164 135.314 91.9491 133.222 91.9267 131.131C95.6042 128.403 97.4878 123.456 97.286 119.6C97.2636 119.109 96.5685 118.873 96.12 119.2C94.1467 120.728 92.7788 122.601 91.9491 124.638C91.994 121.856 92.1061 119.073 92.2631 116.309C92.3079 116.272 92.3528 116.236 92.3528 116.163C93.3618 99.9044 103.43 85.0277 114.351 71.6787C122.58 61.6215 133.837 53.4557 139.376 42.1254C139.667 43.9259 139.443 45.69 138.569 47.4177C137.874 49.5638 137.066 51.6734 136.147 53.7467C133.591 59.8756 129.756 65.7135 125.585 71.2059C118.499 80.4992 107.758 87.392 99.6406 96.0306C99.3266 96.358 99.9769 96.7217 100.336 96.4671C120.674 80.572 139.735 61.8943 141.865 38.088C141.91 37.6151 141.058 37.306 140.677 37.6879C131.303 46.763 119.531 53.9286 110.584 63.331C101.748 72.6062 97.286 84.7185 95.6715 96.2125C95.6491 96.4307 95.8285 96.558 96.0527 96.6126C94.9763 98.9223 94.0121 101.268 93.317 103.687C94.7746 89.2652 97.1291 74.9159 99.2369 60.5121C102.13 58.0569 104.417 54.456 104.955 51.1642C105.022 50.7277 104.35 50.5458 103.968 50.7095C102.376 51.3642 101.188 52.4191 100.224 53.6376C100.717 49.9639 101.188 46.2902 101.591 42.6165C101.793 42.5255 101.973 42.3618 101.905 42.1072C101.838 41.9072 101.771 41.7253 101.726 41.5253C101.771 41.1979 101.793 40.8524 101.838 40.525C105.65 39.3611 108.991 36.724 109.799 33.4686C110.045 33.414 110.292 33.3413 110.539 33.2867C119.239 38.7427 131.483 32.1046 141.192 32.923C141.753 32.9775 142.067 32.4683 141.977 32.0864C140.834 27.176 134.353 26.0121 128.949 26.2849C134.084 23.2113 136.64 18.7556 139.757 14.3544C140.071 13.918 139.667 13.4269 139.062 13.3905C133.77 13.1177 128.119 12.9722 124.015 15.773C125.114 12.8086 125.428 9.78958 124.711 7.02521C124.643 6.7706 124.195 6.60692 123.948 6.7706C123.545 7.02522 123.343 7.15252 123.163 7.26164C123.163 7.22527 123.163 7.20708 123.186 7.17071C123.567 5.57028 124.643 5.29748 124.531 4.04261C124.509 3.78799 124.329 3.53338 123.993 3.46063C117.737 2.22394 113.678 5.60666 111.122 9.75321C110.516 6.6433 109.395 3.56975 108.834 0.441653C108.767 0.114293 108.274 -0.0675732 107.915 0.02336C101.008 1.55104 99.3491 6.97066 99.1697 12.1902C96.9273 7.8618 93.5412 3.87893 89.5273 0.550772C89.1461 0.223413 88.5183 0.405279 88.3389 0.805385C85.8722 6.6433 85.4013 12.463 87.6661 17.719C84.0559 14.8637 79.7729 12.5358 75.2881 10.8808C74.7947 10.6989 74.279 11.0808 74.5481 11.4991C78.0238 17.0097 78.0238 23.1931 82.531 28.3763C84.751 30.9406 88.5855 32.7411 92.2855 34.4325C92.6667 35.942 93.3618 37.4151 94.5727 38.5427C95.8958 39.7975 98.1382 41.2161 100.313 41.0706C100.313 41.0888 100.313 41.107 100.336 41.107C98.6539 51.3279 96.8376 61.5306 95.1558 71.7515C94.2364 69.169 93.0927 66.6774 92.734 64.0221C93.6533 65.9863 93.7206 68.0959 94.5727 70.1692C94.7073 70.5148 95.3127 70.442 95.3352 70.0783C95.6042 67.2412 94.6176 63.8585 92.5321 61.5669C92.1509 61.1668 91.3661 61.2941 91.3437 61.8216C91.097 65.7681 92.6218 69.8782 94.9091 73.3519C93.1824 83.9365 91.6576 94.5393 90.7158 105.179C89.8861 104.269 88.7649 103.596 87.3298 103.524C86.9261 103.505 86.5898 103.814 86.5898 104.124C86.6795 106.761 88.0249 109.561 89.2358 111.98C89.4601 112.417 89.7067 112.999 90.0879 113.453C89.774 118.764 89.617 124.074 89.6843 129.421C89.7516 134.295 89.9534 139.169 90.2225 144.043C89.2358 142.025 87.8231 140.151 86.1189 138.806C85.6928 138.478 84.7959 138.678 84.8631 139.224C85.4462 143.971 87.6661 148.426 90.6037 152.536C90.6709 152.609 90.7607 152.627 90.8279 152.682C91.9716 166.813 93.8327 180.926 95.9854 195.002C95.5818 195.639 95.1782 196.275 94.7745 196.912C91.4558 184.163 83.7195 172.196 75.8935 160.72C75.9608 160.611 75.9608 160.502 75.9159 160.393C76.7008 158.793 76.5214 156.556 76.4317 155.01C76.3196 153.009 75.7141 150.882 73.8978 149.445C73.4717 149.117 72.7093 149.245 72.5523 149.736C71.9917 151.5 71.8347 153.373 72.1263 155.192C71.4535 154.21 70.7808 153.228 70.1305 152.246C66.3184 146.589 62.9549 140.879 59.8828 135.077C59.95 135.059 60.0173 135.041 60.0622 135.005C63.2688 132.804 62.9773 127.493 62.5736 124.438C62.5288 124.002 61.7888 123.602 61.3628 124.038C59.0755 126.384 58.3355 129.367 58.4476 132.331C51.4962 118.709 46.2938 104.687 42.2575 90.0654C42.549 89.6653 42.8405 89.2652 43.1096 88.8651C44.1635 88.174 44.9484 87.1374 45.2399 86.2098C49.4332 85.8279 53.7161 84.664 57.3712 83.209C59.4567 82.3725 64.8161 78.626 60.3761 77.0256C60.0622 76.9165 59.6137 77.0983 59.7482 77.4257C60.3761 78.9352 61.1609 79.5535 59.4567 80.8993C57.9767 82.0815 55.7567 82.7726 53.8507 83.3545C51.1374 84.2093 48.155 84.9731 45.1726 85.3187C49.0744 84.1547 52.9313 82.1542 55.7343 80.2628C60.3761 77.1347 63.9415 73.3519 64.6591 68.3869C64.7039 68.0596 64.3227 67.8595 63.9864 67.8413C58.4701 67.4048 55.1961 69.369 52.5725 72.0788C54.5234 68.3506 55.3307 64.2768 54.344 60.0211C54.2768 59.6937 53.6937 59.6028 53.447 59.821C50.4871 62.349 48.1102 64.986 45.9799 67.9868C45.5762 63.9858 43.8944 60.0211 41.2035 56.4383C41.0017 56.1655 40.5308 56.1109 40.2393 56.3474C36.3824 59.4573 34.9921 63.8403 35.463 68.1687C32.8618 65.1679 29.8345 62.349 27.7043 59.8574C27.48 59.5846 26.9194 59.4391 26.6279 59.7483C21.8516 64.4041 22.8383 71.0786 26.8746 76.0071C22.7037 74.4431 18.1741 73.5337 14.8104 73.2973C14.3171 73.2609 13.9584 73.7156 14.0929 74.0793C17.165 83.1363 27.8836 87.0646 38.5575 88.0285C38.692 88.0467 38.8041 87.9739 38.8714 87.9012C39.006 87.9376 39.1405 88.0103 39.2751 88.0285C39.6787 88.0831 40.0599 87.683 39.7011 87.4283C39.006 86.9191 38.3781 86.2644 37.7502 85.5551C37.7278 85.4278 37.683 85.3187 37.6605 85.2096C38.4678 85.8279 39.2526 86.4826 39.9702 87.1919C39.9926 87.2101 40.0151 87.2283 40.0375 87.2465C40.0375 87.2828 40.0375 87.301 40.0375 87.3374C40.0375 87.8284 40.4636 88.0831 40.9345 88.1194C41.0017 88.3377 41.0466 88.5559 41.0914 88.7741C41.0017 88.9196 40.9344 89.0651 40.8447 89.2106C40.8223 89.2288 40.7999 89.247 40.7999 89.2652V89.2834C40.7775 89.3197 40.7551 89.3561 40.7551 89.3743C40.4411 89.9199 40.9793 90.4109 41.5175 90.4109C43.289 97.2855 45.2623 104.069 47.5944 110.744C47.5496 110.725 47.5047 110.689 47.4374 110.689C44.1859 110.689 40.8896 108.543 40.8223 105.833C41.8314 106.379 42.7284 107.015 43.5581 107.743C44.4999 108.579 45.195 109.652 46.3386 110.344C46.6974 110.562 47.1683 110.198 47.0562 109.889C46.675 108.743 45.5314 107.797 44.5671 106.924C43.4235 105.888 42.0781 105.015 40.5532 104.36C40.1944 104.215 39.6339 104.324 39.5666 104.687C38.7818 108.361 42.8405 111.853 47.415 111.38C47.572 111.362 47.6841 111.289 47.7514 111.198C51.3392 121.456 55.7567 131.476 61.5197 141.224C58.6494 138.224 55.7792 135.186 52.7968 132.186C41.6969 116.563 25.5964 101.723 1.62514 101.414C1.15424 101.414 1.04211 101.996 1.51301 102.087C13.7341 104.251 23.9594 106.597 33.6242 113.453C39.2751 117.454 43.715 122.365 47.8859 127.421C35.5975 115.781 21.5152 105.651 2.14088 102.56C1.73725 102.487 1.58028 102.942 1.96149 103.051C16.5147 107.561 28.2649 112.49 39.5217 121.401C44.2308 125.129 48.5138 129.203 52.6846 133.368C52.7295 133.422 52.7743 133.477 52.8192 133.531C46.8544 128.439 38.3108 125.948 30.6643 122.874C18.7347 118.073 9.89958 110.089 0.616032 102.596C0.279671 102.323 -0.213648 102.723 0.100288 103.014C6.87235 109.161 13.8911 115.017 22.0983 119.891C31.8527 125.675 43.4684 128.567 53.0658 134.677C53.2901 134.823 53.5592 134.768 53.6713 134.623C53.7386 134.714 53.8283 134.823 53.918 134.914C54.0077 135.041 54.1646 135.041 54.2992 135.005C57.2591 137.987 60.1743 141.006 63.1118 143.971C70.3099 155.592 77.9565 166.649 84.2801 178.198C82.0601 175.961 78.248 174.16 74.9741 174.033C74.3463 174.015 74.0323 174.579 74.3014 174.997C76.2523 177.925 80.468 180.671 84.7286 180.598C85.0874 180.598 85.2443 180.362 85.1995 180.126C85.2219 180.126 85.2443 180.107 85.2668 180.107C88.4958 186.182 91.3885 192.402 93.5861 198.949C91.6352 202.368 89.9534 205.878 88.4285 209.461C88.9443 206.46 88.6079 203.041 85.6928 201.058C85.2892 200.786 84.5492 200.84 84.4147 201.331C83.6747 204.259 84.4371 208.479 87.2625 210.697C87.2849 210.861 87.3074 211.043 87.3522 211.207C87.3746 211.316 87.4867 211.37 87.5989 211.388C85.8722 215.735 84.4371 220.191 83.3383 224.737C82.9571 226.356 82.6207 227.975 82.3068 229.611C82.6432 225.938 82.7777 222.246 82.7329 218.518C82.6432 209.788 78.8759 202.241 77.0147 193.766C76.8802 193.129 75.6693 193.184 75.4899 193.766C70.4445 210.734 73.4493 227.975 80.7819 244.179C80.3783 258.164 82.845 272.241 86.9934 285.808C80.6698 276.478 71.3414 268.094 62.2821 260.383C62.0579 258.492 61.7664 256.6 61.4748 254.727C63.9863 249.089 68.0227 242.942 65.0178 237.123C64.7488 236.631 64.0088 236.613 63.7621 237.123C62.8651 238.868 61.6991 240.451 60.6228 242.087C60.7797 238.941 60.7797 235.795 60.9367 232.794C60.9591 232.412 60.4209 232.03 59.95 232.194C54.3664 234.031 52.0119 238.796 52.2137 243.597C49.0744 240.16 44.769 237.341 40.1272 235.449C39.6787 235.267 39.1405 235.486 39.1405 235.904C39.0284 239.723 41.1587 243.633 43.3338 247.034C43.1768 246.943 42.9975 246.834 42.8405 246.743C39.9702 245.088 33.8484 242.142 30.4624 244.67C25.5964 248.271 30.8212 251.526 36.8533 253.6C35.9115 253.581 35.0369 253.618 34.2745 253.672C27.5025 254.182 26.9194 258.783 29.3861 263.057C29.6552 263.53 30.4624 263.42 30.7764 263.057C35.3957 257.673 47.9083 259.71 54.5907 260.601C55.0616 260.656 55.1961 260.183 54.7701 260.038C48.2671 257.819 35.8666 256.855 30.3279 261.474C29.4982 259.692 28.9152 257.692 30.7315 256.2C32.503 254.727 35.9787 254.945 38.266 255.091C43.2217 255.418 47.0338 257.437 51.5859 258.619C51.698 258.656 51.8101 258.637 51.8998 258.601C54.1422 259.656 56.564 260.474 58.8512 260.62L58.941 260.838C59.1876 261.402 59.9949 261.42 60.3985 261.111C60.5555 261.256 60.8022 261.329 61.0488 261.329C61.1385 261.602 61.1833 261.893 61.273 262.166C61.4524 262.729 62.6409 262.638 62.5736 262.02C62.5736 261.929 62.5512 261.82 62.5288 261.729C67.1481 265.948 71.5881 270.313 75.7814 274.787C80.8941 280.261 84.594 286.39 89.1237 292.119C89.2807 292.574 89.4376 293.028 89.5946 293.483C90.5364 296.156 91.6128 298.793 92.734 301.412C81.6789 287.554 63.6276 273.75 45.3744 274.06C44.6568 274.078 44.2981 274.769 44.7914 275.205C52.9089 282.225 58.3803 291.955 67.8657 297.902C75.6917 302.813 85.7153 305.65 93.3843 310.706C94.8194 312.197 96.2545 313.67 97.7345 315.143C97.9587 315.361 98.34 315.089 98.2054 314.852C98.026 314.561 97.8242 314.288 97.6224 314.016C98.3848 314.725 99.1248 315.471 99.7975 316.271C102.758 322.054 105.83 327.765 108.7 333.548C108.139 333.293 107.579 333.039 107.018 332.766C105.74 330.911 103.744 329.201 102.062 327.656C100.201 325.928 98.0036 324.164 95.2006 323.564C94.5952 323.436 93.8552 323.909 94.1243 324.437C96.5461 329.402 103.004 333.566 109.373 334.93C113.723 343.86 117.512 352.953 119.531 362.647C119.441 364.284 119.306 365.902 119.172 367.521C117.983 363.447 115.584 359.409 111.525 358.009C110.763 357.754 110.09 358.173 110.202 358.828C111.122 364.011 112.714 370.958 118.544 374.086C116.817 389.963 113.297 405.731 107.96 421.79C107.758 422.39 108.812 422.59 109.081 422.044C114.866 410.496 118.566 398.583 120.719 386.435C126.841 382.343 132.828 374.577 131.819 368.266C131.752 367.83 131.169 367.375 130.608 367.703C125.765 370.412 124.217 374.686 121.885 378.706C123.186 368.266 123.455 357.682 122.984 347.024C127.402 342.86 128.926 336.858 130.092 331.638C130.205 331.129 129.554 330.565 128.904 330.911C127.671 331.566 124.531 335.476 122.491 339.15C122.423 338.386 122.379 337.604 122.311 336.84C123.388 326.91 124.823 317.071 126.594 307.305C135.205 299.521 142.157 290.555 149.512 282.007C160.208 269.622 170.59 257.582 178.349 243.761C178.64 243.251 178.17 242.597 177.407 242.76C156.172 247.653 141.237 261.947 132.783 278.297C134.577 271.095 136.55 263.911 138.658 256.746C138.681 256.8 138.681 256.855 138.703 256.91C138.77 257.164 139.286 257.164 139.376 256.91C139.735 255.546 139.914 254.072 139.892 252.581C141.147 248.416 142.47 244.252 143.838 240.087C148.368 238.268 152.651 234.849 154.579 231.357C154.871 230.83 154.4 230.321 153.705 230.43C150.723 230.885 147.942 232.539 145.744 234.485C146.731 231.557 147.695 228.648 148.749 225.72C148.772 225.72 148.772 225.72 148.794 225.701C151.373 224.337 153.705 222.701 156.015 221.064C155.768 221.355 155.521 221.646 155.319 221.937C155.14 222.191 155.499 222.5 155.813 222.337C156.553 221.955 157.158 221.427 157.719 220.864C164.738 221.1 173.326 216.499 177.788 213.571C178.304 213.225 177.878 212.516 177.25 212.534C172.967 212.643 168.482 213.607 164.155 214.826C169.469 211.316 174.088 207.096 177.407 202.422C177.676 202.041 177.34 201.586 176.802 201.586C170.59 201.44 165.926 203.859 162.092 207.187C163.885 202.477 163.773 197.403 160.903 193.238C160.656 192.893 160.096 192.856 159.737 193.111C155.97 195.857 153.346 199.585 151.754 203.623C151.081 201.477 149.983 199.458 148.323 197.676C147.067 196.348 140.475 191.42 138.591 194.693C136.147 198.967 138.098 203.986 139.981 208.169C136.909 206.296 133.187 205.223 129.935 205.969C129.599 206.042 129.352 206.314 129.33 206.605C129.263 213.334 137.403 220.518 145.924 220.755C146.395 222.046 146.955 223.301 147.561 224.574C147.606 224.665 147.673 224.701 147.763 224.737C147.763 224.792 147.763 224.847 147.763 224.901C147.695 225.028 147.673 225.174 147.695 225.301C146.103 229.266 144.578 233.285 143.053 237.304L143.009 237.359C142.941 237.45 142.919 237.541 142.941 237.632C142.74 238.141 142.56 238.668 142.381 239.178C141.708 239.56 141.058 239.96 140.407 240.378C140.004 240.633 140.452 241.142 140.878 241.051C141.192 240.978 141.484 240.869 141.798 240.778C140.923 243.16 140.026 245.525 139.174 247.925C138.434 245.452 137.178 243.106 135.272 241.305C134.958 241.014 134.286 241.16 134.174 241.542C133.187 245.252 135.048 249.817 137.291 253.309C135.766 257.783 134.308 262.275 132.918 266.785C132.694 263.475 131.707 260.11 129.442 257.564C129.173 257.273 128.523 257.164 128.298 257.564C126.078 261.402 128.321 267.276 131.685 270.531C131.685 270.622 131.707 270.695 131.729 270.786C128.321 282.298 125.451 293.901 123.388 305.577C122.244 307.759 121.011 309.905 119.531 311.961C119.194 312.452 120.114 312.888 120.45 312.397C120.742 311.979 121.011 311.524 121.302 311.106C121.482 311.288 121.818 311.36 122.087 311.142C122.222 311.033 122.334 310.942 122.446 310.833C121.795 314.943 121.257 319.071 120.831 323.182C118.925 308.451 116.1 293.719 113.185 279.206C113.185 279.206 113.207 279.188 113.207 279.17C113.297 279.115 113.342 279.061 113.387 278.988C117.176 274.623 119.732 267.985 117.378 263.166C117.176 262.747 116.436 262.438 115.988 262.875C113.857 264.966 112.22 267.712 111.436 270.568C109.328 260.038 107.242 249.671 105.561 239.523C104.619 233.94 103.699 228.338 102.757 222.755C105.964 219.572 108.027 214.717 107.624 210.734C107.579 210.206 106.727 209.77 106.233 210.261C104.462 211.97 102.645 214.244 101.748 216.626C100.582 209.552 99.4612 202.495 98.3848 195.402C101.524 190.547 105.134 185.891 109.171 181.453C109.328 181.508 109.53 181.544 109.709 181.417C111.525 180.271 114.844 179.944 117.311 180.18C116.436 181.071 115.472 181.853 114.261 182.454C112.377 183.381 110.561 183.199 108.52 183.399C108.005 183.454 107.624 184.054 108.229 184.29C112.377 185.927 117.243 182.69 119.351 180.053C119.62 179.726 119.351 179.253 118.903 179.162C116.391 178.689 112.983 178.889 110.516 179.98C113.588 176.725 116.885 173.578 120.428 170.596C122.468 168.868 124.576 167.213 126.729 165.576C131.303 163.503 136.483 162.139 141.349 160.611C152.875 156.992 163.594 154.628 175.95 153.591C176.465 153.555 176.488 152.937 175.95 152.918C162.719 152.536 150.767 156.465 138.703 160.411C135.788 161.357 132.671 162.266 129.689 163.339C129.734 163.303 129.778 163.285 129.801 163.248C136.461 160.72 142.47 157.247 148.951 154.355C156.62 150.936 165.522 150.409 174.066 150.409C178.461 150.409 199.764 149.736 189.673 154.719C176.757 161.066 165.567 162.939 150.678 163.176C140.923 163.339 132.088 164.431 123.612 168.468C123.253 168.65 123.5 169.159 123.903 169.032C138.21 164.485 152.046 164.903 167.047 163.867C178.282 163.085 188.059 156.719 197.589 152.482C198.194 152.209 198.127 151.318 197.387 151.227C184.874 149.554 172.653 148.263 160.051 149.972C150.229 151.3 142.022 156.356 133.523 160.557C138.927 156.628 144.399 152.737 149.669 148.717C154.826 144.789 160.028 141.024 165.5 137.551C167.787 138.187 170.209 138.897 172.631 138.606C173.976 138.442 176.331 137.442 176.039 136.078C175.793 134.877 173.842 134.404 172.631 134.113C172.339 134.041 171.958 133.968 171.577 133.895C174.783 132.058 178.102 130.312 181.556 128.712C181.735 128.876 181.982 129.003 182.296 129.003C182.565 129.003 182.811 128.967 183.08 128.967C183.91 129.476 184.852 129.858 185.906 130.131C186.242 130.221 186.444 130.112 186.601 129.967C186.713 130.003 186.825 130.04 186.96 130.04C187.117 130.058 187.274 130.076 187.431 130.094C192.723 137.678 200.997 144.898 212.411 144.953C213.061 144.953 213.308 144.425 213.084 143.989C211.267 140.552 209.025 137.242 205.46 134.914C210.752 135.023 215.932 134.077 219.25 131.986C219.407 131.913 219.385 131.604 219.25 131.385ZM131.303 136.059C131.415 135.878 131.572 135.696 131.707 135.532C132.133 135.041 132.626 134.586 133.142 134.132C133.725 133.604 134.375 133.04 135.093 132.568C134.801 133.677 134.061 134.641 133.075 135.55C132.671 135.932 132.178 136.259 131.685 136.569C131.707 136.369 131.572 136.132 131.281 136.15C131.236 136.15 131.214 136.15 131.191 136.169C131.236 136.132 131.281 136.114 131.303 136.059ZM144.085 96.5944C144.556 95.9397 145.027 95.3031 145.543 94.6666C145.565 94.6302 150.207 90.7747 150.184 92.2296C150.139 95.1395 149.175 97.8857 147.65 100.486C145.789 103.687 142.941 105.979 139.623 107.87C142.336 104.797 143.592 100.705 144.085 96.5944ZM135.698 94.6666C136.416 93.6118 137.358 92.0659 136.932 92.8661C137.201 92.466 137.492 92.0841 137.761 91.684C138.905 89.9927 140.632 88.9015 142.964 88.4468C143.009 90.8474 142.919 93.2663 142.695 95.6487C142.179 101.087 139.981 105.015 135.967 108.579C135.967 108.361 135.99 108.125 135.99 107.906C138.412 104.324 137.717 99.5043 135.676 95.8124C135.743 95.5214 135.811 95.2486 135.855 94.9576C135.9 94.8121 135.811 94.7212 135.698 94.6666ZM130.788 109.762C130.496 109.161 130.182 108.579 129.778 107.997C129.397 107.434 128.164 107.834 128.478 108.434C128.859 109.216 129.24 109.998 129.621 110.78C121.795 108.452 120.383 94.9394 125.316 89.9199C125.854 92.3569 126.975 94.6302 128.186 96.9399C130.608 101.45 131.909 105.069 130.788 109.762ZM132.357 111.398C132.312 111.417 132.29 111.453 132.245 111.471C132.066 111.598 132.088 111.762 132.2 111.908C132.133 112.126 132.066 112.362 131.976 112.599C131.819 112.271 131.685 111.926 131.528 111.598C131.685 111.453 131.617 111.18 131.326 111.126C131.326 111.107 131.303 111.071 131.303 111.053C136.394 104.997 129.577 97.7584 127.2 91.3748C127.289 91.3385 127.379 91.2839 127.424 91.193C128.68 87.9376 135.003 97.2309 135.272 97.8857C136.461 100.668 136.281 103.36 135.25 105.924C134.891 105.888 134.487 106.033 134.286 106.397C133.456 108.016 132.895 109.707 132.357 111.398ZM95.8061 121.074C95.6715 122.801 95.1109 124.42 94.2364 126.057C93.6758 127.112 92.8685 128.057 92.1285 129.003C92.3527 126.093 93.4964 123.292 95.8061 121.074ZM109.395 66.6228C116.974 56.7293 129.038 49.6729 138.726 41.2343C127.783 59.8574 106.973 75.316 97.0394 94.3756C99.0351 84.5003 102.825 75.1887 109.395 66.6228ZM106.345 33.4686C105.291 34.4143 104.462 35.4327 103.767 36.5967C104.439 35.1418 105.202 33.7232 106.233 32.4319C106.368 32.3956 106.502 32.341 106.614 32.3046C106.547 32.7047 106.48 33.0867 106.345 33.4686ZM135.25 27.9944C135.833 28.1399 142.829 31.8136 139.398 31.4681C137.717 31.2862 135.945 31.5226 134.286 31.7045C126.303 32.5593 119.957 34.869 112.22 32.8502C117.625 31.4862 122.805 29.5948 127.469 27.0305C127.558 27.1396 127.671 27.2306 127.895 27.2306C130.406 27.176 132.828 27.4306 135.25 27.9944ZM135.945 14.5181C138.277 14.5909 137.38 14.9 136.326 16.355C135.16 18.0099 134.039 19.6649 132.738 21.2472C127.671 27.3942 118.185 29.5403 110.023 32.2683C109.978 32.2683 109.933 32.2865 109.911 32.3046C109.866 32.3228 109.821 32.341 109.776 32.3592C109.619 31.9773 109.081 31.8136 108.588 31.9045C108.588 31.7954 108.565 31.6681 108.565 31.559C115.001 28.7219 120.607 23.1931 123.276 17.3007C126.662 14.4817 131.393 14.3726 135.945 14.5181ZM122.849 8.31647C124.442 7.73449 123.051 13.9543 122.917 14.4272C122.087 17.0642 120.383 19.4831 118.589 21.7746C115.988 25.0845 112.602 27.7216 108.722 29.8858C113.005 27.0487 116.705 23.5387 119.576 19.774C121.056 17.8099 121.885 15.5911 122.154 13.3178C122.356 11.6264 122.558 9.97145 122.849 8.31647ZM111.077 16.5186C111.436 14.8273 111.436 13.1723 111.234 11.5355C113.274 8.75295 115.046 5.86127 119.037 4.49727C123.971 2.8241 121.033 8.82569 120.831 10.0988C119.979 15.482 118.634 19.0284 114.373 23.3386C112.153 25.5756 109.485 27.4306 106.861 29.3584C106.861 29.3584 106.861 29.3584 106.839 29.3766C106.009 29.9949 105.202 30.6315 104.394 31.268C107.579 26.6304 109.933 21.7564 111.077 16.5186ZM87.3073 12.2448C87.0607 10.1533 87.4643 7.95273 87.8904 5.89764C88.72 1.96933 89.2582 1.89658 92.6443 5.47935C99.7303 12.9541 100.605 21.3199 99.3715 30.3223C98.8333 29.1584 98.1157 28.049 97.0394 27.0487C96.6357 26.685 95.7836 26.9578 95.8285 27.4488C95.8509 27.6852 95.8957 27.9217 95.9182 28.1581C94.5951 24.9936 92.3752 22.1201 89.6619 19.574C88.3613 17.337 87.5989 14.8818 87.3073 12.2448ZM92.7564 31.9409C92.734 31.4317 91.7697 31.4317 91.7921 31.9409C91.7921 32.2865 91.8594 32.632 91.8819 32.9957C89.4152 31.7045 86.9485 30.4496 84.7061 28.8856C81.1407 26.394 79.7505 22.4839 78.562 18.9556C78.2032 17.9008 77.2165 12.8631 76.1626 12.3903C80.9838 14.5545 85.2668 17.2643 88.8322 20.6834C89.2582 21.0835 89.6395 21.5018 90.0207 21.9201C90.3122 22.2838 90.5813 22.6475 90.8952 22.9931C93.0255 25.7393 94.2812 28.7582 95.4024 31.8863C95.1782 31.9955 94.9988 32.1955 95.0661 32.4319C95.3127 33.2503 95.5818 34.2324 95.9182 35.1963C94.9764 34.6325 93.9897 34.1051 93.0031 33.5777C92.8685 33.0321 92.7788 32.4865 92.7564 31.9409ZM99.3715 39.6157C99.1472 39.5611 98.9006 39.5065 98.6763 39.452C97.443 39.1428 96.4339 38.4335 95.5594 37.6879C94.6849 36.9422 94.0346 36.0693 93.5637 35.1236C94.5503 35.5601 95.5145 36.0147 96.4115 36.4694C97.0394 37.8152 97.9587 39.0155 99.4163 39.5975C99.4163 39.5793 99.3939 39.5975 99.3715 39.6157ZM99.6181 30.9588C99.9097 31.0679 100.336 30.9952 100.47 30.7042C102.668 25.1937 102.219 19.5558 99.9994 14.2999C100.179 11.9538 100.448 9.62591 101.121 7.33439C101.188 7.07978 107.063 -0.558612 107.489 2.5513C107.668 3.82437 108.139 5.22474 108.498 6.46143C110.987 15.1365 107.646 21.8837 103.901 29.3948C103.879 29.2493 103.856 29.122 103.834 28.9765C103.632 28.2308 102.174 28.2308 101.973 28.9765C101.479 30.7951 101.031 32.632 100.65 34.4689C100.381 33.2685 100.067 32.0864 99.6181 30.9588ZM99.7751 55.7836C100.672 54.5469 101.816 53.2738 103.161 52.3827C102.399 54.5469 100.829 56.2928 99.4387 58.1842C99.5509 57.384 99.663 56.5838 99.7751 55.7836ZM86.6122 141.261C88.6079 143.661 89.0564 146.408 89.8637 149.208C88.4285 146.662 87.2401 144.025 86.6122 141.261ZM90.1328 110.925C89.9534 110.507 89.7516 110.089 89.5722 109.652C88.9667 108.161 88.2716 106.542 88.0249 104.942C89.5273 105.342 90.0879 106.542 90.357 107.906C90.2673 108.907 90.2 109.907 90.1328 110.925ZM94.3261 165.504C94.9091 164.103 95.8285 162.757 96.86 161.793C97.1739 164.394 95.963 166.558 94.7297 168.814C94.5951 167.686 94.4606 166.595 94.3261 165.504ZM61.4748 68.8416C64.7263 68.6415 61.3179 73.2973 60.5106 74.3885C58.8288 76.6255 56.2725 78.4441 53.7386 80.0264C51.0925 81.6632 48.2223 82.6998 45.3071 83.6637C45.4865 82.9362 45.5986 82.1906 45.6435 81.4449C51.0253 77.0983 52.7295 69.3872 61.4748 68.8416ZM45.9126 68.6961C46.092 68.7507 46.3162 68.7507 46.4283 68.5688C47.4598 67.1866 53.2228 59.1663 53.6713 63.2401C54.0077 66.4773 52.6622 69.6236 50.9356 72.4789C49.4107 74.9887 47.258 77.062 44.9483 79.0443C44.612 79.0079 44.2532 79.0989 44.029 79.3535C44.029 78.8261 44.0514 78.2805 44.0514 77.753C45.5762 74.825 46.1144 71.7696 45.9126 68.6961ZM15.7747 74.6431C22.4571 75.316 29.2067 77.844 33.6018 81.9723C33.3103 82.2088 33.1757 82.5725 33.4224 82.8635C34.2745 83.9365 35.6648 85.937 37.2345 87.1192C28.1527 85.6824 18.9365 82.0451 15.7747 74.6431ZM37.8848 80.2264C37.5709 81.1721 37.6157 82.0633 37.8175 82.9544C37.7727 83.0635 37.7278 83.1908 37.6605 83.3C37.3018 83.0817 36.943 82.8817 36.5618 82.6816C36.3375 82.3179 36.0684 81.9723 35.7769 81.6268C35.8666 81.4631 35.8218 81.2267 35.5527 81.1358C35.4181 81.0812 35.2836 81.0266 35.1491 80.9721C33.6466 79.4444 31.5836 78.1532 29.2515 77.062C27.8164 75.5525 26.6728 73.8429 25.8207 72.0788C24.991 70.4056 24.6995 68.6052 24.6322 66.8047C24.5649 65.4953 25.6861 59.6937 27.9285 62.1671C30.6418 65.1497 33.7812 68.0959 35.9787 71.2604C36.4945 72.9336 37.3242 74.534 38.3557 76.0071C38.692 77.1711 38.8266 78.3896 38.7145 79.6445C38.3333 79.699 37.9969 79.8809 37.8848 80.2264ZM40.4187 81.1903C40.3514 81.063 40.2617 80.9357 40.1945 80.8266C40.486 79.8263 40.5533 78.8261 40.4411 77.8258C40.5084 77.753 40.5308 77.6621 40.4411 77.553C40.4187 77.5348 40.4187 77.5166 40.3963 77.4984C40.0599 74.9341 38.6472 72.4062 36.7636 69.9692C36.0684 66.4773 36.5393 62.8218 38.4229 59.6755C41.652 54.2377 44.4326 66.0227 44.6793 68.005C45.0381 70.9149 44.2532 73.6247 43.1544 76.2799C42.7956 76.2436 42.4368 76.3163 42.235 76.6255C41.2932 78.0804 40.755 79.6081 40.4187 81.1903ZM61.0936 126.366C61.0936 127.548 61.0264 128.73 60.8022 129.912C60.6003 130.967 60.107 131.967 59.7034 132.986C59.6585 130.694 59.8379 128.403 61.0936 126.366ZM74.3463 157.811C73.4493 155.756 73.1802 153.555 73.6063 151.391C75.0638 153.3 74.5929 155.574 74.3463 157.811ZM76.5214 175.524C79.3244 176.161 81.1183 178.071 83.4729 179.398C80.7371 178.598 78.2705 177.416 76.5214 175.524ZM85.5807 202.877C86.8813 204.405 86.9037 206.351 86.9485 208.279C85.9843 206.587 85.4013 204.769 85.5807 202.877ZM80.0195 236.813C79.1674 230.303 77.7323 223.901 77.9565 217.317C77.9789 216.754 76.9026 216.754 76.9026 217.317C76.6335 224.592 77.8668 231.939 79.6832 239.05C79.7056 239.105 79.728 239.141 79.7729 239.159C79.7504 239.287 79.7504 239.414 79.728 239.541C74.8396 225.829 72.799 211.661 75.9384 197.439C75.9608 197.385 78.5171 204.005 78.562 204.168C80.3335 208.842 80.7595 213.644 80.9838 218.499C81.2977 224.61 80.6698 230.721 80.0195 236.813ZM55.8016 236.377C57.0125 234.595 59.2773 232.776 59.1204 236.013C59.0082 238.141 58.8961 240.269 58.7616 242.378C58.5822 244.943 58.1561 247.471 57.7749 249.999C57.73 249.962 57.7076 249.926 57.6628 249.871C57.1694 249.435 56.3846 249.817 56.3398 250.308C56.3398 250.381 56.3398 250.435 56.3398 250.508C55.8016 248.871 54.9943 247.325 53.9628 245.852C53.3349 242.615 53.8507 239.214 55.8016 236.377ZM56.25 255.527C56.1155 255.527 55.981 255.582 55.9137 255.673C55.4652 255.255 55.0168 254.836 54.5234 254.436C54.1871 253.6 54.0301 252.727 53.9852 251.854C54.5683 252.418 55.0392 252.999 55.4876 253.618C55.7119 254.236 55.981 254.891 56.25 255.527ZM40.3963 236.85C44.4102 238.705 47.9308 241.014 50.6665 244.088C51.4962 245.016 52.1465 245.998 52.7071 246.998C53.0434 248.125 53.5368 249.198 54.1422 250.217C54.0301 250.126 53.918 250.017 53.8058 249.926C53.2901 249.544 52.5725 249.835 52.5277 250.362C52.438 251.235 52.4604 252.181 52.6174 253.09C51.8774 252.618 51.115 252.181 50.2853 251.781C48.895 250.49 47.1235 249.362 45.4641 248.344C44.8586 247.398 44.3653 246.543 44.0065 245.961C42.3472 243.251 40.6429 239.96 40.3963 236.85ZM46.2938 254.891C44.5672 254.382 42.6835 254.054 40.8447 253.836C39.3199 253.381 37.8399 252.854 36.4721 252.345C34.7006 251.672 33.0188 250.853 31.5612 249.817C29.0721 248.089 29.857 245.416 33.243 245.052C37.3018 244.615 41.8987 247.78 44.7465 249.708C44.9932 249.871 45.2174 250.071 45.4417 250.253C46.5629 251.708 48.0429 253.163 49.7919 253.763C50.0386 253.963 50.2853 254.182 50.5319 254.4C50.7113 254.582 50.8459 254.782 51.0253 254.982C49.7247 254.673 48.3568 254.509 46.8992 254.582C46.6526 254.582 46.4283 254.727 46.2938 254.891ZM49.1641 255.837C50.7338 256.037 52.1913 256.509 53.604 257.146C54.5458 257.783 55.5549 258.346 56.721 258.765C56.9452 258.837 57.147 258.837 57.3264 258.783C57.5507 258.819 57.7525 258.783 57.9543 258.692C58.0888 259.037 58.2234 259.365 58.3579 259.71C55.1737 259.019 51.855 257.455 49.1641 255.837ZM59.6137 258.201C59.4118 257.71 59.21 257.201 58.9858 256.71C58.6943 255.909 58.47 255.109 58.2682 254.309C58.3803 254.036 58.4925 253.763 58.5822 253.472C59.0979 254.473 59.4343 255.546 59.6585 256.655C59.6361 256.691 59.6361 256.746 59.6137 256.782C59.5688 256.928 59.6361 257.037 59.7482 257.11C59.8155 257.564 59.8828 258.019 59.9276 258.474C59.8379 258.383 59.7258 258.292 59.6137 258.201ZM60.6676 249.98C60.6003 249.544 60.0173 249.417 59.681 249.58C60.0397 247.798 60.2415 245.961 60.3761 244.124C60.3985 244.106 60.4209 244.124 60.4434 244.106C62.3494 242.724 63.5155 240.996 64.3003 239.087C65.5336 243.579 63.1118 248.453 61.1161 252.945C60.9591 251.981 60.8245 250.981 60.6676 249.98ZM96.6357 325.655C98.9678 326.746 100.582 328.62 102.242 330.42C100.022 329.129 98.026 327.619 96.6357 325.655ZM112.086 360.082C116.257 362.647 116.436 368.03 117.826 372.231C114.328 368.903 112.916 364.393 112.086 360.082ZM127.514 334.276C126.348 337.913 124.778 341.368 122.715 344.715C122.67 343.896 122.625 343.06 122.58 342.241C123.724 339.822 125.832 336.494 127.514 334.276ZM173.505 214.644C169.155 217.154 163.841 219.336 158.571 219.682C158.84 219.318 159.109 218.936 159.333 218.572C159.49 218.336 159.311 218.063 159.064 217.954C163.908 217.19 168.751 215.808 173.505 214.644ZM175.367 202.768C172.631 206.333 169.379 209.442 165.455 212.225C163.235 213.807 160.791 215.153 158.414 216.59C157.36 216.935 156.329 217.281 155.319 217.608C154.849 217.772 154.849 218.427 155.409 218.427C154.871 218.754 154.355 219.1 153.839 219.463C153.503 219.409 153.167 219.336 152.808 219.245C153.144 218.718 153.481 218.19 153.75 217.626C156.777 215.517 159.221 212.716 160.858 209.661C164.715 205.932 169.312 202.968 175.367 202.768ZM159.602 194.784C160.791 193.747 162.002 201.149 161.935 200.476C162.181 203.295 160.903 206.205 159.558 208.751C158.324 211.043 156.553 212.952 154.602 214.753C154.647 214.462 154.736 214.189 154.759 213.898C154.804 213.225 153.615 212.789 153.077 213.334C152.898 213.498 152.718 213.68 152.561 213.844C152.584 213.298 152.629 212.752 152.561 212.189C152.539 211.97 152.427 211.825 152.292 211.698C152.516 209.861 152.516 207.988 152.225 206.133C153.57 201.859 156.059 197.858 159.602 194.784ZM131.214 209.406C130.361 207.187 130.922 206.751 133.68 207.187C135.541 207.478 137.268 208.497 138.703 209.406C139.802 210.115 140.744 210.934 141.618 211.807C142.381 213.207 143.3 214.626 144.399 215.862C144.623 217.154 144.982 218.408 145.386 219.645C138.95 218.281 133.254 214.753 131.214 209.406ZM141.977 209.733C140.318 206.587 139.241 203.223 138.77 200.113C138.569 198.84 138.479 193.857 142.269 195.421C145.901 196.912 148.211 199.458 149.579 202.477C150.207 203.841 150.498 205.241 150.655 206.678C150.095 208.842 149.848 211.043 149.893 213.207C149.691 213.571 149.489 213.953 149.332 214.335C149.041 213.262 148.637 212.207 148.054 211.17C147.763 210.643 146.619 210.897 146.686 211.461C146.978 213.498 147.606 215.499 148.166 217.499C147.449 216.917 146.798 216.281 146.17 215.608C146.17 215.571 146.193 215.535 146.193 215.48C145.655 213.534 144.085 211.461 141.977 209.733ZM146.776 220.791C146.978 220.791 147.202 220.791 147.404 220.773C147.449 220.773 147.493 220.736 147.516 220.736C147.83 221.537 148.121 222.355 148.435 223.173C148.323 223.483 148.189 223.792 148.076 224.101C147.606 223.01 147.157 221.9 146.776 220.791ZM144.489 237.795C144.578 237.741 144.668 237.705 144.735 237.668C145.072 237.504 145.049 237.195 144.847 237.013C146.821 235.067 149.31 233.085 152.158 232.158C150.207 234.704 147.359 236.377 144.421 238.032C144.421 237.941 144.444 237.868 144.489 237.795ZM135.183 243.306C136.82 245.488 137.358 247.853 137.627 250.308C136.573 248.016 135.183 245.761 135.183 243.306ZM128.926 259.183C130.922 262.02 131.124 265.312 131.371 268.567C129.509 265.73 128.007 262.111 128.926 259.183ZM128.343 297.793C130.586 293.065 132.895 288.354 136.124 283.935C142.964 274.605 152.113 266.53 157.965 256.71C158.212 256.291 157.495 255.946 157.203 256.346C150.207 265.603 142.403 274.369 135.205 283.498C132.783 286.554 130.967 289.809 129.308 293.119C129.958 290.082 130.631 287.045 131.326 284.008C138.927 266.821 153.369 251.035 174.649 244.815C174.649 244.815 167.967 257.182 166.935 258.619C162.63 264.693 157.696 270.44 152.629 276.115C144.085 285.699 135.967 295.411 126.975 304.686C127.402 302.394 127.872 300.103 128.343 297.793ZM121.347 381.706C124.15 377.687 125.406 372.377 129.958 369.612C129.285 375.177 125.047 379.433 121.033 383.78C121.145 383.088 121.257 382.397 121.347 381.706ZM83.5177 252.69C84.8631 249.708 85.9619 246.743 87.9352 244.015C88.0025 247.234 85.3565 250.144 83.5401 253.127C83.5401 252.981 83.5401 252.836 83.5177 252.69ZM94.7521 310.415C91.6128 306.65 87.8904 303.176 84.1904 299.83C78.7862 294.938 71.633 291.755 66.296 286.881C65.9373 286.554 65.3766 287.027 65.713 287.354C70.3099 291.937 76.7232 294.865 81.6341 299.194C84.6837 301.903 87.4867 304.74 90.2673 307.596C87.3074 305.977 84.1231 304.559 81.0959 303.195C68.3142 297.375 61.0264 290.1 52.5052 280.643C49.5228 277.333 43.6029 274.205 53.3349 276.169C61.1161 277.733 68.2469 282.789 74.0547 286.918C83.6746 293.756 90.4691 301.576 96.6582 310.269C97.1291 311.215 97.6 312.161 98.0709 313.124C97.0618 312.161 95.9406 311.269 94.7521 310.415ZM97.6 306.941C97.0394 297.338 94.9539 287.845 95.963 278.188C96.0079 277.879 95.4249 277.897 95.38 278.188C94.1691 286.463 94.6624 294.756 95.7836 303.013C94.6848 300.576 93.6534 298.102 92.7115 295.629C92.8012 295.538 92.8685 295.411 92.8237 295.265C90.2449 285.626 89.191 276.66 91.8594 266.967C93.3394 261.638 95.6491 256.564 97.5103 251.363C97.9139 258.237 100.044 265.403 99.9769 272.059C99.8424 284.171 98.9454 296.211 98.2503 308.287C98.0036 307.85 97.8018 307.396 97.6 306.941ZM116.145 264.875C117.378 269.076 114.687 272.714 112.534 276.478C111.727 272.568 113.386 268.058 116.145 264.875ZM105.717 212.734C105.493 214.189 105.045 215.608 104.372 217.026C103.789 218.263 102.982 219.427 102.287 220.627C102.264 220.482 102.242 220.336 102.219 220.191C102.578 217.608 103.767 214.88 105.717 212.734ZM100.605 224.21C103.722 242.833 107.422 261.42 110.853 280.043C110.853 280.079 110.83 280.098 110.83 280.134C110.785 280.279 110.853 280.407 110.942 280.516C112.243 287.645 113.521 294.792 114.687 301.94C112.803 299.194 109.933 296.829 106.525 295.793C106.031 295.647 105.471 296.029 105.493 296.429C105.717 301.012 109.799 305.413 115.382 306.304C116.302 312.179 117.176 318.053 117.939 323.946C119.127 333.184 119.688 342.26 119.71 351.226C115.27 336.64 105.314 322.545 98.6763 309.196C98.6763 309.178 98.6763 309.178 98.6539 309.16C98.8557 309.16 99.0575 309.087 99.1024 308.905C101.614 300.467 101.322 291.701 101.457 283.062C101.591 273.423 102.309 263.766 100.291 254.218C100.515 251.817 99.9769 249.635 98.7436 247.634C99.1921 246.089 99.6181 244.543 99.9096 242.96C100.067 242.124 98.5418 241.724 98.2951 242.597C97.9812 243.742 97.757 244.888 97.6224 246.07C97.0394 248.398 96.3218 250.672 95.4697 252.945C93.4964 258.71 91.0297 264.275 89.4601 270.131C88.1146 275.205 88.3837 280.552 89.3479 285.772C86.388 276.078 84.5043 266.185 83.7419 256.237C85.491 254.163 86.7243 251.563 87.8904 249.326C89.1013 247.016 90.1776 244.415 89.3031 241.906C89.0788 241.287 88.1595 241.269 87.7334 241.742C85.8722 243.833 84.4595 246.27 83.4055 248.78C83.3607 245.397 83.4056 242.015 83.6298 238.65C84.4819 225.774 88.2043 213.389 94.4382 201.895C94.7073 202.823 94.9988 203.768 95.2679 204.714C95.3576 205.096 96.1648 205.005 96.12 204.623C95.963 203.15 95.7163 201.677 95.4248 200.222C95.7612 199.64 96.0751 199.076 96.4115 198.512C97.7345 207.06 99.1697 215.644 100.605 224.21ZM114.62 305.195C110.808 303.977 107.937 300.812 107.265 297.557C110.83 299.157 112.714 302.267 114.62 305.195ZM114.754 152.5C111.503 141.988 111.211 132.313 110.202 121.619C110 119.455 109.799 119 108.947 117.655C110.449 120.037 113.611 122.183 115.831 124.056C126.662 133.204 125.294 145.735 121.526 157.029C121.459 157.229 121.571 157.356 121.728 157.429C121.257 158.484 120.809 159.538 120.316 160.575C122.894 150.645 121.011 138.806 116.302 129.821C116.145 129.53 115.629 129.749 115.696 130.021C117.423 136.205 119.284 142.116 119.755 148.481C120.136 153.591 119.015 158.556 118.746 163.63C117.983 165.103 117.154 166.504 116.346 167.922C117.243 162.648 116.436 157.92 114.754 152.5ZM157.405 133.386C158.436 136.005 156.485 138.205 154.804 140.424C154.378 137.951 155.499 135.332 157.405 133.386ZM174.111 136.314C174.38 136.514 173.864 136.678 173.483 136.878C172.653 137.278 171.846 137.46 170.859 137.442C169.402 137.423 167.967 137.132 166.531 136.951C167.496 136.35 168.46 135.75 169.424 135.168C169.828 135.205 170.209 135.223 170.568 135.277C171.711 135.423 173.191 135.659 174.111 136.314ZM182.475 126.348C182.228 126.311 182.026 126.33 181.847 126.384C178.349 123.547 177.362 119.71 177.16 115.799C177.071 113.726 177.407 111.653 177.856 109.634C178.013 108.998 178.192 108.361 178.394 107.743C178.461 107.525 178.349 107.07 178.237 106.67C178.304 106.724 178.326 106.779 178.394 106.815C178.797 107.579 179.291 108.325 179.851 109.034C180.389 109.78 181.174 110.325 181.982 110.853C181.668 115.963 182.183 121.183 182.475 126.348ZM202.881 117.145C205.796 116 209.272 115.108 212.501 115.745C217.187 116.654 214.138 119.71 211.985 120.964C206.357 124.256 199.674 125.438 193.216 127.057C193.059 126.802 192.768 126.639 192.319 126.675C191.31 126.784 190.278 126.857 189.269 126.948C190.862 126.184 192.229 125.184 193.194 123.82C193.53 123.347 193.126 122.729 192.521 122.638C193.081 122.183 193.665 121.765 194.292 121.346C194.696 121.11 195.077 120.855 195.458 120.619C197.903 119.2 200.616 118.036 202.881 117.145ZM193.799 113.799C195.032 111.926 196.58 110.234 198.418 108.743C199.069 108.216 206.177 105.051 205.774 106.579C203.598 114.636 196.041 118.546 188.709 123.092C190.256 119.964 191.826 116.8 193.799 113.799ZM183.417 124.784C183.282 118 182.699 111.235 184.022 104.506C184.045 104.415 186.175 97.7038 187.431 99.1405C189.269 101.268 190.57 103.542 191.579 106.015C193.328 110.344 191.265 114.272 188.821 118C188.552 117.891 188.193 117.891 187.924 118.127C185.973 119.873 184.471 122.183 183.753 124.584C183.663 124.656 183.551 124.711 183.417 124.784ZM185.143 126.711C185.076 126.584 184.942 126.511 184.762 126.493C184.785 126.366 184.807 126.257 184.829 126.129C186.197 125.911 187.52 125.62 188.821 125.275C187.722 125.893 186.444 126.348 185.143 126.711ZM210.976 143.716C201.109 143.17 193.754 136.805 188.462 130.312C188.754 130.349 189.068 130.385 189.359 130.403C192.566 133.004 197.858 134.514 203.284 134.914C206.469 137.605 209.003 140.351 210.976 143.716ZM202.41 133.113C198.284 132.658 194.696 131.422 191.243 129.749C191.265 129.585 191.243 129.403 191.153 129.258C193.911 128.821 196.759 128.003 199.45 127.112C206.401 126.511 214.362 127.221 217.636 131.24C219.049 132.986 203.621 133.259 202.41 133.113Z" fill="#DBC0AD"/>
<path d="M154.355 264.912C150.364 268.186 147.314 272.351 144.578 276.333C144.354 276.643 144.937 276.915 145.161 276.606C148.166 272.732 152.315 269.332 154.938 265.276C155.14 264.967 154.647 264.658 154.355 264.912Z" fill="#DBC0AD"/>
<path d="M62.4167 282.118C62.0803 281.881 61.587 282.281 61.9234 282.518C64.6591 284.427 67.193 286.519 69.996 288.338C70.3099 288.538 70.7136 288.228 70.4445 287.974C68.1572 285.719 65.1524 284.009 62.4167 282.118Z" fill="#DBC0AD"/>
<path d="M93.6085 228.319C94.214 232.52 96.5237 238.358 101.748 240.195C101.883 240.322 101.995 240.486 102.152 240.595C102.399 240.758 102.892 240.668 102.847 240.358C102.847 240.322 102.825 240.286 102.825 240.249C102.982 240.049 103.004 239.776 102.713 239.649C102.69 239.649 102.69 239.631 102.668 239.631C102.197 237.685 100.896 235.703 99.9545 233.92C98.7661 231.647 97.2861 229.501 94.9315 227.882C94.5055 227.555 93.5188 227.719 93.6085 228.319ZM98.7212 235.084C99.1697 235.975 99.5509 237.012 100.067 237.976C97.6897 235.975 96.277 233.029 95.5819 230.283C96.9273 231.72 97.8691 233.375 98.7212 235.084Z" fill="#DBC0AD"/>
<path d="M33.5345 118.109C30.3279 115.781 26.1794 114.581 22.5467 112.798C22.0534 112.544 21.5825 113.18 22.0982 113.435C25.7085 115.235 29.543 116.763 33.1981 118.473C33.4672 118.6 33.7812 118.291 33.5345 118.109Z" fill="#DBC0AD"/>
<path d="M107.197 39.342C105.942 40.124 104.484 40.8696 102.87 41.0333C102.062 41.1243 102.017 42.0518 102.87 42.0881C104.596 42.1609 105.964 41.8153 107.467 41.1061C108.588 40.5787 110.337 39.6693 110.606 38.5781C110.673 38.3053 110.449 38.0143 110.068 38.0143C108.902 38.0325 108.094 38.7964 107.197 39.342Z" fill="#DBC0AD"/>
<path d="M37.952 90.7003C38.3108 90.4093 38.0193 90.0092 37.5708 89.9728C36.6515 89.8819 35.7545 90.0637 34.8351 89.9183C33.8036 89.7546 32.7945 89.2635 32.0097 88.7361C31.5163 88.4088 30.8661 88.918 31.2921 89.3181C32.7272 90.6275 35.9563 92.3734 37.952 90.7003Z" fill="#DBC0AD"/>
<path d="M185.457 132.166C184.426 131.675 183.596 130.947 183.08 130.074C182.811 129.62 181.847 129.947 182.071 130.42C182.542 131.438 183.17 132.33 184.202 133.039C185.121 133.657 186.578 134.476 187.834 134.148C188.126 134.075 188.328 133.766 188.148 133.53C187.543 132.802 186.354 132.602 185.457 132.166Z" fill="#DBC0AD"/>
<path d="M46.1144 101.761C46.0696 102.052 46.6078 102.143 46.7872 101.906C48.8502 98.9784 49.2314 95.2502 48.3569 91.9947C48.2447 91.6128 47.6169 91.5219 47.3029 91.7765C44.926 93.6134 43.7824 97.4507 45.1726 99.9241C45.4193 100.361 46.3387 100.051 46.1369 99.5968C45.2847 97.7599 45.8453 95.1228 47.2805 93.3951C47.5271 96.2322 46.4957 98.9057 46.1144 101.761Z" fill="#DBC0AD"/>
<path d="M97.017 54.9832C97.0618 55.3469 97.6673 55.3469 97.7121 54.9832C97.8018 54.4558 97.8915 53.7101 97.9364 52.8554C98.1606 52.7644 98.3176 52.528 98.0933 52.3279C98.0485 52.2916 98.0261 52.2552 97.9812 52.2188C98.0933 48.8543 97.4206 44.4349 93.1377 44.8714C92.8461 44.9078 92.5322 45.0533 92.5546 45.3443C92.7564 48.0905 94.5952 50.3456 96.86 52.2734C96.9273 53.4009 96.9273 54.383 97.017 54.9832ZM93.7655 45.8353C95.9631 46.0536 96.5685 48.6542 96.7927 51.1094C95.2679 49.5636 94.0346 47.8177 93.7655 45.8353Z" fill="#DBC0AD"/>
</svg>
