<svg width="220" height="415" viewBox="0 0 220 415" fill="none" xmlns="http://www.w3.org/2000/svg">
<path d="M219.25 129.038C216.649 124.582 209.63 123.459 202.791 123.745C203.666 123.459 204.518 123.156 205.325 122.889C208.958 121.695 216.268 119.556 216.537 115.725C216.873 111.126 207.343 112.534 204.563 113.301C203.284 113.657 201.917 114.138 200.526 114.691C203.823 111.715 206.289 108.186 207.433 103.855C207.523 103.516 207.231 103.16 206.76 103.16C200.28 103.231 196.086 106.493 193.104 110.61C194.248 105.405 191.871 100.094 187.027 94.9972C186.735 94.6942 186.04 94.5694 185.794 94.9972C183.551 98.9003 182.52 102.928 182.116 107.027C181.443 106.011 180.726 105.013 180.098 103.98C179.941 103.73 179.605 103.623 179.246 103.623C179.111 103.534 178.954 103.463 178.775 103.481C178.64 103.498 178.483 103.498 178.349 103.498C178.013 103.498 177.766 103.677 177.654 103.908C174.963 110.467 174.178 119.681 181.197 124.707C181.129 124.921 181.107 125.17 181.286 125.42C176.824 127.077 172.496 129.091 168.281 131.355C167.81 131.408 167.384 131.515 167.047 131.693C166.845 131.818 166.778 131.979 166.845 132.139C163.415 134.028 160.073 136.06 156.799 138.199C158.818 135.614 159.872 132.335 158.122 129.751C157.921 129.466 157.382 129.412 157.091 129.644C154.221 132.121 152.696 135.81 153.907 139.072C153.638 139.5 153.369 139.909 153.167 140.337C153.122 140.444 153.144 140.533 153.167 140.605C143.659 147.11 134.712 154.31 126.123 160.869C125.922 160.94 125.742 161.029 125.54 161.1C125.361 161.172 125.338 161.314 125.383 161.439C124.307 162.259 123.253 163.061 122.199 163.845C120.854 164.683 119.62 165.609 118.566 166.696C117.737 167.374 116.862 168.015 116.055 168.693C120.428 162.419 123.096 155.451 125.451 148.464C126.729 144.686 128.119 140.765 129.42 136.808C131.371 136.398 133.254 134.794 134.51 133.636C135.923 132.335 136.82 130.731 136.685 129.002C136.64 128.557 136.08 128.271 135.564 128.485C133.703 129.305 132.111 130.802 130.877 132.192C132.514 126.757 133.815 121.249 134.218 115.796C134.622 115.956 135.16 115.938 135.497 115.546C135.878 115.119 136.214 114.691 136.573 114.263C136.977 113.764 137.335 113.229 137.717 112.73C147.314 110.663 157.069 101.966 153.391 94.1774C153.167 93.714 152.247 93.91 152.449 94.3912C155.566 101.698 146.955 107.598 139.017 110.877C139.533 110.093 140.026 109.291 140.497 108.471C140.699 108.239 140.856 107.972 140.99 107.615C141.035 107.491 140.99 107.402 140.946 107.295C147.987 103.481 152.292 96.1022 151.418 89.5792C151.373 89.2762 151.059 89.0445 150.655 89.1158C147.673 89.6861 145.834 91.1832 144.287 93.0189C144.466 90.4525 144.376 87.9752 144.242 85.8543C144.22 85.5692 143.861 85.2484 143.457 85.3731C139.107 86.7276 136.169 89.5614 135.048 93.0545C133.882 91.3614 128.747 85.5692 126.953 88.9732C126.751 88.3673 126.594 87.7791 126.527 87.191C126.46 86.692 125.809 86.4603 125.316 86.7811C119.194 90.898 119.643 104.461 126.975 108.489C123.746 107.776 120.809 106.457 118.432 104.55C116.817 103.267 115.808 101.556 115.539 99.7557C115.203 97.5458 116.929 95.8883 118.073 94.0526C118.208 93.8209 117.916 93.5179 117.602 93.6783C113.454 95.9239 113.342 100.201 115.562 103.445C118.051 107.063 123.388 109.112 128.366 109.362C128.523 109.362 128.612 109.291 128.68 109.184C129.083 109.309 129.487 109.451 129.935 109.522C130.429 110.913 130.743 112.338 130.967 113.8C131.079 114.495 132.245 114.691 132.537 113.96C132.537 113.925 132.559 113.907 132.559 113.871C132.738 113.871 132.895 113.8 133.008 113.693C131.864 124.03 129.375 135.008 125.473 145.613C126.168 141.71 126.078 137.735 125.294 133.618C123.545 124.44 113.521 120.554 108.476 112.891C108.184 112.445 107.354 112.766 107.489 113.212C110.27 121.927 108.947 130.927 110.314 139.785C111.75 149.177 117.535 156.662 115.45 166.5C114.059 168.799 112.579 171.045 111.032 173.184C106.009 177.978 101.591 183.093 97.8242 188.493C96.7927 181.596 95.8733 174.681 95.0436 167.766C97.6672 164.879 99.0351 160.797 98.1157 157.429C97.9812 156.983 97.3309 156.948 96.9497 157.179C95.963 157.803 94.9539 158.855 94.1691 160.031C93.2721 151.69 92.5546 143.331 92.1285 134.955C92.0164 132.887 91.9491 130.838 91.9267 128.788C95.6042 126.115 97.4878 121.267 97.286 117.489C97.2636 117.008 96.5685 116.776 96.12 117.097C94.1467 118.594 92.7788 120.43 91.9491 122.426C91.994 119.699 92.1061 116.972 92.2631 114.263C92.3079 114.227 92.3528 114.192 92.3528 114.121C93.3618 98.1874 103.43 83.6087 114.351 70.5271C122.58 60.6713 133.837 52.6691 139.376 41.5658C139.667 43.3302 139.443 45.059 138.569 46.7521C137.874 48.8551 137.066 50.9225 136.147 52.9543C133.591 58.9604 129.756 64.6814 125.585 70.0637C118.499 79.1709 107.758 85.9256 99.6406 94.3912C99.3266 94.712 99.9769 95.0685 100.336 94.819C120.674 79.2422 139.735 60.9387 141.865 37.6092C141.91 37.1459 141.058 36.8429 140.677 37.2171C131.303 46.1105 119.531 53.1325 110.584 62.3466C101.748 71.436 97.286 83.3057 95.6715 94.5694C95.6491 94.7833 95.8285 94.9081 96.0527 94.9615C94.9763 97.225 94.0121 99.5241 93.317 101.894C94.7746 87.7613 97.1291 73.6995 99.2369 59.5842C102.13 57.1782 104.417 53.6493 104.955 50.4235C105.022 49.9958 104.35 49.8175 103.968 49.9779C102.376 50.6195 101.188 51.6532 100.224 52.8473C100.717 49.2472 101.188 45.6471 101.591 42.047C101.793 41.9579 101.973 41.7975 101.905 41.548C101.838 41.3519 101.771 41.1737 101.726 40.9777C101.771 40.6569 101.793 40.3182 101.838 39.9974C105.65 38.8568 108.991 36.2726 109.799 33.0824C110.045 33.0289 110.292 32.9576 110.539 32.9041C119.239 38.2508 131.483 31.7457 141.192 32.5477C141.753 32.6012 142.067 32.1021 141.977 31.7279C140.834 26.9158 134.353 25.7752 128.949 26.0425C134.084 23.0306 136.64 18.6641 139.757 14.3511C140.071 13.9233 139.667 13.4421 139.062 13.4065C133.77 13.1392 128.119 12.9966 124.015 15.7412C125.114 12.8362 125.428 9.87767 124.711 7.16867C124.643 6.91916 124.195 6.75876 123.948 6.91916C123.545 7.16867 123.343 7.29343 123.163 7.40036C123.163 7.36472 123.163 7.3469 123.186 7.31125C123.567 5.74289 124.643 5.47555 124.531 4.24581C124.509 3.9963 124.329 3.74678 123.993 3.67549C117.737 2.46357 113.678 5.77853 111.122 9.84203C110.516 6.79441 109.395 3.78243 108.834 0.716986C108.767 0.396183 108.274 0.21796 107.915 0.307072C101.008 1.80415 99.3491 7.11521 99.1697 12.2302C96.9273 7.9885 93.5412 4.08541 89.5273 0.82392C89.1461 0.503118 88.5183 0.681341 88.3389 1.07343C85.8722 6.7944 85.4013 12.4976 87.6661 17.6482C84.0559 14.8501 79.7729 12.5688 75.2881 10.947C74.7947 10.7688 74.279 11.1431 74.5481 11.553C78.0238 16.9531 78.0238 23.0127 82.531 28.0921C84.751 30.6051 88.5855 32.3695 92.2855 34.0269C92.6667 35.5062 93.3618 36.9498 94.5727 38.0548C95.8958 39.2845 98.1382 40.6747 100.313 40.5321C100.313 40.5499 100.313 40.5677 100.336 40.5677C98.6539 50.5839 96.8376 60.5822 95.1558 70.5984C94.2364 68.0676 93.0927 65.626 92.734 63.0239C93.6533 64.9487 93.7206 67.0161 94.5727 69.0479C94.7073 69.3865 95.3127 69.3152 95.3352 68.9587C95.6042 66.1785 94.6176 62.8635 92.5321 60.6179C92.1509 60.2258 91.3661 60.3505 91.3437 60.8674C91.097 64.7348 92.6218 68.7627 94.9091 72.1668C93.1824 82.5394 91.6576 92.9298 90.7158 103.356C89.8861 102.465 88.7649 101.805 87.3298 101.734C86.9261 101.716 86.5898 102.019 86.5898 102.322C86.6795 104.906 88.0249 107.651 89.2358 110.021C89.4601 110.449 89.7067 111.019 90.0879 111.465C89.774 116.669 89.617 121.873 89.6843 127.113C89.7516 131.889 89.9534 136.666 90.2225 141.442C89.2358 139.464 87.8231 137.628 86.1189 136.309C85.6928 135.989 84.7959 136.185 84.8631 136.719C85.4462 141.371 87.6661 145.737 90.6037 149.765C90.6709 149.837 90.7607 149.854 90.8279 149.908C91.9716 163.756 93.8327 177.586 95.9854 191.38C95.5818 192.004 95.1782 192.628 94.7745 193.252C91.4558 180.758 83.7195 169.031 75.8935 157.785C75.9608 157.678 75.9608 157.571 75.9159 157.464C76.7008 155.896 76.5214 153.704 76.4317 152.189C76.3196 150.229 75.7141 148.143 73.8978 146.735C73.4717 146.415 72.7093 146.539 72.5523 147.021C71.9917 148.749 71.8347 150.585 72.1263 152.367C71.4535 151.405 70.7808 150.442 70.1305 149.48C66.3184 143.937 62.9549 138.341 59.8828 132.656C59.95 132.638 60.0173 132.62 60.0622 132.584C63.2688 130.428 62.9773 125.224 62.5736 122.23C62.5288 121.802 61.7888 121.41 61.3628 121.838C59.0755 124.137 58.3355 127.06 58.4476 129.965C51.4962 116.616 46.2938 102.875 42.2575 88.5455C42.549 88.1534 42.8405 87.7613 43.1096 87.3692C44.1635 86.692 44.9484 85.6761 45.2399 84.7672C49.4332 84.3929 53.7161 83.2523 57.3712 81.8265C59.4567 81.0066 64.8161 77.3352 60.3761 75.7669C60.0622 75.6599 59.6137 75.8382 59.7482 76.159C60.3761 77.6382 61.1609 78.2442 59.4567 79.563C57.9767 80.7215 55.7567 81.3987 53.8507 81.9691C51.1374 82.8067 48.155 83.5552 45.1726 83.8939C49.0744 82.7532 52.9313 80.7928 55.7343 78.9392C60.3761 75.8738 63.9415 72.1668 64.6591 67.3013C64.7039 66.9805 64.3227 66.7844 63.9864 66.7666C58.4701 66.3389 55.1961 68.2637 52.5725 70.9192C54.5234 67.2656 55.3307 63.2734 54.344 59.103C54.2768 58.7822 53.6937 58.6931 53.447 58.9069C50.4871 61.3842 48.1102 63.9685 45.9799 66.9092C45.5762 62.9883 43.8944 59.103 41.2035 55.592C41.0017 55.3246 40.5308 55.2712 40.2393 55.5029C36.3824 58.5505 34.9921 62.8457 35.463 67.0874C32.8618 64.1467 29.8345 61.3842 27.7043 58.9426C27.48 58.6752 26.9194 58.5327 26.6279 58.8357C21.8516 63.3982 22.8383 69.939 26.8746 74.7688C22.7037 73.2361 18.1741 72.345 14.8104 72.1133C14.3171 72.0776 13.9584 72.5232 14.0929 72.8797C17.165 81.7552 27.8836 85.6048 38.5575 86.5494C38.692 86.5672 38.8041 86.4959 38.8714 86.4246C39.006 86.4603 39.1405 86.5316 39.2751 86.5494C39.6787 86.6029 40.0599 86.2108 39.7011 85.9613C39.006 85.4622 38.3781 84.8206 37.7502 84.1256C37.7278 84.0008 37.683 83.8939 37.6605 83.7869C38.4678 84.3929 39.2526 85.0345 39.9702 85.7296C39.9926 85.7474 40.0151 85.7652 40.0375 85.783C40.0375 85.8187 40.0375 85.8365 40.0375 85.8721C40.0375 86.3533 40.4636 86.6029 40.9345 86.6385C41.0017 86.8524 41.0466 87.0662 41.0914 87.2801C41.0017 87.4227 40.9344 87.5653 40.8447 87.7078C40.8223 87.7257 40.7999 87.7435 40.7999 87.7613V87.7791C40.7775 87.8148 40.7551 87.8504 40.7551 87.8682C40.4411 88.4029 40.9793 88.8841 41.5175 88.8841C43.289 95.621 45.2623 102.269 47.5944 108.809C47.5496 108.792 47.5047 108.756 47.4374 108.756C44.1859 108.756 40.8896 106.653 40.8223 103.997C41.8314 104.532 42.7284 105.156 43.5581 105.869C44.4999 106.689 45.195 107.74 46.3386 108.417C46.6974 108.631 47.1683 108.275 47.0562 107.972C46.675 106.849 45.5314 105.922 44.5671 105.067C43.4235 104.051 42.0781 103.195 40.5532 102.554C40.1944 102.411 39.6339 102.518 39.5666 102.875C38.7818 106.475 42.8405 109.897 47.415 109.433C47.572 109.415 47.6841 109.344 47.7514 109.255C51.3392 119.307 55.7567 129.127 61.5197 138.68C58.6494 135.739 55.7792 132.763 52.7968 129.822C41.6969 114.513 25.5964 99.9696 1.62514 99.6666C1.15424 99.6666 1.04211 100.237 1.51301 100.326C13.7341 102.447 23.9594 104.746 33.6242 111.465C39.2751 115.386 43.715 120.198 47.8859 125.153C35.5975 113.746 21.5152 103.819 2.14088 100.789C1.73725 100.718 1.58028 101.164 1.96149 101.271C16.5147 105.691 28.2649 110.52 39.5217 119.253C44.2308 122.907 48.5138 126.899 52.6846 130.98C52.7295 131.034 52.7743 131.087 52.8192 131.141C46.8544 126.151 38.3108 123.709 30.6643 120.697C18.7347 115.992 9.89958 108.168 0.616032 100.825C0.279671 100.558 -0.213648 100.95 0.100288 101.235C6.87235 107.259 13.8911 112.998 22.0983 117.774C31.8527 123.442 43.4684 126.275 53.0658 132.264C53.2901 132.406 53.5592 132.353 53.6713 132.21C53.7386 132.299 53.8283 132.406 53.918 132.495C54.0077 132.62 54.1646 132.62 54.2992 132.584C57.2591 135.507 60.1743 138.466 63.1118 141.371C70.3099 152.759 77.9565 163.595 84.2801 174.913C82.0601 172.72 78.248 170.956 74.9741 170.831C74.3463 170.813 74.0323 171.366 74.3014 171.776C76.2523 174.645 80.468 177.336 84.7286 177.265C85.0874 177.265 85.2443 177.033 85.1995 176.802C85.2219 176.802 85.2443 176.784 85.2668 176.784C88.4958 182.737 91.3885 188.832 93.5861 195.248C91.6352 198.598 89.9534 202.038 88.4285 205.549C88.9443 202.608 88.6079 199.258 85.6928 197.315C85.2892 197.048 84.5492 197.101 84.4147 197.583C83.6747 200.452 84.4371 204.587 87.2625 206.761C87.2849 206.921 87.3074 207.1 87.3522 207.26C87.3746 207.367 87.4867 207.421 87.5989 207.438C85.8722 211.698 84.4371 216.064 83.3383 220.52C82.9571 222.106 82.6207 223.692 82.3068 225.296C82.6432 221.696 82.7777 218.078 82.7329 214.425C82.6432 205.87 78.8759 198.474 77.0147 190.168C76.8802 189.545 75.6693 189.598 75.4899 190.168C70.4445 206.797 73.4493 223.692 80.7819 239.572C80.3783 253.277 82.845 267.072 86.9934 280.367C80.6698 271.225 71.3414 263.008 62.2821 255.452C62.0579 253.598 61.7664 251.745 61.4748 249.909C63.9863 244.384 68.0227 238.36 65.0178 232.657C64.7488 232.176 64.0088 232.158 63.7621 232.657C62.8651 234.368 61.6991 235.918 60.6228 237.522C60.7797 234.439 60.7797 231.356 60.9367 228.415C60.9591 228.041 60.4209 227.667 59.95 227.827C54.3664 229.627 52.0119 234.297 52.2137 239.002C49.0744 235.633 44.769 232.871 40.1272 231.017C39.6787 230.839 39.1405 231.053 39.1405 231.463C39.0284 235.206 41.1587 239.037 43.3338 242.37C43.1768 242.281 42.9975 242.174 42.8405 242.085C39.9702 240.463 33.8484 237.576 30.4624 240.053C25.5964 243.582 30.8212 246.772 36.8533 248.804C35.9115 248.786 35.0369 248.822 34.2745 248.875C27.5025 249.374 26.9194 253.883 29.3861 258.072C29.6552 258.535 30.4624 258.428 30.7764 258.072C35.3957 252.796 47.9083 254.792 54.5907 255.666C55.0616 255.719 55.1961 255.256 54.7701 255.113C48.2671 252.939 35.8666 251.994 30.3279 256.521C29.4982 254.774 28.9152 252.814 30.7315 251.353C32.503 249.909 35.9787 250.123 38.266 250.265C43.2217 250.586 47.0338 252.564 51.5859 253.723C51.698 253.759 51.8101 253.741 51.8998 253.705C54.1422 254.739 56.564 255.541 58.8512 255.683L58.941 255.897C59.1876 256.45 59.9949 256.468 60.3985 256.165C60.5555 256.307 60.8022 256.378 61.0488 256.378C61.1385 256.646 61.1833 256.931 61.273 257.198C61.4524 257.751 62.6409 257.662 62.5736 257.056C62.5736 256.967 62.5512 256.86 62.5288 256.771C67.1481 260.905 71.5881 265.183 75.7814 269.567C80.8941 274.932 84.594 280.938 89.1237 286.552C89.2807 286.997 89.4376 287.443 89.5946 287.888C90.5364 290.508 91.6128 293.093 92.734 295.659C81.6789 282.078 63.6276 268.551 45.3744 268.854C44.6568 268.872 44.2981 269.549 44.7914 269.977C52.9089 276.856 58.3803 286.391 67.8657 292.219C75.6917 297.031 85.7153 299.812 93.3843 304.766C94.8194 306.228 96.2545 307.671 97.7345 309.115C97.9587 309.329 98.34 309.061 98.2054 308.83C98.026 308.544 97.8242 308.277 97.6224 308.01C98.3848 308.705 99.1248 309.436 99.7975 310.22C102.758 315.887 105.83 321.484 108.7 327.151C108.139 326.902 107.579 326.652 107.018 326.385C105.74 324.567 103.744 322.891 102.062 321.377C100.201 319.683 98.0036 317.955 95.2006 317.367C94.5952 317.242 93.8552 317.705 94.1243 318.222C96.5461 323.087 103.004 327.169 109.373 328.506C113.723 337.256 117.512 346.167 119.531 355.667C119.441 357.271 119.306 358.857 119.172 360.443C117.983 356.451 115.584 352.494 111.525 351.122C110.763 350.873 110.09 351.282 110.202 351.924C111.122 357.003 112.714 363.812 118.544 366.877C116.817 382.436 113.297 397.888 107.96 413.625C107.758 414.213 108.812 414.409 109.081 413.875C114.866 402.557 118.566 390.884 120.719 378.978C126.841 374.968 132.828 367.358 131.819 361.174C131.752 360.746 131.169 360.301 130.608 360.621C125.765 363.277 124.217 367.465 121.885 371.404C123.186 361.174 123.455 350.801 122.984 340.357C127.402 336.276 128.926 330.395 130.092 325.28C130.205 324.781 129.554 324.228 128.904 324.567C127.671 325.208 124.531 329.04 122.491 332.64C122.423 331.892 122.379 331.125 122.311 330.377C123.388 320.646 124.823 311.004 126.594 301.433C135.205 293.805 142.157 285.019 149.512 276.642C160.208 264.505 170.59 252.707 178.349 239.162C178.64 238.663 178.17 238.021 177.407 238.182C156.172 242.976 141.237 256.984 132.783 273.007C134.577 265.949 136.55 258.909 138.658 251.887C138.681 251.941 138.681 251.994 138.703 252.048C138.77 252.297 139.286 252.297 139.376 252.048C139.735 250.711 139.914 249.267 139.892 247.806C141.147 243.725 142.47 239.643 143.838 235.562C148.368 233.78 152.651 230.429 154.579 227.007C154.871 226.49 154.4 225.991 153.705 226.098C150.723 226.544 147.942 228.166 145.744 230.073C146.731 227.203 147.695 224.352 148.749 221.482C148.772 221.482 148.772 221.482 148.794 221.465C151.373 220.128 153.705 218.524 156.015 216.92C155.768 217.205 155.521 217.49 155.319 217.775C155.14 218.025 155.499 218.328 155.813 218.167C156.553 217.793 157.158 217.276 157.719 216.724C164.738 216.955 173.326 212.446 177.788 209.577C178.304 209.238 177.878 208.543 177.25 208.561C172.967 208.668 168.482 209.613 164.155 210.807C169.469 207.367 174.088 203.232 177.407 198.652C177.676 198.278 177.34 197.832 176.802 197.832C170.59 197.69 165.926 200.06 162.092 203.321C163.885 198.705 163.773 193.733 160.903 189.652C160.656 189.313 160.096 189.277 159.737 189.527C155.97 192.218 153.346 195.872 151.754 199.828C151.081 197.725 149.983 195.747 148.323 194C147.067 192.699 140.475 187.869 138.591 191.077C136.147 195.266 138.098 200.185 139.981 204.284C136.909 202.448 133.187 201.397 129.935 202.127C129.599 202.199 129.352 202.466 129.33 202.751C129.263 209.345 137.403 216.385 145.924 216.617C146.395 217.882 146.955 219.112 147.561 220.36C147.606 220.449 147.673 220.484 147.763 220.52C147.763 220.573 147.763 220.627 147.763 220.68C147.695 220.805 147.673 220.948 147.695 221.072C146.103 224.958 144.578 228.896 143.053 232.835L143.009 232.889C142.941 232.978 142.919 233.067 142.941 233.156C142.74 233.655 142.56 234.172 142.381 234.671C141.708 235.045 141.058 235.437 140.407 235.847C140.004 236.097 140.452 236.596 140.878 236.507C141.192 236.435 141.484 236.328 141.798 236.239C140.923 238.574 140.026 240.891 139.174 243.243C138.434 240.82 137.178 238.52 135.272 236.756C134.958 236.471 134.286 236.614 134.174 236.988C133.187 240.624 135.048 245.097 137.291 248.519C135.766 252.903 134.308 257.305 132.918 261.725C132.694 258.482 131.707 255.184 129.442 252.689C129.173 252.404 128.523 252.297 128.298 252.689C126.078 256.45 128.321 262.206 131.685 265.397C131.685 265.486 131.707 265.557 131.729 265.646C128.321 276.928 125.451 288.298 123.388 299.74C122.244 301.879 121.011 303.982 119.531 305.996C119.194 306.477 120.114 306.905 120.45 306.424C120.742 306.014 121.011 305.568 121.302 305.158C121.482 305.336 121.818 305.408 122.087 305.194C122.222 305.087 122.334 304.998 122.446 304.891C121.795 308.919 121.257 312.964 120.831 316.992C118.925 302.556 116.1 288.12 113.185 273.898C113.185 273.898 113.207 273.88 113.207 273.862C113.297 273.809 113.342 273.755 113.387 273.684C117.176 269.407 119.732 262.901 117.378 258.179C117.176 257.769 116.436 257.466 115.988 257.893C113.857 259.943 112.22 262.634 111.436 265.432C109.328 255.113 107.242 244.954 105.561 235.009C104.619 229.538 103.699 224.049 102.757 218.577C105.964 215.458 108.027 210.7 107.624 206.797C107.579 206.28 106.727 205.852 106.233 206.333C104.462 208.009 102.645 210.236 101.748 212.571C100.582 205.638 99.4612 198.723 98.3848 191.772C101.524 187.014 105.134 182.451 109.171 178.103C109.328 178.156 109.53 178.192 109.709 178.067C111.525 176.944 114.844 176.624 117.311 176.855C116.436 177.728 115.472 178.495 114.261 179.083C112.377 179.992 110.561 179.814 108.52 180.01C108.005 180.063 107.624 180.651 108.229 180.883C112.377 182.487 117.243 179.315 119.351 176.73C119.62 176.41 119.351 175.946 118.903 175.857C116.391 175.394 112.983 175.59 110.516 176.659C113.588 173.469 116.885 170.386 120.428 167.463C122.468 165.77 124.576 164.148 126.729 162.544C131.303 160.512 136.483 159.175 141.349 157.678C152.875 154.132 163.594 151.815 175.95 150.799C176.465 150.763 176.488 150.157 175.95 150.139C162.719 149.765 150.767 153.615 138.703 157.482C135.788 158.409 132.671 159.3 129.689 160.352C129.734 160.316 129.778 160.298 129.801 160.263C136.461 157.785 142.47 154.381 148.951 151.547C156.62 148.197 165.522 147.68 174.066 147.68C178.461 147.68 199.764 147.021 189.673 151.904C176.757 158.124 165.567 159.96 150.678 160.191C140.923 160.352 132.088 161.421 123.612 165.378C123.253 165.556 123.5 166.055 123.903 165.93C138.21 161.475 152.046 161.884 167.047 160.869C178.282 160.102 188.059 153.864 197.589 149.712C198.194 149.444 198.127 148.571 197.387 148.482C184.874 146.842 172.653 145.577 160.051 147.252C150.229 148.553 142.022 153.508 133.523 157.625C138.927 153.775 144.399 149.961 149.669 146.023C154.826 142.173 160.028 138.484 165.5 135.08C167.787 135.703 170.209 136.398 172.631 136.113C173.976 135.953 176.331 134.973 176.039 133.636C175.793 132.46 173.842 131.996 172.631 131.711C172.339 131.64 171.958 131.569 171.577 131.497C174.783 129.697 178.102 127.986 181.556 126.418C181.735 126.578 181.982 126.703 182.296 126.703C182.565 126.703 182.811 126.667 183.08 126.667C183.91 127.167 184.852 127.541 185.906 127.808C186.242 127.897 186.444 127.79 186.601 127.648C186.713 127.683 186.825 127.719 186.96 127.719C187.117 127.737 187.274 127.755 187.431 127.772C192.723 135.204 200.997 142.28 212.411 142.333C213.061 142.333 213.308 141.816 213.084 141.389C211.267 138.02 209.025 134.777 205.46 132.495C210.752 132.602 215.932 131.676 219.25 129.626C219.407 129.555 219.385 129.252 219.25 129.038ZM131.303 133.618C131.415 133.44 131.572 133.262 131.707 133.101C132.133 132.62 132.626 132.175 133.142 131.729C133.725 131.212 134.375 130.66 135.093 130.196C134.801 131.283 134.061 132.228 133.075 133.119C132.671 133.493 132.178 133.814 131.685 134.117C131.707 133.921 131.572 133.689 131.281 133.707C131.236 133.707 131.214 133.707 131.191 133.725C131.236 133.689 131.281 133.672 131.303 133.618ZM144.085 94.9437C144.556 94.3021 145.027 93.6783 145.543 93.0545C145.565 93.0189 150.207 89.2406 150.184 90.6664C150.139 93.5179 149.175 96.2091 147.65 98.7577C145.789 101.894 142.941 104.14 139.623 105.994C142.336 102.982 143.592 98.9716 144.085 94.9437ZM135.698 93.0545C136.416 92.0208 137.358 90.506 136.932 91.2901C137.201 90.898 137.492 90.5238 137.761 90.1317C138.905 88.4742 140.632 87.4049 142.964 86.9593C143.009 89.3119 142.919 91.6822 142.695 94.017C142.179 99.3458 139.981 103.195 135.967 106.689C135.967 106.475 135.99 106.243 135.99 106.029C138.412 102.518 137.717 97.7953 135.676 94.1774C135.743 93.8922 135.811 93.6249 135.855 93.3397C135.9 93.1971 135.811 93.108 135.698 93.0545ZM130.788 107.847C130.496 107.259 130.182 106.689 129.778 106.118C129.397 105.566 128.164 105.958 128.478 106.546C128.859 107.312 129.24 108.079 129.621 108.845C121.795 106.564 120.383 93.3219 125.316 88.4029C125.854 90.7911 126.975 93.0189 128.186 95.2823C130.608 99.7023 131.909 103.249 130.788 107.847ZM132.357 109.451C132.312 109.469 132.29 109.505 132.245 109.522C132.066 109.647 132.088 109.808 132.2 109.95C132.133 110.164 132.066 110.396 131.976 110.627C131.819 110.307 131.685 109.968 131.528 109.647C131.685 109.505 131.617 109.237 131.326 109.184C131.326 109.166 131.303 109.13 131.303 109.112C136.394 103.178 129.577 96.0843 127.2 89.8287C127.289 89.7931 127.379 89.7396 127.424 89.6505C128.68 86.4603 135.003 95.5675 135.272 96.2091C136.461 98.9359 136.281 101.574 135.25 104.087C134.891 104.051 134.487 104.194 134.286 104.55C133.456 106.136 132.895 107.794 132.357 109.451ZM95.8061 118.933C95.6715 120.626 95.1109 122.212 94.2364 123.816C93.6758 124.85 92.8685 125.776 92.1285 126.703C92.3527 123.852 93.4964 121.107 95.8061 118.933ZM109.395 65.5725C116.974 55.8771 129.038 48.9621 138.726 40.6925C127.783 58.9426 106.973 74.0916 97.0394 92.7694C99.0351 83.0919 102.825 73.9668 109.395 65.5725ZM106.345 33.0824C105.291 34.0091 104.462 35.0072 103.767 36.1478C104.439 34.722 105.202 33.3319 106.233 32.0665C106.368 32.0308 106.502 31.9774 106.614 31.9417C106.547 32.3338 106.48 32.7081 106.345 33.0824ZM135.25 27.7178C135.833 27.8604 142.829 31.4605 139.398 31.1219C137.717 30.9437 135.945 31.1754 134.286 31.3536C126.303 32.1912 119.957 34.4547 112.22 32.4764C117.625 31.1397 122.805 29.2862 127.469 26.7733C127.558 26.8802 127.671 26.9693 127.895 26.9693C130.406 26.9158 132.828 27.1653 135.25 27.7178ZM135.945 14.5115C138.277 14.5828 137.38 14.8857 136.326 16.3115C135.16 17.9334 134.039 19.5552 132.738 21.1057C127.671 27.1297 118.185 29.2327 110.023 31.9061C109.978 31.9061 109.933 31.9239 109.911 31.9417C109.866 31.9596 109.821 31.9774 109.776 31.9952C109.619 31.6209 109.081 31.4605 108.588 31.5496C108.588 31.4427 108.565 31.3179 108.565 31.211C115.001 28.4307 120.607 23.0127 123.276 17.2383C126.662 14.4758 131.393 14.3689 135.945 14.5115ZM122.849 8.43406C124.442 7.86375 123.051 13.959 122.917 14.4224C122.087 17.0066 120.383 19.377 118.589 21.6226C115.988 24.8663 112.602 27.4505 108.722 29.5714C113.005 26.7911 116.705 23.3514 119.576 19.6621C121.056 17.7373 121.885 15.563 122.154 13.3352C122.356 11.6777 122.558 10.0559 122.849 8.43406ZM111.077 16.4719C111.436 14.8145 111.436 13.1926 111.234 11.5886C113.274 8.8618 115.046 6.02804 119.037 4.69137C123.971 3.05171 121.033 8.93309 120.831 10.1806C119.979 15.4561 118.634 18.9314 114.373 23.1553C112.153 25.3475 109.485 27.1653 106.861 29.0545C106.861 29.0545 106.861 29.0545 106.839 29.0723C106.009 29.6783 105.202 30.3021 104.394 30.9259C107.579 26.3812 109.933 21.6048 111.077 16.4719ZM87.3073 12.2837C87.0607 10.2341 87.4643 8.07761 87.8904 6.06369C88.72 2.21406 89.2582 2.14277 92.6443 5.65377C99.7303 12.9788 100.605 21.177 99.3715 29.9991C98.8333 28.8585 98.1157 27.7713 97.0394 26.7911C96.6357 26.4346 95.7836 26.702 95.8285 27.1832C95.8509 27.4149 95.8957 27.6465 95.9182 27.8782C94.5951 24.7771 92.3752 21.9612 89.6619 19.4661C88.3613 17.2739 87.5989 14.8679 87.3073 12.2837ZM92.7564 31.5853C92.734 31.0863 91.7697 31.0863 91.7921 31.5853C91.7921 31.9239 91.8594 32.2625 91.8819 32.619C89.4152 31.3536 86.9485 30.1239 84.7061 28.5911C81.1407 26.1495 79.7505 22.3177 78.562 18.8601C78.2032 17.8264 77.2165 12.8896 76.1626 12.4263C80.9838 14.5471 85.2668 17.2027 88.8322 20.5533C89.2582 20.9453 89.6395 21.3553 90.0207 21.7652C90.3122 22.1216 90.5813 22.4781 90.8952 22.8167C93.0255 25.5079 94.2812 28.4664 95.4024 31.5318C95.1782 31.6388 94.9988 31.8348 95.0661 32.0665C95.3127 32.8685 95.5818 33.8309 95.9182 34.7755C94.9764 34.223 93.9897 33.7061 93.0031 33.1893C92.8685 32.6546 92.7788 32.12 92.7564 31.5853ZM99.3715 39.1063C99.1472 39.0528 98.9006 38.9994 98.6763 38.9459C97.443 38.6429 96.4339 37.9479 95.5594 37.2171C94.6849 36.4864 94.0346 35.631 93.5637 34.7042C94.5503 35.1319 95.5145 35.5775 96.4115 36.023C97.0394 37.3419 97.9587 38.5182 99.4163 39.0885C99.4163 39.0707 99.3939 39.0885 99.3715 39.1063ZM99.6181 30.6229C99.9097 30.7298 100.336 30.6585 100.47 30.3734C102.668 24.9732 102.219 19.4483 99.9994 14.2976C100.179 11.9985 100.448 9.71727 101.121 7.47165C101.188 7.22214 107.063 -0.263243 107.489 2.78438C107.668 4.03194 108.139 5.40426 108.498 6.61618C110.987 15.1174 107.646 21.7295 103.901 29.0902C103.879 28.9476 103.856 28.8228 103.834 28.6802C103.632 27.9495 102.174 27.9495 101.973 28.6802C101.479 30.4625 101.031 32.2625 100.65 34.0626C100.381 32.8863 100.067 31.7279 99.6181 30.6229ZM99.7751 54.9504C100.672 53.7385 101.816 52.4909 103.161 51.6176C102.399 53.7385 100.829 55.4494 99.4387 57.3029C99.5509 56.5187 99.663 55.7346 99.7751 54.9504ZM86.6122 138.715C88.6079 141.068 89.0564 143.759 89.8637 146.504C88.4285 144.009 87.2401 141.424 86.6122 138.715ZM90.1328 108.988C89.9534 108.578 89.7516 108.168 89.5722 107.74C88.9667 106.279 88.2716 104.693 88.0249 103.124C89.5273 103.516 90.0879 104.693 90.357 106.029C90.2673 107.009 90.2 107.99 90.1328 108.988ZM94.3261 162.473C94.9091 161.1 95.8285 159.781 96.86 158.837C97.1739 161.385 95.963 163.506 94.7297 165.716C94.5951 164.611 94.4606 163.542 94.3261 162.473ZM61.4748 67.7468C64.7263 67.5508 61.3179 72.1133 60.5106 73.1826C58.8288 75.3748 56.2725 77.157 53.7386 78.7076C51.0925 80.3116 48.2223 81.3274 45.3071 82.272C45.4865 81.5591 45.5986 80.8284 45.6435 80.0977C51.0253 75.8382 52.7295 68.2815 61.4748 67.7468ZM45.9126 67.6042C46.092 67.6577 46.3162 67.6577 46.4283 67.4795C47.4598 66.125 53.2228 58.2653 53.6713 62.2575C54.0077 65.4299 52.6622 68.5132 50.9356 71.3113C49.4107 73.7708 47.258 75.8025 44.9483 77.7452C44.612 77.7095 44.2532 77.7986 44.029 78.0481C44.029 77.5313 44.0514 76.9966 44.0514 76.4798C45.5762 73.6104 46.1144 70.6162 45.9126 67.6042ZM15.7747 73.4321C22.4571 74.0916 29.2067 76.5689 33.6018 80.6145C33.3103 80.8462 33.1757 81.2027 33.4224 81.4878C34.2745 82.5394 35.6648 84.4998 37.2345 85.6583C28.1527 84.2503 18.9365 80.6858 15.7747 73.4321ZM37.8848 78.9036C37.5709 79.8304 37.6157 80.7037 37.8175 81.577C37.7727 81.6839 37.7278 81.8086 37.6605 81.9156C37.3018 81.7017 36.943 81.5057 36.5618 81.3096C36.3375 80.9532 36.0684 80.6145 35.7769 80.2759C35.8666 80.1155 35.8218 79.8838 35.5527 79.7947C35.4181 79.7413 35.2836 79.6878 35.1491 79.6343C33.6466 78.1372 31.5836 76.8719 29.2515 75.8025C27.8164 74.3233 26.6728 72.648 25.8207 70.9192C24.991 69.2795 24.6995 67.5151 24.6322 65.7507C24.5649 64.4675 25.6861 58.7822 27.9285 61.206C30.6418 64.1289 33.7812 67.0161 35.9787 70.1172C36.4945 71.7568 37.3242 73.3252 38.3557 74.7688C38.692 75.9095 38.8266 77.1035 38.7145 78.3333C38.3333 78.3868 37.9969 78.565 37.8848 78.9036ZM40.4187 79.8482C40.3514 79.7234 40.2617 79.5987 40.1945 79.4917C40.486 78.5115 40.5533 77.5313 40.4411 76.5511C40.5084 76.4798 40.5308 76.3907 40.4411 76.2837C40.4187 76.2659 40.4187 76.2481 40.3963 76.2303C40.0599 73.7173 38.6472 71.24 36.7636 68.8518C36.0684 65.4299 36.5393 61.8476 38.4229 58.7644C41.652 53.4355 44.4326 64.9844 44.6793 66.927C45.0381 69.7786 44.2532 72.4341 43.1544 75.0362C42.7956 75.0005 42.4368 75.0718 42.235 75.3748C41.2932 76.8006 40.755 78.2976 40.4187 79.8482ZM61.0936 124.119C61.0936 125.277 61.0264 126.436 60.8022 127.594C60.6003 128.628 60.107 129.608 59.7034 130.606C59.6585 128.361 59.8379 126.115 61.0936 124.119ZM74.3463 154.934C73.4493 152.92 73.1802 150.763 73.6063 148.642C75.0638 150.514 74.5929 152.742 74.3463 154.934ZM76.5214 172.293C79.3244 172.916 81.1183 174.788 83.4729 176.089C80.7371 175.305 78.2705 174.146 76.5214 172.293ZM85.5807 199.097C86.8813 200.595 86.9037 202.502 86.9485 204.391C85.9843 202.733 85.4013 200.951 85.5807 199.097ZM80.0195 232.354C79.1674 225.974 77.7323 219.7 77.9565 213.248C77.9789 212.696 76.9026 212.696 76.9026 213.248C76.6335 220.377 77.8668 227.578 79.6832 234.546C79.7056 234.6 79.728 234.635 79.7729 234.653C79.7504 234.778 79.7504 234.903 79.728 235.027C74.8396 221.589 72.799 207.706 75.9384 193.769C75.9608 193.715 78.5171 200.202 78.562 200.363C80.3335 204.943 80.7595 209.648 80.9838 214.407C81.2977 220.395 80.6698 226.383 80.0195 232.354ZM55.8016 231.926C57.0125 230.18 59.2773 228.397 59.1204 231.57C59.0082 233.655 58.8961 235.74 58.7616 237.808C58.5822 240.321 58.1561 242.798 57.7749 245.275C57.73 245.24 57.7076 245.204 57.6628 245.15C57.1694 244.723 56.3846 245.097 56.3398 245.578C56.3398 245.649 56.3398 245.703 56.3398 245.774C55.8016 244.17 54.9943 242.655 53.9628 241.212C53.3349 238.039 53.8507 234.707 55.8016 231.926ZM56.25 250.693C56.1155 250.693 55.981 250.747 55.9137 250.836C55.4652 250.426 55.0168 250.016 54.5234 249.624C54.1871 248.804 54.0301 247.949 53.9852 247.093C54.5683 247.646 55.0392 248.216 55.4876 248.822C55.7119 249.428 55.981 250.069 56.25 250.693ZM40.3963 232.39C44.4102 234.208 47.9308 236.471 50.6665 239.483C51.4962 240.392 52.1465 241.354 52.7071 242.334C53.0434 243.439 53.5368 244.491 54.1422 245.489C54.0301 245.4 53.918 245.293 53.8058 245.204C53.2901 244.83 52.5725 245.115 52.5277 245.632C52.438 246.487 52.4604 247.414 52.6174 248.305C51.8774 247.842 51.115 247.414 50.2853 247.022C48.895 245.756 47.1235 244.651 45.4641 243.653C44.8586 242.727 44.3653 241.889 44.0065 241.319C42.3472 238.663 40.6429 235.437 40.3963 232.39ZM46.2938 250.069C44.5672 249.57 42.6835 249.25 40.8447 249.036C39.3199 248.59 37.8399 248.073 36.4721 247.574C34.7006 246.915 33.0188 246.113 31.5612 245.097C29.0721 243.404 29.857 240.784 33.243 240.427C37.3018 240 41.8987 243.101 44.7465 244.99C44.9932 245.15 45.2174 245.346 45.4417 245.525C46.5629 246.95 48.0429 248.376 49.7919 248.964C50.0386 249.16 50.2853 249.374 50.5319 249.588C50.7113 249.766 50.8459 249.962 51.0253 250.158C49.7247 249.855 48.3568 249.695 46.8992 249.766C46.6526 249.766 46.4283 249.909 46.2938 250.069ZM49.1641 250.996C50.7338 251.192 52.1913 251.656 53.604 252.279C54.5458 252.903 55.5549 253.456 56.721 253.866C56.9452 253.937 57.147 253.937 57.3264 253.883C57.5507 253.919 57.7525 253.883 57.9543 253.794C58.0888 254.133 58.2234 254.454 58.3579 254.792C55.1737 254.115 51.855 252.582 49.1641 250.996ZM59.6137 253.313C59.4118 252.832 59.21 252.333 58.9858 251.852C58.6943 251.067 58.47 250.283 58.2682 249.499C58.3803 249.232 58.4925 248.964 58.5822 248.679C59.0979 249.659 59.4343 250.711 59.6585 251.798C59.6361 251.834 59.6361 251.887 59.6137 251.923C59.5688 252.065 59.6361 252.172 59.7482 252.244C59.8155 252.689 59.8828 253.135 59.9276 253.58C59.8379 253.491 59.7258 253.402 59.6137 253.313ZM60.6676 245.257C60.6003 244.83 60.0173 244.705 59.681 244.865C60.0397 243.119 60.2415 241.319 60.3761 239.519C60.3985 239.501 60.4209 239.519 60.4434 239.501C62.3494 238.146 63.5155 236.453 64.3003 234.582C65.5336 238.984 63.1118 243.76 61.1161 248.162C60.9591 247.218 60.8245 246.238 60.6676 245.257ZM96.6357 319.416C98.9678 320.485 100.582 322.321 102.242 324.086C100.022 322.82 98.026 321.341 96.6357 319.416ZM112.086 353.154C116.257 355.667 116.436 360.942 117.826 365.059C114.328 361.798 112.916 357.378 112.086 353.154ZM127.514 327.864C126.348 331.428 124.778 334.815 122.715 338.094C122.67 337.292 122.625 336.472 122.58 335.67C123.724 333.3 125.832 330.038 127.514 327.864ZM173.505 210.629C169.155 213.088 163.841 215.227 158.571 215.565C158.84 215.209 159.109 214.835 159.333 214.478C159.49 214.246 159.311 213.979 159.064 213.872C163.908 213.124 168.751 211.769 173.505 210.629ZM175.367 198.991C172.631 202.484 169.379 205.531 165.455 208.258C163.235 209.809 160.791 211.128 158.414 212.536C157.36 212.874 156.329 213.213 155.319 213.534C154.849 213.694 154.849 214.336 155.409 214.336C154.871 214.656 154.355 214.995 153.839 215.351C153.503 215.298 153.167 215.227 152.808 215.138C153.144 214.621 153.481 214.104 153.75 213.551C156.777 211.484 159.221 208.739 160.858 205.745C164.715 202.092 169.312 199.187 175.367 198.991ZM159.602 191.167C160.791 190.151 162.002 197.404 161.935 196.745C162.181 199.507 160.903 202.359 159.558 204.854C158.324 207.1 156.553 208.971 154.602 210.735C154.647 210.45 154.736 210.183 154.759 209.898C154.804 209.238 153.615 208.811 153.077 209.345C152.898 209.506 152.718 209.684 152.561 209.844C152.584 209.31 152.629 208.775 152.561 208.223C152.539 208.009 152.427 207.866 152.292 207.741C152.516 205.941 152.516 204.106 152.225 202.288C153.57 198.099 156.059 194.179 159.602 191.167ZM131.214 205.496C130.361 203.321 130.922 202.894 133.68 203.321C135.541 203.607 137.268 204.605 138.703 205.496C139.802 206.191 140.744 206.993 141.618 207.848C142.381 209.221 143.3 210.611 144.399 211.823C144.623 213.088 144.982 214.318 145.386 215.53C138.95 214.193 133.254 210.735 131.214 205.496ZM141.977 205.817C140.318 202.733 139.241 199.436 138.77 196.388C138.569 195.141 138.479 190.258 142.269 191.79C145.901 193.252 148.211 195.747 149.579 198.705C150.207 200.042 150.498 201.414 150.655 202.822C150.095 204.943 149.848 207.1 149.893 209.221C149.691 209.577 149.489 209.951 149.332 210.326C149.041 209.274 148.637 208.24 148.054 207.224C147.763 206.708 146.619 206.957 146.686 207.51C146.978 209.506 147.606 211.466 148.166 213.427C147.449 212.856 146.798 212.233 146.17 211.573C146.17 211.537 146.193 211.502 146.193 211.448C145.655 209.541 144.085 207.51 141.977 205.817ZM146.776 216.652C146.978 216.652 147.202 216.652 147.404 216.635C147.449 216.635 147.493 216.599 147.516 216.599C147.83 217.383 148.121 218.185 148.435 218.987C148.323 219.29 148.189 219.593 148.076 219.896C147.606 218.827 147.157 217.74 146.776 216.652ZM144.489 233.316C144.578 233.263 144.668 233.227 144.735 233.192C145.072 233.031 145.049 232.728 144.847 232.55C146.821 230.643 149.31 228.7 152.158 227.791C150.207 230.287 147.359 231.926 144.421 233.548C144.421 233.459 144.444 233.388 144.489 233.316ZM135.183 238.717C136.82 240.855 137.358 243.172 137.627 245.578C136.573 243.333 135.183 241.123 135.183 238.717ZM128.926 254.275C130.922 257.056 131.124 260.282 131.371 263.472C129.509 260.691 128.007 257.145 128.926 254.275ZM128.343 292.112C130.586 287.478 132.895 282.863 136.124 278.532C142.964 269.389 152.113 261.476 157.965 251.852C158.212 251.442 157.495 251.103 157.203 251.495C150.207 260.567 142.403 269.157 135.205 278.104C132.783 281.098 130.967 284.288 129.308 287.532C129.958 284.556 130.631 281.579 131.326 278.603C138.927 261.761 153.369 246.291 174.649 240.196C174.649 240.196 167.967 252.315 166.935 253.723C162.63 259.676 157.696 265.307 152.629 270.868C144.085 280.26 135.967 289.778 126.975 298.867C127.402 296.621 127.872 294.376 128.343 292.112ZM121.347 374.345C124.15 370.406 125.406 365.202 129.958 362.493C129.285 367.946 125.047 372.117 121.033 376.376C121.145 375.699 121.257 375.022 121.347 374.345ZM83.5177 247.913C84.8631 244.99 85.9619 242.085 87.9352 239.412C88.0025 242.566 85.3565 245.418 83.5401 248.341C83.5401 248.198 83.5401 248.055 83.5177 247.913ZM94.7521 304.481C91.6128 300.792 87.8904 297.388 84.1904 294.108C78.7862 289.314 71.633 286.195 66.296 281.419C65.9373 281.098 65.3766 281.561 65.713 281.882C70.3099 286.373 76.7232 289.243 81.6341 293.485C84.6837 296.14 87.4867 298.92 90.2673 301.719C87.3074 300.132 84.1231 298.742 81.0959 297.406C68.3142 291.702 61.0264 284.573 52.5052 275.306C49.5228 272.062 43.6029 268.997 53.3349 270.922C61.1161 272.454 68.2469 277.409 74.0547 281.455C83.6746 288.156 90.4691 295.819 96.6582 304.338C97.1291 305.265 97.6 306.192 98.0709 307.136C97.0618 306.192 95.9406 305.319 94.7521 304.481ZM97.6 301.077C97.0394 291.667 94.9539 282.363 95.963 272.9C96.0079 272.597 95.4249 272.615 95.38 272.9C94.1691 281.009 94.6624 289.136 95.7836 297.227C94.6848 294.839 93.6534 292.415 92.7115 289.991C92.8012 289.902 92.8685 289.778 92.8237 289.635C90.2449 280.189 89.191 271.403 91.8594 261.903C93.3394 256.681 95.6491 251.709 97.5103 246.612C97.9139 253.349 100.044 260.371 99.9769 266.894C99.8424 278.763 98.9454 290.562 98.2503 302.396C98.0036 301.968 97.8018 301.522 97.6 301.077ZM116.145 259.854C117.378 263.971 114.687 267.535 112.534 271.224C111.727 267.393 113.386 262.973 116.145 259.854ZM105.717 208.757C105.493 210.183 105.045 211.573 104.372 212.963C103.789 214.175 102.982 215.316 102.287 216.492C102.264 216.35 102.242 216.207 102.219 216.064C102.578 213.534 103.767 210.86 105.717 208.757ZM100.605 220.003C103.722 238.253 107.422 256.468 110.853 274.718C110.853 274.753 110.83 274.771 110.83 274.807C110.785 274.949 110.853 275.074 110.942 275.181C112.243 282.167 113.521 289.172 114.687 296.176C112.803 293.485 109.933 291.168 106.525 290.152C106.031 290.009 105.471 290.384 105.493 290.776C105.717 295.267 109.799 299.58 115.382 300.453C116.302 306.21 117.176 311.966 117.939 317.741C119.127 326.795 119.688 335.688 119.71 344.474C115.27 330.181 105.314 316.369 98.6763 303.287C98.6763 303.269 98.6763 303.269 98.6539 303.251C98.8557 303.251 99.0575 303.18 99.1024 303.002C101.614 294.732 101.322 286.142 101.457 277.676C101.591 268.23 102.309 258.767 100.291 249.41C100.515 247.057 99.9769 244.919 98.7436 242.958C99.1921 241.443 99.6181 239.928 99.9096 238.378C100.067 237.558 98.5418 237.166 98.2951 238.021C97.9812 239.144 97.757 240.267 97.6224 241.426C97.0394 243.707 96.3218 245.935 95.4697 248.162C93.4964 253.812 91.0297 259.266 89.4601 265.004C88.1146 269.977 88.3837 275.217 89.3479 280.332C86.388 270.832 84.5043 261.137 83.7419 251.388C85.491 249.356 86.7243 246.808 87.8904 244.616C89.1013 242.352 90.1776 239.804 89.3031 237.344C89.0788 236.738 88.1595 236.72 87.7334 237.184C85.8722 239.233 84.4595 241.622 83.4055 244.081C83.3607 240.766 83.4056 237.451 83.6298 234.154C84.4819 221.536 88.2043 209.399 94.4382 198.135C94.7073 199.044 94.9988 199.971 95.2679 200.898C95.3576 201.272 96.1648 201.183 96.12 200.808C95.963 199.365 95.7163 197.921 95.4248 196.495C95.7612 195.925 96.0751 195.373 96.4115 194.82C97.7345 203.197 99.1697 211.609 100.605 220.003ZM114.62 299.366C110.808 298.172 107.937 295.071 107.265 291.881C110.83 293.449 112.714 296.497 114.62 299.366ZM114.754 149.73C111.503 139.428 111.211 129.947 110.202 119.467C110 117.346 109.799 116.901 108.947 115.582C110.449 117.917 113.611 120.02 115.831 121.855C126.662 130.82 125.294 143.1 121.526 154.167C121.459 154.363 121.571 154.488 121.728 154.559C121.257 155.593 120.809 156.627 120.316 157.643C122.894 147.912 121.011 136.309 116.302 127.505C116.145 127.22 115.629 127.434 115.696 127.701C117.423 133.761 119.284 139.553 119.755 145.791C120.136 150.799 119.015 155.664 118.746 160.637C117.983 162.08 117.154 163.453 116.346 164.843C117.243 159.674 116.436 155.041 114.754 149.73ZM157.405 130.998C158.436 133.565 156.485 135.721 154.804 137.896C154.378 135.472 155.499 132.905 157.405 130.998ZM174.111 133.868C174.38 134.064 173.864 134.224 173.483 134.42C172.653 134.812 171.846 134.991 170.859 134.973C169.402 134.955 167.967 134.67 166.531 134.491C167.496 133.903 168.46 133.315 169.424 132.745C169.828 132.781 170.209 132.798 170.568 132.852C171.711 132.994 173.191 133.226 174.111 133.868ZM182.475 124.101C182.228 124.065 182.026 124.083 181.847 124.137C178.349 121.356 177.362 117.596 177.16 113.764C177.071 111.732 177.407 109.701 177.856 107.722C178.013 107.099 178.192 106.475 178.394 105.869C178.461 105.655 178.349 105.209 178.237 104.817C178.304 104.871 178.326 104.924 178.394 104.96C178.797 105.708 179.291 106.439 179.851 107.134C180.389 107.865 181.174 108.4 181.982 108.916C181.668 113.925 182.183 119.04 182.475 124.101ZM202.881 115.083C205.796 113.96 209.272 113.087 212.501 113.711C217.187 114.602 214.138 117.596 211.985 118.826C206.357 122.051 199.674 123.21 193.216 124.796C193.059 124.547 192.768 124.386 192.319 124.422C191.31 124.529 190.278 124.6 189.269 124.689C190.862 123.941 192.229 122.96 193.194 121.624C193.53 121.16 193.126 120.554 192.521 120.465C193.081 120.02 193.665 119.61 194.292 119.2C194.696 118.968 195.077 118.719 195.458 118.487C197.903 117.097 200.616 115.956 202.881 115.083ZM193.799 111.804C195.032 109.968 196.58 108.31 198.418 106.849C199.069 106.332 206.177 103.231 205.774 104.728C203.598 112.623 196.041 116.455 188.709 120.911C190.256 117.845 191.826 114.744 193.799 111.804ZM183.417 122.568C183.282 115.921 182.699 109.291 184.022 102.696C184.045 102.607 186.175 96.0309 187.431 97.4388C189.269 99.5241 190.57 101.752 191.579 104.176C193.328 108.417 191.265 112.267 188.821 115.921C188.552 115.814 188.193 115.814 187.924 116.045C185.973 117.756 184.471 120.02 183.753 122.372C183.663 122.444 183.551 122.497 183.417 122.568ZM185.143 124.458C185.076 124.333 184.942 124.261 184.762 124.244C184.785 124.119 184.807 124.012 184.829 123.887C186.197 123.673 187.52 123.388 188.821 123.05C187.722 123.655 186.444 124.101 185.143 124.458ZM210.976 141.121C201.109 140.587 193.754 134.349 188.462 127.986C188.754 128.022 189.068 128.058 189.359 128.075C192.566 130.624 197.858 132.103 203.284 132.495C206.469 135.133 209.003 137.824 210.976 141.121ZM202.41 130.731C198.284 130.285 194.696 129.073 191.243 127.434C191.265 127.273 191.243 127.095 191.153 126.953C193.911 126.525 196.759 125.723 199.45 124.85C206.401 124.261 214.362 124.957 217.636 128.895C219.049 130.606 203.621 130.874 202.41 130.731Z" fill="#DBC0AD"/>
<path d="M154.355 259.89C150.364 263.098 147.314 267.179 144.578 271.082C144.354 271.385 144.937 271.653 145.161 271.35C148.166 267.554 152.315 264.221 154.938 260.246C155.14 259.943 154.647 259.64 154.355 259.89Z" fill="#DBC0AD"/>
<path d="M62.4167 276.751C62.0803 276.519 61.587 276.911 61.9234 277.143C64.6591 279.014 67.193 281.064 69.996 282.846C70.3099 283.042 70.7136 282.739 70.4445 282.49C68.1572 280.28 65.1524 278.604 62.4167 276.751Z" fill="#DBC0AD"/>
<path d="M93.6085 224.03C94.214 228.147 96.5237 233.868 101.748 235.668C101.883 235.792 101.995 235.953 102.152 236.06C102.399 236.22 102.892 236.131 102.847 235.828C102.847 235.792 102.825 235.757 102.825 235.721C102.982 235.525 103.004 235.258 102.713 235.133C102.69 235.133 102.69 235.115 102.668 235.115C102.197 233.208 100.896 231.265 99.9545 229.519C98.7661 227.291 97.2861 225.188 94.9315 223.602C94.5055 223.281 93.5188 223.441 93.6085 224.03ZM98.7212 230.66C99.1697 231.533 99.5509 232.549 100.067 233.493C97.6897 231.533 96.277 228.646 95.5819 225.954C96.9273 227.362 97.8691 228.984 98.7212 230.66Z" fill="#DBC0AD"/>
<path d="M33.5345 116.027C30.3279 113.746 26.1794 112.57 22.5467 110.823C22.0534 110.574 21.5825 111.197 22.0982 111.447C25.7085 113.211 29.543 114.708 33.1981 116.384C33.4672 116.508 33.7812 116.205 33.5345 116.027Z" fill="#DBC0AD"/>
<path d="M107.197 38.8381C105.942 39.6044 104.484 40.3352 102.87 40.4956C102.062 40.5847 102.017 41.4936 102.87 41.5293C104.596 41.6006 105.964 41.2619 107.467 40.5669C108.588 40.05 110.337 39.1589 110.606 38.0895C110.673 37.8222 110.449 37.5371 110.068 37.5371C108.902 37.5549 108.094 38.3034 107.197 38.8381Z" fill="#DBC0AD"/>
<path d="M37.952 89.1677C38.3108 88.8825 38.0193 88.4904 37.5708 88.4548C36.6515 88.3657 35.7545 88.5439 34.8351 88.4013C33.8036 88.2409 32.7945 87.7597 32.0097 87.2428C31.5163 86.922 30.8661 87.4211 31.2921 87.8132C32.7272 89.0964 35.9563 90.8073 37.952 89.1677Z" fill="#DBC0AD"/>
<path d="M185.457 129.803C184.426 129.321 183.596 128.609 183.08 127.753C182.811 127.308 181.847 127.628 182.071 128.092C182.542 129.09 183.17 129.963 184.202 130.658C185.121 131.264 186.578 132.066 187.834 131.745C188.126 131.674 188.328 131.371 188.148 131.139C187.543 130.426 186.354 130.23 185.457 129.803Z" fill="#DBC0AD"/>
<path d="M46.1144 100.007C46.0696 100.292 46.6078 100.381 46.7872 100.149C48.8502 97.28 49.2314 93.6264 48.3569 90.4362C48.2447 90.0619 47.6169 89.9728 47.3029 90.2223C44.926 92.0224 43.7824 95.7829 45.1726 98.2067C45.4193 98.6345 46.3387 98.3315 46.1369 97.8859C45.2847 96.0859 45.8453 93.5016 47.2805 91.8085C47.5271 94.5888 46.4957 97.2087 46.1144 100.007Z" fill="#DBC0AD"/>
<path d="M97.017 54.166C97.0618 54.5225 97.6673 54.5225 97.7121 54.166C97.8018 53.6492 97.8915 52.9184 97.9364 52.0808C98.1606 51.9917 98.3176 51.76 98.0933 51.5639C98.0485 51.5283 98.0261 51.4927 97.9812 51.457C98.0933 48.1599 97.4206 43.829 93.1377 44.2568C92.8461 44.2924 92.5322 44.435 92.5546 44.7202C92.7564 47.4113 94.5952 49.6213 96.86 51.5105C96.9273 52.6155 96.9273 53.5779 97.017 54.166ZM93.7655 45.2014C95.9631 45.4152 96.5685 47.9638 96.7927 50.3698C95.2679 48.8549 94.0346 47.144 93.7655 45.2014Z" fill="#DBC0AD"/>
</svg>
