<svg width="1551" height="181" viewBox="0 0 1551 181" fill="none" xmlns="http://www.w3.org/2000/svg">
<path d="M1506.87 41.0849C1507.11 43.2367 1506.16 46.2016 1505.48 48.473C1483.04 50.9835 1474.43 30.7558 1454.5 27.8387C1441.7 25.9738 1409.47 26.8106 1396.73 32.9316C1373.32 44.1692 1368.33 80.9188 1334.66 68.9638C1326.02 65.8794 1324.92 58.9695 1314.43 57.5827C1305.76 56.435 1293.11 62.0538 1282.9 59.7585C1261.58 54.9526 1248.05 42.0174 1225.87 37.9527C1209.8 35.0118 1190.6 27.7193 1172.38 32.31C1150.35 37.881 1137.64 47.2296 1114.79 46.5363C1100.96 46.1298 1096.15 48.1144 1082.09 49.9554C1070.2 51.5096 1063.39 46.4646 1052.63 45.5799C1014.65 42.4717 977.961 53.2789 942.87 73.0285C927.447 81.7078 911.671 89.335 899.993 101.912C887.018 115.875 880.324 132.301 867.055 146.217C846.796 167.377 816.246 165.129 790.826 165.177C779.296 165.201 768.12 169.433 756.59 170.222C737.57 171.537 730.846 169.72 713.36 174.096C693.691 179.045 671.869 183.205 654.176 178.232C634.507 172.709 625.985 154.466 610.474 144.232C586.765 128.595 567.391 129.432 538.728 122.976C521.654 119.127 494.289 105.546 483.024 95.1691C467.424 80.8471 465.449 58.6825 453.181 42.4716C440.059 25.137 416.468 9.64338 386.449 24.1806C353.834 39.9611 331.629 62.2691 302.082 82.5447C237.708 126.658 174.012 86.8246 114.917 87.8766C80.4745 88.4983 47.2703 98.397 17.5458 82.5686L0 74.4631C29.931 90.1241 64.0198 79.5081 99.1408 78.3365C136.061 77.0932 159.593 94.6431 197.014 92.1326C233.874 89.6459 272.003 76.0412 304.854 58.3478C341.066 38.8374 375.214 1.72924 416.822 0.940213C488.479 -0.398747 465.331 93.7823 530.324 107.507C559.37 113.651 579.157 112.48 602.954 128.045C621.414 140.096 634.36 160.634 656.977 167.544C702.243 181.388 779.149 150.879 830.783 140.861C906.835 126.108 894.803 73.3633 954.046 44.4084C977.136 33.099 1009.37 32.2143 1033.02 33.2185C1053.78 34.0793 1071.79 38.7417 1093.62 38.1201C1120.69 37.3071 1139.79 26.6433 1165.01 22.9373C1231.74 13.1103 1277.27 50.5053 1353.71 30.3732C1409.88 15.573 1426.19 4.12005 1477.53 23.1284C1503.04 32.5728 1518.19 41.4195 1550.93 36.1115L1506.87 41.0849Z" fill="#F1E7E0"/>
</svg>
