<svg width="14" height="14" viewBox="0 0 14 14" fill="none" xmlns="http://www.w3.org/2000/svg">
<path d="M4.36328 10.6857L6.17161 11.9857C6.40495 12.2023 6.92995 12.3107 7.27995 12.3107H9.49662C10.1966 12.3107 10.9549 11.8232 11.1299 11.1732L12.5299 7.21901C12.8216 6.46068 12.2966 5.81068 11.4216 5.81068H9.08828C8.73828 5.81068 8.44661 5.53985 8.50495 5.16068L8.79661 3.42735C8.91328 2.93985 8.56328 2.39818 8.03828 2.23568C7.57161 2.07318 6.98828 2.28985 6.75495 2.61485L4.36328 5.91901" stroke="#667085" stroke-miterlimit="10"/>
<path d="M1.38867 10.6857V5.37737C1.38867 4.61904 1.73867 4.34821 2.55534 4.34821H3.13867C3.95534 4.34821 4.30534 4.61904 4.30534 5.37737V10.6857C4.30534 11.444 3.95534 11.7149 3.13867 11.7149H2.55534C1.73867 11.7149 1.38867 11.444 1.38867 10.6857Z" stroke="#667085" stroke-linecap="round" stroke-linejoin="round"/>
</svg>
