<svg width="142" height="24" viewBox="0 0 142 24" fill="none" xmlns="http://www.w3.org/2000/svg">
<g clip-path="url(#clip0_9_2877)">
<path d="M130.006 7.95732C127.735 7.95732 125.903 9.76084 125.903 11.9968C125.903 14.2327 127.735 16.0362 130.006 16.0362C132.278 16.0362 134.11 14.2327 134.11 11.9968C134.11 9.76084 132.278 7.95732 130.006 7.95732ZM130.006 14.6229C128.538 14.6229 127.338 13.4452 127.338 11.9968C127.338 10.5483 128.535 9.3706 130.006 9.3706C131.478 9.3706 132.674 10.5483 132.674 11.9968C132.674 13.4452 131.474 14.6229 130.006 14.6229V14.6229ZM135.235 7.79209C135.235 8.31592 134.806 8.73428 134.278 8.73428C133.746 8.73428 133.321 8.3124 133.321 7.79209C133.321 7.27178 133.749 6.8499 134.278 6.8499C134.806 6.8499 135.235 7.27178 135.235 7.79209ZM137.953 8.74834C137.892 7.48623 137.599 6.36826 136.66 5.44717C135.724 4.52607 134.588 4.23779 133.306 4.17451C131.985 4.10068 128.024 4.10068 126.703 4.17451C125.424 4.23428 124.288 4.52256 123.349 5.44365C122.41 6.36474 122.121 7.48271 122.056 8.74482C121.981 10.0456 121.981 13.9444 122.056 15.2452C122.117 16.5073 122.41 17.6253 123.349 18.5464C124.288 19.4675 125.421 19.7558 126.703 19.819C128.024 19.8929 131.985 19.8929 133.306 19.819C134.588 19.7593 135.724 19.471 136.66 18.5464C137.596 17.6253 137.888 16.5073 137.953 15.2452C138.028 13.9444 138.028 10.0491 137.953 8.74834V8.74834ZM136.246 16.6409C135.967 17.33 135.428 17.8608 134.724 18.1386C133.671 18.5499 131.171 18.455 130.006 18.455C128.842 18.455 126.338 18.5464 125.288 18.1386C124.588 17.8643 124.049 17.3335 123.767 16.6409C123.349 15.6038 123.446 13.1429 123.446 11.9968C123.446 10.8507 123.353 8.38623 123.767 7.35263C124.046 6.66357 124.585 6.13271 125.288 5.85498C126.342 5.44365 128.842 5.53857 130.006 5.53857C131.171 5.53857 133.674 5.44717 134.724 5.85498C135.424 6.1292 135.963 6.66006 136.246 7.35263C136.663 8.38974 136.567 10.8507 136.567 11.9968C136.567 13.1429 136.663 15.6073 136.246 16.6409Z" fill="#0E0F1D"/>
</g>
<g clip-path="url(#clip1_9_2877)">
<path d="M86.6327 19V8.87947H83.2024V19H86.6327ZM84.918 7.49686C86.1142 7.49686 86.8588 6.71972 86.8588 5.74856C86.8365 4.7555 86.1142 3.99994 84.9407 3.99994C83.7673 3.99994 83 4.75552 83 5.74856C83 6.71977 83.7444 7.49686 84.8956 7.49686H84.9179H84.918ZM88.5313 19H91.9617V13.3482C91.9617 13.0457 91.9839 12.7435 92.0745 12.5273C92.3225 11.923 92.8869 11.2971 93.8345 11.2971C95.0758 11.2971 95.5724 12.2251 95.5724 13.5856V18.9999H99.0025V13.1969C99.0025 10.0883 97.3101 8.64187 95.0532 8.64187C93.2027 8.64187 92.3902 9.6562 91.9388 10.3471H91.9617V8.87926H88.5314C88.5764 9.82891 88.5314 18.9997 88.5314 18.9997L88.5313 19Z" fill="#0E0F1D"/>
</g>
<g clip-path="url(#clip2_9_2877)">
<path d="M59.9998 6.70441C59.3257 6.98888 58.6108 7.17561 57.8787 7.25838C58.6412 6.82297 59.2267 6.13349 59.5024 5.31198C58.7776 5.72179 57.9845 6.01052 57.1574 6.16571C56.4838 5.48199 55.5241 5.05469 54.4619 5.05469C52.4224 5.05469 50.7688 6.62992 50.7688 8.57277C50.7688 8.84855 50.8015 9.11703 50.8645 9.37459C47.7953 9.22782 45.0742 7.82722 43.2528 5.69869C42.935 6.21829 42.7529 6.82271 42.7529 7.46738C42.7529 8.68799 43.4049 9.76478 44.3957 10.3957C43.8093 10.3782 43.2357 10.2273 42.723 9.95562C42.7228 9.97036 42.7228 9.9851 42.7228 9.9999C42.7228 11.7045 43.9957 13.1265 45.685 13.4497C45.1412 13.5906 44.5708 13.6112 44.0174 13.5099C44.4873 14.9077 45.8511 15.9248 47.467 15.9532C46.2032 16.8968 44.6108 17.4593 42.8807 17.4593C42.5826 17.4593 42.2887 17.4426 41.9998 17.4101C43.634 18.4083 45.5751 18.9908 47.6606 18.9908C54.4533 18.9908 58.1677 13.6299 58.1677 8.98078C58.1677 8.82819 58.1642 8.67647 58.157 8.52561C58.88 8.0277 59.504 7.41098 59.9998 6.70441" fill="#0E0F1D"/>
</g>
<g clip-path="url(#clip3_9_2877)">
<path d="M9.78694 19V12.4308H8V10.0656H9.78694V8.04535C9.78694 6.45785 10.8425 5 13.2747 5C14.2595 5 14.9877 5.09177 14.9877 5.09177L14.9303 7.30049C14.9303 7.30049 14.1876 7.29347 13.3772 7.29347C12.5002 7.29347 12.3596 7.68638 12.3596 8.33851V10.0656H15L14.8851 12.4308H12.3596V19H9.78694" fill="#0E0F1D"/>
</g>
<defs>
<clipPath id="clip0_9_2877">
<rect width="16" height="18" fill="white" transform="translate(122 3)"/>
</clipPath>
<clipPath id="clip1_9_2877">
<rect width="16" height="15" fill="white" transform="translate(83 4)"/>
</clipPath>
<clipPath id="clip2_9_2877">
<rect width="18" height="14" fill="white" transform="translate(41.9998 5)"/>
</clipPath>
<clipPath id="clip3_9_2877">
<rect width="7" height="14" fill="white" transform="translate(8 5)"/>
</clipPath>
</defs>
</svg>
