<svg width="437" height="60" viewBox="0 0 437 60" fill="none" xmlns="http://www.w3.org/2000/svg">
<path d="M436.939 7.5135C432.796 7.73291 428.662 8.04886 424.52 8.1454C418.789 8.27704 413.058 8.36481 407.327 8.25072C398.068 8.06641 388.861 7.12734 379.655 6.20581C372.73 5.51248 365.797 4.93324 358.837 4.72261C354.046 4.57341 349.271 4.66995 344.523 5.3194C340.205 5.90742 335.984 6.9167 331.938 8.55789C331.402 8.7773 330.893 9.04059 330.147 9.38287C330.744 9.67249 331.13 9.8568 331.508 10.0323C334.457 11.4014 337.3 12.9549 339.74 15.1402C341.048 16.3075 342.189 17.6151 342.935 19.2212C344.312 22.1525 343.874 25.4788 341.618 27.8045C340.697 28.7524 339.582 29.5774 338.424 30.218C335.58 31.7802 332.482 32.2805 329.252 31.9645C326.496 31.6925 324.03 30.7095 321.906 28.9542C319.598 27.041 318.448 24.6012 318.738 21.5382C318.896 19.8005 319.502 18.2383 320.379 16.7638C321.976 14.0958 324.188 12.0421 326.768 10.3483C327.155 10.0938 327.541 9.83925 328.085 9.48819C327.541 9.26878 327.19 9.09325 326.83 8.97916C323.24 7.89089 319.695 6.66219 316.061 5.75822C306.837 3.46758 297.447 2.15112 287.986 1.44023C275.865 0.527482 263.745 0.387061 251.651 1.88783C244.191 2.80935 236.828 4.21357 229.64 6.434C223.654 8.28582 217.906 10.6906 212.491 13.8676C205.926 17.7205 200.52 22.8985 195.605 28.6383C192.832 31.8856 190.102 35.1679 187.259 38.3625C182.914 43.2422 177.807 47.0951 171.733 49.6051C167.916 51.1849 163.957 52.238 159.912 52.9928C153.215 54.2478 146.431 54.713 139.647 54.8973C134.197 55.0465 128.729 55.064 123.288 54.871C116.451 54.634 109.623 54.1513 102.795 53.7476C100.346 53.5984 97.9062 53.379 95.4664 53.1596C90.9817 52.7558 86.4881 52.3434 82.0034 51.9221C78.7737 51.6149 75.5528 51.299 72.323 50.9655C67.4434 50.4652 62.5724 49.9211 57.7015 49.4559C53.0939 49.0171 48.4863 48.666 43.8787 48.2799C35.5148 47.5778 27.1509 47.1828 18.7782 47.9639C15.4695 48.2711 12.1783 48.7889 9.1066 50.1229C4.83249 51.9748 1.41849 54.7042 0.242455 59.5137C-0.082272 58.7501 -0.0822635 58.364 0.25124 57.4249C0.848035 55.7925 1.89242 54.4585 3.09479 53.2385C5.55218 50.746 8.58004 49.2804 11.9326 48.4203C17.4179 46.9985 23.0172 46.744 28.6341 46.823C38.2881 46.9634 47.9071 47.7006 57.5085 48.7187C63.2044 49.3243 68.909 49.886 74.6137 50.4389C80.7484 51.0357 86.8831 51.6851 93.0265 52.1766C100.241 52.7558 107.455 53.2561 114.678 53.6861C125.657 54.3444 136.636 54.5462 147.616 53.7125C151.986 53.379 156.331 52.8699 160.649 52.0801C171.777 50.0527 181.045 44.8571 188.268 36.0895C190.48 33.4039 192.788 30.7973 195 28.1117C202.723 18.7561 212.192 11.8754 223.602 7.65392C230.368 5.15265 237.311 3.33593 244.411 2.12479C250.528 1.08039 256.689 0.413388 262.894 0.150096C266.527 -0.00787961 270.161 0.0535587 273.803 0.00967668C279.665 -0.0693109 285.511 0.343182 291.329 0.95753C296.867 1.54555 302.37 2.39686 307.873 3.24817C312.752 4.00294 317.553 5.16142 322.275 6.61831C324.574 7.32919 326.839 8.13662 329.138 8.90017C329.349 8.8124 329.568 8.73342 329.788 8.6281C332.973 7.10101 336.343 6.10928 339.784 5.33695C346.234 3.89762 352.79 3.69577 359.355 3.9064C363.621 4.04682 367.886 4.38032 372.142 4.69627C375.495 4.95079 378.839 5.31062 382.183 5.6178C386.632 6.03029 391.073 6.53932 395.531 6.82894C404.053 7.38185 412.593 7.73291 421.141 7.48717C424.415 7.39063 427.697 7.2151 430.971 7.0659C432.98 6.96936 434.99 6.85527 437 6.74995C436.956 7.03957 436.947 7.27654 436.939 7.5135ZM320.52 18.1593C319.747 19.6864 319.256 21.31 319.458 23.0653C319.756 25.7333 321.195 27.6904 323.39 29.1122C326.786 31.3151 330.481 31.8417 334.395 30.9289C336.186 30.5164 337.862 29.8494 339.371 28.7963C343.435 25.979 344.119 21.6084 341.083 17.7205C340.504 16.9745 339.836 16.2899 339.134 15.6492C336.765 13.499 332.341 10.9802 329.077 9.90946C325.461 11.8841 322.407 14.4205 320.52 18.1593Z" fill="#DBC0AD"/>
</svg>
