<svg width="277" height="446" viewBox="0 0 277 446" fill="none" xmlns="http://www.w3.org/2000/svg">
<g opacity="0.1">
<path d="M175.051 300.125C162.182 295.705 145.463 293.426 133.089 300.454C132.567 300.756 132.869 301.635 133.474 301.552C146.233 299.823 156.985 297.956 169.111 301.14C154.317 303.337 136.884 296.94 126.27 310.063C125.802 310.667 126.627 311.381 127.15 310.831C139.551 297.709 159.927 308.855 174.886 302.678C175.848 302.239 176.26 300.536 175.051 300.125Z" fill="#DBC0AD"/>
<path d="M186.655 187.153C186.242 188.197 185.802 189.24 185.39 190.256C185.445 189.871 185.472 189.487 185.527 189.103C188.332 182.321 191.054 175.513 193.529 168.622C193.777 168.732 194.134 168.65 194.244 168.293C200.954 148.609 226.306 137.051 242.393 125.41C256.142 115.472 270.55 104.793 276.902 88.4853C277.342 87.3323 276.215 86.3439 275.143 86.9479C247.425 102.349 218.387 122.528 201.366 149.926C200.816 150.805 201.861 151.628 202.658 151.409C200.514 153.495 198.616 155.774 197.049 158.245C197.846 155.856 198.644 153.468 199.414 151.079C199.744 151.079 200.074 150.915 200.211 150.53C201.998 145.644 203.153 140.674 203.896 135.705C204.363 133.976 204.748 132.246 205.188 130.517C221.687 103.393 255.234 82.8299 252.402 48.1561C252.319 47.1677 250.889 46.5089 250.23 47.4423C234.198 70.0091 219.157 94.4976 209.423 120.496C209.285 120.853 209.34 121.21 209.505 121.457C208.378 123.077 207.278 124.724 206.233 126.371C206.701 124.477 207.223 122.583 207.663 120.661C207.883 119.7 208.075 118.712 208.295 117.751C227.956 88.7598 236.728 16.1453 197.874 0.0574922C197.159 -0.244497 196.416 0.716378 197.076 1.23799C200.376 3.76372 203.291 6.56398 205.903 9.58387C205.848 9.77605 205.821 9.99568 205.876 10.2428C215.032 42.7203 212.558 80.7709 206.096 114.292C204.528 89.9953 198.891 64.9851 210.165 42.2536C210.633 41.3202 209.313 40.7436 208.763 41.5672C194.299 63.7771 203.511 93.7564 205.326 118.245C205.161 119.096 204.968 119.92 204.803 120.771C204.198 96.2821 194.409 71.4916 185.527 49.364C185.115 48.3483 183.602 48.6502 183.657 49.7484C184.785 81.9239 189.817 115.17 198.396 146.275C195.481 156.268 192.099 166.124 188.387 175.842C191.219 157.805 185.142 140.729 177.745 123.241C177.223 122.034 175.628 122.445 175.573 123.681C174.446 144.875 184.235 164.614 184.207 185.451C184.097 186 184.015 186.522 183.905 187.071C177.91 201.594 171.201 215.815 164.051 229.761C164.051 229.212 164.051 228.663 164.051 228.114C180.11 195.719 148.543 155.225 135.371 128.156C134.491 126.344 133.749 124.477 133.034 122.61C132.237 115.719 131.082 108.883 129.184 102.157C128.937 101.251 127.644 101.636 127.644 102.487C127.672 107.538 128.387 112.397 129.624 117.119C129.157 117.092 128.662 117.366 128.662 117.97C128.937 127.607 130.642 137.051 133.172 146.275C133.502 152.177 133.804 158.107 134.354 163.983C135.371 175.019 138.039 185.781 141.641 196.24C145.875 208.485 157.232 218.258 160.312 230.804C160.202 231.189 160.312 231.518 160.532 231.765C160.779 232.973 160.972 234.236 161.054 235.499C158.854 239.699 156.627 243.9 154.372 248.045C148.598 258.642 142.603 269.184 136.416 279.644C136.141 279.891 135.839 280.166 135.564 280.413C135.179 280.742 135.179 281.154 135.316 281.484C134.739 282.472 134.161 283.433 133.556 284.421C139.166 263.886 137.379 241.566 129.322 221.855C123.327 207.222 111.256 182.788 92.3374 183.804C91.4575 183.859 90.825 184.792 91.155 185.616C92.5574 189.35 92.9699 192.781 92.8049 196.076C92.5299 196.323 92.4474 196.735 92.7498 197.037C92.1449 204.476 88.8176 211.34 87.8277 219.494C87.0028 226.302 90.2476 235.06 93.5748 240.715C98.3044 248.786 103.419 255.101 110.596 261.003C116.37 265.78 122.392 270.31 125.967 276.13C113.566 263.117 81.7233 261.525 71.6591 248.237C70.8067 247.084 69.0743 248.265 69.8167 249.5C70.1192 249.994 70.4492 250.406 70.7792 250.873C70.8067 250.983 70.9167 251.12 71.0542 251.257C78.3136 261.882 89.5326 268.443 100.009 275.609C108.946 281.731 115.93 286.563 125.582 289.335C125.28 292.355 124.895 295.293 124.345 298.12C124.262 298.532 124.482 298.752 124.757 298.862C124.73 298.889 124.702 298.944 124.675 298.972C123.217 299.96 121.787 301.168 120.413 302.678C119.698 303.474 120.33 304.407 121.155 304.545C110.788 320.825 99.8168 336.748 88.1852 352.176C95.6096 331.916 96.4896 309.376 95.1972 288.1C95.1147 286.947 93.2998 286.453 92.8599 287.633C88.5977 299.026 85.1879 310.337 83.7031 322.472C82.4657 332.465 82.9332 342.238 81.4208 351.902C79.0285 333.92 61.7874 310.777 62.7223 297.187C62.7773 296.226 61.3749 295.485 60.9349 296.583C57.1677 306.219 56.0128 316.103 58.2952 326.343C61.0999 338.916 73.2264 355.636 71.3291 369.417C70.8066 369.884 70.2842 370.351 69.6793 370.817C68.7993 371.504 69.4592 373.151 70.5591 372.739C70.1192 374.139 69.4868 375.484 68.6619 376.775C62.6399 383.995 56.4529 391.023 50.1009 397.914C34.6471 413.37 18.5334 428.333 1.95227 443.185C1.73229 443.377 1.78723 443.624 1.89722 443.816C1.29227 444.31 0.742362 444.832 0.137411 445.299C-0.22006 445.601 0.19239 446.205 0.549861 445.93C1.70477 445.024 2.80465 444.063 3.95956 443.13C19.4958 431.901 34.2896 419.355 48.2585 405.793C48.3685 405.766 48.4785 405.738 48.5884 405.629C50.1283 403.981 51.8057 402.609 53.5655 401.401C56.6453 399.918 59.6976 398.408 62.7773 396.871C67.0395 395.471 71.6316 394.729 76.3337 394.373C76.5537 394.482 76.8286 394.482 77.1036 394.345C77.1586 394.318 77.1862 394.318 77.2411 394.29C88.5152 393.549 100.449 394.922 110.486 394.894C125.995 394.839 144.088 391.682 157.947 384.544C163.777 381.524 170.266 377.791 173.868 372.053C175.656 369.198 176.783 366.672 177.745 363.487C177.883 362.993 177.745 362.636 177.498 362.307C178.103 362.142 178.515 361.401 178.433 360.824C178.405 360.55 178.378 360.275 178.35 360.001C178.185 358.408 175.683 358.134 175.436 359.809C175.353 360.33 175.243 360.852 175.161 361.346C169.221 360.522 155.197 363.57 154.125 363.789C128.937 368.621 102.237 377.049 79.9084 390.227C78.561 390.694 77.2136 391.16 75.8663 391.627C74.7663 391.71 73.6939 391.819 72.6215 391.957C92.3099 381.936 111.751 371.257 130.944 360.495C145.876 352.149 171.833 338.093 171.283 317.914C171.256 316.734 169.909 316.295 169.001 316.816C143.456 331.175 111.833 344.05 87.0578 363.103C103.171 343.172 117.773 322.087 130.587 300.619C130.999 299.932 129.899 299.411 129.487 300.07C115.903 322.005 100.697 342.128 84.308 361.154C84.858 360.028 85.3804 358.93 85.8754 357.777C99.7343 339.767 112.658 321.017 124.812 301.827C125.857 301.003 126.93 300.317 128.002 299.74C128.332 299.877 128.744 299.85 129.019 299.466C129.129 299.328 129.239 299.191 129.377 299.054C136.911 295.732 144.996 297.187 153.63 294.908C161.109 292.932 168.341 290.159 175.463 287.166C187.507 282.142 199.854 274.895 204.611 262.156C204.996 261.141 203.896 259.795 202.851 260.646C182.805 276.624 155.115 275.059 135.564 290.296C133.502 291.367 131.604 292.712 130.119 294.414C130.312 293.948 130.504 293.453 130.697 292.987C135.096 288.1 138.561 282.801 142.851 278.024C146.865 275.252 150.633 272.04 154.29 268.608C161.384 264.353 169.469 261.47 176.893 258.038C193.942 250.159 211.43 243.488 227.791 234.209C228.699 233.687 228.616 232.067 227.626 231.683C198.616 220.674 175.408 241.429 154.867 261.772C161.274 253.399 166.664 244.037 171.338 234.154C171.503 234.126 171.668 234.071 171.778 233.879C181.54 217.187 202.053 208.567 220.972 210.873C222.127 211.01 223.062 209.555 222.017 208.732C208.268 197.833 191.522 201.676 180.193 212.877C180.743 211.422 181.265 209.995 181.788 208.54C183.08 207.249 184.345 205.986 185.61 204.724C186.187 204.284 186.82 203.872 187.425 203.461C186.93 204.312 186.407 205.163 185.967 206.096C185.637 206.837 186.765 207.414 187.122 206.673C188.002 204.806 189.102 203.131 190.312 201.566C217.7 184.573 258.534 184.518 274.015 151.024C274.455 150.064 273.493 148.581 272.338 149.13C254.134 158.3 234.143 162.939 216.242 172.768C204.061 179.466 193.969 189.844 184.647 200.468C186.792 194.209 188.855 187.977 190.889 181.855C192.759 179.137 195.069 176.721 197.709 174.552C197.791 174.964 198.176 175.321 198.589 174.964C200.101 173.619 201.558 172.164 202.988 170.681C213.74 163.461 226.829 157.805 233.071 147.044C233.373 146.522 232.878 145.891 232.328 145.918C216.957 146.989 203.456 156.927 194.986 169.72C195.646 167.826 196.306 165.932 196.966 164.065C197.076 163.708 196.609 163.461 196.444 163.818C194.299 168.677 192.264 173.509 190.257 178.341C190.064 178.753 189.872 179.164 189.707 179.576C189.679 179.631 189.707 179.686 189.707 179.741C189.047 181.306 188.415 182.898 187.755 184.463C187.342 185.286 186.985 186.192 186.655 187.153ZM249.515 106.495C253.832 103.338 271.788 95.4036 273.438 91.011C269.698 101.004 259.579 109.103 251.604 115.555C240.165 124.806 227.874 133.125 215.692 141.306C211.678 143.996 207.526 146.934 203.896 150.283C217.755 133.866 232.026 119.261 249.515 106.495ZM234.638 76.5705C237.141 72.123 250.587 55.4862 250.285 52.1094C251.027 60.5925 247.48 68.9384 243.685 76.2685C236.316 90.4071 225.014 101.718 215.142 114.045C221.522 101.498 227.709 88.8697 234.638 76.5705ZM174.858 362.883C168.479 387.344 128.359 391.874 107.406 391.984C100.339 392.012 91.9249 391.298 83.5106 391.353C84.3356 390.968 85.1605 390.556 85.9854 390.2C99.1018 387.125 112.631 385.999 125.362 381.744C126.242 381.442 125.967 380.042 125.032 380.124C116.37 380.893 107.461 382.54 98.6894 384.736C123.3 374.853 148.323 368.484 174.858 362.883ZM93.1898 297.544C93.4923 305.478 93.0248 313.385 92.3374 321.291C91.1275 334.634 87.4153 347.152 82.5482 359.507C82.0532 360.138 81.5308 360.797 81.0358 361.456C81.6133 359.973 82.1083 358.463 82.5757 356.953C87.3328 344.105 87.6903 329.802 90.1376 316.459C90.3026 315.526 88.8727 315.224 88.6802 316.157C87.9928 319.589 87.3603 323.021 86.7278 326.452C87.3053 318.381 88.0477 310.337 90.1926 302.678C93.5748 290.598 92.9423 290.653 93.1898 297.544ZM70.7792 354.29C68.3044 347.811 64.7022 341.936 62.4473 335.347C57.9652 322.307 61.5124 311.271 60.715 299.164C61.9799 318.518 85.793 344.737 76.2237 363.24C77.5161 351.929 71.9065 339.356 65.582 330.763C65.0871 330.076 63.9872 330.79 64.4821 331.504C70.9991 341.058 73.9689 351.765 73.2264 362.746C72.759 360.056 71.9341 357.283 70.7792 354.29ZM156.902 326.809C157.15 326.672 168.534 319.754 168.094 322.636C167.269 328.1 162.704 332.712 159.074 336.555C146.92 349.349 129.762 357.914 114.253 365.903C97.3145 374.606 80.8708 384.242 64.2896 393.604C62.1173 394.208 60.055 395.004 58.1026 395.992C58.7076 395.361 59.3126 394.729 59.8901 394.098C83.0432 380.234 107.544 366.507 128.992 350.09C129.624 349.623 128.992 348.69 128.304 349.074C106.581 361.95 84.0331 375.21 63.5748 390.2C64.5097 389.211 65.4445 388.223 66.352 387.235C84.7755 370.955 102.484 356.569 124.372 344.325C135.096 338.285 146.041 332.63 156.902 326.809ZM81.5858 364.366C78.891 367.441 76.1687 370.488 73.4189 373.508C76.0312 370.323 78.616 367.166 81.1458 363.927C81.2558 364.119 81.4208 364.256 81.5858 364.366ZM183.685 194.483C181.843 199.013 180.028 203.516 178.185 207.991C177.498 208.814 176.81 209.61 176.123 210.406C178.735 204.833 181.265 199.205 183.685 193.523C183.657 193.715 183.657 193.907 183.63 194.126C183.575 194.291 183.602 194.401 183.685 194.483ZM209.175 13.7843C228.781 41.2378 224.299 83.2691 209.258 113.139C215.527 81.567 217.37 44.8891 209.175 13.7843ZM191.384 102.432C190.064 94.6075 189.019 86.7283 188.03 78.8491C187.122 71.4916 188.25 60.8396 185.417 54.086C195.591 78.4922 204.941 106.275 201.971 133.015C201.806 133.701 201.613 134.388 201.448 135.074C201.036 135.952 200.596 136.858 200.211 137.764C200.074 138.094 200.294 138.368 200.569 138.451C200.101 140.235 199.606 141.992 199.111 143.777C196.746 129.94 193.722 116.241 191.384 102.432ZM177.663 128.76C180.138 134.635 182.283 140.592 184.18 146.659C187.287 156.652 187.095 166.289 185.747 176.09C185.582 167.524 183.905 159.096 181.788 150.805C181.65 150.283 181.155 150.228 180.798 150.42C179.863 146.33 178.955 142.212 178.268 138.066C178.543 139.686 176.426 125.85 177.663 128.76ZM147.883 155.142C158.745 174.003 167.599 198.052 163.419 220.18C161.714 208.896 156.957 198.217 152.035 187.73C144.858 172.411 138.589 157.449 134.546 141.58C134.299 137.243 134.024 132.905 133.667 128.595C137.571 137.764 142.878 146.495 147.883 155.142ZM131.219 122.281C131.329 122.939 131.439 123.489 131.467 123.9C131.714 125.877 131.852 127.881 132.044 129.858C131.549 126.948 131.137 124.01 130.807 121.045C130.944 121.457 131.082 121.869 131.219 122.281ZM140.156 185.204C137.186 174.717 136.031 163.983 135.261 153.166C137.241 159.315 139.524 165.383 142.026 171.368C149.285 188.828 160.807 205.684 162.347 224.792C162.099 225.643 161.852 226.522 161.549 227.345C160.917 225.451 160.064 223.529 158.854 221.415C151.87 209.144 144.116 199.15 140.156 185.204ZM158.964 243.982C159.762 242.555 160.504 241.072 161.302 239.617C161.687 240.084 162.567 240.084 162.622 239.342C162.704 238.491 162.732 237.668 162.759 236.899C165.206 232.314 167.599 227.702 169.936 223.035C170.129 222.98 170.294 222.87 170.404 222.651C171.833 219.823 173.483 217.27 175.271 214.909C167.654 232.918 159.349 250.516 148.268 267.482C145.848 269.651 143.593 272.04 141.641 274.84C141.421 275.06 141.201 275.279 140.981 275.471C147.14 265.012 153.162 254.524 158.964 243.982ZM128.387 287.716C128.359 287.716 128.304 287.688 128.277 287.688C128.304 287.578 128.304 287.469 128.332 287.359C128.359 287.469 128.359 287.578 128.387 287.716ZM109.578 194.703C117.305 202.253 122.557 212.987 126.875 222.678C135.289 241.539 136.939 263.337 131.962 283.405C131.769 283.268 131.604 283.076 131.412 282.939C131.082 280.468 130.284 278.162 129.102 275.965C128.964 262.239 124.95 248.951 119.588 235.252C114.638 222.568 108.204 204.778 95.8846 197.146C96.0221 196.268 96.1321 195.389 96.1871 194.483C96.3245 192.809 96.1321 190.997 95.5547 189.432C92.9149 182.459 107.901 193.083 109.578 194.703ZM93.6848 234.648C87.5528 221.553 93.2448 211.395 95.4996 199.507C113.841 216.336 124.152 244.888 125.83 271.216C123.657 268.608 121.018 266.137 118.185 263.694C107.929 254.854 99.6518 247.359 93.6848 234.648ZM87.4428 264.408C84.638 262.431 81.9982 260.235 79.4134 257.956C79.0834 257.681 78.836 257.352 78.506 257.05C79.331 257.517 80.1283 257.929 80.9533 258.368C93.7947 265.121 116.618 267.976 125.28 280.276C124.51 280.029 123.712 279.781 122.97 279.534C116.865 277.503 110.816 276.103 105.646 272.067C104.904 271.491 103.941 272.561 104.684 273.193C108.534 276.377 112.933 278.326 117.635 280.029C120.413 281.044 123.19 282.307 125.967 283.515C125.912 284.696 125.857 285.876 125.775 287.029C111.421 282.801 99.7343 273.055 87.4428 264.408ZM127.892 289.939C128.139 289.994 128.414 290.049 128.662 290.104C128.689 290.708 128.717 291.312 128.717 291.971C128.717 291.998 128.717 292.026 128.717 292.053C128.717 292.081 128.717 292.081 128.717 292.081C128.717 292.218 128.689 292.328 128.689 292.465C127.919 293.728 127.122 294.991 126.352 296.226C126.957 294.112 127.507 292.026 127.892 289.939ZM128.332 296.309C128.332 296.528 128.387 296.693 128.552 296.83L128.524 296.858C128.277 296.967 128.03 297.077 127.782 297.187C127.975 296.885 128.139 296.611 128.332 296.309ZM192.677 270.392C195.454 269.02 198.066 267.455 200.569 265.643C206.783 261.525 190.669 276.46 192.347 275.005C181.375 284.339 163.144 291.147 148.9 293.206C143.071 294.057 137.709 294.222 132.759 295.43C133.942 294.277 135.124 293.179 136.361 292.163C139.881 290.461 143.868 289.39 147.278 288.292C151.623 286.865 158.497 285.519 161.384 281.593C161.659 281.209 161.549 280.66 161.247 280.331C165.866 278.985 170.624 277.805 175.463 276.542C181.293 275.06 187.37 273.275 192.677 270.392ZM145.023 286.59C148.873 284.586 152.942 282.994 157.15 281.621C153.162 283.378 149.175 285.053 145.023 286.59ZM218.58 231.765C224.189 235.472 221.962 237.997 211.843 239.37C206.811 241.868 201.641 244.064 196.526 246.316C186.407 250.763 176.316 255.32 166.169 259.686C164.354 260.454 162.594 261.305 160.862 262.184C161.522 261.525 162.182 260.839 162.814 260.18C172.961 255.211 183.987 251.285 192.402 243.927C193.694 242.802 192.237 240.578 190.862 241.703C183.822 247.496 175.546 251.367 167.489 255.403C181.595 241.099 196.169 228.087 218.58 231.765ZM217.727 208.128C201.751 207.359 184.317 213.646 174.776 226.577C175.683 224.463 176.563 222.321 177.443 220.18C188.03 208.842 203.896 197.256 217.727 208.128ZM261.971 164.477C258.176 168.677 253.282 171.807 248.47 174.717C232.081 184.71 211.293 188.553 194.244 197.393C202.383 190.091 214.015 186.33 223.694 181.882C239.863 174.442 255.729 165.52 269.285 153.935C269.643 154.84 263.676 162.582 261.971 164.477ZM237.608 166.069C245.637 162.912 253.969 160.386 261.971 157.037C246.517 167.771 230.266 176.694 212.915 184.38C207.965 186.577 203.126 188.91 198.754 191.82C209.808 181.47 221.412 172.411 237.608 166.069ZM214.977 154.099C217.837 151.958 221.109 150.558 224.437 149.295C226.169 148.636 231.339 147.318 228.341 150.722C225.097 154.401 220.999 157.284 216.957 160.057C213.74 162.253 210.138 164.394 206.536 166.673C208.488 164.285 210.303 161.786 211.87 159.151C212.42 158.217 210.963 157.558 210.385 158.409C207.443 162.884 203.593 166.673 200.239 170.818C199.111 171.615 198.066 172.438 197.021 173.317C202.493 166.453 207.663 159.563 214.977 154.099Z" fill="#DBC0AD"/>
</g>
</svg>
