<svg width="17" height="17" viewBox="0 0 17 17" fill="none" xmlns="http://www.w3.org/2000/svg">
<g clip-path="url(#clip0_13_3317)">
<path d="M0.455 8.40428C0.454625 9.74859 0.808625 11.0612 1.48175 12.2182L0.390625 16.1712L4.46762 15.1104C5.59527 15.7196 6.85871 16.0387 8.14262 16.0388H8.146C12.3844 16.0388 15.8346 12.6166 15.8364 8.41029C15.8372 6.37203 15.038 4.45538 13.5859 3.01339C12.134 1.57153 10.2031 0.777053 8.14569 0.776123C3.90675 0.776123 0.456813 4.19814 0.455063 8.40428" fill="url(#paint0_linear_13_3317)"/>
<path d="M0.180156 8.40177C0.179719 9.79445 0.546406 11.154 1.24353 12.3524L0.113281 16.4471L4.33647 15.3484C5.50009 15.9779 6.81022 16.3098 8.14334 16.3103H8.14678C12.5373 16.3103 16.1114 12.765 16.1133 8.40809C16.114 6.29659 15.286 4.31104 13.782 2.8174C12.2778 1.32394 10.2778 0.500868 8.14678 0.5C3.75553 0.5 0.181906 4.04481 0.180156 8.40177ZM2.69516 12.146L2.53747 11.8976C1.87459 10.8518 1.52472 9.64326 1.52522 8.40226C1.52666 4.78087 4.49691 1.83457 8.14928 1.83457C9.91803 1.83532 11.5803 2.51947 12.8305 3.76078C14.0807 5.0022 14.7687 6.65243 14.7682 8.4076C14.7666 12.029 11.7963 14.9757 8.14678 14.9757H8.14416C6.95584 14.975 5.79041 14.6584 4.77403 14.06L4.53216 13.9177L2.02603 14.5696L2.69516 12.146V12.146Z" fill="url(#paint1_linear_13_3317)"/>
<path d="M6.15551 5.09831C6.00638 4.76944 5.84945 4.7628 5.70763 4.75704C5.59151 4.75208 5.45876 4.75245 5.32613 4.75245C5.19338 4.75245 4.9777 4.802 4.79538 4.99952C4.61288 5.19722 4.09863 5.67499 4.09863 6.64671C4.09863 7.61849 4.81195 8.5576 4.91138 8.6895C5.01095 8.82116 6.28844 10.8791 8.3117 11.6708C9.9932 12.3287 10.3354 12.1978 10.7003 12.1649C11.0653 12.132 11.8781 11.6872 12.0439 11.226C12.2098 10.7649 12.2098 10.3696 12.1601 10.287C12.1103 10.2047 11.9776 10.1552 11.7785 10.0565C11.5794 9.95772 10.6008 9.47989 10.4183 9.41397C10.2358 9.34811 10.1031 9.31524 9.97038 9.51301C9.83763 9.71046 9.45645 10.1552 9.34026 10.287C9.2242 10.419 9.10801 10.4354 8.90901 10.3366C8.70982 10.2375 8.06876 10.0292 7.3082 9.35642C6.71645 8.83288 6.31695 8.18637 6.20082 7.9886C6.0847 7.79115 6.18838 7.68411 6.2882 7.58569C6.37763 7.49719 6.48732 7.35505 6.58695 7.23977C6.6862 7.12442 6.71932 7.04212 6.7857 6.9104C6.85213 6.77856 6.81888 6.66321 6.7692 6.56442C6.71932 6.46563 6.33251 5.48882 6.15551 5.09831Z" fill="white"/>
</g>
<defs>
<linearGradient id="paint0_linear_13_3317" x1="772.681" y1="1540.28" x2="772.681" y2="0.776123" gradientUnits="userSpaceOnUse">
<stop stop-color="#1FAF38"/>
<stop offset="1" stop-color="#60D669"/>
</linearGradient>
<linearGradient id="paint1_linear_13_3317" x1="800.113" y1="1595.21" x2="800.113" y2="0.5" gradientUnits="userSpaceOnUse">
<stop stop-color="#F9F9F9"/>
<stop offset="1" stop-color="white"/>
</linearGradient>
<clipPath id="clip0_13_3317">
<rect width="16" height="16" fill="white" transform="translate(0.113281 0.5)"/>
</clipPath>
</defs>
</svg>
