<svg width="1551" height="104" viewBox="0 0 1551 104" fill="none" xmlns="http://www.w3.org/2000/svg">
<path d="M1506.87 23.4172C1507.11 24.6606 1506.16 26.3737 1505.48 27.6862C1483.04 29.1368 1474.43 17.4489 1454.5 15.7634C1441.7 14.6858 1409.47 15.1694 1396.73 18.7061C1373.32 25.1994 1368.33 46.4337 1334.66 39.526C1326.02 37.7438 1324.93 33.7511 1314.43 32.9498C1305.76 32.2867 1293.11 35.5333 1282.9 34.207C1261.58 31.4301 1248.05 23.956 1225.87 21.6074C1209.8 19.9081 1190.6 15.6944 1172.38 18.3469C1150.35 21.5659 1137.64 26.9677 1114.79 26.5671C1100.96 26.3322 1096.15 27.4789 1082.09 28.5427C1070.2 29.4407 1063.39 26.5257 1052.63 26.0145C1014.65 24.2185 977.962 30.463 942.87 41.8746C927.447 46.8896 911.671 51.2967 899.994 58.5636C887.019 66.6318 880.325 76.123 867.055 84.1636C846.796 96.3903 816.246 95.0916 790.827 95.1192C779.296 95.1331 768.12 97.5784 756.59 98.0343C737.57 98.7941 730.847 97.7442 713.36 100.272C693.691 103.132 671.869 105.536 654.176 102.662C634.507 99.4711 625.985 88.9299 610.474 83.0169C586.765 73.9816 567.391 74.4652 538.728 70.735C521.654 68.5107 494.289 60.6636 483.024 54.6677C467.425 46.3922 465.449 33.5853 453.182 24.2184C440.059 14.2023 416.468 5.24988 386.449 13.6497C353.834 22.7678 331.629 35.6576 302.082 47.3731C237.708 72.8626 174.013 49.8461 114.917 50.454C80.4745 50.8132 47.2703 56.5328 17.5458 47.3869L0 42.7035C29.931 51.7526 64.0198 45.6185 99.1408 44.9416C136.061 44.2232 159.593 54.3637 197.014 52.9131C233.874 51.4763 272.003 43.6153 304.854 33.3919C341.066 22.1185 375.214 0.676994 416.822 0.221085C488.479 -0.552578 465.331 53.8664 530.324 61.7964C559.37 65.347 579.157 64.67 602.954 73.6639C621.414 80.6268 634.36 92.4943 656.978 96.487C702.243 104.486 779.149 86.8576 830.784 81.0689C906.835 72.5448 894.803 42.068 954.046 25.3375C977.136 18.8028 1009.37 18.2916 1033.02 18.8719C1053.78 19.3692 1071.79 22.0633 1093.62 21.7041C1120.69 21.2344 1139.8 15.0727 1165.01 12.9313C1231.74 7.25314 1277.27 28.8604 1353.71 17.2279C1409.88 8.67611 1426.19 2.05848 1477.53 13.0417C1503.04 18.4988 1518.19 23.6106 1550.93 20.5436L1506.87 23.4172Z" fill="#F1E7E0"/>
</svg>
