<svg width="220" height="334" viewBox="0 0 220 334" fill="none" xmlns="http://www.w3.org/2000/svg">
<path d="M219.25 103.898C216.649 100.303 209.63 99.3966 202.791 99.6267C203.666 99.3966 204.518 99.1521 205.325 98.9364C208.958 97.9728 216.268 96.247 216.537 93.1549C216.873 89.4444 207.343 90.5806 204.563 91.199C203.284 91.4866 201.917 91.8749 200.526 92.3208C203.823 89.919 206.289 87.0714 207.433 83.5766C207.523 83.3034 207.231 83.0158 206.76 83.0158C200.28 83.0733 196.086 85.7051 193.104 89.0273C194.248 84.8279 191.871 80.5421 187.027 76.4289C186.735 76.1844 186.04 76.0837 185.794 76.4289C183.551 79.5785 182.52 82.8288 182.116 86.1366C181.443 85.3168 180.726 84.5115 180.098 83.6773C179.941 83.476 179.605 83.3897 179.246 83.3897C179.111 83.3178 178.954 83.2602 178.775 83.2746C178.64 83.289 178.483 83.289 178.349 83.289C178.013 83.289 177.766 83.4328 177.654 83.6198C174.963 88.9123 174.178 96.3477 181.197 100.403C181.129 100.576 181.107 100.777 181.286 100.979C176.824 102.316 172.496 103.941 168.281 105.768C167.81 105.811 167.384 105.897 167.047 106.041C166.845 106.142 166.778 106.271 166.845 106.401C163.415 107.925 160.073 109.565 156.799 111.29C158.818 109.205 159.872 106.559 158.122 104.473C157.921 104.243 157.382 104.2 157.091 104.387C154.221 106.386 152.696 109.363 153.907 111.995C153.638 112.34 153.369 112.671 153.167 113.016C153.122 113.102 153.144 113.174 153.167 113.232C143.659 118.481 134.712 124.291 126.123 129.584C125.922 129.641 125.742 129.713 125.54 129.771C125.361 129.828 125.338 129.944 125.383 130.044C124.307 130.706 123.253 131.353 122.199 131.986C120.854 132.662 119.62 133.41 118.566 134.287C117.737 134.833 116.862 135.351 116.055 135.898C120.428 130.835 123.096 125.212 125.451 119.574C126.729 116.525 128.119 113.361 129.42 110.169C131.371 109.838 133.254 108.543 134.51 107.609C135.923 106.559 136.82 105.264 136.685 103.869C136.64 103.51 136.08 103.28 135.564 103.452C133.703 104.114 132.111 105.322 130.877 106.444C132.514 102.057 133.815 97.6133 134.218 93.2124C134.622 93.3419 135.16 93.3275 135.497 93.0111C135.878 92.6659 136.214 92.3208 136.573 91.9756C136.977 91.5729 137.335 91.1415 137.717 90.7388C147.314 89.0705 157.069 82.0522 153.391 75.7673C153.167 75.3934 152.247 75.5516 152.449 75.9399C155.566 81.8364 146.955 86.5968 139.017 89.2431C139.533 88.6103 140.026 87.9631 140.497 87.3015C140.699 87.1146 140.856 86.8988 140.99 86.6112C141.035 86.5105 140.99 86.4386 140.946 86.3523C147.987 83.2746 152.292 77.3206 151.418 72.0568C151.373 71.8123 151.059 71.6254 150.655 71.6829C147.673 72.1431 145.834 73.3512 144.287 74.8325C144.466 72.7615 144.376 70.7625 144.242 69.051C144.22 68.8209 143.861 68.5621 143.457 68.6627C139.107 69.7558 136.169 72.0424 135.048 74.8613C133.882 73.495 128.747 68.8209 126.953 71.5679C126.751 71.0789 126.594 70.6043 126.527 70.1297C126.46 69.727 125.809 69.54 125.316 69.7989C119.194 73.1211 119.643 84.0656 126.975 87.3159C123.746 86.7406 120.809 85.6764 118.432 84.1375C116.817 83.102 115.808 81.7214 115.539 80.2688C115.203 78.4855 116.929 77.148 118.073 75.6667C118.208 75.4797 117.916 75.2352 117.602 75.3646C113.454 77.1767 113.342 80.6284 115.562 83.2459C118.051 86.1654 123.388 87.8193 128.366 88.0206C128.523 88.0206 128.612 87.9631 128.68 87.8768C129.083 87.9775 129.487 88.0925 129.935 88.1501C130.429 89.2718 130.743 90.4224 130.967 91.6017C131.079 92.1626 132.245 92.3208 132.537 91.7311C132.537 91.7024 132.559 91.688 132.559 91.6592C132.738 91.6592 132.895 91.6017 133.008 91.5154C131.864 99.8568 129.375 108.716 125.473 117.273C126.168 114.124 126.078 110.916 125.294 107.594C123.545 100.188 113.521 97.0524 108.476 90.8682C108.184 90.5087 107.354 90.7675 107.489 91.1271C110.27 98.1598 108.947 105.423 110.314 112.57C111.75 120.15 117.535 126.19 115.45 134.129C114.059 135.984 112.579 137.796 111.032 139.522C106.009 143.39 101.591 147.518 97.8242 151.876C96.7927 146.31 95.8733 140.73 95.0436 135.15C97.6672 132.82 99.0351 129.526 98.1157 126.808C97.9812 126.449 97.3309 126.42 96.9497 126.607C95.963 127.11 94.9539 127.959 94.1691 128.908C93.2721 122.177 92.5546 115.432 92.1285 108.673C92.0164 107.005 91.9491 105.351 91.9267 103.697C95.6042 101.539 97.4878 97.6276 97.286 94.5787C97.2636 94.1904 96.5685 94.0034 96.12 94.2623C94.1467 95.4704 92.7788 96.9517 91.9491 98.5625C91.994 96.362 92.1061 94.1616 92.2631 91.9756C92.3079 91.9468 92.3528 91.9181 92.3528 91.8605C93.3618 79.0032 103.43 67.2389 114.351 56.6827C122.58 48.7296 133.837 42.2722 139.376 33.3123C139.667 34.7361 139.443 36.1311 138.569 37.4974C137.874 39.1945 137.066 40.8627 136.147 42.5023C133.591 47.3489 129.756 51.9655 125.585 56.3088C118.499 63.6579 107.758 69.1086 99.6406 75.9399C99.3266 76.1988 99.9769 76.4864 100.336 76.2851C120.674 63.7154 139.735 48.9453 141.865 30.1195C141.91 29.7456 141.058 29.5011 140.677 29.8031C131.303 36.9797 119.531 42.6461 110.584 50.0815C101.748 57.4162 97.286 66.9944 95.6715 76.0837C95.6491 76.2563 95.8285 76.357 96.0527 76.4001C94.9763 78.2266 94.0121 80.0819 93.317 81.9946C94.7746 70.5899 97.1291 59.2427 99.2369 47.8523C102.13 45.9107 104.417 43.0632 104.955 40.4601C105.022 40.1149 104.35 39.9711 103.968 40.1005C102.376 40.6182 101.188 41.4524 100.224 42.416C100.717 39.5109 101.188 36.6057 101.591 33.7006C101.793 33.6287 101.973 33.4993 101.905 33.2979C101.838 33.1397 101.771 32.9959 101.726 32.8377C101.771 32.5788 101.793 32.3056 101.838 32.0467C105.65 31.1263 108.991 29.0409 109.799 26.4666C110.045 26.4234 110.292 26.3659 110.539 26.3228C119.239 30.6373 131.483 25.3879 141.192 26.0351C141.753 26.0783 142.067 25.6756 141.977 25.3736C140.834 21.4905 134.353 20.57 128.949 20.7858C134.084 18.3552 136.64 14.8317 139.757 11.3513C140.071 11.0062 139.667 10.6178 139.062 10.5891C133.77 10.3734 128.119 10.2583 124.015 12.4731C125.114 10.1289 125.428 7.74149 124.711 5.55546C124.643 5.35411 124.195 5.22468 123.948 5.35411C123.545 5.55546 123.343 5.65613 123.163 5.74242C123.163 5.71366 123.163 5.69928 123.186 5.67051C123.567 4.40492 124.643 4.18919 124.531 3.19685C124.509 2.9955 124.329 2.79416 123.993 2.73663C117.737 1.75867 113.678 4.43368 111.122 7.71273C110.516 5.25344 109.395 2.82292 108.834 0.349254C108.767 0.0903817 108.274 -0.0534361 107.915 0.0184728C101.008 1.22654 99.3491 5.51231 99.1697 9.63989C96.9273 6.21702 93.5412 3.06741 89.5273 0.435545C89.1461 0.176672 88.5183 0.32049 88.3389 0.63689C85.8722 5.25344 85.4013 9.85561 87.6661 14.0119C84.0559 11.754 79.7729 9.91314 75.2881 8.6044C74.7947 8.46058 74.279 8.7626 74.5481 9.09338C78.0238 13.4511 78.0238 18.3409 82.531 22.4397C84.751 24.4675 88.5855 25.8913 92.2855 27.2288C92.6667 28.4225 93.3618 29.5874 94.5727 30.4791C95.8958 31.4714 98.1382 32.5932 100.313 32.4782C100.313 32.4925 100.313 32.5069 100.336 32.5069C98.6539 40.5895 96.8376 48.6577 95.1558 56.7402C94.2364 54.698 93.0927 52.7277 92.734 50.628C93.6533 52.1812 93.7206 53.8495 94.5727 55.489C94.7073 55.7623 95.3127 55.7047 95.3352 55.4171C95.6042 53.1735 94.6176 50.4985 92.5321 48.6864C92.1509 48.37 91.3661 48.4707 91.3437 48.8878C91.097 52.0086 92.6218 55.2589 94.9091 58.0058C93.1824 66.376 91.6576 74.7606 90.7158 83.174C89.8861 82.4549 88.7649 81.9227 87.3298 81.8652C86.9261 81.8508 86.5898 82.0953 86.5898 82.3398C86.6795 84.4252 88.0249 86.64 89.2358 88.5527C89.4601 88.8979 89.7067 89.3581 90.0879 89.7177C89.774 93.9171 89.617 98.1166 89.6843 102.345C89.7516 106.199 89.9534 110.054 90.2225 113.908C89.2358 112.311 87.8231 110.83 86.1189 109.766C85.6928 109.507 84.7959 109.665 84.8631 110.097C85.4462 113.85 87.6661 117.374 90.6037 120.624C90.6709 120.682 90.7607 120.696 90.8279 120.739C91.9716 131.914 93.8327 143.074 95.9854 154.206C95.5818 154.709 95.1782 155.212 94.7745 155.716C91.4558 145.634 83.7195 136.171 75.8935 127.096C75.9608 127.01 75.9608 126.923 75.9159 126.837C76.7008 125.571 76.5214 123.802 76.4317 122.58C76.3196 120.998 75.7141 119.315 73.8978 118.179C73.4717 117.92 72.7093 118.021 72.5523 118.409C71.9917 119.804 71.8347 121.286 72.1263 122.724C71.4535 121.947 70.7808 121.171 70.1305 120.394C66.3184 115.921 62.9549 111.405 59.8828 106.818C59.95 106.803 60.0173 106.789 60.0622 106.76C63.2688 105.02 62.9773 100.82 62.5736 98.4043C62.5288 98.0591 61.7888 97.7427 61.3628 98.0879C59.0755 99.9431 58.3355 102.302 58.4476 104.646C51.4962 93.874 46.2938 82.7856 42.2575 71.2227C42.549 70.9063 42.8405 70.5899 43.1096 70.2735C44.1635 69.727 44.9484 68.9072 45.2399 68.1738C49.4332 67.8717 53.7161 66.9513 57.3712 65.8008C59.4567 65.1392 64.8161 62.1765 60.3761 60.911C60.0622 60.8247 59.6137 60.9685 59.7482 61.2274C60.3761 62.421 61.1609 62.91 59.4567 63.9743C57.9767 64.9091 55.7567 65.4556 53.8507 65.9158C51.1374 66.5918 48.155 67.1958 45.1726 67.469C49.0744 66.5486 52.9313 64.9666 55.7343 63.4709C60.3761 60.9972 63.9415 58.0058 64.6591 54.0796C64.7039 53.8207 64.3227 53.6625 63.9864 53.6481C58.4701 53.303 55.1961 54.8562 52.5725 56.9991C54.5234 54.0508 55.3307 50.8293 54.344 47.464C54.2768 47.2051 53.6937 47.1332 53.447 47.3058C50.4871 49.3048 48.1102 51.3902 45.9799 53.7632C45.5762 50.5992 43.8944 47.464 41.2035 44.6308C41.0017 44.415 40.5308 44.3719 40.2393 44.5589C36.3824 47.0181 34.9921 50.4842 35.463 53.907C32.8618 51.534 29.8345 49.3048 27.7043 47.3345C27.48 47.1188 26.9194 47.0038 26.6279 47.2483C21.8516 50.93 22.8383 56.2081 26.8746 60.1056C22.7037 58.8687 18.1741 58.1496 14.8104 57.9627C14.3171 57.9339 13.9584 58.2935 14.0929 58.5811C17.165 65.7432 27.8836 68.8497 38.5575 69.6119C38.692 69.6263 38.8041 69.5688 38.8714 69.5113C39.006 69.54 39.1405 69.5975 39.2751 69.6119C39.6787 69.6551 40.0599 69.3387 39.7011 69.1373C39.006 68.7346 38.3781 68.2169 37.7502 67.656C37.7278 67.5553 37.683 67.469 37.6605 67.3828C38.4678 67.8717 39.2526 68.3895 39.9702 68.9504C39.9926 68.9647 40.0151 68.9791 40.0375 68.9935C40.0375 69.0223 40.0375 69.0367 40.0375 69.0654C40.0375 69.4537 40.4636 69.6551 40.9345 69.6838C41.0017 69.8564 41.0466 70.029 41.0914 70.2016C41.0017 70.3166 40.9344 70.4317 40.8447 70.5467C40.8223 70.5611 40.7999 70.5755 40.7999 70.5899V70.6043C40.7775 70.633 40.7551 70.6618 40.7551 70.6762C40.4411 71.1076 40.9793 71.4959 41.5175 71.4959C43.289 76.9323 45.2623 82.2967 47.5944 87.5748C47.5496 87.5604 47.5047 87.5316 47.4374 87.5316C44.1859 87.5316 40.8896 85.8346 40.8223 83.6917C41.8314 84.1231 42.7284 84.6265 43.5581 85.2018C44.4999 85.8633 45.195 86.7119 46.3386 87.2584C46.6974 87.431 47.1683 87.1433 47.0562 86.8988C46.675 85.9928 45.5314 85.2449 44.5671 84.5546C43.4235 83.7348 42.0781 83.0445 40.5532 82.5268C40.1944 82.4117 39.6339 82.498 39.5666 82.7856C38.7818 85.6908 42.8405 88.4521 47.415 88.0781C47.572 88.0638 47.6841 88.0062 47.7514 87.9343C51.3392 96.0456 55.7567 103.97 61.5197 111.679C58.6494 109.306 55.7792 106.904 52.7968 104.531C41.6969 92.177 25.5964 80.4414 1.62514 80.1969C1.15424 80.1969 1.04211 80.6571 1.51301 80.729C13.7341 82.4405 23.9594 84.2957 33.6242 89.7177C39.2751 92.8817 43.715 96.7647 47.8859 100.763C35.5975 91.5585 21.5152 83.5479 2.14088 81.103C1.73725 81.0454 1.58028 81.405 1.96149 81.4913C16.5147 85.058 28.2649 88.9554 39.5217 96.0025C44.2308 98.9508 48.5138 102.172 52.6846 105.466C52.7295 105.509 52.7743 105.552 52.8192 105.595C46.8544 101.568 38.3108 99.5979 30.6643 97.1674C18.7347 93.3706 9.89958 87.057 0.616032 81.1317C0.279671 80.916 -0.213648 81.2324 0.100288 81.4625C6.87235 86.3236 13.8911 90.9545 22.0983 94.8088C31.8527 99.3822 43.4684 101.669 53.0658 106.501C53.2901 106.616 53.5592 106.573 53.6713 106.458C53.7386 106.53 53.8283 106.616 53.918 106.688C54.0077 106.789 54.1646 106.789 54.2992 106.76C57.2591 109.119 60.1743 111.506 63.1118 113.85C70.3099 123.04 77.9565 131.784 84.2801 140.917C82.0601 139.148 78.248 137.724 74.9741 137.623C74.3463 137.609 74.0323 138.055 74.3014 138.386C76.2523 140.701 80.468 142.873 84.7286 142.815C85.0874 142.815 85.2443 142.628 85.1995 142.441C85.2219 142.441 85.2443 142.427 85.2668 142.427C88.4958 147.23 91.3885 152.149 93.5861 157.326C91.6352 160.03 89.9534 162.806 88.4285 165.639C88.9443 163.266 88.6079 160.562 85.6928 158.995C85.2892 158.779 84.5492 158.822 84.4147 159.21C83.6747 161.526 84.4371 164.862 87.2625 166.617C87.2849 166.747 87.3074 166.89 87.3522 167.02C87.3746 167.106 87.4867 167.149 87.5989 167.164C85.8722 170.601 84.4371 174.124 83.3383 177.72C82.9571 179 82.6207 180.28 82.3068 181.574C82.6432 178.669 82.7777 175.749 82.7329 172.801C82.6432 165.898 78.8759 159.93 77.0147 153.228C76.8802 152.724 75.6693 152.767 75.4899 153.228C70.4445 166.646 73.4493 180.28 80.7819 193.094C80.3783 204.154 82.845 215.285 86.9934 226.014C80.6698 218.636 71.3414 212.006 62.2821 205.908C62.0579 204.412 61.7664 202.917 61.4748 201.435C63.9863 196.977 68.0227 192.116 65.0178 187.514C64.7488 187.125 64.0088 187.111 63.7621 187.514C62.8651 188.894 61.6991 190.146 60.6228 191.44C60.7797 188.952 60.7797 186.464 60.9367 184.091C60.9591 183.789 60.4209 183.487 59.95 183.616C54.3664 185.069 52.0119 188.837 52.2137 192.634C49.0744 189.916 44.769 187.686 40.1272 186.191C39.6787 186.047 39.1405 186.219 39.1405 186.55C39.0284 189.57 41.1587 192.662 43.3338 195.352C43.1768 195.28 42.9975 195.194 42.8405 195.122C39.9702 193.813 33.8484 191.483 30.4624 193.482C25.5964 196.33 30.8212 198.904 36.8533 200.544C35.9115 200.529 35.0369 200.558 34.2745 200.601C27.5025 201.004 26.9194 204.642 29.3861 208.022C29.6552 208.396 30.4624 208.31 30.7764 208.022C35.3957 203.765 47.9083 205.376 54.5907 206.081C55.0616 206.124 55.1961 205.75 54.7701 205.635C48.2671 203.88 35.8666 203.118 30.3279 206.771C29.4982 205.362 28.9152 203.78 30.7315 202.6C32.503 201.435 35.9787 201.608 38.266 201.723C43.2217 201.982 47.0338 203.578 51.5859 204.513C51.698 204.542 51.8101 204.527 51.8998 204.499C54.1422 205.333 56.564 205.98 58.8512 206.095L58.941 206.268C59.1876 206.713 59.9949 206.728 60.3985 206.483C60.5555 206.598 60.8022 206.656 61.0488 206.656C61.1385 206.872 61.1833 207.102 61.273 207.318C61.4524 207.763 62.6409 207.691 62.5736 207.202C62.5736 207.131 62.5512 207.044 62.5288 206.972C67.1481 210.309 71.5881 213.761 75.7814 217.298C80.8941 221.627 84.594 226.474 89.1237 231.004C89.2807 231.364 89.4376 231.723 89.5946 232.083C90.5364 234.197 91.6128 236.282 92.734 238.353C81.6789 227.394 63.6276 216.479 45.3744 216.723C44.6568 216.738 44.2981 217.284 44.7914 217.629C52.9089 223.181 58.3803 230.875 67.8657 235.578C75.6917 239.461 85.7153 241.704 93.3843 245.703C94.8194 246.882 96.2545 248.047 97.7345 249.212C97.9587 249.384 98.34 249.169 98.2054 248.982C98.026 248.751 97.8242 248.536 97.6224 248.32C98.3848 248.881 99.1248 249.471 99.7975 250.103C102.758 254.677 105.83 259.193 108.7 263.766C108.139 263.565 107.579 263.363 107.018 263.148C105.74 261.681 103.744 260.329 102.062 259.106C100.201 257.74 98.0036 256.345 95.2006 255.87C94.5952 255.77 93.8552 256.144 94.1243 256.561C96.5461 260.487 103.004 263.78 109.373 264.859C113.723 271.92 117.512 279.111 119.531 286.777C119.441 288.071 119.306 289.351 119.172 290.631C117.983 287.41 115.584 284.217 111.525 283.11C110.763 282.908 110.09 283.239 110.202 283.757C111.122 287.856 112.714 293.349 118.544 295.823C116.817 308.378 113.297 320.847 107.96 333.546C107.758 334.021 108.812 334.179 109.081 333.748C114.866 324.615 118.566 315.195 120.719 305.588C126.841 302.352 132.828 296.211 131.819 291.221C131.752 290.876 131.169 290.516 130.608 290.775C125.765 292.918 124.217 296.298 121.885 299.476C123.186 291.221 123.455 282.851 122.984 274.423C127.402 271.129 128.926 266.384 130.092 262.256C130.205 261.853 129.554 261.407 128.904 261.681C127.671 262.198 124.531 265.29 122.491 268.196C122.423 267.592 122.379 266.973 122.311 266.369C123.388 258.517 124.823 250.736 126.594 243.013C135.205 236.858 142.157 229.767 149.512 223.008C160.208 213.214 170.59 203.693 178.349 192.763C178.64 192.36 178.17 191.843 177.407 191.972C156.172 195.841 141.237 207.145 132.783 220.074C134.577 214.379 136.55 208.698 138.658 203.032C138.681 203.075 138.681 203.118 138.703 203.161C138.77 203.363 139.286 203.363 139.376 203.161C139.735 202.083 139.914 200.918 139.892 199.738C141.147 196.445 142.47 193.151 143.838 189.858C148.368 188.42 152.651 185.716 154.579 182.955C154.871 182.538 154.4 182.135 153.705 182.221C150.723 182.581 147.942 183.89 145.744 185.428C146.731 183.113 147.695 180.812 148.749 178.496C148.772 178.496 148.772 178.496 148.794 178.482C151.373 177.403 153.705 176.109 156.015 174.815C155.768 175.045 155.521 175.275 155.319 175.505C155.14 175.706 155.499 175.951 155.813 175.821C156.553 175.519 157.158 175.102 157.719 174.656C164.738 174.843 173.326 171.205 177.788 168.889C178.304 168.616 177.878 168.055 177.25 168.07C172.967 168.156 168.482 168.918 164.155 169.882C169.469 167.106 174.088 163.769 177.407 160.073C177.676 159.771 177.34 159.412 176.802 159.412C170.59 159.297 165.926 161.21 162.092 163.841C163.885 160.117 163.773 156.104 160.903 152.811C160.656 152.537 160.096 152.509 159.737 152.71C155.97 154.882 153.346 157.83 151.754 161.023C151.081 159.325 149.983 157.729 148.323 156.32C147.067 155.27 140.475 151.372 138.591 153.961C136.147 157.341 138.098 161.31 139.981 164.618C136.909 163.137 133.187 162.288 129.935 162.878C129.599 162.935 129.352 163.151 129.33 163.381C129.263 168.702 137.403 174.383 145.924 174.57C146.395 175.591 146.955 176.584 147.561 177.59C147.606 177.662 147.673 177.691 147.763 177.72C147.763 177.763 147.763 177.806 147.763 177.849C147.695 177.95 147.673 178.065 147.695 178.166C146.103 181.301 144.578 184.479 143.053 187.658L143.009 187.701C142.941 187.773 142.919 187.845 142.941 187.916C142.74 188.319 142.56 188.736 142.381 189.139C141.708 189.441 141.058 189.757 140.407 190.088C140.004 190.289 140.452 190.692 140.878 190.62C141.192 190.563 141.484 190.476 141.798 190.405C140.923 192.289 140.026 194.158 139.174 196.057C138.434 194.101 137.178 192.245 135.272 190.822C134.958 190.591 134.286 190.707 134.174 191.009C133.187 193.942 135.048 197.552 137.291 200.314C135.766 203.852 134.308 207.404 132.918 210.97C132.694 208.353 131.707 205.692 129.442 203.679C129.173 203.449 128.523 203.363 128.298 203.679C126.078 206.713 128.321 211.359 131.685 213.933C131.685 214.005 131.707 214.063 131.729 214.134C128.321 223.238 125.451 232.414 123.388 241.647C122.244 243.373 121.011 245.07 119.531 246.695C119.194 247.083 120.114 247.428 120.45 247.04C120.742 246.709 121.011 246.35 121.302 246.019C121.482 246.163 121.818 246.22 122.087 246.048C122.222 245.961 122.334 245.889 122.446 245.803C121.795 249.053 121.257 252.318 120.831 255.568C118.925 243.919 116.1 232.27 113.185 220.793C113.185 220.793 113.207 220.779 113.207 220.764C113.297 220.721 113.342 220.678 113.387 220.621C117.176 217.169 119.732 211.92 117.378 208.108C117.176 207.778 116.436 207.533 115.988 207.878C113.857 209.532 112.22 211.704 111.436 213.962C109.328 205.635 107.242 197.437 105.561 189.412C104.619 184.997 103.699 180.567 102.757 176.152C105.964 173.635 108.027 169.795 107.624 166.646C107.579 166.229 106.727 165.884 106.233 166.272C104.462 167.624 102.645 169.421 101.748 171.306C100.582 165.711 99.4612 160.131 98.3848 154.522C101.524 150.682 105.134 147 109.171 143.491C109.328 143.534 109.53 143.563 109.709 143.462C111.525 142.556 114.844 142.297 117.311 142.484C116.436 143.189 115.472 143.808 114.261 144.282C112.377 145.016 110.561 144.872 108.52 145.03C108.005 145.073 107.624 145.548 108.229 145.735C112.377 147.029 117.243 144.469 119.351 142.384C119.62 142.125 119.351 141.751 118.903 141.679C116.391 141.305 112.983 141.463 110.516 142.326C113.588 139.752 116.885 137.264 120.428 134.905C122.468 133.539 124.576 132.23 126.729 130.936C131.303 129.296 136.483 128.218 141.349 127.01C152.875 124.148 163.594 122.278 175.95 121.458C176.465 121.429 176.488 120.941 175.95 120.926C162.719 120.624 150.767 123.731 138.703 126.851C135.788 127.599 132.671 128.318 129.689 129.167C129.734 129.138 129.778 129.124 129.801 129.095C136.461 127.096 142.47 124.349 148.951 122.062C156.62 119.359 165.522 118.941 174.066 118.941C178.461 118.941 199.764 118.409 189.673 122.35C176.757 127.369 165.567 128.85 150.678 129.037C140.923 129.167 132.088 130.03 123.612 133.223C123.253 133.366 123.5 133.769 123.903 133.668C138.21 130.073 152.046 130.404 167.047 129.584C178.282 128.966 188.059 123.932 197.589 120.581C198.194 120.365 198.127 119.661 197.387 119.589C184.874 118.265 172.653 117.244 160.051 118.596C150.229 119.646 142.022 123.644 133.523 126.966C138.927 123.86 144.399 120.782 149.669 117.604C154.826 114.497 160.028 111.52 165.5 108.774C167.787 109.277 170.209 109.838 172.631 109.608C173.976 109.478 176.331 108.687 176.039 107.609C175.793 106.659 173.842 106.285 172.631 106.055C172.339 105.998 171.958 105.94 171.577 105.883C174.783 104.43 178.102 103.05 181.556 101.784C181.735 101.913 181.982 102.014 182.296 102.014C182.565 102.014 182.811 101.985 183.08 101.985C183.91 102.388 184.852 102.69 185.906 102.906C186.242 102.978 186.444 102.891 186.601 102.776C186.713 102.805 186.825 102.834 186.96 102.834C187.117 102.848 187.274 102.863 187.431 102.877C192.723 108.874 200.997 114.584 212.411 114.627C213.061 114.627 213.308 114.21 213.084 113.865C211.267 111.147 209.025 108.529 205.46 106.688C210.752 106.774 215.932 106.027 219.25 104.373C219.407 104.315 219.385 104.071 219.25 103.898ZM131.303 107.594C131.415 107.45 131.572 107.307 131.707 107.177C132.133 106.789 132.626 106.429 133.142 106.07C133.725 105.653 134.375 105.207 135.093 104.833C134.801 105.71 134.061 106.472 133.075 107.192C132.671 107.494 132.178 107.752 131.685 107.997C131.707 107.839 131.572 107.652 131.281 107.666C131.236 107.666 131.214 107.666 131.191 107.681C131.236 107.652 131.281 107.637 131.303 107.594ZM144.085 76.3858C144.556 75.868 145.027 75.3646 145.543 74.8613C145.565 74.8325 150.207 71.7836 150.184 72.9341C150.139 75.2352 149.175 77.4069 147.65 79.4635C145.789 81.9946 142.941 83.8068 139.623 85.3025C142.336 82.8719 143.592 79.636 144.085 76.3858ZM135.698 74.8613C136.416 74.0271 137.358 72.8047 136.932 73.4375C137.201 73.1211 137.492 72.8191 137.761 72.5027C138.905 71.1652 140.632 70.3023 142.964 69.9427C143.009 71.8411 142.919 73.7539 142.695 75.6379C142.179 79.9381 139.981 83.0445 135.967 85.8633C135.967 85.6908 135.99 85.5038 135.99 85.3312C138.412 82.498 137.717 78.6868 135.676 75.7673C135.743 75.5372 135.811 75.3215 135.855 75.0914C135.9 74.9763 135.811 74.9044 135.698 74.8613ZM130.788 86.7982C130.496 86.3236 130.182 85.8633 129.778 85.4031C129.397 84.9573 128.164 85.2737 128.478 85.7483C128.859 86.3667 129.24 86.9851 129.621 87.6035C121.795 85.7627 120.383 75.077 125.316 71.1076C125.854 73.0348 126.975 74.8325 128.186 76.659C130.608 80.2257 131.909 83.0877 130.788 86.7982ZM132.357 88.0925C132.312 88.1069 132.29 88.1357 132.245 88.1501C132.066 88.2507 132.088 88.3802 132.2 88.4952C132.133 88.6678 132.066 88.8548 131.976 89.0417C131.819 88.7828 131.685 88.5096 131.528 88.2507C131.685 88.1357 131.617 87.9199 131.326 87.8768C131.326 87.8624 131.303 87.8337 131.303 87.8193C136.394 83.0301 129.577 77.3062 127.2 72.2582C127.289 72.2294 127.379 72.1863 127.424 72.1144C128.68 69.54 135.003 76.8891 135.272 77.4069C136.461 79.6073 136.281 81.7358 135.25 83.7636C134.891 83.7348 134.487 83.8499 134.286 84.1375C133.456 85.4175 132.895 86.755 132.357 88.0925ZM95.8061 95.7436C95.6715 97.1099 95.1109 98.3899 94.2364 99.6842C93.6758 100.518 92.8685 101.266 92.1285 102.014C92.3527 99.713 93.4964 97.4982 95.8061 95.7436ZM109.395 52.6846C116.974 44.8609 129.038 39.2807 138.726 32.6076C127.783 47.3345 106.973 59.5591 97.0394 74.6312C99.0351 66.8219 102.825 59.4584 109.395 52.6846ZM106.345 26.4666C105.291 27.2144 104.462 28.0198 103.767 28.9402C104.439 27.7897 105.202 26.6679 106.233 25.6468C106.368 25.618 106.502 25.5749 106.614 25.5461C106.547 25.8625 106.48 26.1646 106.345 26.4666ZM135.25 22.1377C135.833 22.2527 142.829 25.1578 139.398 24.8846C137.717 24.7408 135.945 24.9277 134.286 25.0715C126.303 25.7475 119.957 27.574 112.22 25.9776C117.625 24.899 122.805 23.4033 127.469 21.3754C127.558 21.4617 127.671 21.5336 127.895 21.5336C130.406 21.4905 132.828 21.6918 135.25 22.1377ZM135.945 11.4808C138.277 11.5383 137.38 11.7828 136.326 12.9333C135.16 14.2421 134.039 15.5508 132.738 16.802C127.671 21.6631 118.185 23.3601 110.023 25.5174C109.978 25.5174 109.933 25.5318 109.911 25.5461C109.866 25.5605 109.821 25.5749 109.776 25.5893C109.619 25.2873 109.081 25.1578 108.588 25.2297C108.588 25.1435 108.565 25.0428 108.565 24.9565C115.001 22.7129 120.607 18.3409 123.276 13.6812C126.662 11.452 131.393 11.3657 135.945 11.4808ZM122.849 6.57657C124.442 6.11635 123.051 11.0349 122.917 11.4088C122.087 13.4942 120.383 15.407 118.589 17.2191C115.988 19.8366 112.602 21.9219 108.722 23.6334C113.005 21.3898 116.705 18.6141 119.576 15.6371C121.056 14.0839 121.885 12.3293 122.154 10.5316C122.356 9.19405 122.558 7.88531 122.849 6.57657ZM111.077 13.0628C111.436 11.7252 111.436 10.4165 111.234 9.12214C113.274 6.92173 115.046 4.63503 119.037 3.55639C123.971 2.23327 121.033 6.97926 120.831 7.98598C119.979 12.243 118.634 15.0474 114.373 18.4559C112.153 20.2249 109.485 21.6918 106.861 23.2163C106.861 23.2163 106.861 23.2163 106.839 23.2307C106.009 23.7197 105.202 24.223 104.394 24.7264C107.579 21.059 109.933 17.2047 111.077 13.0628ZM87.3073 9.68303C87.0607 8.02913 87.4643 6.28893 87.8904 4.66379C88.72 1.55732 89.2582 1.4998 92.6443 4.33301C99.7303 10.2439 100.605 16.8595 99.3715 23.9785C98.8333 23.0581 98.1157 22.1808 97.0394 21.3898C96.6357 21.1022 95.7836 21.3179 95.8285 21.7062C95.8509 21.8932 95.8957 22.0801 95.9182 22.2671C94.5951 19.7647 92.3752 17.4923 89.6619 15.4789C88.3613 13.7099 87.5989 11.7684 87.3073 9.68303ZM92.7564 25.2585C92.734 24.8558 91.7697 24.8558 91.7921 25.2585C91.7921 25.5318 91.8594 25.805 91.8819 26.0926C89.4152 25.0715 86.9485 24.0792 84.7061 22.8424C81.1407 20.8721 79.7505 17.78 78.562 14.9899C78.2032 14.1558 77.2165 10.172 76.1626 9.79809C80.9838 11.5095 85.2668 13.6524 88.8322 16.3562C89.2582 16.6726 89.6395 17.0034 90.0207 17.3341C90.3122 17.6218 90.5813 17.9094 90.8952 18.1827C93.0255 20.3543 94.2812 22.7417 95.4024 25.2154C95.1782 25.3017 94.9988 25.4598 95.0661 25.6468C95.3127 26.294 95.5818 27.0706 95.9182 27.8328C94.9764 27.387 93.9897 26.9699 93.0031 26.5529C92.8685 26.1214 92.7788 25.69 92.7564 25.2585ZM99.3715 31.3276C99.1472 31.2845 98.9006 31.2413 98.6763 31.1982C97.443 30.9537 96.4339 30.3928 95.5594 29.8031C94.6849 29.2135 94.0346 28.5232 93.5637 27.7753C94.5503 28.1205 95.5145 28.48 96.4115 28.8396C97.0394 29.9038 97.9587 30.853 99.4163 31.3132C99.4163 31.2989 99.3939 31.3132 99.3715 31.3276ZM99.6181 24.4819C99.9097 24.5682 100.336 24.5107 100.47 24.2805C102.668 19.9229 102.219 15.4645 99.9994 11.3082C100.179 9.45292 100.448 7.61206 101.121 5.79995C101.188 5.59861 107.063 -0.441744 107.489 2.01754C107.668 3.02427 108.139 4.13166 108.498 5.10962C110.987 11.9697 107.646 17.3054 103.901 23.2451C103.879 23.13 103.856 23.0293 103.834 22.9143C103.632 22.3246 102.174 22.3246 101.973 22.9143C101.479 24.3525 101.031 25.805 100.65 27.2576C100.381 26.3084 100.067 25.3736 99.6181 24.4819ZM99.7751 44.113C100.672 43.1351 101.816 42.1283 103.161 41.4236C102.399 43.1351 100.829 44.5157 99.4387 46.0114C99.5509 45.3786 99.663 44.7458 99.7751 44.113ZM86.6122 111.707C88.6079 113.606 89.0564 115.777 89.8637 117.992C88.4285 115.979 87.2401 113.893 86.6122 111.707ZM90.1328 87.7186C89.9534 87.3878 89.7516 87.057 89.5722 86.7119C88.9667 85.5326 88.2716 84.2526 88.0249 82.987C89.5273 83.3034 90.0879 84.2526 90.357 85.3312C90.2673 86.1222 90.2 86.9132 90.1328 87.7186ZM94.3261 130.878C94.9091 129.771 95.8285 128.707 96.86 127.944C97.1739 130.001 95.963 131.712 94.7297 133.496C94.5951 132.604 94.4606 131.741 94.3261 130.878ZM61.4748 54.4392C64.7263 54.281 61.3179 57.9627 60.5106 58.8256C58.8288 60.5946 56.2725 62.0327 53.7386 63.2839C51.0925 64.5783 48.2223 65.3981 45.3071 66.1603C45.4865 65.585 45.5986 64.9954 45.6435 64.4057C51.0253 60.9685 52.7295 54.8706 61.4748 54.4392ZM45.9126 54.3241C46.092 54.3672 46.3162 54.3672 46.4283 54.2234C47.4598 53.1304 53.2228 46.788 53.6713 50.0096C54.0077 52.5695 52.6622 55.0576 50.9356 57.3155C49.4107 59.3002 47.258 60.9397 44.9483 62.5073C44.612 62.4786 44.2532 62.5505 44.029 62.7518C44.029 62.3347 44.0514 61.9033 44.0514 61.4862C45.5762 59.1708 46.1144 56.7546 45.9126 54.3241ZM15.7747 59.0269C22.4571 59.5591 29.2067 61.5581 33.6018 64.8228C33.3103 65.0098 33.1757 65.2974 33.4224 65.5275C34.2745 66.376 35.6648 67.958 37.2345 68.8928C28.1527 67.7567 18.9365 64.8803 15.7747 59.0269ZM37.8848 63.4421C37.5709 64.19 37.6157 64.8947 37.8175 65.5994C37.7727 65.6857 37.7278 65.7864 37.6605 65.8727C37.3018 65.7001 36.943 65.5419 36.5618 65.3837C36.3375 65.096 36.0684 64.8228 35.7769 64.5495C35.8666 64.4201 35.8218 64.2331 35.5527 64.1612C35.4181 64.1181 35.2836 64.0749 35.1491 64.0318C33.6466 62.8237 31.5836 61.8026 29.2515 60.9397C27.8164 59.746 26.6728 58.3941 25.8207 56.9991C24.991 55.676 24.6995 54.2522 24.6322 52.8284C24.5649 51.7929 25.6861 47.2051 27.9285 49.161C30.6418 51.5196 33.7812 53.8495 35.9787 56.3519C36.4945 57.675 37.3242 58.9406 38.3557 60.1056C38.692 61.026 38.8266 61.9896 38.7145 62.9819C38.3333 63.0251 37.9969 63.1689 37.8848 63.4421ZM40.4187 64.2044C40.3514 64.1037 40.2617 64.003 40.1945 63.9167C40.486 63.1257 40.5533 62.3347 40.4411 61.5437C40.5084 61.4862 40.5308 61.4143 40.4411 61.328C40.4187 61.3136 40.4187 61.2993 40.3963 61.2849C40.0599 59.257 38.6472 57.258 36.7636 55.3308C36.0684 52.5695 36.5393 49.6788 38.4229 47.1907C41.652 42.8906 44.4326 52.21 44.6793 53.7776C45.0381 56.0787 44.2532 58.2216 43.1544 60.3213C42.7956 60.2925 42.4368 60.3501 42.235 60.5946C41.2932 61.7451 40.755 62.9532 40.4187 64.2044ZM61.0936 99.9287C61.0936 100.864 61.0264 101.798 60.8022 102.733C60.6003 103.567 60.107 104.358 59.7034 105.164C59.6585 103.352 59.8379 101.539 61.0936 99.9287ZM74.3463 124.795C73.4493 123.17 73.1802 121.43 73.6063 119.718C75.0638 121.228 74.5929 123.026 74.3463 124.795ZM76.5214 138.803C79.3244 139.306 81.1183 140.816 83.4729 141.866C80.7371 141.233 78.2705 140.298 76.5214 138.803ZM85.5807 160.433C86.8813 161.641 86.9037 163.18 86.9485 164.704C85.9843 163.367 85.4013 161.929 85.5807 160.433ZM80.0195 187.269C79.1674 182.121 77.7323 177.058 77.9565 171.852C77.9789 171.406 76.9026 171.406 76.9026 171.852C76.6335 177.605 77.8668 183.415 79.6832 189.038C79.7056 189.081 79.728 189.11 79.7729 189.125C79.7504 189.225 79.7504 189.326 79.728 189.427C74.8396 178.583 72.799 167.379 75.9384 156.133C75.9608 156.09 78.5171 161.325 78.562 161.454C80.3335 165.15 80.7595 168.947 80.9838 172.787C81.2977 177.619 80.6698 182.451 80.0195 187.269ZM55.8016 186.924C57.0125 185.515 59.2773 184.077 59.1204 186.637C59.0082 188.319 58.8961 190.002 58.7616 191.67C58.5822 193.698 58.1561 195.697 57.7749 197.696C57.73 197.667 57.7076 197.639 57.6628 197.595C57.1694 197.25 56.3846 197.552 56.3398 197.941C56.3398 197.998 56.3398 198.041 56.3398 198.099C55.8016 196.804 54.9943 195.582 53.9628 194.417C53.3349 191.857 53.8507 189.168 55.8016 186.924ZM56.25 202.068C56.1155 202.068 55.981 202.111 55.9137 202.183C55.4652 201.852 55.0168 201.522 54.5234 201.205C54.1871 200.544 54.0301 199.853 53.9852 199.163C54.5683 199.609 55.0392 200.069 55.4876 200.558C55.7119 201.047 55.981 201.565 56.25 202.068ZM40.3963 187.298C44.4102 188.765 47.9308 190.591 50.6665 193.022C51.4962 193.755 52.1465 194.532 52.7071 195.323C53.0434 196.215 53.5368 197.063 54.1422 197.869C54.0301 197.797 53.918 197.71 53.8058 197.639C53.2901 197.337 52.5725 197.567 52.5277 197.984C52.438 198.674 52.4604 199.422 52.6174 200.141C51.8774 199.767 51.115 199.422 50.2853 199.106C48.895 198.084 47.1235 197.193 45.4641 196.387C44.8586 195.639 44.3653 194.964 44.0065 194.503C42.3472 192.36 40.6429 189.757 40.3963 187.298ZM46.2938 201.565C44.5672 201.162 42.6835 200.903 40.8447 200.731C39.3199 200.371 37.8399 199.954 36.4721 199.551C34.7006 199.019 33.0188 198.372 31.5612 197.552C29.0721 196.186 29.857 194.072 33.243 193.784C37.3018 193.439 41.8987 195.942 44.7465 197.466C44.9932 197.595 45.2174 197.754 45.4417 197.897C46.5629 199.048 48.0429 200.199 49.7919 200.673C50.0386 200.831 50.2853 201.004 50.5319 201.176C50.7113 201.32 50.8459 201.478 51.0253 201.637C49.7247 201.392 48.3568 201.263 46.8992 201.32C46.6526 201.32 46.4283 201.435 46.2938 201.565ZM49.1641 202.313C50.7338 202.471 52.1913 202.845 53.604 203.348C54.5458 203.851 55.5549 204.297 56.721 204.628C56.9452 204.686 57.147 204.686 57.3264 204.643C57.5507 204.671 57.7525 204.642 57.9543 204.571C58.0888 204.844 58.2234 205.103 58.3579 205.376C55.1737 204.829 51.855 203.593 49.1641 202.313ZM59.6137 204.182C59.4118 203.794 59.21 203.391 58.9858 203.003C58.6943 202.37 58.47 201.737 58.2682 201.105C58.3803 200.889 58.4925 200.673 58.5822 200.443C59.0979 201.234 59.4343 202.083 59.6585 202.96C59.6361 202.989 59.6361 203.032 59.6137 203.06C59.5688 203.176 59.6361 203.262 59.7482 203.319C59.8155 203.679 59.8828 204.038 59.9276 204.398C59.8379 204.326 59.7258 204.254 59.6137 204.182ZM60.6676 197.682C60.6003 197.337 60.0173 197.236 59.681 197.365C60.0397 195.956 60.2415 194.503 60.3761 193.051C60.3985 193.036 60.4209 193.051 60.4434 193.036C62.3494 191.943 63.5155 190.577 64.3003 189.067C65.5336 192.619 63.1118 196.474 61.1161 200.026C60.9591 199.264 60.8245 198.473 60.6676 197.682ZM96.6357 257.524C98.9678 258.387 100.582 259.869 102.242 261.292C100.022 260.271 98.026 259.078 96.6357 257.524ZM112.086 284.749C116.257 286.777 116.436 291.034 117.826 294.356C114.328 291.724 112.916 288.158 112.086 284.749ZM127.514 264.341C126.348 267.218 124.778 269.95 122.715 272.596C122.67 271.949 122.625 271.288 122.58 270.641C123.724 268.728 125.832 266.096 127.514 264.341ZM173.505 169.738C169.155 171.723 163.841 173.448 158.571 173.722C158.84 173.434 159.109 173.132 159.333 172.844C159.49 172.657 159.311 172.442 159.064 172.355C163.908 171.751 168.751 170.658 173.505 169.738ZM175.367 160.347C172.631 163.165 169.379 165.625 165.455 167.825C163.235 169.076 160.791 170.141 158.414 171.277C157.36 171.55 156.329 171.823 155.319 172.082C154.849 172.212 154.849 172.729 155.409 172.729C154.871 172.988 154.355 173.261 153.839 173.549C153.503 173.506 153.167 173.448 152.808 173.376C153.144 172.959 153.481 172.542 153.75 172.097C156.777 170.428 159.221 168.213 160.858 165.797C164.715 162.849 169.312 160.505 175.367 160.347ZM159.602 154.033C160.791 153.213 162.002 159.067 161.935 158.534C162.181 160.764 160.903 163.065 159.558 165.078C158.324 166.89 156.553 168.4 154.602 169.824C154.647 169.594 154.736 169.378 154.759 169.148C154.804 168.616 153.615 168.271 153.077 168.702C152.898 168.832 152.718 168.976 152.561 169.105C152.584 168.674 152.629 168.242 152.561 167.796C152.539 167.624 152.427 167.509 152.292 167.408C152.516 165.955 152.516 164.474 152.225 163.007C153.57 159.628 156.059 156.464 159.602 154.033ZM131.214 165.596C130.361 163.841 130.922 163.496 133.68 163.841C135.541 164.071 137.268 164.877 138.703 165.596C139.802 166.157 140.744 166.804 141.618 167.494C142.381 168.602 143.3 169.724 144.399 170.701C144.623 171.723 144.982 172.715 145.386 173.693C138.95 172.614 133.254 169.824 131.214 165.596ZM141.977 165.855C140.318 163.367 139.241 160.706 138.77 158.247C138.569 157.24 138.479 153.3 142.269 154.536C145.901 155.716 148.211 157.729 149.579 160.116C150.207 161.195 150.498 162.303 150.655 163.439C150.095 165.15 149.848 166.89 149.893 168.602C149.691 168.889 149.489 169.191 149.332 169.493C149.041 168.645 148.637 167.811 148.054 166.991C147.763 166.574 146.619 166.775 146.686 167.221C146.978 168.832 147.606 170.414 148.166 171.996C147.449 171.536 146.798 171.032 146.17 170.5C146.17 170.471 146.193 170.443 146.193 170.399C145.655 168.861 144.085 167.221 141.977 165.855ZM146.776 174.599C146.978 174.599 147.202 174.599 147.404 174.585C147.449 174.585 147.493 174.556 147.516 174.556C147.83 175.189 148.121 175.836 148.435 176.483C148.323 176.727 148.189 176.972 148.076 177.216C147.606 176.354 147.157 175.476 146.776 174.599ZM144.489 188.046C144.578 188.003 144.668 187.974 144.735 187.945C145.072 187.816 145.049 187.571 144.847 187.428C146.821 185.889 149.31 184.321 152.158 183.588C150.207 185.601 147.359 186.924 144.421 188.233C144.421 188.161 144.444 188.103 144.489 188.046ZM135.183 192.404C136.82 194.129 137.358 195.999 137.627 197.941C136.573 196.128 135.183 194.345 135.183 192.404ZM128.926 204.959C130.922 207.202 131.124 209.806 131.371 212.38C129.509 210.136 128.007 207.274 128.926 204.959ZM128.343 235.491C130.586 231.752 132.895 228.027 136.124 224.533C142.964 217.155 152.113 210.769 157.965 203.003C158.212 202.672 157.495 202.399 157.203 202.715C150.207 210.036 142.403 216.968 135.205 224.187C132.783 226.603 130.967 229.178 129.308 231.795C129.958 229.394 130.631 226.992 131.326 224.59C138.927 210.999 153.369 198.516 174.649 193.597C174.649 193.597 167.967 203.377 166.935 204.513C162.63 209.317 157.696 213.861 152.629 218.348C144.085 225.928 135.967 233.607 126.975 240.942C127.402 239.13 127.872 237.318 128.343 235.491ZM121.347 301.849C124.15 298.671 125.406 294.471 129.958 292.285C129.285 296.686 125.047 300.051 121.033 303.488C121.145 302.942 121.257 302.395 121.347 301.849ZM83.5177 199.825C84.8631 197.466 85.9619 195.122 87.9352 192.964C88.0025 195.51 85.3565 197.811 83.5401 200.17C83.5401 200.055 83.5401 199.94 83.5177 199.825ZM94.7521 245.472C91.6128 242.495 87.8904 239.748 84.1904 237.102C78.7862 233.233 71.633 230.717 66.296 226.862C65.9373 226.603 65.3766 226.977 65.713 227.236C70.3099 230.86 76.7232 233.176 81.6341 236.599C84.6837 238.742 87.4867 240.985 90.2673 243.243C87.3074 241.963 84.1231 240.841 81.0959 239.763C68.3142 235.161 61.0264 229.408 52.5052 221.929C49.5228 219.312 43.6029 216.838 53.3349 218.391C61.1161 219.628 68.2469 223.626 74.0547 226.891C83.6746 232.299 90.4691 238.483 96.6582 245.357C97.1291 246.105 97.6 246.853 98.0709 247.615C97.0618 246.853 95.9406 246.148 94.7521 245.472ZM97.6 242.725C97.0394 235.132 94.9539 227.625 95.963 219.988C96.0079 219.743 95.4249 219.758 95.38 219.988C94.1691 226.532 94.6624 233.09 95.7836 239.619C94.6848 237.692 93.6534 235.736 92.7115 233.78C92.8012 233.708 92.8685 233.607 92.8237 233.492C90.2449 225.87 89.191 218.78 91.8594 211.114C93.3394 206.9 95.6491 202.888 97.5103 198.775C97.9139 204.211 100.044 209.877 99.9769 215.141C99.8424 224.719 98.9454 234.24 98.2503 243.79C98.0036 243.445 97.8018 243.085 97.6 242.725ZM116.145 209.46C117.378 212.783 114.687 215.659 112.534 218.636C111.727 215.544 113.386 211.977 116.145 209.46ZM105.717 168.228C105.493 169.378 105.045 170.5 104.372 171.622C103.789 172.6 102.982 173.52 102.287 174.47C102.264 174.354 102.242 174.239 102.219 174.124C102.578 172.082 103.767 169.925 105.717 168.228ZM100.605 177.303C103.722 192.03 107.422 206.728 110.853 221.455C110.853 221.484 110.83 221.498 110.83 221.527C110.785 221.642 110.853 221.742 110.942 221.829C112.243 227.466 113.521 233.118 114.687 238.77C112.803 236.599 109.933 234.729 106.525 233.909C106.031 233.794 105.471 234.096 105.493 234.413C105.717 238.037 109.799 241.517 115.382 242.222C116.302 246.867 117.176 251.513 117.939 256.172C119.127 263.478 119.688 270.655 119.71 277.745C115.27 266.211 105.314 255.065 98.6763 244.509C98.6763 244.494 98.6763 244.494 98.6539 244.48C98.8557 244.48 99.0575 244.423 99.1024 244.279C101.614 237.606 101.322 230.674 101.457 223.842C101.591 216.22 102.309 208.583 100.291 201.033C100.515 199.134 99.9769 197.408 98.7436 195.826C99.1921 194.604 99.6181 193.382 99.9096 192.13C100.067 191.469 98.5418 191.152 98.2951 191.843C97.9812 192.749 97.757 193.655 97.6224 194.59C97.0394 196.431 96.3218 198.228 95.4697 200.026C93.4964 204.585 91.0297 208.986 89.4601 213.617C88.1146 217.629 88.3837 221.857 89.3479 225.985C86.388 218.32 84.5043 210.496 83.7419 202.629C85.491 200.99 86.7243 198.933 87.8904 197.164C89.1013 195.337 90.1776 193.281 89.3031 191.296C89.0788 190.807 88.1595 190.793 87.7334 191.167C85.8722 192.821 84.4595 194.748 83.4055 196.733C83.3607 194.058 83.4056 191.382 83.6298 188.722C84.4819 178.54 88.2043 168.746 94.4382 159.656C94.7073 160.39 94.9988 161.138 95.2679 161.885C95.3576 162.187 96.1648 162.116 96.12 161.814C95.963 160.649 95.7163 159.484 95.4248 158.333C95.7612 157.873 96.0751 157.427 96.4115 156.981C97.7345 163.741 99.1697 170.529 100.605 177.303ZM114.62 241.345C110.808 240.381 107.937 237.879 107.265 235.304C110.83 236.57 112.714 239.029 114.62 241.345ZM114.754 120.595C111.503 112.283 111.211 104.632 110.202 96.1751C110 94.4636 109.799 94.1041 108.947 93.0398C110.449 94.9239 113.611 96.6209 115.831 98.1022C126.662 105.336 125.294 115.245 121.526 124.176C121.459 124.335 121.571 124.435 121.728 124.493C121.257 125.327 120.809 126.161 120.316 126.981C122.894 119.128 121.011 109.766 116.302 102.661C116.145 102.431 115.629 102.604 115.696 102.819C117.423 107.709 119.284 112.383 119.755 117.417C120.136 121.458 119.015 125.384 118.746 129.397C117.983 130.562 117.154 131.669 116.346 132.791C117.243 128.62 116.436 124.881 114.754 120.595ZM157.405 105.48C158.436 107.551 156.485 109.291 154.804 111.046C154.378 109.09 155.499 107.019 157.405 105.48ZM174.111 107.796C174.38 107.954 173.864 108.083 173.483 108.241C172.653 108.558 171.846 108.702 170.859 108.687C169.402 108.673 167.967 108.443 166.531 108.299C167.496 107.824 168.46 107.35 169.424 106.89C169.828 106.918 170.209 106.933 170.568 106.976C171.711 107.091 173.191 107.278 174.111 107.796ZM182.475 99.9143C182.228 99.8856 182.026 99.9 181.847 99.9431C178.349 97.6996 177.362 94.665 177.16 91.5729C177.071 89.9334 177.407 88.2939 177.856 86.6975C178.013 86.1941 178.192 85.6908 178.394 85.2018C178.461 85.0292 178.349 84.6697 178.237 84.3533C178.304 84.3964 178.326 84.4395 178.394 84.4683C178.797 85.0723 179.291 85.662 179.851 86.2229C180.389 86.8125 181.174 87.244 181.982 87.6611C181.668 91.7023 182.183 95.8299 182.475 99.9143ZM202.881 92.6372C205.796 91.7311 209.272 91.0264 212.501 91.5298C217.187 92.2489 214.138 94.665 211.985 95.6573C206.357 98.2604 199.674 99.1952 193.216 100.475C193.059 100.274 192.768 100.144 192.319 100.173C191.31 100.26 190.278 100.317 189.269 100.389C190.862 99.7849 192.229 98.9939 193.194 97.9153C193.53 97.5413 193.126 97.0524 192.521 96.9805C193.081 96.6209 193.665 96.2901 194.292 95.9593C194.696 95.7724 195.077 95.571 195.458 95.3841C197.903 94.2623 200.616 93.3419 202.881 92.6372ZM193.799 89.9909C195.032 88.5096 196.58 87.1721 198.418 85.9928C199.069 85.5757 206.177 83.0733 205.774 84.2814C203.598 90.6525 196.041 93.7446 188.709 97.34C190.256 94.8663 191.826 92.3639 193.799 89.9909ZM183.417 98.6775C183.282 93.3131 182.699 87.9631 184.022 82.6418C184.045 82.5699 186.175 77.263 187.431 78.3992C189.269 80.0819 190.57 81.8796 191.579 83.8355C193.328 87.2584 191.265 90.3648 188.821 93.3131C188.552 93.2268 188.193 93.2268 187.924 93.4138C185.973 94.7944 184.471 96.6209 183.753 98.5193C183.663 98.5768 183.551 98.62 183.417 98.6775ZM185.143 100.202C185.076 100.101 184.942 100.044 184.762 100.029C184.785 99.9287 184.807 99.8424 184.829 99.7418C186.197 99.5692 187.52 99.3391 188.821 99.0658C187.722 99.5548 186.444 99.9143 185.143 100.202ZM210.976 113.649C201.109 113.217 193.754 108.184 188.462 103.05C188.754 103.078 189.068 103.107 189.359 103.121C192.566 105.178 197.858 106.372 203.284 106.688C206.469 108.817 209.003 110.988 210.976 113.649ZM202.41 105.264C198.284 104.905 194.696 103.927 191.243 102.604C191.265 102.474 191.243 102.33 191.153 102.215C193.911 101.87 196.759 101.223 199.45 100.518C206.401 100.044 214.362 100.605 217.636 103.783C219.049 105.164 203.621 105.379 202.41 105.264Z" fill="#DBC0AD"/>
<path d="M154.355 209.49C150.364 212.078 147.314 215.372 144.578 218.521C144.354 218.766 144.937 218.982 145.161 218.737C148.166 215.674 152.315 212.984 154.938 209.777C155.14 209.533 154.647 209.288 154.355 209.49Z" fill="#DBC0AD"/>
<path d="M62.4167 223.096C62.0803 222.909 61.587 223.225 61.9234 223.412C64.6591 224.922 67.193 226.576 69.996 228.014C70.3099 228.172 70.7136 227.928 70.4445 227.726C68.1572 225.943 65.1524 224.591 62.4167 223.096Z" fill="#DBC0AD"/>
<path d="M93.6085 180.552C94.214 183.874 96.5237 188.491 101.748 189.943C101.883 190.044 101.995 190.173 102.152 190.26C102.399 190.389 102.892 190.317 102.847 190.073C102.847 190.044 102.825 190.015 102.825 189.986C102.982 189.828 103.004 189.612 102.713 189.512C102.69 189.512 102.69 189.497 102.668 189.497C102.197 187.959 100.896 186.391 99.9545 184.982C98.7661 183.184 97.2861 181.487 94.9315 180.207C94.5055 179.948 93.5188 180.077 93.6085 180.552ZM98.7212 185.902C99.1697 186.607 99.5509 187.426 100.067 188.189C97.6897 186.607 96.277 184.277 95.5819 182.105C96.9273 183.241 97.8691 184.55 98.7212 185.902Z" fill="#DBC0AD"/>
<path d="M33.5345 93.3992C30.3279 91.5583 26.1794 90.6091 22.5467 89.1997C22.0534 88.9983 21.5825 89.5017 22.0982 89.703C25.7085 91.1268 29.543 92.3349 33.1981 93.6868C33.4672 93.7875 33.7812 93.543 33.5345 93.3992Z" fill="#DBC0AD"/>
<path d="M107.197 31.1112C105.942 31.7296 104.484 32.3192 102.87 32.4487C102.062 32.5206 102.017 33.2541 102.87 33.2828C104.596 33.3404 105.964 33.0671 107.467 32.5062C108.588 32.0891 110.337 31.37 110.606 30.5071C110.673 30.2914 110.449 30.0613 110.068 30.0613C108.902 30.0757 108.094 30.6797 107.197 31.1112Z" fill="#DBC0AD"/>
<path d="M37.952 71.7247C38.3108 71.4946 38.0193 71.1782 37.5708 71.1495C36.6515 71.0776 35.7545 71.2214 34.8351 71.1063C33.8036 70.9769 32.7945 70.5886 32.0097 70.1715C31.5163 69.9126 30.8661 70.3153 31.2921 70.6317C32.7272 71.6672 35.9563 73.0479 37.952 71.7247Z" fill="#DBC0AD"/>
<path d="M185.457 104.515C184.426 104.127 183.596 103.552 183.08 102.861C182.811 102.502 181.847 102.761 182.071 103.135C182.542 103.94 183.17 104.645 184.202 105.206C185.121 105.695 186.578 106.342 187.834 106.083C188.126 106.025 188.328 105.781 188.148 105.594C187.543 105.019 186.354 104.86 185.457 104.515Z" fill="#DBC0AD"/>
<path d="M46.1144 80.4714C46.0696 80.7015 46.6078 80.7734 46.7872 80.5865C48.8502 78.271 49.2314 75.3227 48.3569 72.7484C48.2447 72.4464 47.6169 72.3745 47.3029 72.5758C44.926 74.0284 43.7824 77.0629 45.1726 79.0188C45.4193 79.364 46.3387 79.1195 46.1369 78.76C45.2847 77.3074 45.8453 75.2221 47.2805 73.8558C47.5271 76.0993 46.4957 78.2135 46.1144 80.4714Z" fill="#DBC0AD"/>
<path d="M97.017 43.4801C97.0618 43.7677 97.6673 43.7677 97.7121 43.4801C97.8018 43.063 97.8915 42.4734 97.9364 41.7974C98.1606 41.7255 98.3176 41.5385 98.0933 41.3803C98.0485 41.3516 98.0261 41.3228 97.9812 41.294C98.0933 38.6334 97.4206 35.1386 93.1377 35.4838C92.8461 35.5126 92.5322 35.6276 92.5546 35.8577C92.7564 38.0294 94.5952 39.8127 96.86 41.3372C96.9273 42.2289 96.9273 43.0055 97.017 43.4801ZM93.7655 36.246C95.9631 36.4186 96.5685 38.4752 96.7927 40.4168C95.2679 39.1943 94.0346 37.8137 93.7655 36.246Z" fill="#DBC0AD"/>
</svg>
