<svg width="136" height="24" viewBox="0 0 136 24" fill="none" xmlns="http://www.w3.org/2000/svg">
<path d="M117.158 18C117.158 16.9391 117.553 15.9217 118.256 15.1716C118.959 14.4214 119.913 14 120.907 14H128.404C129.398 14 130.351 14.4214 131.054 15.1716C131.757 15.9217 132.152 16.9391 132.152 18C132.152 18.5304 131.954 19.0391 131.603 19.4142C131.252 19.7893 130.775 20 130.278 20H119.033C118.536 20 118.059 19.7893 117.707 19.4142C117.356 19.0391 117.158 18.5304 117.158 18Z" stroke="#7C7C7C" stroke-width="1.5" stroke-linejoin="round"/>
<path d="M124.656 10C126.208 10 127.467 8.65685 127.467 7C127.467 5.34315 126.208 4 124.656 4C123.103 4 121.844 5.34315 121.844 7C121.844 8.65685 123.103 10 124.656 10Z" stroke="#7C7C7C" stroke-width="1.5"/>
<path d="M56.8084 21L50.9047 14.7C50.4362 15.1 49.8974 15.4167 49.2883 15.65C48.6791 15.8833 48.031 16 47.3438 16C45.6414 16 44.2008 15.3707 43.0219 14.112C41.8431 12.8533 41.2533 11.316 41.2527 9.5C41.2527 7.68333 41.8424 6.146 43.0219 4.888C44.2014 3.63 45.642 3.00067 47.3438 3C49.0462 3 50.4868 3.62933 51.6657 4.888C52.8445 6.14667 53.4343 7.684 53.4349 9.5C53.4349 10.2333 53.3256 10.925 53.1069 11.575C52.8882 12.225 52.5915 12.8 52.2167 13.3L58.1203 19.6L56.8084 21ZM47.3438 14C48.5151 14 49.511 13.5623 50.3312 12.687C51.1515 11.8117 51.5613 10.7493 51.5607 9.5C51.5607 8.25 51.1506 7.18733 50.3303 6.312C49.51 5.43667 48.5145 4.99933 47.3438 5C46.1724 5 45.1766 5.43767 44.3563 6.313C43.5361 7.18833 43.1262 8.25067 43.1269 9.5C43.1269 10.75 43.537 11.8127 44.3573 12.688C45.1775 13.5633 46.173 14.0007 47.3438 14Z" fill="#7C7C7C"/>
<path d="M18.8248 13.1418L13.5237 18.7998C13.1722 19.1747 12.6956 19.3854 12.1986 19.3854C11.7016 19.3854 11.225 19.1747 10.8736 18.7998L5.57243 13.1428C5.13422 12.6792 4.78612 12.1279 4.54812 11.5204C4.31012 10.9129 4.18691 10.2612 4.18556 9.60275C4.18421 8.9443 4.30474 8.29204 4.54025 7.68344C4.77575 7.07483 5.12158 6.52186 5.55789 6.05626C5.99419 5.59067 6.51238 5.22162 7.0827 4.97031C7.65302 4.71899 8.26424 4.59037 8.88127 4.59181C9.4983 4.59325 10.109 4.72473 10.6783 4.97871C11.2475 5.23268 11.7642 5.60415 12.1986 6.07178C13.0809 5.15365 14.2667 4.64345 15.4991 4.65169C16.7314 4.65993 17.9111 5.18595 18.7826 6.1158C19.6541 7.04566 20.1472 8.30447 20.1551 9.61955C20.163 10.9346 19.685 12.2001 18.8248 13.1418Z" stroke="#7C7C7C" stroke-width="2" stroke-linecap="round" stroke-linejoin="round"/>
<path d="M94.9012 6.1875H91.2114V6C91.2114 4.85625 90.7856 3.75935 90.0277 2.9506C89.2699 2.14185 88.242 1.6875 87.1702 1.6875C86.0984 1.6875 85.0705 2.14185 84.3126 2.9506C83.5547 3.75935 83.129 4.85625 83.129 6V6.1875H79.4392C79.113 6.1875 78.8001 6.32578 78.5695 6.57192C78.3388 6.81806 78.2092 7.1519 78.2092 7.5V18.75C78.2092 19.0981 78.3388 19.4319 78.5695 19.6781C78.8001 19.9242 79.113 20.0625 79.4392 20.0625H94.9012C95.2274 20.0625 95.5402 19.9242 95.7709 19.6781C96.0015 19.4319 96.1311 19.0981 96.1311 18.75V7.5C96.1311 7.1519 96.0015 6.81806 95.7709 6.57192C95.5402 6.32578 95.2274 6.1875 94.9012 6.1875ZM84.1832 6C84.1832 5.15462 84.4979 4.34387 85.0581 3.7461C85.6182 3.14832 86.378 2.8125 87.1702 2.8125C87.9624 2.8125 88.7221 3.14832 89.2823 3.7461C89.8425 4.34387 90.1572 5.15462 90.1572 6V6.1875H84.1832V6ZM95.0769 18.75C95.0769 18.7997 95.0584 18.8474 95.0254 18.8826C94.9925 18.9177 94.9478 18.9375 94.9012 18.9375H79.4392C79.3926 18.9375 79.3479 18.9177 79.3149 18.8826C79.282 18.8474 79.2635 18.7997 79.2635 18.75V7.5C79.2635 7.45027 79.282 7.40258 79.3149 7.36742C79.3479 7.33225 79.3926 7.3125 79.4392 7.3125H83.129V9C83.129 9.14918 83.1845 9.29226 83.2834 9.39775C83.3822 9.50324 83.5163 9.5625 83.6561 9.5625C83.7959 9.5625 83.93 9.50324 84.0288 9.39775C84.1277 9.29226 84.1832 9.14918 84.1832 9V7.3125H90.1572V9C90.1572 9.14918 90.2127 9.29226 90.3115 9.39775C90.4104 9.50324 90.5445 9.5625 90.6843 9.5625C90.8241 9.5625 90.9581 9.50324 91.057 9.39775C91.1558 9.29226 91.2114 9.14918 91.2114 9V7.3125H94.9012C94.9478 7.3125 94.9925 7.33225 95.0254 7.36742C95.0584 7.40258 95.0769 7.45027 95.0769 7.5V18.75Z" fill="#7C7C7C" stroke="#7C7C7C" stroke-width="0.5"/>
</svg>
