<svg width="136" height="24" viewBox="0 0 136 24" fill="none" xmlns="http://www.w3.org/2000/svg">
<path d="M117.159 18C117.159 16.9391 117.554 15.9217 118.257 15.1716C118.96 14.4214 119.913 14 120.907 14H128.404C129.398 14 130.351 14.4214 131.054 15.1716C131.757 15.9217 132.152 16.9391 132.152 18C132.152 18.5304 131.955 19.0391 131.603 19.4142C131.252 19.7893 130.775 20 130.278 20H119.033C118.536 20 118.059 19.7893 117.708 19.4142C117.356 19.0391 117.159 18.5304 117.159 18Z" stroke="#7C7C7C" stroke-width="1.5" stroke-linejoin="round"/>
<path d="M124.656 10C126.209 10 127.467 8.65685 127.467 7C127.467 5.34315 126.209 4 124.656 4C123.103 4 121.844 5.34315 121.844 7C121.844 8.65685 123.103 10 124.656 10Z" stroke="#7C7C7C" stroke-width="1.5"/>
<path d="M56.8082 21L50.9045 14.7C50.4359 15.1 49.8971 15.4167 49.288 15.65C48.6789 15.8833 48.0307 16 47.3435 16C45.6412 16 44.2005 15.3707 43.0217 14.112C41.8428 12.8533 41.2531 11.316 41.2524 9.5C41.2524 7.68333 41.8422 6.146 43.0217 4.888C44.2012 3.63 45.6418 3.00067 47.3435 3C49.0459 3 50.4865 3.62933 51.6654 4.888C52.8443 6.14667 53.434 7.684 53.4346 9.5C53.4346 10.2333 53.3253 10.925 53.1067 11.575C52.888 12.225 52.5913 12.8 52.2164 13.3L58.1201 19.6L56.8082 21ZM47.3435 14C48.5149 14 49.5107 13.5623 50.331 12.687C51.1513 11.8117 51.5611 10.7493 51.5605 9.5C51.5605 8.25 51.1503 7.18733 50.3301 6.312C49.5098 5.43667 48.5143 4.99933 47.3435 5C46.1722 5 45.1764 5.43767 44.3561 6.313C43.5358 7.18833 43.126 8.25067 43.1266 9.5C43.1266 10.75 43.5368 11.8127 44.357 12.688C45.1773 13.5633 46.1728 14.0007 47.3435 14Z" fill="#7C7C7C"/>
<path d="M18.8248 13.1418L13.5237 18.7998C13.1722 19.1747 12.6956 19.3854 12.1986 19.3854C11.7016 19.3854 11.225 19.1747 10.8736 18.7998L5.57243 13.1428C5.13422 12.6792 4.78612 12.1279 4.54812 11.5204C4.31012 10.9129 4.18691 10.2612 4.18556 9.60275C4.18421 8.9443 4.30474 8.29204 4.54025 7.68344C4.77575 7.07483 5.12158 6.52186 5.55789 6.05626C5.99419 5.59067 6.51238 5.22162 7.0827 4.97031C7.65302 4.71899 8.26424 4.59037 8.88127 4.59181C9.4983 4.59325 10.109 4.72473 10.6783 4.97871C11.2475 5.23268 11.7642 5.60415 12.1986 6.07178C13.0809 5.15365 14.2667 4.64345 15.4991 4.65169C16.7314 4.65993 17.9111 5.18595 18.7826 6.1158C19.6541 7.04566 20.1472 8.30447 20.1551 9.61955C20.163 10.9346 19.685 12.2001 18.8248 13.1418Z" stroke="#7C7C7C" stroke-width="2" stroke-linecap="round" stroke-linejoin="round"/>
<path d="M94.9014 6.1875H91.2116V6C91.2116 4.85625 90.7859 3.75935 90.028 2.9506C89.2701 2.14185 88.2422 1.6875 87.1704 1.6875C86.0986 1.6875 85.0707 2.14185 84.3129 2.9506C83.555 3.75935 83.1292 4.85625 83.1292 6V6.1875H79.4394C79.1132 6.1875 78.8004 6.32578 78.5697 6.57192C78.3391 6.81806 78.2095 7.1519 78.2095 7.5V18.75C78.2095 19.0981 78.3391 19.4319 78.5697 19.6781C78.8004 19.9242 79.1132 20.0625 79.4394 20.0625H94.9014C95.2276 20.0625 95.5405 19.9242 95.7711 19.6781C96.0018 19.4319 96.1314 19.0981 96.1314 18.75V7.5C96.1314 7.1519 96.0018 6.81806 95.7711 6.57192C95.5405 6.32578 95.2276 6.1875 94.9014 6.1875ZM84.1834 6C84.1834 5.15462 84.4981 4.34387 85.0583 3.7461C85.6185 3.14832 86.3782 2.8125 87.1704 2.8125C87.9626 2.8125 88.7224 3.14832 89.2825 3.7461C89.8427 4.34387 90.1574 5.15462 90.1574 6V6.1875H84.1834V6ZM95.0771 18.75C95.0771 18.7997 95.0586 18.8474 95.0257 18.8826C94.9927 18.9177 94.948 18.9375 94.9014 18.9375H79.4394C79.3928 18.9375 79.3481 18.9177 79.3152 18.8826C79.2822 18.8474 79.2637 18.7997 79.2637 18.75V7.5C79.2637 7.45027 79.2822 7.40258 79.3152 7.36742C79.3481 7.33225 79.3928 7.3125 79.4394 7.3125H83.1292V9C83.1292 9.14918 83.1847 9.29226 83.2836 9.39775C83.3824 9.50324 83.5165 9.5625 83.6563 9.5625C83.7961 9.5625 83.9302 9.50324 84.029 9.39775C84.1279 9.29226 84.1834 9.14918 84.1834 9V7.3125H90.1574V9C90.1574 9.14918 90.2129 9.29226 90.3118 9.39775C90.4106 9.50324 90.5447 9.5625 90.6845 9.5625C90.8243 9.5625 90.9584 9.50324 91.0572 9.39775C91.1561 9.29226 91.2116 9.14918 91.2116 9V7.3125H94.9014C94.948 7.3125 94.9927 7.33225 95.0257 7.36742C95.0586 7.40258 95.0771 7.45027 95.0771 7.5V18.75Z" fill="#F2644F" stroke="#F2644F" stroke-width="0.5"/>
</svg>
