<svg width="17" height="17" viewBox="0 0 17 17" fill="none" xmlns="http://www.w3.org/2000/svg">
<g clip-path="url(#clip0_10_2946)">
<path d="M0.454023 8.40428C0.453648 9.74859 0.807648 11.0612 1.48077 12.2182L0.389648 16.1712L4.46665 15.1104C5.59429 15.7196 6.85774 16.0387 8.14165 16.0388H8.14502C12.3835 16.0388 15.8336 12.6166 15.8355 8.41029C15.8363 6.37203 15.037 4.45538 13.5849 3.01339C12.133 1.57153 10.2021 0.777053 8.14471 0.776123C3.90577 0.776123 0.455836 4.19814 0.454086 8.40428" fill="url(#paint0_linear_10_2946)"/>
<path d="M0.179668 8.40177C0.17923 9.79445 0.545918 11.154 1.24304 12.3524L0.112793 16.4471L4.33598 15.3484C5.49961 15.9779 6.80973 16.3098 8.14286 16.3103H8.14629C12.5368 16.3103 16.1109 12.765 16.1128 8.40809C16.1135 6.29659 15.2855 4.31104 13.7815 2.8174C12.2774 1.32394 10.2774 0.500868 8.14629 0.5C3.75504 0.5 0.181418 4.04481 0.179668 8.40177ZM2.69467 12.146L2.53698 11.8976C1.87411 10.8518 1.52423 9.64326 1.52473 8.40226C1.52617 4.78087 4.49642 1.83457 8.14879 1.83457C9.91754 1.83532 11.5798 2.51947 12.83 3.76078C14.0802 5.0022 14.7682 6.65243 14.7677 8.4076C14.7661 12.029 11.7958 14.9757 8.14629 14.9757H8.14367C6.95536 14.975 5.78992 14.6584 4.77354 14.06L4.53167 13.9177L2.02554 14.5696L2.69467 12.146V12.146Z" fill="url(#paint1_linear_10_2946)"/>
<path d="M6.15502 5.09831C6.00589 4.76944 5.84896 4.7628 5.70714 4.75704C5.59102 4.75208 5.45827 4.75245 5.32564 4.75245C5.19289 4.75245 4.97721 4.802 4.79489 4.99952C4.61239 5.19722 4.09814 5.67499 4.09814 6.64671C4.09814 7.61849 4.81146 8.5576 4.91089 8.6895C5.01046 8.82116 6.28796 10.8791 8.31121 11.6708C9.99271 12.3287 10.3349 12.1978 10.6998 12.1649C11.0648 12.132 11.8776 11.6872 12.0434 11.226C12.2093 10.7649 12.2093 10.3696 12.1596 10.287C12.1098 10.2047 11.9771 10.1552 11.778 10.0565C11.5789 9.95772 10.6003 9.47989 10.4178 9.41397C10.2353 9.34811 10.1026 9.31524 9.96989 9.51301C9.83714 9.71046 9.45596 10.1552 9.33977 10.287C9.22371 10.419 9.10752 10.4354 8.90852 10.3366C8.70933 10.2375 8.06827 10.0292 7.30771 9.35642C6.71596 8.83288 6.31646 8.18637 6.20033 7.9886C6.08421 7.79115 6.18789 7.68411 6.28771 7.58569C6.37714 7.49719 6.48683 7.35505 6.58646 7.23977C6.68571 7.12442 6.71883 7.04212 6.78521 6.9104C6.85164 6.77856 6.81839 6.66321 6.76871 6.56442C6.71883 6.46563 6.33202 5.48882 6.15502 5.09831Z" fill="white"/>
</g>
<defs>
<linearGradient id="paint0_linear_10_2946" x1="772.68" y1="1540.28" x2="772.68" y2="0.776123" gradientUnits="userSpaceOnUse">
<stop stop-color="#1FAF38"/>
<stop offset="1" stop-color="#60D669"/>
</linearGradient>
<linearGradient id="paint1_linear_10_2946" x1="800.113" y1="1595.21" x2="800.113" y2="0.5" gradientUnits="userSpaceOnUse">
<stop stop-color="#F9F9F9"/>
<stop offset="1" stop-color="white"/>
</linearGradient>
<clipPath id="clip0_10_2946">
<rect width="16" height="16" fill="white" transform="translate(0.112793 0.5)"/>
</clipPath>
</defs>
</svg>
