<svg width="17" height="17" viewBox="0 0 17 17" fill="none" xmlns="http://www.w3.org/2000/svg">
<g clip-path="url(#clip0_9_2813)">
<path d="M0.454512 8.40428C0.454137 9.74859 0.808137 11.0612 1.48126 12.2182L0.390137 16.1712L4.46714 15.1104C5.59478 15.7196 6.85822 16.0387 8.14214 16.0388H8.14551C12.3839 16.0388 15.8341 12.6166 15.8359 8.41029C15.8368 6.37203 15.0375 4.45538 13.5854 3.01339C12.1335 1.57153 10.2026 0.777053 8.1452 0.776123C3.90626 0.776123 0.456324 4.19814 0.454574 8.40428" fill="url(#paint0_linear_9_2813)"/>
<path d="M0.179912 8.40177C0.179475 9.79445 0.546162 11.154 1.24329 12.3524L0.113037 16.4471L4.33622 15.3484C5.49985 15.9779 6.80997 16.3098 8.1431 16.3103H8.14654C12.537 16.3103 16.1112 12.765 16.113 8.40809C16.1138 6.29659 15.2858 4.31104 13.7818 2.8174C12.2776 1.32394 10.2776 0.500868 8.14654 0.5C3.75529 0.5 0.181662 4.04481 0.179912 8.40177ZM2.69491 12.146L2.53722 11.8976C1.87435 10.8518 1.52447 9.64326 1.52497 8.40226C1.52641 4.78087 4.49666 1.83457 8.14904 1.83457C9.91779 1.83532 11.58 2.51947 12.8303 3.76078C14.0805 5.0022 14.7684 6.65243 14.768 8.4076C14.7663 12.029 11.796 14.9757 8.14654 14.9757H8.14391C6.9556 14.975 5.79016 14.6584 4.77379 14.06L4.53191 13.9177L2.02579 14.5696L2.69491 12.146V12.146Z" fill="url(#paint1_linear_9_2813)"/>
<path d="M6.15551 5.09831C6.00638 4.76944 5.84945 4.7628 5.70763 4.75704C5.59151 4.75208 5.45876 4.75245 5.32613 4.75245C5.19338 4.75245 4.9777 4.802 4.79538 4.99952C4.61288 5.19722 4.09863 5.67499 4.09863 6.64671C4.09863 7.61849 4.81195 8.5576 4.91138 8.6895C5.01095 8.82116 6.28844 10.8791 8.3117 11.6708C9.9932 12.3287 10.3354 12.1978 10.7003 12.1649C11.0653 12.132 11.8781 11.6872 12.0439 11.226C12.2098 10.7649 12.2098 10.3696 12.1601 10.287C12.1103 10.2047 11.9776 10.1552 11.7785 10.0565C11.5794 9.95772 10.6008 9.47989 10.4183 9.41397C10.2358 9.34811 10.1031 9.31524 9.97038 9.51301C9.83763 9.71046 9.45645 10.1552 9.34026 10.287C9.2242 10.419 9.10801 10.4354 8.90901 10.3366C8.70982 10.2375 8.06876 10.0292 7.3082 9.35642C6.71645 8.83288 6.31695 8.18637 6.20082 7.9886C6.0847 7.79115 6.18838 7.68411 6.2882 7.58569C6.37763 7.49719 6.48732 7.35505 6.58695 7.23977C6.6862 7.12442 6.71932 7.04212 6.7857 6.9104C6.85213 6.77856 6.81888 6.66321 6.7692 6.56442C6.71932 6.46563 6.33251 5.48882 6.15551 5.09831Z" fill="white"/>
</g>
<defs>
<linearGradient id="paint0_linear_9_2813" x1="772.681" y1="1540.28" x2="772.681" y2="0.776123" gradientUnits="userSpaceOnUse">
<stop stop-color="#1FAF38"/>
<stop offset="1" stop-color="#60D669"/>
</linearGradient>
<linearGradient id="paint1_linear_9_2813" x1="800.113" y1="1595.21" x2="800.113" y2="0.5" gradientUnits="userSpaceOnUse">
<stop stop-color="#F9F9F9"/>
<stop offset="1" stop-color="white"/>
</linearGradient>
<clipPath id="clip0_9_2813">
<rect width="16" height="16" fill="white" transform="translate(0.113037 0.5)"/>
</clipPath>
</defs>
</svg>
