<svg width="104" height="104" viewBox="0 0 104 104" fill="none" xmlns="http://www.w3.org/2000/svg">
<path d="M83.1969 58.9336C83.1969 67.2084 79.9097 75.1442 74.0586 80.9953C68.2075 86.8465 60.2716 90.1336 51.9969 90.1336C43.7221 90.1336 35.7863 86.8465 29.9351 80.9953C24.084 75.1442 20.7969 67.2084 20.7969 58.9336C20.8001 52.8539 22.5803 46.9076 25.9185 41.8263C29.2568 36.7451 34.0075 32.7504 39.5862 30.3336L40.8065 31.2835L46.1729 35.4504C40.9198 36.7466 36.251 39.7621 32.9092 44.0173C29.5673 48.2725 27.7443 53.523 27.7302 58.9336C27.7302 72.3149 38.6155 83.2003 51.9969 83.2003C65.3782 83.2003 76.2635 72.3149 76.2635 58.9336C76.2494 53.523 74.4264 48.2725 71.0846 44.0173C67.7427 39.7621 63.0739 36.7466 57.8209 35.4504L64.4075 30.3336C69.9863 32.7504 74.737 36.7451 78.0753 41.8263C81.4135 46.9076 83.1937 52.8539 83.1969 58.9336ZM51.9969 31.2003L69.3302 17.7149L62.3969 6.93359H41.5969L34.6635 17.7149L45.0635 25.8061L51.9969 31.2003Z" fill="#F2644F"/>
</svg>
