<svg width="1551" height="130" viewBox="0 0 1551 130" fill="none" xmlns="http://www.w3.org/2000/svg">
<path d="M1506.87 29.1279C1507.11 30.6755 1506.16 32.8078 1505.48 34.4414C1483.04 36.2469 1474.43 21.6994 1454.5 19.6016C1441.7 18.2603 1409.47 18.8622 1396.73 23.2642C1373.32 31.3462 1368.33 57.7758 1334.66 49.178C1326.02 46.9598 1324.92 41.9903 1314.43 40.9929C1305.76 40.1675 1293.11 44.2085 1282.9 42.5577C1261.58 39.1014 1248.05 29.7986 1225.87 26.8753C1209.8 24.7603 1190.6 19.5156 1172.38 22.8172C1150.35 26.8238 1137.64 33.5472 1114.79 33.0485C1100.96 32.7562 1096.15 34.1835 1082.09 35.5075C1070.2 36.6252 1063.39 32.997 1052.63 32.3607C1014.65 30.1253 977.961 37.8977 942.87 52.1013C927.447 58.3433 911.671 63.8287 899.993 72.8735C887.018 82.9158 880.324 94.7292 867.055 104.737C846.796 119.955 816.245 118.339 790.826 118.373C779.296 118.39 768.12 121.434 756.59 122.001C737.57 122.947 730.846 121.64 713.36 124.787C693.691 128.347 671.869 131.339 654.176 127.762C634.507 123.79 625.985 110.67 610.474 103.31C586.765 92.0639 567.391 92.6658 538.728 88.023C521.654 85.2545 494.289 75.4873 483.024 68.0245C467.424 57.7243 465.449 41.7839 453.181 30.1253C440.059 17.6585 416.468 6.51576 386.449 16.9707C353.834 28.3198 331.629 44.3633 302.082 58.9452C237.708 90.6711 174.012 62.0232 114.917 62.7798C80.4745 63.2269 47.2703 70.3459 17.5458 58.9624L0 53.1331C29.931 64.3962 64.0198 56.7613 99.1408 55.9187C136.061 55.0246 159.593 67.6462 197.014 65.8406C233.874 64.0523 272.003 54.268 304.854 41.5432C341.066 27.5116 375.213 0.82404 416.822 0.256583C488.479 -0.706375 465.331 67.0271 530.324 76.8974C559.37 81.3167 579.157 80.474 602.954 91.6684C621.414 100.335 634.36 115.106 656.977 120.076C702.242 130.032 779.149 108.09 830.783 100.885C906.835 90.2755 894.803 52.3421 954.046 31.5182C977.136 23.3847 1009.37 22.7484 1033.02 23.4706C1053.78 24.0896 1071.79 27.4428 1093.62 26.9957C1120.69 26.4111 1139.79 18.7418 1165.01 16.0765C1231.74 9.0091 1277.27 35.903 1353.71 21.4243C1409.88 10.7802 1426.19 2.54346 1477.53 16.214C1503.04 23.0062 1518.19 29.3686 1550.93 25.5512L1506.87 29.1279Z" fill="#F1E7E0"/>
</svg>
