<svg width="1551" height="101" viewBox="0 0 1551 101" fill="none" xmlns="http://www.w3.org/2000/svg">
<path d="M1506.87 22.7335C1507.11 23.928 1506.16 25.5737 1505.48 26.8345C1483.04 28.2281 1474.43 17 1454.5 15.3808C1441.7 14.3456 1409.47 14.8101 1396.73 18.2077C1373.32 24.4456 1368.33 44.8447 1334.66 38.2087C1326.02 36.4966 1324.92 32.661 1314.43 31.8912C1305.76 31.2541 1293.11 34.3731 1282.9 33.0989C1261.58 30.4313 1248.05 23.2511 1225.87 20.9949C1209.8 19.3624 1190.6 15.3145 1172.38 17.8627C1150.35 20.9551 1137.64 26.1444 1114.79 25.7595C1100.96 25.5339 1096.15 26.6355 1082.09 27.6574C1070.2 28.5201 1063.39 25.7197 1052.63 25.2286C1014.65 23.5033 977.961 29.5022 942.87 40.4649C927.447 45.2826 911.671 49.5164 899.993 56.4975C887.018 64.2483 880.324 73.3663 867.055 81.0906C846.796 92.8363 816.246 91.5887 790.826 91.6153C779.296 91.6286 768.12 93.9777 756.59 94.4157C737.57 95.1456 730.847 94.137 713.36 96.5658C693.691 99.3131 671.869 101.622 654.176 98.8618C634.507 95.796 625.985 85.6694 610.474 79.989C586.765 71.3091 567.391 71.7736 538.728 68.1902C521.654 66.0534 494.289 58.5149 483.024 52.7548C467.424 44.8049 465.449 32.5017 453.181 23.5032C440.059 13.881 416.468 5.28079 386.449 13.3502C353.834 22.1097 331.629 34.4925 302.082 45.7472C237.708 70.2341 174.012 48.1229 114.917 48.7068C80.4745 49.0519 47.2703 54.5465 17.5458 45.7605L0 41.2612C29.931 49.9544 64.0198 44.0616 99.1408 43.4113C136.061 42.7211 159.593 52.4628 197.014 51.0693C233.874 49.689 272.003 42.1372 304.854 32.3159C341.066 21.4859 375.214 0.887764 416.822 0.449787C488.479 -0.293447 465.331 51.985 530.324 59.6032C559.37 63.0141 579.157 62.3637 602.954 71.0038C621.414 77.6929 634.36 89.0936 656.977 92.9292C702.243 100.614 779.149 83.6786 830.783 78.1176C906.835 69.9288 894.803 40.6507 954.046 24.5783C977.136 18.3007 1009.37 17.8096 1033.02 18.367C1053.78 18.8448 1071.79 21.4329 1093.62 21.0878C1120.69 20.6365 1139.79 14.7172 1165.01 12.66C1231.74 7.20523 1277.27 27.9627 1353.71 16.7876C1409.88 8.57223 1426.19 2.21489 1477.53 12.7662C1503.04 18.0086 1518.19 22.9193 1550.93 19.9729L1506.87 22.7335Z" fill="#F1E7E0"/>
</svg>
