<svg width="601" height="610" viewBox="0 0 601 610" fill="none" xmlns="http://www.w3.org/2000/svg">
<g opacity="0.35">
<path d="M43.082 318.844V338.862" stroke="#93A4AD" stroke-miterlimit="10"/>
<path d="M52.8176 328.846H33.332" stroke="#93A4AD" stroke-miterlimit="10"/>
<path d="M486.281 497.554V509.901" stroke="#93A4AD" stroke-miterlimit="10"/>
<path d="M492.285 503.72H480.279" stroke="#93A4AD" stroke-miterlimit="10"/>
<path d="M549.76 79.7791V92.1262" stroke="#93A4AD" stroke-miterlimit="10"/>
<path d="M555.777 85.9595H543.758" stroke="#93A4AD" stroke-miterlimit="10"/>
<path d="M388.236 583.694V596.041" stroke="#93A4AD" stroke-miterlimit="10"/>
<path d="M394.251 589.875H382.232" stroke="#93A4AD" stroke-miterlimit="10"/>
<path d="M542.133 556.185V586.136" stroke="#93A4AD" stroke-miterlimit="10"/>
<path d="M556.717 571.154H527.562" stroke="#93A4AD" stroke-miterlimit="10"/>
<path d="M96.4492 125.167V155.131" stroke="#93A4AD" stroke-miterlimit="10"/>
<path d="M111.033 140.149H81.8652" stroke="#93A4AD" stroke-miterlimit="10"/>
<path d="M49.6358 224.22C49.6358 225.29 49.3271 226.335 48.7486 227.224C48.1702 228.114 47.3481 228.807 46.3861 229.216C45.4242 229.625 44.3658 229.733 43.3446 229.524C42.3235 229.315 41.3855 228.8 40.6493 228.044C39.9131 227.288 39.4117 226.324 39.2086 225.275C39.0055 224.226 39.1097 223.139 39.5081 222.15C39.9066 221.162 40.5813 220.318 41.447 219.723C42.3127 219.129 43.3305 218.812 44.3716 218.812C45.7678 218.812 47.1067 219.382 48.094 220.396C49.0812 221.41 49.6358 222.786 49.6358 224.22Z" stroke="#93A4AD" stroke-miterlimit="10"/>
<path d="M569.193 538.279C569.193 539.018 568.979 539.741 568.579 540.356C568.179 540.971 567.611 541.45 566.946 541.733C566.281 542.016 565.549 542.09 564.843 541.945C564.137 541.801 563.489 541.445 562.98 540.922C562.471 540.399 562.124 539.733 561.984 539.008C561.844 538.283 561.916 537.531 562.191 536.848C562.467 536.165 562.933 535.581 563.531 535.17C564.13 534.759 564.834 534.54 565.553 534.54C566.519 534.54 567.444 534.934 568.127 535.635C568.809 536.336 569.193 537.287 569.193 538.279Z" stroke="#93A4AD" stroke-miterlimit="10"/>
<path d="M436.581 564.021C436.583 564.764 436.371 565.491 435.972 566.11C435.572 566.729 435.002 567.212 434.335 567.498C433.668 567.784 432.933 567.86 432.224 567.717C431.514 567.574 430.862 567.218 430.35 566.693C429.838 566.169 429.489 565.501 429.347 564.772C429.205 564.044 429.276 563.289 429.552 562.602C429.828 561.916 430.296 561.329 430.897 560.916C431.498 560.503 432.205 560.283 432.928 560.283C433.407 560.281 433.882 560.376 434.325 560.563C434.768 560.75 435.171 561.026 435.51 561.373C435.849 561.72 436.119 562.133 436.302 562.587C436.486 563.042 436.581 563.529 436.581 564.021Z" stroke="#93A4AD" stroke-miterlimit="10"/>
<path d="M63.732 251.085C66.3515 245.044 63.7078 237.965 57.8271 235.274C51.9465 232.583 45.0558 235.299 42.4363 241.34C39.8169 247.381 42.4606 254.46 48.3412 257.151C54.2219 259.842 61.1126 257.126 63.732 251.085Z" stroke="#93A4AD" stroke-miterlimit="10"/>
<path d="M586.059 351.83C592.496 351.83 597.715 346.469 597.715 339.855C597.715 333.242 592.496 327.881 586.059 327.881C579.621 327.881 574.402 333.242 574.402 339.855C574.402 346.469 579.621 351.83 586.059 351.83Z" stroke="#93A4AD" stroke-miterlimit="10"/>
<path d="M224.895 97.9863C226.368 91.5484 222.482 85.1025 216.216 83.589C209.949 82.0754 203.674 86.0674 202.201 92.5053C200.728 98.9432 204.613 105.389 210.88 106.903C217.147 108.416 223.422 104.424 224.895 97.9863Z" stroke="#93A4AD" stroke-miterlimit="10"/>
<path d="M201.599 160.953C129.498 160.953 70.8398 219.957 70.8398 292.467V366.233H108.052V292.467C108.052 240.623 149.991 198.436 201.545 198.436C253.099 198.436 295.025 240.623 295.025 292.467V366.233H332.317V292.467C332.317 219.957 273.686 160.953 201.599 160.953Z" stroke="#93A4AD" stroke-miterlimit="10"/>
<path d="M342.497 566.987V366.233H159.861M147.48 366.233H57.0215V608.844H342.524V581.514M213.135 494.491L218.358 549.605H178.367L183.591 494.491C178.685 491.872 174.571 487.924 171.693 483.075C168.814 478.227 167.282 472.662 167.261 466.983C167.43 458.629 170.779 450.676 176.589 444.83C182.4 438.984 190.209 435.709 198.342 435.709C206.476 435.709 214.285 438.984 220.096 444.83C225.906 450.676 229.255 458.629 229.424 466.983C229.403 472.66 227.872 478.223 224.996 483.072C222.12 487.92 218.009 491.869 213.108 494.491H213.135Z" stroke="#93A4AD" stroke-miterlimit="10"/>
<path d="M213.109 494.491L218.333 549.605H178.368L183.591 494.491C178.686 491.872 174.572 487.924 171.694 483.075C168.815 478.227 167.283 472.662 167.262 466.983C167.431 458.629 170.78 450.676 176.59 444.83C182.401 438.984 190.21 435.709 198.343 435.709C206.477 435.709 214.286 438.984 220.096 444.83C225.907 450.676 229.256 458.629 229.425 466.983C229.404 472.66 227.872 478.223 224.997 483.072C222.121 487.92 218.01 491.869 213.109 494.491Z" stroke="#93A4AD" stroke-miterlimit="10"/>
<path d="M213.109 494.491L218.333 549.605H178.368L183.591 494.491C178.686 491.872 174.572 487.924 171.694 483.075C168.815 478.227 167.283 472.662 167.262 466.983C167.431 458.629 170.78 450.676 176.59 444.83C182.401 438.984 190.21 435.709 198.343 435.709C206.477 435.709 214.286 438.984 220.096 444.83C225.907 450.676 229.256 458.629 229.425 466.983C229.404 472.66 227.872 478.223 224.997 483.072C222.121 487.92 218.01 491.869 213.109 494.491Z" stroke="#93A4AD" stroke-miterlimit="10"/>
<path d="M513.866 31.7562C508.159 30.6525 500.705 38.185 498.221 42.8755C498.006 43.2756 495.361 49.9941 495.468 50.0079C495.575 50.0217 505.647 50.7805 509.904 49.1388C513.53 47.7592 517.76 44.9173 518.929 40.8614C519.229 39.9224 519.334 38.9292 519.237 37.9459C519.141 36.9627 518.844 36.0112 518.367 35.153C517.89 34.2948 517.243 33.5491 516.467 32.964C515.692 32.3789 514.806 31.9674 513.866 31.7562Z" fill="#93A4AD"/>
<path d="M421.124 130.313C421.5 133.679 421.93 137.017 422.467 140.287C422.749 141.666 422.937 143.129 423.286 144.426C423.635 145.722 423.917 147.102 424.239 148.426C424.978 151.185 425.65 153.655 426.402 156.166C426.778 157.421 427.154 158.621 427.53 159.849C426.603 157.904 425.086 154.841 424.911 154.579C422.064 150.137 413.993 143.267 408.407 144.922C407.485 145.213 406.633 145.701 405.907 146.353C405.181 147.005 404.597 147.806 404.192 148.706C403.788 149.605 403.573 150.582 403.561 151.573C403.549 152.563 403.74 153.546 404.123 154.455C405.613 158.373 410.072 160.815 413.792 161.891C417.914 163.077 426.925 161.698 428.026 161.518C428.671 163.56 429.302 165.561 429.947 167.492H433.546C432.821 165.478 432.095 163.353 431.37 161.256C432.377 160.815 440.18 157.352 443.322 154.221C445.813 155.799 448.396 157.218 451.057 158.47C450.225 161.505 449.446 164.471 448.761 167.244C448.755 167.326 448.755 167.409 448.761 167.492H452.293C452.817 165.133 453.407 162.677 454.039 160.139C455.153 160.36 464.11 162.001 468.247 160.953C472.007 159.987 476.532 157.683 478.144 153.807C478.551 152.908 478.77 151.931 478.785 150.939C478.8 149.948 478.611 148.964 478.231 148.053C477.85 147.142 477.287 146.323 476.578 145.65C475.869 144.978 475.03 144.466 474.115 144.15C468.569 142.37 460.31 148.978 457.315 153.338C457.127 153.614 455.234 157.173 454.307 159.008C454.723 157.352 455.126 155.71 455.65 154C456.295 151.53 456.993 148.937 457.772 146.426C458.202 145.143 458.618 143.846 459.115 142.522C459.612 141.197 460.068 139.97 460.538 138.659C461.277 136.769 462.136 134.851 462.982 132.948C465.386 133.775 472.504 136.079 476.237 135.707C479.97 135.334 484.899 133.775 487.061 130.188C487.597 129.365 487.958 128.434 488.121 127.458C488.284 126.481 488.245 125.48 488.007 124.52C487.769 123.56 487.337 122.662 486.739 121.884C486.141 121.107 485.39 120.467 484.536 120.007C479.312 117.4 470.167 122.656 466.581 126.491C466.46 126.615 465.789 127.512 464.997 128.574C465.87 126.74 466.756 124.891 467.683 123.056C470.368 117.855 473.309 112.64 476.223 107.398C476.828 106.308 477.405 105.204 478.009 104.115C480.037 104.818 487.719 107.384 491.627 107.012C495.534 106.639 500.302 105.08 502.464 101.493C503.002 100.666 503.363 99.73 503.524 98.7483C503.684 97.7667 503.641 96.7613 503.396 95.7981C503.151 94.835 502.71 93.9361 502.103 93.1605C501.496 92.385 500.735 91.7503 499.872 91.2984C494.662 88.6772 485.516 93.9334 481.917 97.7686C481.796 97.9065 480.991 98.9688 480.091 100.183C481.635 97.3133 483.139 94.43 484.536 91.5191C486.95 86.5647 489.036 81.4487 490.781 76.2059C491.492 76.4542 500.436 79.6548 504.787 79.241C508.641 78.8685 513.462 77.2958 515.624 73.7227C516.16 72.898 516.52 71.9668 516.682 70.9896C516.844 70.0123 516.805 69.011 516.565 68.0507C516.326 67.0904 515.892 66.1926 515.293 65.4157C514.694 64.6388 513.942 64.0002 513.086 63.5415C507.876 60.9341 498.731 66.1765 495.145 70.0254C494.89 70.2876 491.989 74.1642 491.009 75.5437C491.025 75.4818 491.048 75.4217 491.076 75.3644C492.684 70.1545 493.839 64.8084 494.527 59.389C495.167 54.5497 495.53 49.676 495.615 44.7931C495.736 40.2682 495.615 36.1157 495.414 32.446C495.306 30.4594 495.185 28.6522 495.038 26.9277L495.132 27.0105C495.226 27.0105 497.522 20.223 497.616 19.7678C498.731 14.5668 497.925 3.84754 492.916 0.826285C492.067 0.36313 491.132 0.0877198 490.173 0.0177701C489.214 -0.0521796 488.252 0.0848798 487.347 0.420133C486.443 0.755386 485.617 1.28141 484.922 1.96436C484.227 2.64731 483.68 3.47207 483.314 4.38557C481.622 8.20698 483.019 13.201 484.858 16.6913C486.698 20.1816 493.198 25.5068 494.809 26.776C494.93 28.5418 495.024 30.418 495.091 32.515C495.185 36.1708 495.252 40.3095 495.091 44.8207C495.091 46.021 494.93 47.304 494.85 48.5594C494.568 46.421 494.124 43.4963 494.057 43.2066C492.714 38.0608 487.182 28.9281 481.38 28.6384C480.417 28.6155 479.46 28.8012 478.571 29.1833C477.683 29.5655 476.882 30.1356 476.222 30.8566C475.562 31.5775 475.058 32.4331 474.741 33.3678C474.424 34.3024 474.302 35.2951 474.384 36.2812C474.585 40.4199 478.063 44.2551 481.273 46.49C484.482 48.7249 492.889 50.408 494.702 50.7391C494.487 53.4982 494.192 56.3401 493.708 59.2786C492.917 64.6146 491.667 69.8683 489.975 74.9781C489.867 75.2816 489.733 75.5713 489.626 75.861C489.626 74.785 489.451 68.8252 489.384 68.4113C488.605 63.1552 484.012 53.443 478.359 52.4911C477.402 52.3591 476.429 52.4354 475.504 52.7151C474.578 52.9947 473.72 53.4715 472.985 54.1143C472.25 54.7572 471.655 55.5517 471.239 56.4462C470.823 57.3407 470.595 58.3151 470.57 59.3062C470.328 63.4449 473.376 67.5836 476.331 70.2324C479.728 73.2122 489.196 75.9576 489.545 76.068C487.72 81.1085 485.575 86.021 483.126 90.7742C481.326 94.3059 479.366 97.81 477.365 101.3C477.365 99.9207 477.177 94.4024 477.123 93.961C476.344 88.691 471.819 78.9926 466.084 78.0407C465.129 77.9108 464.158 77.9887 463.233 78.2693C462.309 78.55 461.453 79.0271 460.72 79.6697C459.986 80.3123 459.393 81.106 458.978 81.9995C458.562 82.8929 458.335 83.8661 458.309 84.8558C458.067 88.9945 461.116 93.1332 464.057 95.782C467.374 98.6791 476.438 101.3 477.204 101.59C476.291 103.176 475.391 104.763 474.518 106.336C471.496 111.509 468.461 116.669 465.614 121.87C464.621 123.663 463.721 125.47 462.794 127.278C462.794 125.167 462.606 121.332 462.566 121.001C461.787 115.731 457.194 106.032 451.527 105.08C450.572 104.95 449.601 105.028 448.676 105.309C447.752 105.59 446.896 106.067 446.162 106.709C445.429 107.352 444.836 108.146 444.421 109.039C444.005 109.932 443.777 110.906 443.752 111.895C443.51 116.034 446.559 120.173 449.5 122.808C452.441 125.443 460.028 127.829 462.177 128.478C460.673 131.499 459.249 134.534 457.973 137.583C457.463 138.962 456.845 140.232 456.416 141.542C455.986 142.853 455.502 144.136 455.073 145.419C454.24 148.095 453.448 150.578 452.723 153.103C452.36 154.372 452.038 155.572 451.689 156.814C451.957 154.662 452.333 151.296 452.333 150.937C452.333 145.612 449.298 135.32 443.779 133.486C442.853 133.207 441.881 133.131 440.925 133.263C439.969 133.395 439.051 133.732 438.231 134.253C437.41 134.773 436.705 135.465 436.162 136.284C435.618 137.102 435.249 138.029 435.077 139.004C434.971 139.512 434.913 140.029 434.902 140.549C432.418 144.482 430.956 149.004 430.659 153.682C430.659 154.014 430.967 158.056 431.182 160.125C430.645 158.497 430.095 156.897 429.571 155.214C428.778 152.786 428.026 150.192 427.274 147.681C426.939 146.302 426.59 145.046 426.254 143.708C425.918 142.37 425.676 141.032 425.368 139.666C424.965 137.679 424.656 135.527 424.333 133.513C426.791 132.851 433.949 130.754 436.876 128.326C439.804 125.898 443.067 121.801 442.946 117.593C442.942 116.597 442.732 115.613 442.332 114.707C441.931 113.8 441.348 112.99 440.622 112.331C439.895 111.672 439.041 111.178 438.115 110.882C437.19 110.585 436.214 110.494 435.251 110.612C429.49 111.385 424.696 120.945 423.756 126.188C423.756 126.367 423.635 127.484 423.555 128.823C423.299 126.795 423.044 124.767 422.856 122.684C422.319 116.807 421.957 110.805 421.513 104.749C421.433 103.494 421.325 102.238 421.245 100.997C423.313 100.431 431.088 98.2376 434.164 95.6992C437.239 93.1608 440.354 89.1601 440.233 84.9524C440.237 83.9611 440.037 82.9802 439.647 82.0735C439.257 81.1668 438.686 80.3545 437.97 79.6896C437.254 79.0247 436.41 78.5219 435.493 78.2141C434.576 77.9062 433.606 77.8002 432.646 77.9028C426.898 78.6753 422.091 88.2358 421.151 93.4781C421.151 93.6575 421.03 95.0094 420.922 96.5132C420.667 93.2574 420.372 90.0016 419.982 86.8562C419.336 81.3314 418.336 75.8564 416.988 70.4669C417.726 70.2738 426.898 67.8733 430.296 65.059C433.317 62.5758 436.487 58.5336 436.379 54.326C436.399 53.3294 436.213 52.3399 435.834 51.4224C435.455 50.505 434.891 49.6803 434.179 49.0027C433.468 48.3252 432.624 47.81 431.705 47.491C430.786 47.1721 429.811 47.0566 428.846 47.1522C423.098 47.9248 418.29 57.4852 417.35 62.7275C417.283 63.1 416.961 67.9699 416.907 69.7219V69.5288C415.455 64.2679 413.545 59.152 411.2 54.2432C409.139 49.8474 406.825 45.5816 404.27 41.4684C401.947 37.6194 399.597 34.2394 397.475 31.2734C396.32 29.6731 395.246 28.2383 394.212 26.9001H394.333C394.44 26.9001 392.681 19.8919 392.52 19.4643C390.667 14.484 384.221 5.99967 378.433 6.33076C377.471 6.41144 376.536 6.69971 375.69 7.17674C374.844 7.65378 374.105 8.30884 373.522 9.09914C372.939 9.88945 372.525 10.7972 372.307 11.7631C372.088 12.7291 372.071 13.7314 372.255 14.7047C372.887 18.8435 376.727 22.2234 380.138 24.0996C383.549 25.9758 391.835 26.7208 393.863 26.8587C394.91 28.2383 395.998 29.7696 397.18 31.4803C399.221 34.4878 401.504 37.8953 403.733 41.7719C404.338 42.8066 404.928 43.9516 405.533 45.0415C404.19 43.4136 402.216 41.2201 402.001 41.0269C398.12 37.4952 388.572 33.0116 383.603 36.0467C382.788 36.5761 382.089 37.2755 381.554 38.0997C381.018 38.9239 380.657 39.8545 380.494 40.8311C380.331 41.8078 380.369 42.8088 380.606 43.7694C380.843 44.7299 381.274 45.6286 381.871 46.4072C384.301 49.7872 389.23 50.9598 393.097 51.015C396.965 51.0702 404.902 47.6902 406.527 46.8763C407.869 49.3181 409.105 51.8565 410.287 54.5743C412.49 59.4608 414.265 64.5393 415.591 69.7495C415.658 70.0392 415.699 70.3703 415.779 70.6738C415.229 69.7495 411.844 64.9072 411.576 64.6037C408.098 60.6444 399.114 55.1123 393.823 57.5679C392.955 58.0015 392.187 58.6176 391.566 59.3762C390.946 60.1349 390.488 61.0191 390.222 61.9715C389.956 62.9239 389.888 63.9231 390.022 64.9043C390.157 65.8854 390.491 66.8265 391.003 67.6664C393.044 71.3084 397.811 73.0329 401.665 73.5158C406.083 74.0676 415.47 71.0049 415.819 70.8808C417 76.1255 417.848 81.4434 418.358 86.801C418.76 90.7604 419.002 94.7887 419.217 98.8308C418.465 97.6582 415.323 93.1608 415.067 92.8573C411.589 88.9117 402.605 83.3797 397.314 85.8353C396.446 86.2675 395.676 86.8827 395.054 87.6408C394.432 88.3989 393.973 89.283 393.706 90.2355C393.438 91.188 393.369 92.1876 393.503 93.1694C393.636 94.1511 393.969 95.093 394.481 95.9337C396.535 99.5758 401.303 101.286 405.143 101.769C409.467 102.321 418.465 99.4241 419.23 99.1757C419.324 101.011 419.418 102.845 419.499 104.694C419.768 110.709 420.009 116.751 420.412 122.628C420.56 124.698 420.775 126.767 420.976 128.74C419.808 127.002 417.619 123.884 417.404 123.635C413.926 119.69 404.942 114.158 399.651 116.613C398.782 117.045 398.012 117.661 397.39 118.419C396.769 119.178 396.31 120.062 396.044 121.015C395.778 121.968 395.71 122.968 395.846 123.95C395.981 124.931 396.317 125.873 396.831 126.712C398.885 130.354 403.639 132.065 407.493 132.548C411.348 133.03 418.989 130.975 421.124 130.313Z" fill="#93A4AD"/>
<path d="M406.835 45.9107C406.835 45.9107 415.739 40.7925 418.411 37.0125C420.681 33.7843 422.709 29.0386 421.5 25.0102C421.25 24.0531 420.807 23.1608 420.2 22.3914C419.592 21.6221 418.833 20.993 417.973 20.5452C417.112 20.0974 416.17 19.8409 415.206 19.7926C414.243 19.7442 413.28 19.905 412.382 20.2645C407.01 22.5684 404.861 33.0945 405.304 38.4058C405.345 38.8749 406.741 45.9659 406.835 45.9107Z" fill="#93A4AD"/>
<path d="M160.156 467.396C154.207 466.251 146.432 474.101 143.853 478.985C143.625 479.399 140.872 486.407 140.98 486.421C141.087 486.434 151.589 487.235 156.02 485.524C159.794 484.062 164.212 481.123 165.421 476.915C165.738 475.936 165.851 474.899 165.752 473.872C165.654 472.844 165.347 471.85 164.851 470.952C164.354 470.055 163.68 469.274 162.871 468.662C162.063 468.049 161.138 467.618 160.156 467.396Z" fill="#93A4AD"/>
<path d="M63.5074 570.105C63.8968 573.609 64.3534 577.086 64.9577 580.493C65.2531 581.956 65.4546 583.459 65.8172 584.853C66.1797 586.246 66.4752 587.612 66.7975 588.992C67.5764 591.82 68.2747 594.51 69.067 597.062C69.4564 598.373 69.8459 599.614 70.2353 600.897C69.2684 598.869 67.6838 595.682 67.5495 595.379C64.5817 590.757 56.1751 583.597 50.3469 585.267C49.3858 585.571 48.4981 586.081 47.7415 586.761C46.9849 587.442 46.3764 588.279 45.9558 589.217C45.5351 590.156 45.3117 591.175 45.3001 592.208C45.2885 593.241 45.4889 594.265 45.8884 595.213C47.4462 599.352 52.0792 601.835 55.9736 602.967C60.2575 604.194 69.6444 602.76 70.7456 602.58C71.4171 604.705 72.0885 606.788 72.7331 608.788H76.4933C75.7412 606.71 74.9847 604.544 74.2238 602.291C75.2846 601.835 83.4092 598.235 86.6725 594.965C89.2702 596.604 91.9608 598.083 94.73 599.393C93.8571 602.553 93.0513 605.643 92.3396 608.54C92.3396 608.623 92.3396 608.706 92.3396 608.788H95.9654C96.516 606.333 97.1203 603.767 97.7784 601.132C98.9467 601.352 108.28 603.077 112.55 601.973C116.458 600.966 121.185 598.58 122.85 594.537C123.276 593.603 123.505 592.586 123.523 591.554C123.541 590.522 123.348 589.498 122.955 588.548C122.562 587.598 121.979 586.744 121.244 586.041C120.509 585.338 119.638 584.801 118.687 584.467C112.913 582.618 104.305 589.502 101.23 594.041C101.028 594.344 99.0541 598.041 98.0872 599.959C98.517 598.235 98.9467 596.524 99.4301 594.744C100.102 592.165 100.894 589.461 101.646 586.853L102.989 582.783C103.419 581.404 103.983 580.107 104.479 578.755C105.258 576.782 106.145 574.782 107.031 572.795C109.542 573.651 116.942 576.051 120.836 575.692C124.731 575.334 129.874 573.665 132.117 569.94C132.676 569.079 133.052 568.106 133.22 567.085C133.388 566.064 133.343 565.018 133.089 564.017C132.836 563.015 132.379 562.079 131.748 561.272C131.117 560.464 130.328 559.803 129.431 559.331C124.059 556.572 114.471 562.09 110.724 566.077C110.603 566.215 109.891 567.139 109.072 568.257C109.999 566.339 110.899 564.421 111.906 562.504C114.726 557.082 117.774 551.647 120.796 546.184C121.427 545.052 122.045 543.907 122.662 542.762C124.784 543.507 132.775 546.17 136.857 545.783C140.939 545.397 145.895 543.769 148.137 540.044C148.695 539.183 149.069 538.21 149.236 537.19C149.402 536.169 149.357 535.124 149.104 534.123C148.85 533.122 148.394 532.187 147.765 531.379C147.135 530.571 146.347 529.909 145.452 529.436C140.08 526.676 130.492 532.195 126.745 536.182C126.611 536.32 125.765 537.437 124.838 538.692C126.449 535.699 128.007 532.705 129.471 529.67C132 524.49 134.194 519.144 136.038 513.667C136.776 513.929 146.096 517.254 150.635 516.826C154.664 516.44 159.66 514.812 161.916 511.073C162.471 510.212 162.843 509.241 163.008 508.222C163.174 507.203 163.128 506.16 162.875 505.16C162.621 504.16 162.166 503.227 161.538 502.42C160.91 501.614 160.123 500.952 159.23 500.478C153.791 497.719 144.256 503.238 140.523 507.224C140.255 507.5 137.246 511.556 136.212 513.033C136.243 512.971 136.265 512.906 136.28 512.839C137.962 507.415 139.166 501.847 139.879 496.202C140.543 491.17 140.92 486.103 141.007 481.026C141.141 476.308 141.007 471.977 140.805 468.155C140.698 466.086 140.563 464.196 140.416 462.43L140.51 462.513C140.604 462.513 143.007 455.435 143.101 454.966C144.27 449.545 143.424 438.412 138.2 435.239C137.318 434.741 136.345 434.44 135.342 434.355C134.34 434.27 133.331 434.403 132.382 434.745C131.433 435.088 130.565 435.632 129.834 436.342C129.104 437.052 128.527 437.912 128.141 438.867C126.369 442.854 127.833 448.041 129.74 451.697C131.646 455.353 138.442 460.871 140.12 462.209C140.241 464.044 140.349 466.003 140.416 468.169C140.51 471.99 140.577 476.308 140.416 480.999C140.416 482.254 140.241 483.592 140.161 484.903C139.865 482.668 139.408 479.619 139.328 479.385C137.985 474.018 132.17 464.499 126.127 464.21C125.122 464.188 124.124 464.385 123.198 464.785C122.271 465.186 121.437 465.782 120.75 466.535C120.062 467.289 119.537 468.182 119.207 469.157C118.877 470.133 118.75 471.168 118.835 472.197C119.05 476.57 122.662 480.475 126.006 482.82C129.35 485.165 138.092 486.959 140.013 487.248C139.771 490.132 139.476 493.098 138.979 496.16C138.15 501.721 136.847 507.196 135.084 512.522C134.977 512.826 134.829 513.129 134.722 513.433C134.722 512.301 134.534 506.107 134.467 505.679C133.647 500.161 128.947 490.076 122.971 489.125C121.979 488.995 120.971 489.081 120.012 489.376C119.054 489.671 118.167 490.17 117.407 490.839C116.648 491.509 116.034 492.334 115.604 493.263C115.175 494.191 114.94 495.202 114.914 496.229C114.659 500.603 117.841 504.921 120.917 507.611C124.449 510.715 134.346 513.571 134.695 513.681C132.785 518.935 130.542 524.055 127.98 529.008C126.114 532.691 124.059 536.347 121.978 540.044C121.978 538.582 121.79 532.815 121.722 532.402C120.917 526.883 116.203 516.812 110.227 515.847C109.235 515.717 108.227 515.803 107.268 516.098C106.31 516.394 105.422 516.892 104.663 517.562C103.904 518.231 103.29 519.057 102.86 519.985C102.431 520.913 102.195 521.924 102.17 522.952C101.915 527.325 105.097 531.629 108.172 534.319C111.624 537.354 121.064 540.141 121.87 540.376C120.917 542.031 119.977 543.686 119.023 545.328C115.881 550.722 112.711 556.103 109.744 561.511C108.71 563.387 107.77 565.277 106.816 567.153C106.816 564.959 106.615 560.945 106.561 560.6C105.755 555.082 101.042 545.011 95.0657 544.045C94.0734 543.918 93.0663 544.005 92.1088 544.301C91.1513 544.597 90.2647 545.096 89.5059 545.765C88.7472 546.434 88.133 547.259 87.7029 548.186C87.2727 549.114 87.0361 550.123 87.0082 551.15C86.7665 555.523 89.9358 559.841 93.011 562.531C96.0863 565.222 103.983 567.76 106.212 568.436C104.654 571.581 103.163 574.741 101.834 577.927C101.297 579.307 100.666 580.687 100.222 582.066L98.799 586.108C97.9261 588.867 97.1069 591.489 96.3549 594.11C95.9654 595.489 95.6297 596.69 95.2671 597.986C95.5491 595.738 95.9386 592.192 95.9386 591.861C95.9386 586.343 92.7827 575.582 87.0217 573.678C86.0582 573.387 85.0458 573.307 84.0504 573.445C83.0551 573.583 82.0991 573.935 81.245 574.477C80.3909 575.02 79.6579 575.742 79.0936 576.596C78.5294 577.449 78.1467 578.415 77.9705 579.431C77.8542 579.966 77.7912 580.511 77.7825 581.059C75.1909 585.152 73.665 589.859 73.3509 594.731C73.3509 595.089 73.6866 599.297 73.9015 601.449C73.3374 599.766 72.7734 598.097 72.2228 596.331C71.4036 593.806 70.6113 591.102 69.8324 588.495C69.4833 587.115 69.1207 585.736 68.7581 584.356C68.3955 582.977 68.1538 581.597 67.8449 580.217C67.4286 578.134 67.0929 575.968 66.7706 573.802C69.3221 573.113 76.7887 570.905 79.8371 568.395C82.8855 565.884 86.2831 561.593 86.1622 557.206C86.1676 556.173 85.961 555.151 85.5561 554.205C85.1511 553.26 84.5567 552.413 83.8118 551.719C83.0668 551.025 82.1879 550.501 81.2323 550.179C80.2768 549.858 79.266 549.747 78.2659 549.853C72.2631 550.667 67.2675 560.628 66.2872 566.091C66.2872 566.256 66.1663 567.47 66.0723 568.85C65.8172 566.725 65.5486 564.601 65.3471 562.449C64.7965 556.323 64.4205 550.033 64.0042 543.797C63.9236 542.486 63.8162 541.189 63.7356 539.879C65.8843 539.299 73.9955 536.996 77.1647 534.361C80.334 531.726 83.6107 527.559 83.4898 523.172C83.4931 522.14 83.2851 521.119 82.8795 520.174C82.4738 519.23 81.8794 518.383 81.1349 517.69C80.3904 516.997 79.5124 516.472 78.5577 516.15C77.6031 515.827 76.5932 515.715 75.5935 515.819C69.5907 516.633 64.5817 526.594 63.6148 532.057C63.6148 532.25 63.4671 533.643 63.3731 535.216C63.1045 531.822 62.7956 528.428 62.3793 525.076C61.7199 519.317 60.6789 513.611 59.2638 507.997C60.0292 507.804 69.5907 505.238 73.136 502.368C76.2918 499.775 79.5954 495.567 79.4611 491.18C79.4663 490.148 79.2601 489.127 78.8559 488.183C78.4517 487.238 77.8586 486.392 77.1151 485.698C76.3717 485.005 75.4945 484.48 74.5405 484.158C73.5866 483.835 72.5773 483.722 71.5782 483.827C65.5754 484.641 60.5664 494.601 59.5995 500.065C59.5189 500.451 59.1832 505.583 59.1295 507.349C59.1295 507.28 59.1295 507.211 59.1295 507.156C57.6176 501.673 55.6311 496.34 53.1938 491.222C51.0296 486.529 48.5946 481.972 45.9018 477.578C43.4846 473.563 41.0271 470.045 38.8247 466.955C37.6295 465.286 36.488 463.796 35.4271 462.402H35.5346C35.6554 462.402 33.8157 455.091 33.6411 454.649C31.7073 449.462 25.0062 440.619 18.9631 440.964C17.9618 441.05 16.9892 441.351 16.1086 441.848C15.2279 442.346 14.4587 443.027 13.851 443.849C13.2432 444.671 12.8104 445.615 12.5806 446.62C12.3509 447.625 12.3292 448.669 12.5171 449.683C13.1886 454.015 17.1905 457.532 20.7492 459.478C24.3079 461.423 32.9293 462.237 35.0511 462.361C36.1389 463.823 37.2669 465.41 38.5024 467.176C40.6242 470.307 43.0011 473.867 45.3244 477.922C45.9555 478.999 46.5733 480.171 47.2044 481.316C45.7675 479.619 43.7397 477.329 43.5249 477.177C39.4962 473.494 29.5586 468.817 24.3482 471.99C23.4974 472.54 22.769 473.268 22.2103 474.126C21.6516 474.985 21.2751 475.954 21.1053 476.972C20.9355 477.99 20.9763 479.033 21.225 480.033C21.4737 481.034 21.9247 481.969 22.5487 482.779C25.0868 486.31 30.2167 487.524 34.2454 487.579C38.2741 487.635 46.5464 484.117 48.3056 483.33C49.6485 485.869 50.9914 488.518 52.2269 491.346C54.5205 496.452 56.3719 501.757 57.7597 507.197C57.7597 507.514 57.8806 507.845 57.9477 508.163C57.3703 507.211 53.8518 502.161 53.5698 501.844C49.944 497.705 40.5839 491.966 35.0646 494.519C34.1609 494.971 33.3599 495.613 32.7136 496.404C32.0672 497.195 31.5898 498.116 31.3125 499.109C31.0352 500.102 30.9641 501.143 31.1038 502.165C31.2436 503.188 31.591 504.169 32.1236 505.045C34.2722 508.839 39.2276 510.563 43.2429 511.129C47.849 511.708 57.6254 508.508 58.0149 508.37C59.2597 513.822 60.1569 519.352 60.7007 524.924C61.117 529.063 61.3721 533.202 61.6004 537.465C60.8215 536.223 57.5717 531.546 57.2763 531.229C53.6504 527.09 44.2903 521.351 38.771 523.917C37.8663 524.366 37.064 525.007 36.4165 525.796C35.769 526.585 35.2908 527.506 35.0133 528.498C34.7357 529.49 34.665 530.531 34.8057 531.553C34.9465 532.575 35.2955 533.556 35.83 534.43C37.9652 538.223 42.934 539.948 46.9359 540.527C51.448 541.093 60.8215 538.072 61.6138 537.768C61.7079 539.686 61.8153 541.603 61.8959 543.521C62.1779 549.784 62.4196 556.075 62.8493 562.269C62.997 564.408 63.2253 566.518 63.4402 568.629C62.2182 566.822 59.9486 563.566 59.7204 563.318C56.0945 559.179 46.7344 553.44 41.2151 555.992C40.2982 556.435 39.4836 557.074 38.8253 557.865C38.167 558.656 37.6801 559.582 37.3968 560.582C37.1136 561.581 37.0406 562.631 37.1826 563.662C37.3245 564.692 37.6783 565.68 38.2204 566.56C40.3556 570.367 45.3244 572.147 49.3262 572.657C53.3281 573.168 61.2916 570.795 63.5074 570.105Z" fill="#93A4AD"/>
<path d="M48.6148 482.144C48.6148 482.144 57.8943 476.819 60.701 472.873C63.0779 469.521 65.1863 464.596 63.9374 460.374C63.6774 459.376 63.2155 458.446 62.5819 457.643C61.9483 456.841 61.1571 456.184 60.26 455.717C59.3629 455.25 58.38 454.982 57.3754 454.931C56.3708 454.88 55.3671 455.047 54.4296 455.422C48.8431 457.836 46.587 468.79 47.0436 474.322C47.057 474.818 48.5208 482.199 48.6148 482.144Z" fill="#93A4AD"/>
<path d="M267.682 114.834H585.454V501.416C585.454 504.848 584.127 508.14 581.764 510.567C579.402 512.993 576.198 514.357 572.857 514.357H280.292C276.951 514.357 273.747 512.993 271.384 510.567C269.022 508.14 267.695 504.848 267.695 501.416V114.834H267.682Z" fill="#93A4AD" stroke="#93A4AD" stroke-linecap="round" stroke-linejoin="round"/>
<path d="M261.035 108.86H578.807V495.443C578.807 498.875 577.48 502.166 575.118 504.593C572.756 507.02 569.552 508.383 566.211 508.383H273.645C270.304 508.383 267.1 507.02 264.738 504.593C262.376 502.166 261.049 498.875 261.049 495.443V108.86H261.035Z" fill="white" stroke="#93A4AD" stroke-miterlimit="10"/>
<path d="M579 129V528.523H579.671C582.774 528.523 585.749 527.257 587.942 525.004C590.136 522.75 591.368 519.694 591.368 516.507V129H579Z" fill="white" stroke="#93A4AD" stroke-miterlimit="10"/>
<path d="M578.808 215.225H566.439V297.737H578.808V215.225Z" fill="white" stroke="#93A4AD" stroke-miterlimit="10"/>
<path d="M578.807 108.86H261.035V137.114H578.807V108.86Z" fill="#93A4AD" stroke="#93A4AD" stroke-miterlimit="10"/>
<path d="M544 123.277C544.002 122.474 543.773 121.688 543.341 121.02C542.909 120.351 542.293 119.829 541.572 119.52C540.851 119.211 540.056 119.128 539.29 119.283C538.523 119.438 537.818 119.823 537.265 120.39C536.711 120.957 536.334 121.679 536.18 122.467C536.027 123.254 536.104 124.07 536.403 124.812C536.701 125.554 537.207 126.188 537.857 126.634C538.506 127.081 539.27 127.319 540.052 127.319C541.096 127.319 542.099 126.893 542.839 126.136C543.579 125.378 543.996 124.35 544 123.277Z" fill="white" stroke="#93A4AD" stroke-miterlimit="10"/>
<path d="M552.433 127.319C554.606 127.319 556.367 125.509 556.367 123.277C556.367 121.044 554.606 119.235 552.433 119.235C550.26 119.235 548.498 121.044 548.498 123.277C548.498 125.509 550.26 127.319 552.433 127.319Z" fill="white" stroke="#93A4AD" stroke-miterlimit="10"/>
<path d="M564.814 127.319C566.987 127.319 568.748 125.509 568.748 123.277C568.748 121.044 566.987 119.235 564.814 119.235C562.641 119.235 560.879 121.044 560.879 123.277C560.879 125.509 562.641 127.319 564.814 127.319Z" fill="white" stroke="#93A4AD" stroke-miterlimit="10"/>
<path d="M404.578 424.616C375.504 406.681 352.594 384.967 336.506 360.107C324.178 341.055 320.392 326.915 319.733 324.239L318.928 320.9V193.911L418.679 150.082L518.43 193.911V320.941L517.611 324.28C516.98 326.915 513.179 341.055 500.838 360.149C484.723 384.981 461.894 406.709 432.779 424.657L418.679 433.349L404.578 424.616Z" fill="#F8BDB8" stroke="white" stroke-linecap="round" stroke-linejoin="round"/>
<path d="M411.628 412.545C346.027 372.082 333.525 322.956 333.028 320.886L332.625 319.217V203.195L418.679 165.395L504.732 203.195V319.217L504.329 320.886C503.832 322.956 491.316 372.082 425.729 412.545L418.679 416.877L411.628 412.545Z" fill="white"/>
<path d="M418.68 181.164L346.311 211.845V317.548C346.311 317.548 357.202 362.604 418.68 400.529C480.158 362.563 491.036 317.548 491.036 317.548V211.845L418.68 181.164Z" fill="#F8BDB8"/>
<path d="M454.166 308.464C474.173 287.911 474.173 254.587 454.166 234.033C434.158 213.48 401.72 213.48 381.713 234.033C361.705 254.587 361.705 287.911 381.713 308.464C401.72 329.018 434.158 329.018 454.166 308.464Z" fill="white"/>
<path d="M437.074 257.482C439.711 246.638 433.293 235.65 422.737 232.941C412.181 230.231 401.486 236.825 398.848 247.669C396.211 258.513 402.629 269.5 413.185 272.21C423.741 274.92 434.436 268.325 437.074 257.482Z" fill="#93A4AD"/>
<path d="M417.94 323.88C431.087 323.899 443.734 318.705 453.245 309.381C452.218 300.505 448.058 292.324 441.552 286.388C435.047 280.452 426.648 277.173 417.947 277.173C409.246 277.173 400.847 280.452 394.341 286.388C387.836 292.324 383.675 300.505 382.648 309.381C392.156 318.702 404.798 323.896 417.94 323.88Z" fill="#93A4AD"/>
<path opacity="0.19" d="M432.78 424.616C461.854 406.682 484.751 384.967 500.839 360.107C513.18 341.055 516.954 326.915 517.612 324.239L518.431 320.9V193.911L418.68 150.082V433.307L432.78 424.616Z" fill="#F3DEE0"/>
<path d="M297.562 484.324V450.083H305.835C307.502 450.001 309.159 450.387 310.629 451.2C311.817 451.962 312.732 453.1 313.234 454.442C313.82 456.08 314.098 457.816 314.053 459.56C314.09 461.175 313.774 462.778 313.127 464.251C312.563 465.534 311.624 466.604 310.441 467.314C309.052 468.077 307.49 468.448 305.915 468.39H302.249V484.324H297.562ZM302.209 465.01H304.344C305.419 465.048 306.493 464.889 307.513 464.541C307.882 464.399 308.218 464.181 308.502 463.901C308.786 463.621 309.012 463.285 309.165 462.913C309.537 461.867 309.706 460.756 309.662 459.643C309.698 458.378 309.581 457.113 309.313 455.877C309.215 455.481 309.033 455.112 308.78 454.797C308.527 454.483 308.209 454.229 307.849 454.056C306.737 453.659 305.561 453.486 304.384 453.545H302.209V465.01Z" fill="#93A4AD"/>
<path d="M317.303 484.324V450.083H324.017C325.892 450.025 327.761 450.334 329.523 450.993C330.91 451.535 332.06 452.574 332.76 453.918C333.521 455.556 333.881 457.361 333.807 459.174C333.821 460.393 333.682 461.608 333.391 462.789C333.152 463.801 332.692 464.744 332.048 465.548C331.419 466.307 330.595 466.871 329.671 467.176L334.398 484.338H329.913L325.602 468.266H321.989V484.324H317.303ZM321.963 464.844H323.722C324.813 464.878 325.901 464.705 326.931 464.334C327.732 464.018 328.383 463.395 328.744 462.596C329.18 461.513 329.378 460.345 329.322 459.174C329.449 457.647 329.07 456.121 328.247 454.842C327.536 453.959 326.126 453.463 324.017 453.463H321.963V464.844Z" fill="#93A4AD"/>
<path d="M338.91 484.324V450.083H343.476V484.324H338.91Z" fill="#93A4AD"/>
<path d="M354.662 484.324L347.223 450.083H351.574L356.851 475.315L361.86 450.083H366.104L358.745 484.324H354.662Z" fill="#93A4AD"/>
<path d="M366.682 484.324L373.759 450.083H378.244L385.361 484.324H380.957L379.439 475.701H372.604L371.006 484.324H366.682ZM373.262 472.28H378.822L376.015 456.884L373.262 472.28Z" fill="#93A4AD"/>
<path d="M396.923 484.696C394.98 484.823 393.05 484.29 391.431 483.179C390.121 482.136 389.178 480.683 388.745 479.04C388.225 477.17 387.972 475.232 387.993 473.287V461.202C387.961 459.161 388.214 457.127 388.745 455.16C389.174 453.552 390.121 452.142 391.431 451.159C393.08 450.131 394.998 449.649 396.923 449.779C398.651 449.685 400.369 450.097 401.879 450.966C403.12 451.748 404.067 452.939 404.564 454.346C405.139 456.043 405.412 457.833 405.37 459.629V462.389H400.965V459.974C400.972 458.854 400.909 457.734 400.777 456.622C400.715 455.769 400.358 454.966 399.77 454.36C398.985 453.741 398.002 453.451 397.017 453.546C395.983 453.454 394.953 453.764 394.13 454.415C393.481 455.074 393.069 455.939 392.962 456.87C392.773 458.093 392.683 459.33 392.693 460.568V474.129C392.647 475.521 392.787 476.914 393.109 478.267C393.284 479.126 393.762 479.888 394.452 480.406C395.227 480.863 396.112 481.083 397.004 481.04C397.485 481.085 397.97 481.03 398.431 480.881C398.892 480.732 399.32 480.491 399.69 480.171C400.271 479.509 400.629 478.672 400.71 477.785C400.866 476.61 400.937 475.425 400.925 474.239V471.701H405.33V474.239C405.361 476.108 405.107 477.969 404.578 479.757C404.158 481.254 403.265 482.565 402.04 483.482C400.496 484.418 398.71 484.842 396.923 484.696Z" fill="#93A4AD"/>
<path d="M414.852 484.324V472.239L407.654 450.083H411.978L417.081 466.638L422.104 450.083H426.455L419.297 472.239V484.324H414.852Z" fill="#93A4AD"/>
<path d="M438.971 484.324V450.083H447.23C448.897 449.997 450.555 450.384 452.024 451.2C453.219 451.957 454.139 453.096 454.642 454.442C455.228 456.08 455.506 457.816 455.462 459.56C455.499 461.175 455.182 462.778 454.535 464.251C453.965 465.529 453.027 466.598 451.849 467.313C450.459 468.075 448.898 468.446 447.324 468.39H443.657V484.324H438.971ZM443.617 465.01H445.752C446.828 465.048 447.901 464.889 448.922 464.541C449.29 464.398 449.626 464.181 449.91 463.901C450.194 463.621 450.42 463.285 450.573 462.913C450.94 461.865 451.104 460.755 451.057 459.643C451.1 458.377 450.982 457.111 450.708 455.877C450.62 455.479 450.443 455.107 450.191 454.791C449.94 454.475 449.62 454.223 449.257 454.056C448.145 453.66 446.969 453.486 445.793 453.545H443.617V465.01Z" fill="#93A4AD"/>
<path d="M467.226 484.696C465.343 484.785 463.476 484.305 461.854 483.317C460.494 482.405 459.48 481.041 458.981 479.454C458.366 477.555 458.071 475.563 458.108 473.563V460.609C458.064 458.634 458.364 456.667 458.994 454.801C459.523 453.262 460.54 451.95 461.881 451.076C463.52 450.141 465.381 449.696 467.253 449.793C469.129 449.687 470.995 450.142 472.625 451.104C473.948 451.985 474.953 453.289 475.485 454.815C476.109 456.677 476.405 458.639 476.358 460.609V473.632C476.399 475.614 476.104 477.589 475.485 479.468C474.961 481.038 473.958 482.393 472.625 483.33C470.999 484.33 469.118 484.806 467.226 484.696ZM467.226 480.944C468.221 481.016 469.211 480.738 470.033 480.157C470.684 479.592 471.133 478.82 471.309 477.964C471.538 476.872 471.646 475.756 471.631 474.639V459.643C471.648 458.54 471.539 457.438 471.309 456.36C471.132 455.526 470.681 454.781 470.033 454.249C469.174 453.76 468.208 453.503 467.226 453.503C466.244 453.503 465.278 453.76 464.419 454.249C463.735 454.76 463.257 455.511 463.077 456.36C462.846 457.438 462.738 458.54 462.754 459.643V474.639C462.739 475.756 462.847 476.872 463.077 477.964C463.256 478.836 463.732 479.613 464.419 480.157C465.241 480.738 466.231 481.016 467.226 480.944Z" fill="#93A4AD"/>
<path d="M480.883 484.324V450.083H485.543V480.902H494.057V484.324H480.883Z" fill="#93A4AD"/>
<path d="M497.494 484.324V450.083H502.06V484.324H497.494Z" fill="#93A4AD"/>
<path d="M515.786 484.696C513.842 484.823 511.912 484.29 510.293 483.179C508.983 482.136 508.04 480.683 507.607 479.04C507.081 477.171 506.828 475.232 506.855 473.287V461.202C506.817 459.161 507.07 457.125 507.607 455.16C508.036 453.552 508.983 452.142 510.293 451.159C511.943 450.131 513.86 449.649 515.786 449.779C517.513 449.685 519.232 450.097 520.741 450.966C521.983 451.748 522.93 452.939 523.427 454.346C524.001 456.043 524.274 457.833 524.233 459.629V462.389H519.828V459.974C519.834 458.854 519.771 457.734 519.64 456.622C519.578 455.769 519.22 454.966 518.633 454.36C517.848 453.741 516.864 453.451 515.88 453.546C514.845 453.454 513.815 453.764 512.992 454.415C512.344 455.074 511.932 455.939 511.824 456.87C511.635 458.093 511.545 459.33 511.556 460.568V474.129C511.51 475.521 511.65 476.914 511.972 478.267C512.146 479.126 512.625 479.888 513.315 480.406C514.089 480.863 514.974 481.083 515.866 481.04C516.348 481.085 516.833 481.03 517.294 480.881C517.755 480.732 518.182 480.491 518.552 480.171C519.134 479.509 519.492 478.672 519.573 477.785C519.728 476.61 519.8 475.425 519.788 474.239V471.701H524.192V474.239C524.223 476.108 523.969 477.969 523.44 479.757C523.025 481.26 522.125 482.573 520.889 483.482C519.351 484.42 517.568 484.844 515.786 484.696Z" fill="#93A4AD"/>
<path d="M533.753 484.324V472.239L526.555 450.083H530.879L535.982 466.638L540.991 450.083H545.355L538.198 472.239V484.324H533.753Z" fill="#93A4AD"/>
<path d="M228.053 463.92C228.053 463.92 226.387 489.594 229.986 502.424C233.585 515.254 256.375 576.313 256.375 576.313C256.375 576.313 256.925 587.143 256.093 588.288C255.26 589.433 251.366 595.71 246.101 598.276C240.837 600.842 229.718 607.395 232.216 608.25C234.713 609.106 256.925 606.54 259.423 607.685C261.921 608.83 273.027 604.263 275.806 603.118C278.586 601.973 275.806 594.841 275.806 594.841C272.432 583.012 269.653 571.012 267.48 558.889C264.983 543.204 261.088 521.531 258.872 510.687C257.462 504.021 255.318 497.541 252.48 491.373L255.26 464.568L228.053 463.92Z" fill="white" stroke="#93A4AD" stroke-miterlimit="10"/>
<path d="M249.701 601.973L246.854 597.834C246.599 597.986 246.357 598.124 246.102 598.248C240.824 600.814 229.718 607.367 232.216 608.223C234.714 609.078 256.926 606.512 259.423 607.657C261.921 608.802 273.027 604.236 275.807 603.091C278.587 601.946 275.807 594.813 275.807 594.813C275.807 594.813 275.525 593.848 275.068 592.178C271.265 593.924 267.688 596.148 264.419 598.8C258.591 603.974 249.701 601.973 249.701 601.973Z" fill="#93A4AD" stroke="#93A4AD" stroke-miterlimit="10"/>
<path d="M245.685 465.92C245.685 465.92 247.901 492.132 251.232 501.292C254.562 510.453 254.562 572.602 254.562 577.734C254.562 582.866 246.505 591.144 246.505 591.144C246.505 591.144 232.619 601.697 228.738 602.842C224.857 603.987 221.795 605.408 223.729 607.119C225.663 608.83 244.839 608.83 251.5 608.83C258.161 608.83 266.769 609.106 267.615 607.685C268.298 605.848 268.75 603.928 268.958 601.973C268.958 601.973 267.293 586.012 267.843 578.879C268.394 571.747 278.399 528.387 277.566 513.846C276.884 504.181 275.205 494.618 272.557 485.317C272.288 484.172 274.504 464.499 274.504 464.499L245.685 465.92Z" fill="white" stroke="#93A4AD" stroke-miterlimit="10"/>
<path d="M269.012 601.973C269.012 601.973 268.931 601.297 268.824 600.152C256.348 601.146 240.126 601.973 240.126 601.973L238.245 597.145C234.512 599.738 230.551 602.304 228.751 602.842C224.857 603.974 221.808 605.408 223.742 607.119C225.676 608.83 244.853 608.83 251.513 608.83C258.174 608.83 266.782 609.106 267.628 607.685C268.325 605.849 268.79 603.93 269.012 601.973Z" fill="#93A4AD" stroke="#93A4AD" stroke-miterlimit="10"/>
<path d="M218.236 395.562C218.236 395.562 216.289 416.132 217.121 425.264C217.954 434.397 220.277 479.73 220.277 479.73C220.277 479.73 236.029 489.69 250.21 490.545C264.391 491.401 285.811 483.648 285.811 483.648C285.811 483.648 290.538 429.844 287.758 415.511C284.978 401.177 283.582 394.376 283.582 394.376C283.582 394.376 245.98 392.375 236.311 389.809C226.642 387.243 224.225 385.781 224.225 385.781L221.029 385.395L218.236 395.562Z" fill="#93A4AD" stroke="#93A4AD" stroke-linecap="round" stroke-linejoin="round"/>
<path d="M224.078 390.237C224.078 390.237 238.541 397.369 259.947 394.514L258.604 352.809L268.072 289.666L252.776 289.101L235.533 295.392L225.246 375.407L224.078 390.237Z" fill="white" stroke="#93A4AD" stroke-linecap="round" stroke-linejoin="round"/>
<path d="M237.843 282.907C237.843 282.907 234.123 300.193 234.781 302.428C235.439 304.662 242.207 316.568 246.8 315.671C251.393 314.775 261.223 298.385 262.539 295.254C263.855 292.122 261.196 286.714 261.008 285.597C260.82 284.479 258.161 272.794 258.161 272.794C258.161 272.794 247.713 282.01 237.843 282.907Z" fill="white" stroke="#93A4AD" stroke-linecap="round" stroke-linejoin="round"/>
<path d="M239.131 293.364C239.131 293.364 235.103 327.094 234.874 340.269C234.646 353.444 227.354 413.648 227.354 413.648C227.354 413.648 226.36 415.442 219.834 413.386C216.001 412.211 212.599 409.88 210.071 406.695C210.071 406.695 221.338 363.446 221.593 361.39C221.848 359.335 219.592 339.248 219.592 339.248L197.031 359.321C197.031 359.321 197.542 348.505 199.543 346.187C201.543 343.87 216.584 315.037 217.833 312.209C219.082 309.381 217.578 300.882 222.09 298.303C226.602 295.723 239.131 293.364 239.131 293.364Z" fill="#F8BDB8" stroke="#93A4AD" stroke-linecap="round" stroke-linejoin="round"/>
<path d="M217.256 386.609L226.79 389.865L226.441 392.403L217.954 390.237" stroke="#93A4AD" stroke-linecap="round" stroke-linejoin="round"/>
<path d="M233.626 354.893C233.626 354.893 229.597 314.982 230.121 305.973L233.626 354.893Z" fill="white"/>
<path d="M233.626 354.893C233.626 354.893 229.597 314.982 230.121 305.973" stroke="#93A4AD" stroke-linecap="round" stroke-linejoin="round"/>
<path d="M262.19 291.336C262.19 291.336 248.412 339.731 248.412 350.795C248.412 361.859 251.098 416.021 251.098 416.021C251.098 416.021 263.574 419.856 273.35 418.56C283.126 417.263 296.179 411.565 296.179 411.565L282.898 370.882C282.898 370.882 304.116 318.844 304.116 315.244C304.116 311.643 306.869 304.952 304.116 303.145C301.363 301.338 277.553 293.102 274.29 291.556C271.027 290.011 266.206 287.694 262.19 291.336Z" fill="#F8BDB8" stroke="#93A4AD" stroke-linecap="round" stroke-linejoin="round"/>
<path d="M282.951 391.313L259.947 394.514L261.411 397.852L274.478 396.404" stroke="#93A4AD" stroke-linecap="round" stroke-linejoin="round"/>
<path d="M275.31 292.026C274.853 291.832 274.464 291.681 274.222 291.557C270.959 290.011 266.164 287.694 262.136 291.308C262.136 291.308 248.357 339.703 248.357 350.768C248.357 352.616 248.505 355.651 248.76 359.418C249.888 355.541 252.44 349.485 257.127 337.124C263.277 321.066 272.167 299.613 275.31 292.026Z" fill="#F8BDB8" stroke="#93A4AD" stroke-linecap="round" stroke-linejoin="round"/>
<path d="M226.87 225.999C226.87 225.999 213.159 235.381 212.326 242.209C211.494 249.038 212.112 253.094 212.112 259.716C212.112 266.338 208.58 287.032 211.91 294.716C215.241 302.4 219.968 309.229 226.682 311.146C233.397 313.064 237.493 311.367 239.144 309.656C240.371 308.194 241.355 306.535 242.058 304.745C242.058 304.745 238.527 305.173 238.527 300.91C238.527 296.647 242.475 283.624 242.475 283.624C242.475 283.624 233.544 278.92 231.879 274.436C230.214 269.952 225.232 246.265 225.648 244.348C226.064 242.43 233.544 238.153 233.706 232.828C233.867 227.503 230.603 224.289 226.87 225.999Z" fill="#93A4AD" stroke="#93A4AD" stroke-linecap="round" stroke-linejoin="round"/>
<path d="M225.621 235.381C225.621 235.381 222.089 243.286 223.123 249.687C224.157 256.088 226.239 267.18 227.286 271.663C228.334 276.147 233.719 281.058 236.418 283.624C239.117 286.19 243.898 289.805 247.43 288.949C250.962 288.094 256.159 279.292 256.159 279.292C256.159 279.292 260.308 274.381 261.356 270.118C262.403 265.855 258.858 258.378 256.575 250.487C255.478 246.28 253.297 242.454 250.263 239.413C247.229 236.371 243.453 234.225 239.332 233.201C229.985 230.897 227.071 233.891 225.621 235.381Z" fill="white" stroke="#93A4AD" stroke-linecap="round" stroke-linejoin="round"/>
<path d="M233.52 258.005C233.52 258.005 236.42 262.917 236.205 264.407C235.99 265.897 234.54 272.311 235.373 272.684C236.205 273.056 239.106 272.463 239.106 272.463" stroke="#93A4AD" stroke-linecap="round" stroke-linejoin="round"/>
<path d="M239.119 277.002C239.119 277.002 243.484 277.43 247.177 272.519" stroke="#93A4AD" stroke-linecap="round" stroke-linejoin="round"/>
<path d="M232.055 257.799C232.055 257.799 228.523 256.295 226.871 259.288" stroke="#93A4AD" stroke-linecap="round" stroke-linejoin="round"/>
<path d="M237.883 256.943C237.883 256.943 238.501 253.949 243.698 255.439" stroke="#93A4AD" stroke-linecap="round" stroke-linejoin="round"/>
<path d="M243.685 260.985C244.061 262.103 243.833 263.193 243.175 263.427C242.517 263.662 241.698 262.944 241.322 261.827C240.946 260.709 241.174 259.62 241.832 259.385C242.49 259.151 243.256 259.896 243.685 260.985Z" fill="#93A4AD"/>
<path d="M232.471 263.124C232.847 264.241 232.619 265.331 231.974 265.565C231.33 265.8 230.497 265.083 230.121 263.965C229.745 262.848 229.973 261.758 230.618 261.523C231.263 261.289 232.109 262.02 232.471 263.124Z" fill="#93A4AD"/>
<path d="M223.339 234.097C223.339 234.097 231.639 246.514 239.951 252.032C248.264 257.55 256.362 258.93 256.576 263.979C256.791 269.028 252.83 280.63 255.959 288.949C259.088 297.268 264.889 300.262 272.987 298.606C281.084 296.951 284.831 289.211 284.831 289.211C284.831 289.211 280.265 292.412 278.801 288.784C277.338 285.155 274.021 279.816 278.184 271.07C282.347 262.323 284.831 258.267 277.15 243.754C269.468 229.241 260.31 220.867 253.085 217.667C245.86 214.466 223.125 219.598 223.339 234.097Z" fill="#93A4AD" stroke="#93A4AD" stroke-linecap="round" stroke-linejoin="round"/>
<path d="M220.291 353.334L219.324 343.359L215.631 347.153L220.291 353.334Z" fill="white" stroke="#93A4AD" stroke-linecap="round" stroke-linejoin="round"/>
<path d="M209.749 328.694L213.777 334.213L210.648 339.165C210.648 339.165 210.219 339.759 212.354 343.304C213.846 345.66 215.56 347.859 217.47 349.871C217.47 349.871 224.265 335.178 224.776 332.53C225.286 329.881 213.415 314.347 213.415 314.347C213.415 314.347 209.332 322.417 209.749 328.694Z" fill="white" stroke="#93A4AD" stroke-linecap="round" stroke-linejoin="round"/>
<path d="M198.361 300.62L218.451 325.135L231.773 326.018L212.717 300.082L198.361 300.62Z" fill="white" stroke="#93A4AD" stroke-linecap="round" stroke-linejoin="round"/>
<path d="M208.661 314.554C208.661 314.554 206.15 316.14 206.74 317.534C207.331 318.927 211.561 322.086 214.65 322.486C217.739 322.887 216.221 320.955 216.208 319.934C216.194 318.913 208.661 314.554 208.661 314.554Z" fill="white" stroke="#93A4AD" stroke-linecap="round" stroke-linejoin="round"/>
<path d="M207.709 319.12C207.709 319.12 205.775 321.3 206.366 322.887C206.957 324.473 214.289 326.653 215.632 326.86C215.998 326.928 216.375 326.858 216.695 326.664C217.015 326.469 217.256 326.163 217.373 325.8C217.491 325.438 217.477 325.045 217.335 324.692C217.193 324.339 216.932 324.051 216.599 323.88C214.652 322.487 207.709 319.12 207.709 319.12Z" fill="white" stroke="#93A4AD" stroke-linecap="round" stroke-linejoin="round"/>
<path d="M207.895 324.873C207.895 324.873 207.317 327.632 208.66 328.639C210.003 329.646 216.275 328.888 217.309 328.474C218.343 328.06 215.617 326.86 215.617 326.86L207.895 324.873Z" fill="white" stroke="#93A4AD" stroke-linecap="round" stroke-linejoin="round"/>
<path d="M248.773 337.676L241.334 330.488C241.334 330.488 238.93 322.211 237.842 319.714C236.754 317.217 235.882 316.568 233.249 314.099C230.617 311.629 228.885 312.719 228.442 314.333L228.012 315.906C228.012 315.906 215.335 315.23 213.374 314.333C211.414 313.437 209.225 311.409 208.124 312.761C207.022 314.113 208.567 315.906 210.313 317.023C212.14 318.264 214.124 319.243 216.208 319.934C217.954 320.39 220.143 320.831 220.143 320.831L210.971 319.452C210.855 319.851 210.855 320.277 210.972 320.677C211.089 321.077 211.317 321.432 211.629 321.7L214.462 324.611C215.225 326.021 216.184 327.308 217.309 328.433C218.476 329.468 219.789 330.314 221.204 330.943C223.043 331.84 224.735 332.475 224.735 332.475C223.052 332.467 221.372 332.314 219.713 332.019C217.524 331.564 215.55 330.447 215.778 332.019C216.007 333.592 217.524 334.268 219.928 334.71C222.332 335.151 232.605 336.503 233.478 336.738C234.351 336.972 245.712 347.774 245.712 347.774L248.773 337.676Z" fill="white" stroke="#93A4AD" stroke-linecap="round" stroke-linejoin="round"/>
<path d="M228.014 315.906C230.093 316.512 232.078 317.417 233.909 318.596L228.014 315.906Z" fill="white"/>
<path d="M228.014 315.906C230.093 316.512 232.078 317.417 233.909 318.596" stroke="#93A4AD" stroke-linecap="round" stroke-linejoin="round"/>
<path d="M220.143 320.831L225.823 322.183" stroke="#93A4AD" stroke-linecap="round" stroke-linejoin="round"/>
<path d="M214.463 324.652C214.463 324.652 221.674 327.122 225.394 328.018" stroke="#93A4AD" stroke-linecap="round" stroke-linejoin="round"/>
<path d="M305.243 306.18C303.782 318.513 301.416 330.716 298.166 342.683C293.17 360.397 290.578 376.345 289.544 377.586C288.51 378.828 277.297 374.386 268.165 368.716C259.033 363.046 240.568 349.402 240.568 349.402L248.33 334.158L275.753 350.988C275.753 350.988 276.612 349.043 277.821 348.684C278.543 348.48 279.238 348.183 279.889 347.802L282.481 313.781" fill="#F8BDB8"/>
<path d="M305.243 306.18C303.782 318.513 301.416 330.716 298.166 342.683C293.17 360.397 290.578 376.345 289.544 377.586C288.51 378.828 277.297 374.386 268.165 368.716C259.033 363.046 240.568 349.402 240.568 349.402L248.33 334.158L275.753 350.988C275.753 350.988 276.612 349.043 277.821 348.684C278.543 348.48 279.238 348.183 279.889 347.802L282.481 313.781" stroke="#93A4AD" stroke-linecap="round" stroke-linejoin="round"/>
<path d="M210.608 339.193L220.291 353.334C220.291 353.334 217.377 362.508 214.463 366.095C211.548 369.682 202.041 371.282 198.939 367.474C195.836 363.667 196.602 357.9 198.361 354.713C200.12 351.526 210.608 339.193 210.608 339.193Z" fill="#F8BDB8" stroke="#93A4AD" stroke-linecap="round" stroke-linejoin="round"/>
<path d="M0 608.844H600.199" stroke="#93A4AD" stroke-miterlimit="10"/>
</g>
</svg>
