<svg width="24" height="24" viewBox="0 0 24 24" fill="none" xmlns="http://www.w3.org/2000/svg">
<path d="M4.64662 4.80078H20.5466C22.0466 4.80078 22.8026 5.50878 22.8026 6.94878V17.0528C22.8026 18.4808 22.0466 19.2008 20.5466 19.2008H4.64662C3.14662 19.2008 2.39062 18.4808 2.39062 17.0528V6.94878C2.39062 5.50878 3.14662 4.80078 4.64662 4.80078ZM12.5906 15.1208L20.6786 8.48478C20.9666 8.24478 21.1946 7.69278 20.8346 7.20078C20.4866 6.70878 19.8506 6.69678 19.4306 6.99678L12.5906 11.6288L5.76263 6.99678C5.34263 6.69678 4.70663 6.70878 4.35863 7.20078C3.99863 7.69278 4.22663 8.24478 4.51463 8.48478L12.5906 15.1208Z" fill="#0E0F1D"/>
</svg>
