<svg width="220" height="305" viewBox="0 0 220 305" fill="none" xmlns="http://www.w3.org/2000/svg">
<path d="M219.25 95.0317C216.649 91.7618 209.63 90.9378 202.791 91.1471C203.666 90.9378 204.518 90.7155 205.325 90.5193C208.958 89.6429 216.268 88.0734 216.537 85.2613C216.873 81.8868 207.343 82.9201 204.563 83.4825C203.284 83.7441 201.917 84.0972 200.526 84.5027C203.823 82.3184 206.289 79.7287 207.433 76.5503C207.523 76.3018 207.231 76.0402 206.76 76.0402C200.28 76.0926 196.086 78.4861 193.104 81.5075C194.248 77.6883 191.871 73.7906 187.027 70.0498C186.735 69.8275 186.04 69.7359 185.794 70.0498C183.551 72.9142 182.52 75.8702 182.116 78.8785C181.443 78.133 180.726 77.4005 180.098 76.6419C179.941 76.4588 179.605 76.3803 179.246 76.3803C179.111 76.3149 178.954 76.2626 178.775 76.2757C178.64 76.2888 178.483 76.2888 178.349 76.2888C178.013 76.2888 177.766 76.4195 177.654 76.5896C174.963 81.4028 174.178 88.165 181.197 91.8534C181.129 92.0103 181.107 92.1935 181.286 92.3766C176.824 93.593 172.496 95.0709 168.281 96.732C167.81 96.7713 167.384 96.8498 167.047 96.9806C166.845 97.0721 166.778 97.1898 166.845 97.3075C163.415 98.694 160.073 100.185 156.799 101.755C158.818 99.858 159.872 97.4514 158.122 95.5549C157.921 95.3456 157.382 95.3064 157.091 95.4764C154.221 97.2945 152.696 100.002 153.907 102.395C153.638 102.709 153.369 103.01 153.167 103.324C153.122 103.403 153.144 103.468 153.167 103.52C143.659 108.294 134.712 113.578 126.123 118.392C125.922 118.444 125.742 118.509 125.54 118.562C125.361 118.614 125.338 118.719 125.383 118.81C124.307 119.412 123.253 120.001 122.199 120.576C120.854 121.191 119.62 121.871 118.566 122.669C117.737 123.166 116.862 123.637 116.055 124.134C120.428 119.53 123.096 114.416 125.451 109.288C126.729 106.516 128.119 103.638 129.42 100.734C131.371 100.434 133.254 99.2564 134.51 98.4062C135.923 97.4514 136.82 96.2743 136.685 95.0055C136.64 94.6786 136.08 94.4693 135.564 94.6262C133.703 95.2279 132.111 96.3266 130.877 97.3468C132.514 93.3575 133.815 89.3159 134.218 85.3136C134.622 85.4313 135.16 85.4183 135.497 85.1305C135.878 84.8166 136.214 84.5027 136.573 84.1888C136.977 83.8226 137.335 83.4302 137.717 83.0639C147.314 81.5467 157.069 75.1639 153.391 69.4482C153.167 69.1081 152.247 69.252 152.449 69.6051C155.566 74.9677 146.955 79.297 139.017 81.7037C139.533 81.1282 140.026 80.5396 140.497 79.9379C140.699 79.7679 140.856 79.5717 140.99 79.3101C141.035 79.2186 140.99 79.1532 140.946 79.0747C147.987 76.2757 152.292 70.8608 151.418 66.0736C151.373 65.8513 151.059 65.6813 150.655 65.7336C147.673 66.1521 145.834 67.2508 144.287 68.598C144.466 66.7145 144.376 64.8965 144.242 63.34C144.22 63.1308 143.861 62.8953 143.457 62.9869C139.107 63.9809 136.169 66.0606 135.048 68.6241C133.882 67.3816 128.747 63.1308 126.953 65.6289C126.751 65.1842 126.594 64.7526 126.527 64.321C126.46 63.9548 125.809 63.7847 125.316 64.0202C119.194 67.0415 119.643 76.995 126.975 79.951C123.746 79.4278 120.809 78.46 118.432 77.0604C116.817 76.1187 115.808 74.8631 115.539 73.5421C115.203 71.9202 116.929 70.7038 118.073 69.3566C118.208 69.1866 117.916 68.9642 117.602 69.0819C113.454 70.73 113.342 73.869 115.562 76.2495C118.051 78.9047 123.388 80.4088 128.366 80.5919C128.523 80.5919 128.612 80.5396 128.68 80.4611C129.083 80.5527 129.487 80.6573 129.935 80.7096C130.429 81.7298 130.743 82.7762 130.967 83.8487C131.079 84.3588 132.245 84.5027 132.537 83.9664C132.537 83.9403 132.559 83.9272 132.559 83.901C132.738 83.901 132.895 83.8487 133.008 83.7702C131.864 91.3564 129.375 99.4133 125.473 107.196C126.168 104.331 126.078 101.415 125.294 98.3931C123.545 91.6572 113.521 88.8059 108.476 83.1817C108.184 82.8547 107.354 83.0901 107.489 83.4171C110.27 89.813 108.947 96.4181 110.314 102.919C111.75 109.812 117.535 115.305 115.45 122.525C114.059 124.212 112.579 125.86 111.032 127.43C106.009 130.948 101.591 134.702 97.8242 138.665C96.7927 133.603 95.8733 128.528 95.0436 123.454C97.6672 121.335 99.0351 118.339 98.1157 115.867C97.9812 115.54 97.3309 115.514 96.9497 115.684C95.963 116.142 94.9539 116.914 94.1691 117.777C93.2721 111.656 92.5546 105.521 92.1285 99.3741C92.0164 97.8569 91.9491 96.3527 91.9267 94.8486C95.6042 92.8867 97.4878 89.329 97.286 86.5562C97.2636 86.203 96.5685 86.033 96.12 86.2684C94.1467 87.3671 92.7788 88.7143 91.9491 90.1792C91.994 88.178 92.1061 86.1769 92.2631 84.1888C92.3079 84.1626 92.3528 84.1365 92.3528 84.0841C93.3618 72.391 103.43 61.692 114.351 52.0916C122.58 44.8587 133.837 38.9859 139.376 30.8374C139.667 32.1323 139.443 33.401 138.569 34.6435C137.874 36.1869 137.066 37.7042 136.147 39.1952C133.591 43.603 129.756 47.8015 125.585 51.7516C118.499 58.4352 107.758 63.3923 99.6406 69.6051C99.3266 69.8405 99.9769 70.1021 100.336 69.919C120.674 58.4875 139.735 45.0548 141.865 27.9337C141.91 27.5937 141.058 27.3713 140.677 27.646C131.303 34.1727 119.531 39.326 110.584 46.0881C101.748 52.7587 97.286 61.4696 95.6715 69.7359C95.6491 69.8929 95.8285 69.9844 96.0527 70.0237C94.9763 71.6848 94.0121 73.372 93.317 75.1116C94.7746 64.7395 97.1291 54.4198 99.2369 44.0608C102.13 42.2951 104.417 39.7053 104.955 37.3379C105.022 37.024 104.35 36.8932 103.968 37.0109C102.376 37.4818 101.188 38.2404 100.224 39.1167C100.717 36.4747 101.188 33.8326 101.591 31.1905C101.793 31.1252 101.973 31.0074 101.905 30.8243C101.838 30.6804 101.771 30.5497 101.726 30.4058C101.771 30.1703 101.793 29.9218 101.838 29.6864C105.65 28.8493 108.991 26.9528 109.799 24.6115C110.045 24.5723 110.292 24.52 110.539 24.4808C119.239 28.4046 131.483 23.6306 141.192 24.2192C141.753 24.2584 142.067 23.8922 141.977 23.6175C140.834 20.086 134.353 19.2489 128.949 19.4451C134.084 17.2347 136.64 14.0302 139.757 10.865C140.071 10.5511 139.667 10.1979 139.062 10.1718C133.77 9.97556 128.119 9.87092 124.015 11.8852C125.114 9.75321 125.428 7.58201 124.711 5.59392C124.643 5.41081 124.195 5.29309 123.948 5.41081C123.545 5.59392 123.343 5.68548 123.163 5.76395C123.163 5.7378 123.163 5.72472 123.186 5.69856C123.567 4.54756 124.643 4.35137 124.531 3.44888C124.509 3.26577 124.329 3.08265 123.993 3.03033C117.737 2.14093 113.678 4.57372 111.122 7.55585C110.516 5.31925 109.395 3.10881 108.834 0.859133C108.767 0.623702 108.274 0.492906 107.915 0.558304C101.008 1.65698 99.3491 5.55468 99.1697 9.30851C96.9273 6.19558 93.5412 3.33116 89.5273 0.93761C89.1461 0.702179 88.5183 0.832974 88.3389 1.12072C85.8722 5.31925 85.4013 9.5047 87.6661 13.2847C84.0559 11.2312 79.7729 9.55702 75.2881 8.36678C74.7947 8.23598 74.279 8.51066 74.5481 8.81148C78.0238 12.7746 78.0238 17.2216 82.531 20.9493C84.751 22.7935 88.5855 24.0884 92.2855 25.3048C92.6667 26.3904 93.3618 27.4498 94.5727 28.2607C95.8958 29.1632 98.1382 30.1834 100.313 30.0788C100.313 30.0919 100.313 30.1049 100.336 30.1049C98.6539 37.4556 96.8376 44.7933 95.1558 52.144C94.2364 50.2867 93.0927 48.4948 92.734 46.5852C93.6533 47.9977 93.7206 49.515 94.5727 51.006C94.7073 51.2545 95.3127 51.2022 95.3352 50.9406C95.6042 48.9002 94.6176 46.4674 92.5321 44.8194C92.1509 44.5317 91.3661 44.6232 91.3437 45.0025C91.097 47.8408 92.6218 50.7968 94.9091 53.295C93.1824 60.9072 91.6576 68.5326 90.7158 76.1841C89.8861 75.5301 88.7649 75.0462 87.3298 74.9939C86.9261 74.9808 86.5898 75.2032 86.5898 75.4255C86.6795 77.322 88.0249 79.3363 89.2358 81.0759C89.4601 81.3898 89.7067 81.8083 90.0879 82.1353C89.774 85.9545 89.617 89.7737 89.6843 93.6191C89.7516 97.1244 89.9534 100.63 90.2225 104.135C89.2358 102.683 87.8231 101.336 86.1189 100.368C85.6928 100.133 84.7959 100.277 84.8631 100.669C85.4462 104.083 87.6661 107.287 90.6037 110.243C90.6709 110.296 90.7607 110.309 90.8279 110.348C91.9716 120.511 93.8327 130.66 95.9854 140.784C95.5818 141.242 95.1782 141.699 94.7745 142.157C91.4558 132.988 83.7195 124.382 75.8935 116.129C75.9608 116.051 75.9608 115.972 75.9159 115.894C76.7008 114.743 76.5214 113.134 76.4317 112.022C76.3196 110.583 75.7141 109.053 73.8978 108.02C73.4717 107.784 72.7093 107.876 72.5523 108.229C71.9917 109.498 71.8347 110.845 72.1263 112.153C71.4535 111.447 70.7808 110.74 70.1305 110.034C66.3184 105.966 62.9549 101.859 59.8828 97.6869C59.95 97.6738 60.0173 97.6607 60.0622 97.6345C63.2688 96.0519 62.9773 92.2327 62.5736 90.0353C62.5288 89.7214 61.7888 89.4337 61.3628 89.7476C59.0755 91.4348 58.3355 93.5799 58.4476 95.7118C51.4962 85.9153 46.2938 75.831 42.2575 65.315C42.549 65.0273 42.8405 64.7395 43.1096 64.4518C44.1635 63.9548 44.9484 63.2092 45.2399 62.5422C49.4332 62.2675 53.7161 61.4304 57.3712 60.384C59.4567 59.7824 64.8161 57.088 60.3761 55.937C60.0622 55.8585 59.6137 55.9893 59.7482 56.2248C60.3761 57.3104 61.1609 57.7551 59.4567 58.7229C57.9767 59.5731 55.7567 60.0701 53.8507 60.4887C51.1374 61.1034 48.155 61.6528 45.1726 61.9013C49.0744 61.0642 52.9313 59.6254 55.7343 58.2652C60.3761 56.0155 63.9415 53.2949 64.6591 49.7242C64.7039 49.4888 64.3227 49.3449 63.9864 49.3319C58.4701 49.0179 55.1961 50.4305 52.5725 52.3794C54.5234 49.6981 55.3307 46.7683 54.344 43.7077C54.2768 43.4722 53.6937 43.4068 53.447 43.5638C50.4871 45.3818 48.1102 47.2784 45.9799 49.4365C45.5762 46.559 43.8944 43.7077 41.2035 41.131C41.0017 40.9348 40.5308 40.8956 40.2393 41.0656C36.3824 43.3022 34.9921 46.4544 35.463 49.5673C32.8618 47.4092 29.8345 45.3818 27.7043 43.5899C27.48 43.3937 26.9194 43.2891 26.6279 43.5115C21.8516 46.8598 22.8383 51.66 26.8746 55.2046C22.7037 54.0797 18.1741 53.4257 14.8104 53.2557C14.3171 53.2295 13.9584 53.5565 14.0929 53.8181C17.165 60.3317 27.8836 63.1569 38.5575 63.8501C38.692 63.8632 38.8041 63.8109 38.8714 63.7586C39.006 63.7847 39.1405 63.837 39.2751 63.8501C39.6787 63.8894 40.0599 63.6016 39.7011 63.4185C39.006 63.0523 38.3781 62.5814 37.7502 62.0713C37.7278 61.9798 37.683 61.9013 37.6605 61.8228C38.4678 62.2675 39.2526 62.7384 39.9702 63.2485C39.9926 63.2615 40.0151 63.2746 40.0375 63.2877C40.0375 63.3139 40.0375 63.3269 40.0375 63.3531C40.0375 63.7063 40.4636 63.8894 40.9345 63.9155C41.0017 64.0725 41.0466 64.2294 41.0914 64.3864C41.0017 64.491 40.9344 64.5957 40.8447 64.7003C40.8223 64.7134 40.7999 64.7265 40.7999 64.7395V64.7526C40.7775 64.7788 40.7551 64.8049 40.7551 64.818C40.4411 65.2104 40.9793 65.5635 41.5175 65.5635C43.289 70.5076 45.2623 75.3863 47.5944 80.1864C47.5496 80.1734 47.5047 80.1472 47.4374 80.1472C44.1859 80.1472 40.8896 78.6038 40.8223 76.655C41.8314 77.0474 42.7284 77.5052 43.5581 78.0283C44.4999 78.63 45.195 79.4017 46.3386 79.8987C46.6974 80.0557 47.1683 79.7941 47.0562 79.5717C46.675 78.7477 45.5314 78.0676 44.5671 77.4398C43.4235 76.6942 42.0781 76.0664 40.5532 75.5955C40.1944 75.4909 39.6339 75.5694 39.5666 75.831C38.7818 78.473 42.8405 80.9843 47.415 80.6442C47.572 80.6312 47.6841 80.5788 47.7514 80.5134C51.3392 87.8903 55.7567 95.0971 61.5197 102.108C58.6494 99.9496 55.7792 97.7653 52.7968 95.6072C41.6969 84.3719 25.5964 73.699 1.62514 73.4767C1.15424 73.4767 1.04211 73.8952 1.51301 73.9606C13.7341 75.5171 23.9594 77.2043 33.6242 82.1353C39.2751 85.0128 43.715 88.5443 47.8859 92.1804C35.5975 83.8095 21.5152 76.5242 2.14088 74.3007C1.73725 74.2483 1.58028 74.5753 1.96149 74.6538C16.5147 77.8975 28.2649 81.4421 39.5217 87.8511C44.2308 90.5324 48.5138 93.4622 52.6846 96.4574C52.7295 96.4966 52.7743 96.5359 52.8192 96.5751C46.8544 92.9128 38.3108 91.1209 30.6643 88.9105C18.7347 85.4575 9.89958 79.7156 0.616032 74.3268C0.279671 74.1306 -0.213648 74.4184 0.100288 74.6277C6.87235 79.0485 13.8911 83.2601 22.0983 86.7654C31.8527 90.9247 43.4684 93.0044 53.0658 97.3991C53.2901 97.5037 53.5592 97.4645 53.6713 97.3599C53.7386 97.4253 53.8283 97.5037 53.918 97.5691C54.0077 97.6607 54.1646 97.6607 54.2992 97.6345C57.2591 99.7796 60.1743 101.951 63.1118 104.083C70.3099 112.441 77.9565 120.393 84.2801 128.698C82.0601 127.09 78.248 125.795 74.9741 125.703C74.3463 125.69 74.0323 126.096 74.3014 126.396C76.2523 128.502 80.468 130.477 84.7286 130.425C85.0874 130.425 85.2443 130.255 85.1995 130.085C85.2219 130.085 85.2443 130.072 85.2668 130.072C88.4958 134.44 91.3885 138.914 93.5861 143.622C91.6352 146.081 89.9534 148.605 88.4285 151.182C88.9443 149.024 88.6079 146.565 85.6928 145.139C85.2892 144.943 84.5492 144.982 84.4147 145.336C83.6747 147.441 84.4371 150.476 87.2625 152.072C87.2849 152.189 87.3074 152.32 87.3522 152.438C87.3746 152.516 87.4867 152.555 87.5989 152.569C85.8722 155.695 84.4371 158.899 83.3383 162.169C82.9571 163.333 82.6207 164.497 82.3068 165.674C82.6432 163.032 82.7777 160.377 82.7329 157.696C82.6432 151.418 78.8759 145.99 77.0147 139.894C76.8802 139.437 75.6693 139.476 75.4899 139.894C70.4445 152.098 73.4493 164.497 80.7819 176.151C80.3783 186.209 82.845 196.333 86.9934 206.09C80.6698 199.38 71.3414 193.35 62.2821 187.805C62.0579 186.444 61.7664 185.084 61.4748 183.737C63.9863 179.682 68.0227 175.262 65.0178 171.076C64.7488 170.723 64.0088 170.71 63.7621 171.076C62.8651 172.332 61.6991 173.47 60.6228 174.647C60.7797 172.384 60.7797 170.121 60.9367 167.963C60.9591 167.688 60.4209 167.414 59.95 167.532C54.3664 168.853 52.0119 172.279 52.2137 175.732C49.0744 173.26 44.769 171.233 40.1272 169.873C39.6787 169.742 39.1405 169.899 39.1405 170.2C39.0284 172.946 41.1587 175.759 43.3338 178.204C43.1768 178.139 42.9975 178.061 42.8405 177.995C39.9702 176.805 33.8484 174.686 30.4624 176.504C25.5964 179.094 30.8212 181.435 36.8533 182.926C35.9115 182.913 35.0369 182.939 34.2745 182.978C27.5025 183.345 26.9194 186.654 29.3861 189.727C29.6552 190.068 30.4624 189.989 30.7764 189.727C35.3957 185.856 47.9083 187.321 54.5907 187.962C55.0616 188.001 55.1961 187.661 54.7701 187.556C48.2671 185.961 35.8666 185.267 30.3279 188.59C29.4982 187.308 28.9152 185.869 30.7315 184.796C32.503 183.737 35.9787 183.894 38.266 183.999C43.2217 184.234 47.0338 185.686 51.5859 186.536C51.698 186.562 51.8101 186.549 51.8998 186.523C54.1422 187.282 56.564 187.87 58.8512 187.975L58.941 188.132C59.1876 188.537 59.9949 188.55 60.3985 188.328C60.5555 188.433 60.8022 188.485 61.0488 188.485C61.1385 188.681 61.1833 188.89 61.273 189.087C61.4524 189.492 62.6409 189.427 62.5736 188.982C62.5736 188.917 62.5512 188.838 62.5288 188.773C67.1481 191.807 71.5881 194.946 75.7814 198.164C80.8941 202.101 84.594 206.509 89.1237 210.629C89.2807 210.956 89.4376 211.283 89.5946 211.61C90.5364 213.532 91.6128 215.429 92.734 217.312C81.6789 207.346 63.6276 197.418 45.3744 197.641C44.6568 197.654 44.2981 198.151 44.7914 198.465C52.9089 203.513 58.3803 210.511 67.8657 214.788C75.6917 218.319 85.7153 220.36 93.3843 223.996C94.8194 225.068 96.2545 226.128 97.7345 227.187C97.9587 227.344 98.34 227.148 98.2054 226.978C98.026 226.769 97.8242 226.572 97.6224 226.376C98.3848 226.886 99.1248 227.423 99.7975 227.998C102.758 232.157 105.83 236.264 108.7 240.424C108.139 240.241 107.579 240.057 107.018 239.861C105.74 238.527 103.744 237.298 102.062 236.186C100.201 234.943 98.0036 233.675 95.2006 233.243C94.5952 233.151 93.8552 233.492 94.1243 233.871C96.5461 237.442 103.004 240.437 109.373 241.418C113.723 247.84 117.512 254.38 119.531 261.351C119.441 262.528 119.306 263.692 119.172 264.856C117.983 261.926 115.584 259.023 111.525 258.016C110.763 257.833 110.09 258.133 110.202 258.604C111.122 262.332 112.714 267.328 118.544 269.578C116.817 280.996 113.297 292.336 107.96 303.886C107.758 304.317 108.812 304.461 109.081 304.069C114.866 295.763 118.566 287.196 120.719 278.459C126.841 275.516 132.828 269.931 131.819 265.393C131.752 265.079 131.169 264.752 130.608 264.987C125.765 266.936 124.217 270.01 121.885 272.9C123.186 265.393 123.455 257.78 122.984 250.116C127.402 247.12 128.926 242.804 130.092 239.05C130.205 238.684 129.554 238.279 128.904 238.527C127.671 238.998 124.531 241.81 122.491 244.452C122.423 243.903 122.379 243.34 122.311 242.791C123.388 235.65 124.823 228.574 126.594 221.55C135.205 215.952 142.157 209.504 149.512 203.356C160.208 194.449 170.59 185.791 178.349 175.85C178.64 175.484 178.17 175.013 177.407 175.131C156.172 178.649 141.237 188.93 132.783 200.688C134.577 195.509 136.55 190.342 138.658 185.189C138.681 185.228 138.681 185.267 138.703 185.307C138.77 185.49 139.286 185.49 139.376 185.307C139.735 184.326 139.914 183.266 139.892 182.194C141.147 179.198 142.47 176.203 143.838 173.208C148.368 171.9 152.651 169.441 154.579 166.93C154.871 166.551 154.4 166.184 153.705 166.263C150.723 166.59 147.942 167.78 145.744 169.18C146.731 167.074 147.695 164.981 148.749 162.875C148.772 162.875 148.772 162.875 148.794 162.862C151.373 161.881 153.705 160.704 156.015 159.527C155.768 159.736 155.521 159.945 155.319 160.155C155.14 160.338 155.499 160.56 155.813 160.442C156.553 160.168 157.158 159.788 157.719 159.383C164.738 159.553 173.326 156.244 177.788 154.138C178.304 153.89 177.878 153.379 177.25 153.393C172.967 153.471 168.482 154.164 164.155 155.041C169.469 152.516 174.088 149.482 177.407 146.12C177.676 145.846 177.34 145.519 176.802 145.519C170.59 145.414 165.926 147.154 162.092 149.547C163.885 146.16 163.773 142.51 160.903 139.515C160.656 139.267 160.096 139.241 159.737 139.424C155.97 141.399 153.346 144.08 151.754 146.984C151.081 145.44 149.983 143.988 148.323 142.707C147.067 141.752 140.475 138.207 138.591 140.562C136.147 143.635 138.098 147.245 139.981 150.253C136.909 148.906 133.187 148.135 129.935 148.671C129.599 148.723 129.352 148.919 129.33 149.129C129.263 153.968 137.403 159.134 145.924 159.304C146.395 160.233 146.955 161.136 147.561 162.051C147.606 162.117 147.673 162.143 147.763 162.169C147.763 162.208 147.763 162.247 147.763 162.287C147.695 162.378 147.673 162.483 147.695 162.574C146.103 165.426 144.578 168.316 143.053 171.207L143.009 171.246C142.941 171.311 142.919 171.377 142.941 171.442C142.74 171.809 142.56 172.188 142.381 172.554C141.708 172.829 141.058 173.116 140.407 173.417C140.004 173.6 140.452 173.967 140.878 173.901C141.192 173.849 141.484 173.77 141.798 173.705C140.923 175.418 140.026 177.119 139.174 178.845C138.434 177.066 137.178 175.379 135.272 174.084C134.958 173.875 134.286 173.98 134.174 174.254C133.187 176.923 135.048 180.206 137.291 182.717C135.766 185.934 134.308 189.165 132.918 192.409C132.694 190.028 131.707 187.609 129.442 185.777C129.173 185.568 128.523 185.49 128.298 185.777C126.078 188.537 128.321 192.762 131.685 195.103C131.685 195.169 131.707 195.221 131.729 195.286C128.321 203.566 125.451 211.91 123.388 220.307C122.244 221.877 121.011 223.42 119.531 224.898C119.194 225.251 120.114 225.565 120.45 225.212C120.742 224.911 121.011 224.584 121.302 224.284C121.482 224.414 121.818 224.467 122.087 224.31C122.222 224.231 122.334 224.166 122.446 224.087C121.795 227.043 121.257 230.012 120.831 232.968C118.925 222.374 116.1 211.78 113.185 201.342C113.185 201.342 113.207 201.329 113.207 201.316C113.297 201.277 113.342 201.237 113.387 201.185C117.176 198.046 119.732 193.272 117.378 189.806C117.176 189.505 116.436 189.283 115.988 189.597C113.857 191.101 112.22 193.076 111.436 195.129C109.328 187.556 107.242 180.101 105.561 172.803C104.619 168.787 103.699 164.759 102.757 160.743C105.964 158.454 108.027 154.962 107.624 152.098C107.579 151.718 106.727 151.404 106.233 151.758C104.462 152.987 102.645 154.622 101.748 156.335C100.582 151.247 99.4612 146.173 98.3848 141.072C101.524 137.579 105.134 134.231 109.171 131.04C109.328 131.079 109.53 131.105 109.709 131.013C111.525 130.189 114.844 129.954 117.311 130.124C116.436 130.765 115.472 131.327 114.261 131.759C112.377 132.426 110.561 132.295 108.52 132.439C108.005 132.478 107.624 132.91 108.229 133.08C112.377 134.257 117.243 131.929 119.351 130.033C119.62 129.797 119.351 129.457 118.903 129.392C116.391 129.052 112.983 129.195 110.516 129.98C113.588 127.639 116.885 125.376 120.428 123.231C122.468 121.989 124.576 120.798 126.729 119.621C131.303 118.13 136.483 117.149 141.349 116.051C152.875 113.448 163.594 111.747 175.95 111.002C176.465 110.976 176.488 110.531 175.95 110.518C162.719 110.243 150.767 113.068 138.703 115.907C135.788 116.587 132.671 117.241 129.689 118.012C129.734 117.986 129.778 117.973 129.801 117.947C136.461 116.129 142.47 113.631 148.951 111.551C156.62 109.092 165.522 108.713 174.066 108.713C178.461 108.713 199.764 108.229 189.673 111.813C176.757 116.377 165.567 117.725 150.678 117.895C140.923 118.012 132.088 118.797 123.612 121.701C123.253 121.832 123.5 122.198 123.903 122.106C138.21 118.836 152.046 119.137 167.047 118.392C178.282 117.829 188.059 113.251 197.589 110.204C198.194 110.008 198.127 109.367 197.387 109.301C184.874 108.098 172.653 107.17 160.051 108.399C150.229 109.354 142.022 112.99 133.523 116.011C138.927 113.186 144.399 110.387 149.669 107.496C154.826 104.671 160.028 101.964 165.5 99.4657C167.787 99.9234 170.209 100.434 172.631 100.224C173.976 100.107 176.331 99.3872 176.039 98.4062C175.793 97.543 173.842 97.2029 172.631 96.9936C172.339 96.9413 171.958 96.889 171.577 96.8367C174.783 95.5156 178.102 94.26 181.556 93.109C181.735 93.2267 181.982 93.3183 182.296 93.3183C182.565 93.3183 182.811 93.2921 183.08 93.2921C183.91 93.6584 184.852 93.933 185.906 94.1292C186.242 94.1946 186.444 94.1161 186.601 94.0115C186.713 94.0377 186.825 94.0638 186.96 94.0638C187.117 94.0769 187.274 94.09 187.431 94.1031C192.723 99.5572 200.997 104.75 212.411 104.789C213.061 104.789 213.308 104.41 213.084 104.096C211.267 101.624 209.025 99.2433 205.46 97.5691C210.752 97.6476 215.932 96.9675 219.25 95.4633C219.407 95.411 219.385 95.1887 219.25 95.0317ZM131.303 98.3931C131.415 98.2623 131.572 98.1316 131.707 98.0138C132.133 97.6607 132.626 97.3337 133.142 97.0067C133.725 96.6274 134.375 96.2219 135.093 95.8819C134.801 96.6797 134.061 97.3729 133.075 98.0269C132.671 98.3016 132.178 98.537 131.685 98.7594C131.707 98.6155 131.572 98.4455 131.281 98.4585C131.236 98.4585 131.214 98.4585 131.191 98.4716C131.236 98.4455 131.281 98.4324 131.303 98.3931ZM144.085 70.0106C144.556 69.5397 145.027 69.0819 145.543 68.6241C145.565 68.598 150.207 65.8251 150.184 66.8715C150.139 68.9642 149.175 70.9392 147.65 72.8096C145.789 75.1116 142.941 76.7596 139.623 78.1199C142.336 75.9094 143.592 72.9666 144.085 70.0106ZM135.698 68.6241C136.416 67.8655 137.358 66.7538 136.932 67.3293C137.201 67.0415 137.492 66.7669 137.761 66.4791C138.905 65.2627 140.632 64.4779 142.964 64.151C143.009 65.8775 142.919 67.617 142.695 69.3304C142.179 73.2412 139.981 76.0664 135.967 78.63C135.967 78.473 135.99 78.303 135.99 78.146C138.412 75.5694 137.717 72.1033 135.676 69.4482C135.743 69.2389 135.811 69.0427 135.855 68.8334C135.9 68.7288 135.811 68.6634 135.698 68.6241ZM130.788 79.4802C130.496 79.0485 130.182 78.63 129.778 78.2114C129.397 77.806 128.164 78.0937 128.478 78.5253C128.859 79.0878 129.24 79.6502 129.621 80.2126C121.795 78.5384 120.383 68.8203 125.316 65.2104C125.854 66.963 126.975 68.598 128.186 70.2591C130.608 73.5028 131.909 76.1056 130.788 79.4802ZM132.357 80.6573C132.312 80.6704 132.29 80.6966 132.245 80.7096C132.066 80.8012 132.088 80.9189 132.2 81.0235C132.133 81.1805 132.066 81.3505 131.976 81.5206C131.819 81.2851 131.685 81.0366 131.528 80.8012C131.685 80.6966 131.617 80.5004 131.326 80.4611C131.326 80.448 131.303 80.4219 131.303 80.4088C136.394 76.0533 129.577 70.8477 127.2 66.2568C127.289 66.2306 127.379 66.1914 127.424 66.126C128.68 63.7847 135.003 70.4684 135.272 70.9392C136.461 72.9404 136.281 74.8762 135.25 76.7204C134.891 76.6942 134.487 76.7989 134.286 77.0604C133.456 78.2245 132.895 79.4409 132.357 80.6573ZM95.8061 87.6156C95.6715 88.8582 95.1109 90.0223 94.2364 91.1994C93.6758 91.958 92.8685 92.6382 92.1285 93.3183C92.3527 91.2256 93.4964 89.2113 95.8061 87.6156ZM109.395 48.4555C116.974 41.3403 129.038 36.2654 138.726 30.1965C127.783 43.5899 106.973 54.7075 97.0394 68.4149C99.0351 61.3127 102.825 54.616 109.395 48.4555ZM106.345 24.6115C105.291 25.2917 104.462 26.0241 103.767 26.8612C104.439 25.8149 105.202 24.7947 106.233 23.866C106.368 23.8399 106.502 23.8006 106.614 23.7745C106.547 24.0622 106.48 24.3369 106.345 24.6115ZM135.25 20.6746C135.833 20.7792 142.829 23.4213 139.398 23.1728C137.717 23.042 135.945 23.212 134.286 23.3428C126.303 23.9576 119.957 25.6187 112.22 24.1668C117.625 23.1859 122.805 21.8256 127.469 19.9814C127.558 20.0599 127.671 20.1253 127.895 20.1253C130.406 20.086 132.828 20.2691 135.25 20.6746ZM135.945 10.9827C138.277 11.035 137.38 11.2574 136.326 12.3037C135.16 13.494 134.039 14.6842 132.738 15.8221C127.671 20.243 118.185 21.7864 110.023 23.7483C109.978 23.7483 109.933 23.7614 109.911 23.7745C109.866 23.7875 109.821 23.8006 109.776 23.8137C109.619 23.539 109.081 23.4213 108.588 23.4867C108.588 23.4082 108.565 23.3167 108.565 23.2382C115.001 21.1978 120.607 17.2216 123.276 12.9839C126.662 10.9565 131.393 10.878 135.945 10.9827ZM122.849 6.52257C124.442 6.10402 123.051 10.5772 122.917 10.9173C122.087 12.8138 120.383 14.5534 118.589 16.2014C115.988 18.5819 112.602 20.4784 108.722 22.0349C113.005 19.9945 116.705 17.4701 119.576 14.7627C121.056 13.3501 121.885 11.7544 122.154 10.1194C122.356 8.90304 122.558 7.7128 122.849 6.52257ZM111.077 12.4214C111.436 11.205 111.436 10.0148 111.234 8.83764C113.274 6.83648 115.046 4.75683 119.037 3.77587C123.971 2.57255 121.033 6.88879 120.831 7.80436C119.979 11.6759 118.634 14.2264 114.373 17.3263C112.153 18.935 109.485 20.2691 106.861 21.6556C106.861 21.6556 106.861 21.6556 106.839 21.6687C106.009 22.1134 105.202 22.5711 104.394 23.0289C107.579 19.6936 109.933 16.1883 111.077 12.4214ZM87.3073 9.34774C87.0607 7.8436 87.4643 6.26098 87.8904 4.78299C88.72 1.95781 89.2582 1.90549 92.6443 4.48216C99.7303 9.85785 100.605 15.8744 99.3715 22.3488C98.8333 21.5117 98.1157 20.7139 97.0394 19.9945C96.6357 19.7329 95.7836 19.9291 95.8285 20.2822C95.8509 20.4523 95.8957 20.6223 95.9182 20.7923C94.5951 18.5165 92.3752 16.4499 89.6619 14.6188C88.3613 13.01 87.5989 11.2443 87.3073 9.34774ZM92.7564 23.5129C92.734 23.1466 91.7697 23.1466 91.7921 23.5129C91.7921 23.7614 91.8594 24.0099 91.8819 24.2715C89.4152 23.3428 86.9485 22.4403 84.7061 21.3155C81.1407 19.5236 79.7505 16.7115 78.562 14.1741C78.2032 13.4155 77.2165 9.79245 76.1626 9.45238C80.9838 11.0088 85.2668 12.9577 88.8322 15.4166C89.2582 15.7044 89.6395 16.0052 90.0207 16.3061C90.3122 16.5676 90.5813 16.8292 90.8952 17.0777C93.0255 19.0528 94.2812 21.224 95.4024 23.4736C95.1782 23.5521 94.9988 23.696 95.0661 23.866C95.3127 24.4546 95.5818 25.1609 95.9182 25.8541C94.9764 25.4486 93.9897 25.0693 93.0031 24.69C92.8685 24.2976 92.7788 23.9053 92.7564 23.5129ZM99.3715 29.0324C99.1472 28.9932 98.9006 28.954 98.6763 28.9147C97.443 28.6924 96.4339 28.1823 95.5594 27.646C94.6849 27.1097 94.0346 26.4819 93.5637 25.8018C94.5503 26.1157 95.5145 26.4427 96.4115 26.7697C97.0394 27.7376 97.9587 28.6008 99.4163 29.0193C99.4163 29.0063 99.3939 29.0193 99.3715 29.0324ZM99.6181 22.8066C99.9097 22.8851 100.336 22.8327 100.47 22.6235C102.668 18.6604 102.219 14.6057 99.9994 10.8257C100.179 9.13847 100.448 7.46429 101.121 5.81627C101.188 5.63316 107.063 0.139759 107.489 2.37636C107.668 3.29192 108.139 4.29905 108.498 5.18846C110.987 11.4274 107.646 16.2799 103.901 21.6817C103.879 21.5771 103.856 21.4855 103.834 21.3809C103.632 20.8446 102.174 20.8446 101.973 21.3809C101.479 22.6889 101.031 24.0099 100.65 25.3309C100.381 24.4677 100.067 23.6175 99.6181 22.8066ZM99.7751 40.6601C100.672 39.7707 101.816 38.8552 103.161 38.2143C102.399 39.7707 100.829 41.0263 99.4387 42.3866C99.5509 41.8111 99.663 41.2356 99.7751 40.6601ZM86.6122 102.134C88.6079 103.86 89.0564 105.835 89.8637 107.85C88.4285 106.019 87.2401 104.122 86.6122 102.134ZM90.1328 80.3172C89.9534 80.0164 89.7516 79.7156 89.5722 79.4017C88.9667 78.3292 88.2716 77.1651 88.0249 76.0141C89.5273 76.3018 90.0879 77.1651 90.357 78.146C90.2673 78.8654 90.2 79.5848 90.1328 80.3172ZM94.3261 119.569C94.9091 118.562 95.8285 117.594 96.86 116.901C97.1739 118.771 95.963 120.328 94.7297 121.949C94.5951 121.138 94.4606 120.354 94.3261 119.569ZM61.4748 50.0512C64.7263 49.9074 61.3179 53.2557 60.5106 54.0405C58.8288 55.6493 56.2725 56.9572 53.7386 58.0951C51.0925 59.2723 48.2223 60.0178 45.3071 60.711C45.4865 60.1879 45.5986 59.6516 45.6435 59.1153C51.0253 55.9893 52.7295 50.4436 61.4748 50.0512ZM45.9126 49.9466C46.092 49.9858 46.3162 49.9858 46.4283 49.855C47.4598 48.861 53.2228 43.0929 53.6713 46.0227C54.0077 48.3509 52.6622 50.6136 50.9356 52.6671C49.4107 54.4721 47.258 55.9632 44.9483 57.3888C44.612 57.3627 44.2532 57.4281 44.029 57.6112C44.029 57.2319 44.0514 56.8395 44.0514 56.4602C45.5762 54.3544 46.1144 52.157 45.9126 49.9466ZM15.7747 54.2236C22.4571 54.7075 29.2067 56.5256 33.6018 59.4946C33.3103 59.6647 33.1757 59.9263 33.4224 60.1355C34.2745 60.9072 35.6648 62.346 37.2345 63.1962C28.1527 62.1629 18.9365 59.547 15.7747 54.2236ZM37.8848 58.239C37.5709 58.9191 37.6157 59.56 37.8175 60.2009C37.7727 60.2794 37.7278 60.371 37.6605 60.4494C37.3018 60.2925 36.943 60.1486 36.5618 60.0047C36.3375 59.7432 36.0684 59.4946 35.7769 59.2461C35.8666 59.1284 35.8218 58.9584 35.5527 58.893C35.4181 58.8537 35.2836 58.8145 35.1491 58.7753C33.6466 57.6766 31.5836 56.7479 29.2515 55.9632C27.8164 54.8776 26.6728 53.6481 25.8207 52.3794C24.991 51.1761 24.6995 49.8812 24.6322 48.5863C24.5649 47.6446 25.6861 43.4722 27.9285 45.251C30.6418 47.3961 33.7812 49.515 35.9787 51.7908C36.4945 52.9941 37.3242 54.1451 38.3557 55.2046C38.692 56.0416 38.8266 56.918 38.7145 57.8205C38.3333 57.8597 37.9969 57.9905 37.8848 58.239ZM40.4187 58.9322C40.3514 58.8407 40.2617 58.7491 40.1945 58.6706C40.486 57.9513 40.5533 57.2319 40.4411 56.5125C40.5084 56.4602 40.5308 56.3948 40.4411 56.3163C40.4187 56.3032 40.4187 56.2902 40.3963 56.2771C40.0599 54.4329 38.6472 52.6148 36.7636 50.8622C36.0684 48.3509 36.5393 45.7219 38.4229 43.4591C41.652 39.5484 44.4326 48.0239 44.6793 49.4496C45.0381 51.5423 44.2532 53.4911 43.1544 55.4007C42.7956 55.3746 42.4368 55.4269 42.235 55.6493C41.2932 56.6956 40.755 57.7943 40.4187 58.9322ZM61.0936 91.4218C61.0936 92.2719 61.0264 93.1221 60.8022 93.9723C60.6003 94.7309 60.107 95.4502 59.7034 96.1827C59.6585 94.5347 59.8379 92.8867 61.0936 91.4218ZM74.3463 114.036C73.4493 112.558 73.1802 110.976 73.6063 109.419C75.0638 110.793 74.5929 112.427 74.3463 114.036ZM76.5214 126.776C79.3244 127.233 81.1183 128.607 83.4729 129.562C80.7371 128.986 78.2705 128.136 76.5214 126.776ZM85.5807 146.447C86.8813 147.546 86.9037 148.946 86.9485 150.332C85.9843 149.116 85.4013 147.808 85.5807 146.447ZM80.0195 170.854C79.1674 166.171 77.7323 161.567 77.9565 156.832C77.9789 156.427 76.9026 156.427 76.9026 156.832C76.6335 162.064 77.8668 167.348 79.6832 172.462C79.7056 172.502 79.728 172.528 79.7729 172.541C79.7504 172.633 79.7504 172.724 79.728 172.816C74.8396 162.954 72.799 152.765 75.9384 142.537C75.9608 142.497 78.5171 147.258 78.562 147.376C80.3335 150.737 80.7595 154.19 80.9838 157.683C81.2977 162.077 80.6698 166.472 80.0195 170.854ZM55.8016 170.54C57.0125 169.258 59.2773 167.95 59.1204 170.278C59.0082 171.809 58.8961 173.339 58.7616 174.856C58.5822 176.7 58.1561 178.518 57.7749 180.336C57.73 180.31 57.7076 180.284 57.6628 180.245C57.1694 179.931 56.3846 180.206 56.3398 180.559C56.3398 180.611 56.3398 180.65 56.3398 180.703C55.8016 179.525 54.9943 178.414 53.9628 177.354C53.3349 175.026 53.8507 172.58 55.8016 170.54ZM56.25 184.313C56.1155 184.313 55.981 184.352 55.9137 184.417C55.4652 184.116 55.0168 183.816 54.5234 183.528C54.1871 182.926 54.0301 182.298 53.9852 181.67C54.5683 182.076 55.0392 182.494 55.4876 182.939C55.7119 183.384 55.981 183.855 56.25 184.313ZM40.3963 170.88C44.4102 172.214 47.9308 173.875 50.6665 176.086C51.4962 176.753 52.1465 177.459 52.7071 178.178C53.0434 178.989 53.5368 179.761 54.1422 180.493C54.0301 180.428 53.918 180.349 53.8058 180.284C53.2901 180.009 52.5725 180.219 52.5277 180.598C52.438 181.226 52.4604 181.906 52.6174 182.56C51.8774 182.22 51.115 181.906 50.2853 181.618C48.895 180.69 47.1235 179.879 45.4641 179.146C44.8586 178.466 44.3653 177.851 44.0065 177.433C42.3472 175.484 40.6429 173.116 40.3963 170.88ZM46.2938 183.855C44.5672 183.489 42.6835 183.253 40.8447 183.096C39.3199 182.769 37.8399 182.39 36.4721 182.024C34.7006 181.54 33.0188 180.951 31.5612 180.206C29.0721 178.963 29.857 177.04 33.243 176.779C37.3018 176.465 41.8987 178.741 44.7465 180.127C44.9932 180.245 45.2174 180.389 45.4417 180.519C46.5629 181.566 48.0429 182.612 49.7919 183.044C50.0386 183.188 50.2853 183.345 50.5319 183.502C50.7113 183.632 50.8459 183.776 51.0253 183.92C49.7247 183.698 48.3568 183.58 46.8992 183.632C46.6526 183.632 46.4283 183.737 46.2938 183.855ZM49.1641 184.535C50.7338 184.679 52.1913 185.019 53.604 185.477C54.5458 185.934 55.5549 186.34 56.721 186.641C56.9452 186.693 57.147 186.693 57.3264 186.654C57.5507 186.68 57.7525 186.654 57.9543 186.588C58.0888 186.837 58.2234 187.072 58.3579 187.321C55.1737 186.824 51.855 185.699 49.1641 184.535ZM59.6137 186.235C59.4118 185.882 59.21 185.516 58.9858 185.163C58.6943 184.587 58.47 184.012 58.2682 183.436C58.3803 183.24 58.4925 183.044 58.5822 182.835C59.0979 183.554 59.4343 184.326 59.6585 185.123C59.6361 185.15 59.6361 185.189 59.6137 185.215C59.5688 185.32 59.6361 185.398 59.7482 185.45C59.8155 185.777 59.8828 186.104 59.9276 186.431C59.8379 186.366 59.7258 186.301 59.6137 186.235ZM60.6676 180.323C60.6003 180.009 60.0173 179.918 59.681 180.036C60.0397 178.754 60.2415 177.433 60.3761 176.112C60.3985 176.099 60.4209 176.112 60.4434 176.099C62.3494 175.105 63.5155 173.862 64.3003 172.489C65.5336 175.719 63.1118 179.225 61.1161 182.455C60.9591 181.762 60.8245 181.043 60.6676 180.323ZM96.6357 234.747C98.9678 235.532 100.582 236.879 102.242 238.174C100.022 237.245 98.026 236.16 96.6357 234.747ZM112.086 259.507C116.257 261.351 116.436 265.222 117.826 268.244C114.328 265.85 112.916 262.607 112.086 259.507ZM127.514 240.947C126.348 243.563 124.778 246.048 122.715 248.455C122.67 247.866 122.625 247.264 122.58 246.676C123.724 244.936 125.832 242.543 127.514 240.947ZM173.505 154.91C169.155 156.715 163.841 158.284 158.571 158.533C158.84 158.271 159.109 157.997 159.333 157.735C159.49 157.565 159.311 157.369 159.064 157.29C163.908 156.741 168.751 155.747 173.505 154.91ZM175.367 146.369C172.631 148.932 169.379 151.169 165.455 153.17C163.235 154.308 160.791 155.276 158.414 156.309C157.36 156.558 156.329 156.806 155.319 157.042C154.849 157.159 154.849 157.63 155.409 157.63C154.871 157.866 154.355 158.114 153.839 158.376C153.503 158.337 153.167 158.284 152.808 158.219C153.144 157.84 153.481 157.46 153.75 157.055C156.777 155.538 159.221 153.523 160.858 151.326C164.715 148.645 169.312 146.513 175.367 146.369ZM159.602 140.627C160.791 139.881 162.002 145.205 161.935 144.721C162.181 146.748 160.903 148.841 159.558 150.672C158.324 152.32 156.553 153.693 154.602 154.988C154.647 154.779 154.736 154.583 154.759 154.374C154.804 153.89 153.615 153.576 153.077 153.968C152.898 154.086 152.718 154.217 152.561 154.334C152.584 153.942 152.629 153.549 152.561 153.144C152.539 152.987 152.427 152.882 152.292 152.791C152.516 151.47 152.516 150.123 152.225 148.789C153.57 145.715 156.059 142.837 159.602 140.627ZM131.214 151.143C130.361 149.547 130.922 149.233 133.68 149.547C135.541 149.756 137.268 150.489 138.703 151.143C139.802 151.653 140.744 152.242 141.618 152.869C142.381 153.876 143.3 154.897 144.399 155.786C144.623 156.715 144.982 157.617 145.386 158.507C138.95 157.526 133.254 154.988 131.214 151.143ZM141.977 151.378C140.318 149.116 139.241 146.696 138.77 144.459C138.569 143.544 138.479 139.96 142.269 141.085C145.901 142.157 148.211 143.988 149.579 146.16C150.207 147.141 150.498 148.148 150.655 149.181C150.095 150.737 149.848 152.32 149.893 153.876C149.691 154.138 149.489 154.413 149.332 154.687C149.041 153.916 148.637 153.157 148.054 152.412C147.763 152.032 146.619 152.215 146.686 152.621C146.978 154.086 147.606 155.525 148.166 156.963C147.449 156.545 146.798 156.087 146.17 155.603C146.17 155.577 146.193 155.551 146.193 155.511C145.655 154.112 144.085 152.621 141.977 151.378ZM146.776 159.331C146.978 159.331 147.202 159.331 147.404 159.318C147.449 159.318 147.493 159.291 147.516 159.291C147.83 159.867 148.121 160.455 148.435 161.044C148.323 161.266 148.189 161.489 148.076 161.711C147.606 160.926 147.157 160.128 146.776 159.331ZM144.489 171.56C144.578 171.521 144.668 171.495 144.735 171.468C145.072 171.351 145.049 171.128 144.847 170.998C146.821 169.598 149.31 168.172 152.158 167.505C150.207 169.336 147.359 170.54 144.421 171.73C144.421 171.665 144.444 171.612 144.489 171.56ZM135.183 175.523C136.82 177.093 137.358 178.793 137.627 180.559C136.573 178.911 135.183 177.289 135.183 175.523ZM128.926 186.942C130.922 188.982 131.124 191.349 131.371 193.691C129.509 191.65 128.007 189.047 128.926 186.942ZM128.343 214.709C130.586 211.309 132.895 207.921 136.124 204.743C142.964 198.033 152.113 192.226 157.965 185.163C158.212 184.862 157.495 184.613 157.203 184.901C150.207 191.559 142.403 197.863 135.205 204.429C132.783 206.626 130.967 208.967 129.308 211.348C129.958 209.164 130.631 206.979 131.326 204.795C138.927 192.435 153.369 181.082 174.649 176.609C174.649 176.609 167.967 185.503 166.935 186.536C162.63 190.905 157.696 195.038 152.629 199.119C144.085 206.011 135.967 212.996 126.975 219.666C127.402 218.018 127.872 216.37 128.343 214.709ZM121.347 275.058C124.15 272.168 125.406 268.348 129.958 266.36C129.285 270.363 125.047 273.423 121.033 276.549C121.145 276.052 121.257 275.555 121.347 275.058ZM83.5177 182.272C84.8631 180.127 85.9619 177.995 87.9352 176.033C88.0025 178.348 85.3565 180.441 83.5401 182.586C83.5401 182.481 83.5401 182.377 83.5177 182.272ZM94.7521 223.787C91.6128 221.079 87.8904 218.581 84.1904 216.174C78.7862 212.656 71.633 210.367 66.296 206.862C65.9373 206.626 65.3766 206.966 65.713 207.202C70.3099 210.498 76.7232 212.604 81.6341 215.716C84.6837 217.665 87.4867 219.706 90.2673 221.759C87.3074 220.595 84.1231 219.575 81.0959 218.594C68.3142 214.409 61.0264 209.177 52.5052 202.375C49.5228 199.995 43.6029 197.745 53.3349 199.158C61.1161 200.283 68.2469 203.919 74.0547 206.888C83.6746 211.806 90.4691 217.43 96.6582 223.682C97.1291 224.362 97.6 225.042 98.0709 225.735C97.0618 225.042 95.9406 224.401 94.7521 223.787ZM97.6 221.288C97.0394 214.382 94.9539 207.555 95.963 200.61C96.0079 200.387 95.4249 200.4 95.38 200.61C94.1691 206.561 94.6624 212.525 95.7836 218.463C94.6848 216.711 93.6534 214.932 92.7115 213.153C92.8012 213.087 92.8685 212.996 92.8237 212.891C90.2449 205.959 89.191 199.511 91.8594 192.54C93.3394 188.707 95.6491 185.058 97.5103 181.317C97.9139 186.261 100.044 191.415 99.9769 196.202C99.8424 204.913 98.9454 213.571 98.2503 222.256C98.0036 221.942 97.8018 221.615 97.6 221.288ZM116.145 191.035C117.378 194.057 114.687 196.673 112.534 199.38C111.727 196.568 113.386 193.324 116.145 191.035ZM105.717 153.536C105.493 154.583 105.045 155.603 104.372 156.623C103.789 157.513 102.982 158.35 102.287 159.213C102.264 159.108 102.242 159.004 102.219 158.899C102.578 157.042 103.767 155.08 105.717 153.536ZM100.605 161.79C103.722 175.183 107.422 188.55 110.853 201.944C110.853 201.97 110.83 201.983 110.83 202.009C110.785 202.114 110.853 202.205 110.942 202.284C112.243 207.411 113.521 212.551 114.687 217.691C112.803 215.716 109.933 214.016 106.525 213.271C106.031 213.166 105.471 213.441 105.493 213.728C105.717 217.024 109.799 220.19 115.382 220.831C116.302 225.055 117.176 229.28 117.939 233.518C119.127 240.162 119.688 246.689 119.71 253.137C115.27 242.647 105.314 232.511 98.6763 222.91C98.6763 222.897 98.6763 222.897 98.6539 222.884C98.8557 222.884 99.0575 222.832 99.1024 222.701C101.614 216.632 101.322 210.328 101.457 204.115C101.591 197.183 102.309 190.238 100.291 183.371C100.515 181.644 99.9769 180.075 98.7436 178.636C99.1921 177.524 99.6181 176.413 99.9096 175.275C100.067 174.673 98.5418 174.385 98.2951 175.013C97.9812 175.837 97.757 176.661 97.6224 177.511C97.0394 179.185 96.3218 180.82 95.4697 182.455C93.4964 186.601 91.0297 190.604 89.4601 194.815C88.1146 198.465 88.3837 202.31 89.3479 206.064C86.388 199.092 84.5043 191.977 83.7419 184.823C85.491 183.332 86.7243 181.461 87.8904 179.852C89.1013 178.191 90.1776 176.321 89.3031 174.516C89.0788 174.071 88.1595 174.058 87.7334 174.398C85.8722 175.902 84.4595 177.655 83.4055 179.46C83.3607 177.027 83.4056 174.594 83.6298 172.175C84.4819 162.914 88.2043 154.007 94.4382 145.741C94.7073 146.408 94.9988 147.088 95.2679 147.768C95.3576 148.043 96.1648 147.978 96.12 147.703C95.963 146.644 95.7163 145.584 95.4248 144.538C95.7612 144.119 96.0751 143.714 96.4115 143.308C97.7345 149.456 99.1697 155.629 100.605 161.79ZM114.62 220.033C110.808 219.156 107.937 216.881 107.265 214.539C110.83 215.69 112.714 217.927 114.62 220.033ZM114.754 110.217C111.503 102.657 111.211 95.6988 110.202 88.008C110 86.4515 109.799 86.1245 108.947 85.1567C110.449 86.8701 113.611 88.4135 115.831 89.7607C126.662 96.3397 125.294 105.351 121.526 113.474C121.459 113.618 121.571 113.709 121.728 113.762C121.257 114.52 120.809 115.279 120.316 116.024C122.894 108.883 121.011 100.368 116.302 93.9069C116.145 93.6976 115.629 93.8546 115.696 94.0507C117.423 98.4978 119.284 102.749 119.755 107.326C120.136 111.002 119.015 114.573 118.746 118.222C117.983 119.281 117.154 120.288 116.346 121.308C117.243 117.515 116.436 114.115 114.754 110.217ZM157.405 96.4705C158.436 98.3539 156.485 99.9365 154.804 101.532C154.378 99.7534 155.499 97.87 157.405 96.4705ZM174.111 98.5763C174.38 98.7201 173.864 98.8378 173.483 98.9817C172.653 99.2695 171.846 99.4003 170.859 99.3872C169.402 99.3741 167.967 99.1648 166.531 99.034C167.496 98.6024 168.46 98.1708 169.424 97.7522C169.828 97.7784 170.209 97.7915 170.568 97.8307C171.711 97.9354 173.191 98.1054 174.111 98.5763ZM182.475 91.4087C182.228 91.3825 182.026 91.3956 181.847 91.4348C178.349 89.3944 177.362 86.6347 177.16 83.8226C177.071 82.3315 177.407 80.8404 177.856 79.3886C178.013 78.9308 178.192 78.473 178.394 78.0283C178.461 77.8714 178.349 77.5444 178.237 77.2566C178.304 77.2959 178.326 77.3351 178.394 77.3613C178.797 77.9106 179.291 78.4469 179.851 78.957C180.389 79.4932 181.174 79.8856 181.982 80.2649C181.668 83.9403 182.183 87.6941 182.475 91.4087ZM202.881 84.7904C205.796 83.9664 209.272 83.3255 212.501 83.7833C217.187 84.4373 214.138 86.6347 211.985 87.5371C206.357 89.9045 199.674 90.7547 193.216 91.9188C193.059 91.7357 192.768 91.6179 192.319 91.6441C191.31 91.7226 190.278 91.7749 189.269 91.8403C190.862 91.291 192.229 90.5716 193.194 89.5906C193.53 89.2505 193.126 88.8059 192.521 88.7405C193.081 88.4135 193.665 88.1126 194.292 87.8118C194.696 87.6418 195.077 87.4587 195.458 87.2886C197.903 86.2684 200.616 85.4313 202.881 84.7904ZM193.799 82.3838C195.032 81.0366 196.58 79.8202 198.418 78.7477C199.069 78.3684 206.177 76.0926 205.774 77.1912C203.598 82.9855 196.041 85.7976 188.709 89.0674C190.256 86.8178 191.826 84.5419 193.799 82.3838ZM183.417 90.2838C183.282 85.4052 182.699 80.5396 184.022 75.7002C184.045 75.6348 186.175 70.8084 187.431 71.8417C189.269 73.372 190.57 75.007 191.579 76.7858C193.328 79.8987 191.265 82.7239 188.821 85.4052C188.552 85.3267 188.193 85.3267 187.924 85.4967C185.973 86.7524 184.471 88.4135 183.753 90.14C183.663 90.1923 183.551 90.2315 183.417 90.2838ZM185.143 91.6703C185.076 91.5787 184.942 91.5264 184.762 91.5133C184.785 91.4218 184.807 91.3433 184.829 91.2517C186.197 91.0948 187.52 90.8855 188.821 90.637C187.722 91.0817 186.444 91.4087 185.143 91.6703ZM210.976 103.9C201.109 103.507 193.754 98.9294 188.462 94.26C188.754 94.2862 189.068 94.3123 189.359 94.3254C192.566 96.1958 197.858 97.2814 203.284 97.5691C206.469 99.5049 209.003 101.48 210.976 103.9ZM202.41 96.2743C198.284 95.9473 194.696 95.0579 191.243 93.8545C191.265 93.7368 191.243 93.606 191.153 93.5014C193.911 93.1875 196.759 92.5989 199.45 91.958C206.401 91.5264 214.362 92.0365 217.636 94.9271C219.049 96.1827 203.621 96.3789 202.41 96.2743Z" fill="#DBC0AD"/>
<path d="M154.355 191.062C150.364 193.416 147.314 196.411 144.578 199.276C144.354 199.498 144.937 199.694 145.161 199.472C148.166 196.686 152.315 194.24 154.938 191.324C155.14 191.101 154.647 190.879 154.355 191.062Z" fill="#DBC0AD"/>
<path d="M62.4167 203.436C62.0803 203.266 61.587 203.554 61.9234 203.724C64.6591 205.097 67.193 206.601 69.996 207.909C70.3099 208.053 70.7136 207.831 70.4445 207.647C68.1572 206.026 65.1524 204.796 62.4167 203.436Z" fill="#DBC0AD"/>
<path d="M93.6085 164.745C94.214 167.766 96.5237 171.964 101.748 173.286C101.883 173.377 101.995 173.495 102.152 173.573C102.399 173.691 102.892 173.626 102.847 173.403C102.847 173.377 102.825 173.351 102.825 173.325C102.982 173.181 103.004 172.985 102.713 172.893C102.69 172.893 102.69 172.88 102.668 172.88C102.197 171.481 100.896 170.055 99.9545 168.773C98.7661 167.138 97.2861 165.595 94.9315 164.431C94.5055 164.195 93.5188 164.313 93.6085 164.745ZM98.7212 169.61C99.1697 170.251 99.5509 170.997 100.067 171.69C97.6897 170.251 96.277 168.132 95.5819 166.157C96.9273 167.19 97.8691 168.381 98.7212 169.61Z" fill="#DBC0AD"/>
<path d="M33.5345 85.4834C30.3279 83.8093 26.1794 82.946 22.5467 81.6642C22.0534 81.4811 21.5825 81.9389 22.0982 82.122C25.7085 83.4169 29.543 84.5155 33.1981 85.745C33.4672 85.8366 33.7812 85.6142 33.5345 85.4834Z" fill="#DBC0AD"/>
<path d="M107.197 28.8356C105.942 29.398 104.484 29.9343 102.87 30.052C102.062 30.1174 102.017 30.7844 102.87 30.8106C104.596 30.8629 105.964 30.6144 107.467 30.1043C108.588 29.725 110.337 29.071 110.606 28.2862C110.673 28.0901 110.449 27.8808 110.068 27.8808C108.902 27.8939 108.094 28.4432 107.197 28.8356Z" fill="#DBC0AD"/>
<path d="M37.952 65.7716C38.3108 65.5624 38.0193 65.2746 37.5708 65.2484C36.6515 65.183 35.7545 65.3138 34.8351 65.2092C33.8036 65.0915 32.7945 64.7383 32.0097 64.359C31.5163 64.1236 30.8661 64.4898 31.2921 64.7776C32.7272 65.7193 35.9563 66.9749 37.952 65.7716Z" fill="#DBC0AD"/>
<path d="M185.457 95.593C184.426 95.2399 183.596 94.7167 183.08 94.0889C182.811 93.7619 181.847 93.9973 182.071 94.3374C182.542 95.0698 183.17 95.7107 184.202 96.2208C185.121 96.6655 186.578 97.2541 187.834 97.0187C188.126 96.9664 188.328 96.744 188.148 96.574C187.543 96.0508 186.354 95.9069 185.457 95.593Z" fill="#DBC0AD"/>
<path d="M46.1144 73.7263C46.0696 73.9356 46.6078 74.001 46.7872 73.8309C48.8502 71.7251 49.2314 69.0438 48.3569 66.7026C48.2447 66.4279 47.6169 66.3625 47.3029 66.5456C44.926 67.8667 43.7824 70.6264 45.1726 72.4053C45.4193 72.7192 46.3387 72.4968 46.1369 72.1698C45.2847 70.8488 45.8453 68.9523 47.2805 67.7097C47.5271 69.7501 46.4957 71.6728 46.1144 73.7263Z" fill="#DBC0AD"/>
<path d="M97.017 40.0845C97.0618 40.3461 97.6673 40.3461 97.7121 40.0845C97.8018 39.7052 97.8915 39.1689 97.9364 38.5542C98.1606 38.4888 98.3176 38.3188 98.0933 38.1749C98.0485 38.1487 98.0261 38.1226 97.9812 38.0964C98.0933 35.6767 97.4206 32.4984 93.1377 32.8123C92.8461 32.8384 92.5322 32.9431 92.5546 33.1523C92.7564 35.1273 94.5952 36.7492 96.86 38.1356C96.9273 38.9466 96.9273 39.6529 97.017 40.0845ZM93.7655 33.5055C95.9631 33.6624 96.5685 35.5328 96.7927 37.2986C95.2679 36.1868 94.0346 34.9312 93.7655 33.5055Z" fill="#DBC0AD"/>
</svg>
